%TF.GenerationSoftware,KiCad,Pcbnew,(5.1.9)-1*%
%TF.CreationDate,2021-09-01T00:43:14-05:00*%
%TF.ProjectId,z80,7a38302e-6b69-4636-9164-5f7063625858,A*%
%TF.SameCoordinates,Original*%
%TF.FileFunction,Soldermask,Top*%
%TF.FilePolarity,Negative*%
%FSLAX46Y46*%
G04 Gerber Fmt 4.6, Leading zero omitted, Abs format (unit mm)*
G04 Created by KiCad (PCBNEW (5.1.9)-1) date 2021-09-01 00:43:14*
%MOMM*%
%LPD*%
G01*
G04 APERTURE LIST*
%TA.AperFunction,Profile*%
%ADD10C,0.150000*%
%TD*%
%ADD11O,1.600000X1.600000*%
%ADD12R,1.600000X1.600000*%
%ADD13C,2.100000*%
%ADD14C,1.600000*%
%ADD15C,1.879600*%
%ADD16C,5.080000*%
%ADD17C,1.500000*%
%ADD18R,1.500000X1.500000*%
%ADD19C,3.650000*%
%ADD20R,1.879600X1.879600*%
%ADD21C,2.181860*%
%ADD22C,1.948180*%
%ADD23C,1.400000*%
%ADD24O,1.400000X1.400000*%
%ADD25C,3.200000*%
%ADD26O,1.700000X1.700000*%
%ADD27R,1.700000X1.700000*%
%ADD28R,1.200000X1.200000*%
%ADD29C,1.200000*%
%ADD30C,1.397000*%
%ADD31R,1.397000X1.397000*%
%ADD32R,1.500000X0.900000*%
%ADD33O,1.500000X0.900000*%
%ADD34O,1.800000X1.800000*%
%ADD35R,1.800000X1.800000*%
%ADD36O,3.500000X3.500000*%
%ADD37C,2.000000*%
G04 APERTURE END LIST*
D10*
X17780000Y-43180000D02*
X17780000Y-152400000D01*
X317500000Y-152400000D02*
X317500000Y-43180000D01*
X17780000Y-152400000D02*
X317500000Y-152400000D01*
X317500000Y-43180000D02*
X17780000Y-43180000D01*
D11*
X227330000Y-72390000D03*
X245110000Y-80010000D03*
X229870000Y-72390000D03*
X242570000Y-80010000D03*
X232410000Y-72390000D03*
X240030000Y-80010000D03*
X234950000Y-72390000D03*
X237490000Y-80010000D03*
X237490000Y-72390000D03*
X234950000Y-80010000D03*
X240030000Y-72390000D03*
X232410000Y-80010000D03*
X242570000Y-72390000D03*
X229870000Y-80010000D03*
X245110000Y-72390000D03*
D12*
X227330000Y-80010000D03*
D11*
X198120000Y-72390000D03*
X215900000Y-80010000D03*
X200660000Y-72390000D03*
X213360000Y-80010000D03*
X203200000Y-72390000D03*
X210820000Y-80010000D03*
X205740000Y-72390000D03*
X208280000Y-80010000D03*
X208280000Y-72390000D03*
X205740000Y-80010000D03*
X210820000Y-72390000D03*
X203200000Y-80010000D03*
X213360000Y-72390000D03*
X200660000Y-80010000D03*
X215900000Y-72390000D03*
D12*
X198120000Y-80010000D03*
D11*
X31750000Y-116840000D03*
X80010000Y-132080000D03*
X34290000Y-116840000D03*
X77470000Y-132080000D03*
X36830000Y-116840000D03*
X74930000Y-132080000D03*
X39370000Y-116840000D03*
X72390000Y-132080000D03*
X41910000Y-116840000D03*
X69850000Y-132080000D03*
X44450000Y-116840000D03*
X67310000Y-132080000D03*
X46990000Y-116840000D03*
X64770000Y-132080000D03*
X49530000Y-116840000D03*
X62230000Y-132080000D03*
X52070000Y-116840000D03*
X59690000Y-132080000D03*
X54610000Y-116840000D03*
X57150000Y-132080000D03*
X57150000Y-116840000D03*
X54610000Y-132080000D03*
X59690000Y-116840000D03*
X52070000Y-132080000D03*
X62230000Y-116840000D03*
X49530000Y-132080000D03*
X64770000Y-116840000D03*
X46990000Y-132080000D03*
X67310000Y-116840000D03*
X44450000Y-132080000D03*
X69850000Y-116840000D03*
X41910000Y-132080000D03*
X72390000Y-116840000D03*
X39370000Y-132080000D03*
X74930000Y-116840000D03*
X36830000Y-132080000D03*
X77470000Y-116840000D03*
X34290000Y-132080000D03*
X80010000Y-116840000D03*
D12*
X31750000Y-132080000D03*
D11*
X27940000Y-140970000D03*
X30480000Y-140970000D03*
X33020000Y-140970000D03*
X35560000Y-140970000D03*
X38100000Y-140970000D03*
X40640000Y-140970000D03*
X43180000Y-140970000D03*
X45720000Y-140970000D03*
D12*
X48260000Y-140970000D03*
D11*
X276860000Y-59690000D03*
X279400000Y-59690000D03*
X281940000Y-59690000D03*
X284480000Y-59690000D03*
X287020000Y-59690000D03*
X289560000Y-59690000D03*
X292100000Y-59690000D03*
X294640000Y-59690000D03*
D12*
X297180000Y-59690000D03*
D11*
X241300000Y-59690000D03*
X243840000Y-59690000D03*
X246380000Y-59690000D03*
X248920000Y-59690000D03*
X251460000Y-59690000D03*
X254000000Y-59690000D03*
X256540000Y-59690000D03*
X259080000Y-59690000D03*
D12*
X261620000Y-59690000D03*
D13*
X57080000Y-60310000D03*
X53680000Y-49010000D03*
D14*
X55880000Y-52110000D03*
X55880000Y-54610000D03*
X55880000Y-57110000D03*
D15*
X141732000Y-57150000D03*
X144020540Y-57150000D03*
X146309080Y-57150000D03*
X148597620Y-57150000D03*
X150888700Y-57150000D03*
X140591540Y-54610000D03*
X142880080Y-54610000D03*
X145171160Y-54610000D03*
X147459700Y-54610000D03*
X149748240Y-54610000D03*
X141732000Y-52070000D03*
X144020540Y-52070000D03*
X146309080Y-52070000D03*
X148597620Y-52070000D03*
X150888700Y-52070000D03*
D16*
X133550660Y-54610000D03*
X158549340Y-54610000D03*
D17*
X205740000Y-58420000D03*
X207010000Y-55880000D03*
X208280000Y-58420000D03*
X209550000Y-55880000D03*
X210820000Y-58420000D03*
X212090000Y-55880000D03*
X213360000Y-58420000D03*
D18*
X214630000Y-55880000D03*
D19*
X216120000Y-49530000D03*
X204250000Y-49530000D03*
D15*
X256826740Y-54008160D03*
X254055600Y-54008160D03*
X251287000Y-54008160D03*
X248518400Y-54008160D03*
D20*
X245747260Y-54008160D03*
D15*
X255434820Y-51168440D03*
X252666220Y-51168440D03*
X249907780Y-51168440D03*
X247139180Y-51168440D03*
D16*
X238787660Y-52588300D03*
X263786340Y-52588300D03*
D21*
X124378720Y-52750720D03*
X121879360Y-52750720D03*
X119380000Y-47752000D03*
X114381280Y-52750720D03*
X116880640Y-52750720D03*
D22*
X38100000Y-49174400D03*
X33301940Y-51973480D03*
X38100000Y-54973220D03*
D16*
X299519340Y-52588300D03*
X274520660Y-52588300D03*
D15*
X282872180Y-51168440D03*
X285640780Y-51168440D03*
X288399220Y-51168440D03*
X291167820Y-51168440D03*
D20*
X281480260Y-54008160D03*
D15*
X284251400Y-54008160D03*
X287020000Y-54008160D03*
X289788600Y-54008160D03*
X292559740Y-54008160D03*
D19*
X182660000Y-49530000D03*
X194530000Y-49530000D03*
D18*
X193040000Y-55880000D03*
D17*
X191770000Y-58420000D03*
X190500000Y-55880000D03*
X189230000Y-58420000D03*
X187960000Y-55880000D03*
X186690000Y-58420000D03*
X185420000Y-55880000D03*
X184150000Y-58420000D03*
D12*
X195580000Y-135890000D03*
D11*
X203200000Y-143510000D03*
X195580000Y-138430000D03*
X203200000Y-140970000D03*
X195580000Y-140970000D03*
X203200000Y-138430000D03*
X195580000Y-143510000D03*
X203200000Y-135890000D03*
D12*
X264160000Y-93980000D03*
D11*
X271780000Y-101600000D03*
X264160000Y-96520000D03*
X271780000Y-99060000D03*
X264160000Y-99060000D03*
X271780000Y-96520000D03*
X264160000Y-101600000D03*
X271780000Y-93980000D03*
D23*
X76200000Y-86360000D03*
D24*
X83820000Y-86360000D03*
D12*
X115570000Y-80010000D03*
D11*
X123190000Y-87630000D03*
X115570000Y-82550000D03*
X123190000Y-85090000D03*
X115570000Y-85090000D03*
X123190000Y-82550000D03*
X115570000Y-87630000D03*
X123190000Y-80010000D03*
D12*
X176530000Y-135890000D03*
D11*
X184150000Y-143510000D03*
X176530000Y-138430000D03*
X184150000Y-140970000D03*
X176530000Y-140970000D03*
X184150000Y-138430000D03*
X176530000Y-143510000D03*
X184150000Y-135890000D03*
D23*
X115570000Y-66040000D03*
D24*
X115570000Y-73660000D03*
D23*
X87630000Y-58420000D03*
D24*
X80010000Y-58420000D03*
D23*
X185420000Y-64770000D03*
D24*
X185420000Y-72390000D03*
D23*
X181610000Y-64770000D03*
D24*
X181610000Y-72390000D03*
D12*
X30480000Y-67310000D03*
D11*
X38100000Y-67310000D03*
D23*
X167640000Y-64770000D03*
D24*
X167640000Y-72390000D03*
D23*
X163830000Y-64770000D03*
D24*
X163830000Y-72390000D03*
D23*
X149860000Y-64770000D03*
D24*
X149860000Y-72390000D03*
D23*
X146050000Y-64770000D03*
D24*
X146050000Y-72390000D03*
D23*
X177800000Y-72390000D03*
D24*
X177800000Y-64770000D03*
D23*
X160020000Y-72390000D03*
D24*
X160020000Y-64770000D03*
D12*
X152400000Y-80010000D03*
D11*
X137160000Y-87630000D03*
X149860000Y-80010000D03*
X139700000Y-87630000D03*
X147320000Y-80010000D03*
X142240000Y-87630000D03*
X144780000Y-80010000D03*
X144780000Y-87630000D03*
X142240000Y-80010000D03*
X147320000Y-87630000D03*
X139700000Y-80010000D03*
X149860000Y-87630000D03*
X137160000Y-80010000D03*
X152400000Y-87630000D03*
D23*
X142240000Y-72390000D03*
D24*
X142240000Y-64770000D03*
D14*
X279400000Y-105410000D03*
X276900000Y-105410000D03*
X222250000Y-105410000D03*
X219750000Y-105410000D03*
X238760000Y-105410000D03*
X236260000Y-105410000D03*
X255270000Y-105410000D03*
X252770000Y-105410000D03*
X285750000Y-115530000D03*
X285750000Y-113030000D03*
X87630000Y-77470000D03*
X87630000Y-79970000D03*
X52070000Y-86360000D03*
X49570000Y-86360000D03*
X82550000Y-66080000D03*
X82550000Y-68580000D03*
X293370000Y-64770000D03*
X290870000Y-64770000D03*
X85090000Y-119380000D03*
X85090000Y-116880000D03*
X157480000Y-87630000D03*
X157480000Y-85130000D03*
X186690000Y-87630000D03*
X186690000Y-85130000D03*
X208280000Y-135890000D03*
X208280000Y-138390000D03*
X276860000Y-94020000D03*
X276860000Y-96520000D03*
X128270000Y-80010000D03*
X128270000Y-82510000D03*
X189230000Y-135890000D03*
X189230000Y-138390000D03*
D23*
X173990000Y-64770000D03*
D24*
X173990000Y-72390000D03*
D23*
X156210000Y-64770000D03*
D24*
X156210000Y-72390000D03*
D23*
X138430000Y-64770000D03*
D24*
X138430000Y-72390000D03*
D25*
X21590000Y-148590000D03*
X313690000Y-148590000D03*
X313690000Y-46990000D03*
X21590000Y-46990000D03*
D14*
X129540000Y-137160000D03*
X129540000Y-134660000D03*
X170180000Y-111760000D03*
X170180000Y-109260000D03*
X129540000Y-127000000D03*
X129540000Y-124500000D03*
X170180000Y-138430000D03*
X170180000Y-140930000D03*
X170180000Y-129580000D03*
X170180000Y-132080000D03*
X170180000Y-119380000D03*
X170180000Y-121880000D03*
X129540000Y-111720000D03*
X129540000Y-109220000D03*
X129540000Y-116840000D03*
X129540000Y-119340000D03*
D26*
X252730000Y-96520000D03*
X252730000Y-99060000D03*
X250190000Y-96520000D03*
X250190000Y-99060000D03*
X247650000Y-96520000D03*
X247650000Y-99060000D03*
X245110000Y-96520000D03*
X245110000Y-99060000D03*
X242570000Y-96520000D03*
D27*
X242570000Y-99060000D03*
D14*
X177800000Y-115530000D03*
X177800000Y-113030000D03*
X205740000Y-119340000D03*
X205740000Y-116840000D03*
X205740000Y-124460000D03*
X205740000Y-126960000D03*
X177800000Y-121920000D03*
X177800000Y-124420000D03*
X88900000Y-132120000D03*
X88900000Y-134620000D03*
X88900000Y-124500000D03*
X88900000Y-127000000D03*
X124460000Y-119380000D03*
X124460000Y-116880000D03*
D28*
X217170000Y-87630000D03*
D29*
X215670000Y-87630000D03*
X204700000Y-87630000D03*
D28*
X203200000Y-87630000D03*
X209550000Y-87630000D03*
D29*
X211050000Y-87630000D03*
X196753000Y-87630000D03*
D28*
X198253000Y-87630000D03*
D29*
X199620000Y-66040000D03*
D28*
X198120000Y-66040000D03*
X38100000Y-75598000D03*
D29*
X36600000Y-75598000D03*
X31980000Y-75598000D03*
D28*
X30480000Y-75598000D03*
D11*
X279400000Y-110490000D03*
X264160000Y-143510000D03*
X279400000Y-113030000D03*
X264160000Y-140970000D03*
X279400000Y-115570000D03*
X264160000Y-138430000D03*
X279400000Y-118110000D03*
X264160000Y-135890000D03*
X279400000Y-120650000D03*
X264160000Y-133350000D03*
X279400000Y-123190000D03*
X264160000Y-130810000D03*
X279400000Y-125730000D03*
X264160000Y-128270000D03*
X279400000Y-128270000D03*
X264160000Y-125730000D03*
X279400000Y-130810000D03*
X264160000Y-123190000D03*
X279400000Y-133350000D03*
X264160000Y-120650000D03*
X279400000Y-135890000D03*
X264160000Y-118110000D03*
X279400000Y-138430000D03*
X264160000Y-115570000D03*
X279400000Y-140970000D03*
X264160000Y-113030000D03*
X279400000Y-143510000D03*
D12*
X264160000Y-110490000D03*
D30*
X193040000Y-109220000D03*
X195580000Y-111760000D03*
X195580000Y-109220000D03*
X198120000Y-111760000D03*
X198120000Y-109220000D03*
X200660000Y-111760000D03*
X198120000Y-114300000D03*
X200660000Y-114300000D03*
X198120000Y-116840000D03*
X200660000Y-116840000D03*
X198120000Y-119380000D03*
X200660000Y-119380000D03*
X198120000Y-121920000D03*
X200660000Y-121920000D03*
X198120000Y-124460000D03*
X200660000Y-124460000D03*
X198120000Y-127000000D03*
X195580000Y-124460000D03*
X195580000Y-127000000D03*
X193040000Y-124460000D03*
X193040000Y-127000000D03*
X190500000Y-124460000D03*
X190500000Y-127000000D03*
X187960000Y-124460000D03*
X187960000Y-127000000D03*
X185420000Y-124460000D03*
X185420000Y-127000000D03*
X182880000Y-124460000D03*
X185420000Y-121920000D03*
X182880000Y-121920000D03*
X185420000Y-119380000D03*
X182880000Y-119380000D03*
X185420000Y-116840000D03*
X182880000Y-116840000D03*
X185420000Y-114300000D03*
X182880000Y-114300000D03*
X185420000Y-111760000D03*
X182880000Y-111760000D03*
X185420000Y-109220000D03*
X187960000Y-111760000D03*
X187960000Y-109220000D03*
X190500000Y-111760000D03*
X190500000Y-109220000D03*
D31*
X193040000Y-111760000D03*
D11*
X222250000Y-110490000D03*
X214630000Y-143510000D03*
X222250000Y-113030000D03*
X214630000Y-140970000D03*
X222250000Y-115570000D03*
X214630000Y-138430000D03*
X222250000Y-118110000D03*
X214630000Y-135890000D03*
X222250000Y-120650000D03*
X214630000Y-133350000D03*
X222250000Y-123190000D03*
X214630000Y-130810000D03*
X222250000Y-125730000D03*
X214630000Y-128270000D03*
X222250000Y-128270000D03*
X214630000Y-125730000D03*
X222250000Y-130810000D03*
X214630000Y-123190000D03*
X222250000Y-133350000D03*
X214630000Y-120650000D03*
X222250000Y-135890000D03*
X214630000Y-118110000D03*
X222250000Y-138430000D03*
X214630000Y-115570000D03*
X222250000Y-140970000D03*
X214630000Y-113030000D03*
X222250000Y-143510000D03*
D12*
X214630000Y-110490000D03*
D11*
X107950000Y-52070000D03*
X92710000Y-100330000D03*
X107950000Y-54610000D03*
X92710000Y-97790000D03*
X107950000Y-57150000D03*
X92710000Y-95250000D03*
X107950000Y-59690000D03*
X92710000Y-92710000D03*
X107950000Y-62230000D03*
X92710000Y-90170000D03*
X107950000Y-64770000D03*
X92710000Y-87630000D03*
X107950000Y-67310000D03*
X92710000Y-85090000D03*
X107950000Y-69850000D03*
X92710000Y-82550000D03*
X107950000Y-72390000D03*
X92710000Y-80010000D03*
X107950000Y-74930000D03*
X92710000Y-77470000D03*
X107950000Y-77470000D03*
X92710000Y-74930000D03*
X107950000Y-80010000D03*
X92710000Y-72390000D03*
X107950000Y-82550000D03*
X92710000Y-69850000D03*
X107950000Y-85090000D03*
X92710000Y-67310000D03*
X107950000Y-87630000D03*
X92710000Y-64770000D03*
X107950000Y-90170000D03*
X92710000Y-62230000D03*
X107950000Y-92710000D03*
X92710000Y-59690000D03*
X107950000Y-95250000D03*
X92710000Y-57150000D03*
X107950000Y-97790000D03*
X92710000Y-54610000D03*
X107950000Y-100330000D03*
D12*
X92710000Y-52070000D03*
D11*
X238760000Y-110490000D03*
X231140000Y-143510000D03*
X238760000Y-113030000D03*
X231140000Y-140970000D03*
X238760000Y-115570000D03*
X231140000Y-138430000D03*
X238760000Y-118110000D03*
X231140000Y-135890000D03*
X238760000Y-120650000D03*
X231140000Y-133350000D03*
X238760000Y-123190000D03*
X231140000Y-130810000D03*
X238760000Y-125730000D03*
X231140000Y-128270000D03*
X238760000Y-128270000D03*
X231140000Y-125730000D03*
X238760000Y-130810000D03*
X231140000Y-123190000D03*
X238760000Y-133350000D03*
X231140000Y-120650000D03*
X238760000Y-135890000D03*
X231140000Y-118110000D03*
X238760000Y-138430000D03*
X231140000Y-115570000D03*
X238760000Y-140970000D03*
X231140000Y-113030000D03*
X238760000Y-143510000D03*
D12*
X231140000Y-110490000D03*
X247650000Y-110490000D03*
D11*
X255270000Y-143510000D03*
X247650000Y-113030000D03*
X255270000Y-140970000D03*
X247650000Y-115570000D03*
X255270000Y-138430000D03*
X247650000Y-118110000D03*
X255270000Y-135890000D03*
X247650000Y-120650000D03*
X255270000Y-133350000D03*
X247650000Y-123190000D03*
X255270000Y-130810000D03*
X247650000Y-125730000D03*
X255270000Y-128270000D03*
X247650000Y-128270000D03*
X255270000Y-125730000D03*
X247650000Y-130810000D03*
X255270000Y-123190000D03*
X247650000Y-133350000D03*
X255270000Y-120650000D03*
X247650000Y-135890000D03*
X255270000Y-118110000D03*
X247650000Y-138430000D03*
X255270000Y-115570000D03*
X247650000Y-140970000D03*
X255270000Y-113030000D03*
X247650000Y-143510000D03*
X255270000Y-110490000D03*
X49530000Y-66040000D03*
X77470000Y-81280000D03*
X52070000Y-66040000D03*
X74930000Y-81280000D03*
X54610000Y-66040000D03*
X72390000Y-81280000D03*
X57150000Y-66040000D03*
X69850000Y-81280000D03*
X59690000Y-66040000D03*
X67310000Y-81280000D03*
X62230000Y-66040000D03*
X64770000Y-81280000D03*
X64770000Y-66040000D03*
X62230000Y-81280000D03*
X67310000Y-66040000D03*
X59690000Y-81280000D03*
X69850000Y-66040000D03*
X57150000Y-81280000D03*
X72390000Y-66040000D03*
X54610000Y-81280000D03*
X74930000Y-66040000D03*
X52070000Y-81280000D03*
X77470000Y-66040000D03*
D12*
X49530000Y-81280000D03*
D32*
X83820000Y-52070000D03*
D33*
X83820000Y-49530000D03*
X83820000Y-50800000D03*
D12*
X257810000Y-85090000D03*
D11*
X306070000Y-69850000D03*
X260350000Y-85090000D03*
X303530000Y-69850000D03*
X262890000Y-85090000D03*
X300990000Y-69850000D03*
X265430000Y-85090000D03*
X298450000Y-69850000D03*
X267970000Y-85090000D03*
X295910000Y-69850000D03*
X270510000Y-85090000D03*
X293370000Y-69850000D03*
X273050000Y-85090000D03*
X290830000Y-69850000D03*
X275590000Y-85090000D03*
X288290000Y-69850000D03*
X278130000Y-85090000D03*
X285750000Y-69850000D03*
X280670000Y-85090000D03*
X283210000Y-69850000D03*
X283210000Y-85090000D03*
X280670000Y-69850000D03*
X285750000Y-85090000D03*
X278130000Y-69850000D03*
X288290000Y-85090000D03*
X275590000Y-69850000D03*
X290830000Y-85090000D03*
X273050000Y-69850000D03*
X293370000Y-85090000D03*
X270510000Y-69850000D03*
X295910000Y-85090000D03*
X267970000Y-69850000D03*
X298450000Y-85090000D03*
X265430000Y-69850000D03*
X300990000Y-85090000D03*
X262890000Y-69850000D03*
X303530000Y-85090000D03*
X260350000Y-69850000D03*
X306070000Y-85090000D03*
X257810000Y-69850000D03*
X306070000Y-95232500D03*
X290830000Y-143492500D03*
X306070000Y-97772500D03*
X290830000Y-140952500D03*
X306070000Y-100312500D03*
X290830000Y-138412500D03*
X306070000Y-102852500D03*
X290830000Y-135872500D03*
X306070000Y-105392500D03*
X290830000Y-133332500D03*
X306070000Y-107932500D03*
X290830000Y-130792500D03*
X306070000Y-110472500D03*
X290830000Y-128252500D03*
X306070000Y-113012500D03*
X290830000Y-125712500D03*
X306070000Y-115552500D03*
X290830000Y-123172500D03*
X306070000Y-118092500D03*
X290830000Y-120632500D03*
X306070000Y-120632500D03*
X290830000Y-118092500D03*
X306070000Y-123172500D03*
X290830000Y-115552500D03*
X306070000Y-125712500D03*
X290830000Y-113012500D03*
X306070000Y-128252500D03*
X290830000Y-110472500D03*
X306070000Y-130792500D03*
X290830000Y-107932500D03*
X306070000Y-133332500D03*
X290830000Y-105392500D03*
X306070000Y-135872500D03*
X290830000Y-102852500D03*
X306070000Y-138412500D03*
X290830000Y-100312500D03*
X306070000Y-140952500D03*
X290830000Y-97772500D03*
X306070000Y-143492500D03*
D12*
X290830000Y-95232500D03*
D34*
X31750000Y-83820000D03*
X34290000Y-83820000D03*
D35*
X36830000Y-83820000D03*
D36*
X34290000Y-100480000D03*
D30*
X109220000Y-119380000D03*
X109220000Y-116840000D03*
X111760000Y-119380000D03*
X111760000Y-116840000D03*
X114300000Y-119380000D03*
X114300000Y-116840000D03*
X116840000Y-119380000D03*
X116840000Y-116840000D03*
X119380000Y-119380000D03*
X116840000Y-121920000D03*
X119380000Y-121920000D03*
X116840000Y-124460000D03*
X119380000Y-124460000D03*
X116840000Y-127000000D03*
X119380000Y-127000000D03*
X116840000Y-129540000D03*
X119380000Y-129540000D03*
X116840000Y-132080000D03*
X119380000Y-132080000D03*
X116840000Y-134620000D03*
X119380000Y-134620000D03*
X116840000Y-137160000D03*
X119380000Y-137160000D03*
X116840000Y-139700000D03*
X119380000Y-139700000D03*
X116840000Y-142240000D03*
X114300000Y-139700000D03*
X114300000Y-142240000D03*
X111760000Y-139700000D03*
X111760000Y-142240000D03*
X109220000Y-139700000D03*
X109220000Y-142240000D03*
X106680000Y-139700000D03*
X106680000Y-142240000D03*
X104140000Y-139700000D03*
X104140000Y-142240000D03*
X101600000Y-139700000D03*
X101600000Y-142240000D03*
X99060000Y-139700000D03*
X99060000Y-142240000D03*
X96520000Y-139700000D03*
X96520000Y-142240000D03*
X93980000Y-139700000D03*
X96520000Y-137160000D03*
X93980000Y-137160000D03*
X96520000Y-134620000D03*
X93980000Y-134620000D03*
X96520000Y-132080000D03*
X93980000Y-132080000D03*
X96520000Y-129540000D03*
X93980000Y-129540000D03*
X96520000Y-127000000D03*
X93980000Y-127000000D03*
X96520000Y-124460000D03*
X93980000Y-124460000D03*
X96520000Y-121920000D03*
X93980000Y-121920000D03*
X96520000Y-119380000D03*
X93980000Y-119380000D03*
X96520000Y-116840000D03*
X99060000Y-119380000D03*
X99060000Y-116840000D03*
X101600000Y-119380000D03*
X101600000Y-116840000D03*
X104140000Y-119380000D03*
X104140000Y-116840000D03*
X106680000Y-119380000D03*
D31*
X106680000Y-116840000D03*
D11*
X181610000Y-87630000D03*
X166370000Y-80010000D03*
X179070000Y-87630000D03*
X168910000Y-80010000D03*
X176530000Y-87630000D03*
X171450000Y-80010000D03*
X173990000Y-87630000D03*
X173990000Y-80010000D03*
X171450000Y-87630000D03*
X176530000Y-80010000D03*
X168910000Y-87630000D03*
X179070000Y-80010000D03*
X166370000Y-87630000D03*
D12*
X181610000Y-80010000D03*
X49530000Y-106680000D03*
D11*
X82550000Y-91440000D03*
X52070000Y-106680000D03*
X80010000Y-91440000D03*
X54610000Y-106680000D03*
X77470000Y-91440000D03*
X57150000Y-106680000D03*
X74930000Y-91440000D03*
X59690000Y-106680000D03*
X72390000Y-91440000D03*
X62230000Y-106680000D03*
X69850000Y-91440000D03*
X64770000Y-106680000D03*
X67310000Y-91440000D03*
X67310000Y-106680000D03*
X64770000Y-91440000D03*
X69850000Y-106680000D03*
X62230000Y-91440000D03*
X72390000Y-106680000D03*
X59690000Y-91440000D03*
X74930000Y-106680000D03*
X57150000Y-91440000D03*
X77470000Y-106680000D03*
X54610000Y-91440000D03*
X80010000Y-106680000D03*
X52070000Y-91440000D03*
X82550000Y-106680000D03*
X49530000Y-91440000D03*
D30*
X162560000Y-127000000D03*
X165100000Y-127000000D03*
X162560000Y-129540000D03*
X165100000Y-129540000D03*
X162560000Y-132080000D03*
X165100000Y-132080000D03*
X162560000Y-134620000D03*
X165100000Y-134620000D03*
X162560000Y-137160000D03*
X165100000Y-137160000D03*
X162560000Y-139700000D03*
X160020000Y-137160000D03*
X160020000Y-139700000D03*
X157480000Y-137160000D03*
X157480000Y-139700000D03*
X154940000Y-137160000D03*
X154940000Y-139700000D03*
X152400000Y-137160000D03*
X152400000Y-139700000D03*
X149860000Y-137160000D03*
X149860000Y-139700000D03*
X147320000Y-137160000D03*
X147320000Y-139700000D03*
X144780000Y-137160000D03*
X144780000Y-139700000D03*
X142240000Y-137160000D03*
X142240000Y-139700000D03*
X139700000Y-137160000D03*
X139700000Y-139700000D03*
X137160000Y-137160000D03*
X137160000Y-139700000D03*
X134620000Y-137160000D03*
X137160000Y-134620000D03*
X134620000Y-134620000D03*
X137160000Y-132080000D03*
X134620000Y-132080000D03*
X137160000Y-129540000D03*
X134620000Y-129540000D03*
X137160000Y-127000000D03*
X134620000Y-127000000D03*
X137160000Y-124460000D03*
X134620000Y-124460000D03*
X137160000Y-121920000D03*
X134620000Y-121920000D03*
X137160000Y-119380000D03*
X134620000Y-119380000D03*
X137160000Y-116840000D03*
X134620000Y-116840000D03*
X137160000Y-114300000D03*
X134620000Y-114300000D03*
X137160000Y-111760000D03*
X134620000Y-111760000D03*
X137160000Y-109220000D03*
X139700000Y-111760000D03*
X139700000Y-109220000D03*
X142240000Y-111760000D03*
X142240000Y-109220000D03*
X144780000Y-111760000D03*
X144780000Y-109220000D03*
X147320000Y-111760000D03*
X147320000Y-109220000D03*
X149860000Y-111760000D03*
X149860000Y-109220000D03*
X152400000Y-111760000D03*
X152400000Y-109220000D03*
X154940000Y-111760000D03*
X154940000Y-109220000D03*
X157480000Y-111760000D03*
X157480000Y-109220000D03*
X160020000Y-111760000D03*
X160020000Y-109220000D03*
X162560000Y-111760000D03*
X162560000Y-109220000D03*
X165100000Y-111760000D03*
X162560000Y-114300000D03*
X165100000Y-114300000D03*
X162560000Y-116840000D03*
X165100000Y-116840000D03*
X162560000Y-119380000D03*
X165100000Y-119380000D03*
X162560000Y-121920000D03*
X165100000Y-121920000D03*
X162560000Y-124460000D03*
D31*
X165100000Y-124460000D03*
D28*
X246380000Y-87630000D03*
D29*
X244880000Y-87630000D03*
X233910000Y-87630000D03*
D28*
X232410000Y-87630000D03*
X238760000Y-87630000D03*
D29*
X240260000Y-87630000D03*
X225830000Y-87630000D03*
D28*
X227330000Y-87630000D03*
D29*
X228830000Y-66040000D03*
D28*
X227330000Y-66040000D03*
D25*
X167640000Y-46990000D03*
X167640000Y-148590000D03*
D26*
X74930000Y-140970000D03*
X74930000Y-143510000D03*
X72390000Y-140970000D03*
X72390000Y-143510000D03*
X69850000Y-140970000D03*
X69850000Y-143510000D03*
X67310000Y-140970000D03*
X67310000Y-143510000D03*
X64770000Y-140970000D03*
X64770000Y-143510000D03*
X62230000Y-140970000D03*
X62230000Y-143510000D03*
X59690000Y-140970000D03*
X59690000Y-143510000D03*
X57150000Y-140970000D03*
D27*
X57150000Y-143510000D03*
D14*
X116840000Y-60960000D03*
X114340000Y-60960000D03*
X121960000Y-60960000D03*
X124460000Y-60960000D03*
D24*
X123190000Y-73660000D03*
D23*
X123190000Y-66040000D03*
X119380000Y-66040000D03*
D24*
X119380000Y-73660000D03*
D14*
X72390000Y-57110000D03*
X72390000Y-54610000D03*
X72390000Y-52110000D03*
D37*
X70190000Y-49010000D03*
X73590000Y-60310000D03*
M02*
