%TF.GenerationSoftware,KiCad,Pcbnew,(5.1.9)-1*%
%TF.CreationDate,2021-09-01T00:43:13-05:00*%
%TF.ProjectId,z80,7a38302e-6b69-4636-9164-5f7063625858,A*%
%TF.SameCoordinates,Original*%
%TF.FileFunction,Copper,L1,Top*%
%TF.FilePolarity,Positive*%
%FSLAX46Y46*%
G04 Gerber Fmt 4.6, Leading zero omitted, Abs format (unit mm)*
G04 Created by KiCad (PCBNEW (5.1.9)-1) date 2021-09-01 00:43:13*
%MOMM*%
%LPD*%
G01*
G04 APERTURE LIST*
%TA.AperFunction,Profile*%
%ADD10C,0.150000*%
%TD*%
%TA.AperFunction,ComponentPad*%
%ADD11O,1.600000X1.600000*%
%TD*%
%TA.AperFunction,ComponentPad*%
%ADD12R,1.600000X1.600000*%
%TD*%
%TA.AperFunction,WasherPad*%
%ADD13C,2.100000*%
%TD*%
%TA.AperFunction,ComponentPad*%
%ADD14C,1.600000*%
%TD*%
%TA.AperFunction,ComponentPad*%
%ADD15C,1.879600*%
%TD*%
%TA.AperFunction,ComponentPad*%
%ADD16C,5.080000*%
%TD*%
%TA.AperFunction,ComponentPad*%
%ADD17C,1.500000*%
%TD*%
%TA.AperFunction,ComponentPad*%
%ADD18R,1.500000X1.500000*%
%TD*%
%TA.AperFunction,WasherPad*%
%ADD19C,3.650000*%
%TD*%
%TA.AperFunction,ComponentPad*%
%ADD20R,1.879600X1.879600*%
%TD*%
%TA.AperFunction,ComponentPad*%
%ADD21C,2.181860*%
%TD*%
%TA.AperFunction,ComponentPad*%
%ADD22C,1.948180*%
%TD*%
%TA.AperFunction,ComponentPad*%
%ADD23C,1.400000*%
%TD*%
%TA.AperFunction,ComponentPad*%
%ADD24O,1.400000X1.400000*%
%TD*%
%TA.AperFunction,ComponentPad*%
%ADD25O,1.700000X1.700000*%
%TD*%
%TA.AperFunction,ComponentPad*%
%ADD26R,1.700000X1.700000*%
%TD*%
%TA.AperFunction,ComponentPad*%
%ADD27R,1.200000X1.200000*%
%TD*%
%TA.AperFunction,ComponentPad*%
%ADD28C,1.200000*%
%TD*%
%TA.AperFunction,ComponentPad*%
%ADD29C,1.397000*%
%TD*%
%TA.AperFunction,ComponentPad*%
%ADD30R,1.397000X1.397000*%
%TD*%
%TA.AperFunction,ComponentPad*%
%ADD31R,1.500000X0.900000*%
%TD*%
%TA.AperFunction,ComponentPad*%
%ADD32O,1.500000X0.900000*%
%TD*%
%TA.AperFunction,ComponentPad*%
%ADD33O,1.800000X1.800000*%
%TD*%
%TA.AperFunction,ComponentPad*%
%ADD34R,1.800000X1.800000*%
%TD*%
%TA.AperFunction,WasherPad*%
%ADD35C,2.000000*%
%TD*%
%TA.AperFunction,ViaPad*%
%ADD36C,0.685800*%
%TD*%
%TA.AperFunction,Conductor*%
%ADD37C,0.203200*%
%TD*%
%TA.AperFunction,Conductor*%
%ADD38C,0.609600*%
%TD*%
%TA.AperFunction,Conductor*%
%ADD39C,0.254000*%
%TD*%
%TA.AperFunction,Conductor*%
%ADD40C,0.100000*%
%TD*%
G04 APERTURE END LIST*
D10*
X17780000Y-43180000D02*
X17780000Y-152400000D01*
X317500000Y-152400000D02*
X317500000Y-43180000D01*
X17780000Y-152400000D02*
X317500000Y-152400000D01*
X317500000Y-43180000D02*
X17780000Y-43180000D01*
D11*
X227330000Y-72390000D03*
X245110000Y-80010000D03*
X229870000Y-72390000D03*
X242570000Y-80010000D03*
X232410000Y-72390000D03*
X240030000Y-80010000D03*
X234950000Y-72390000D03*
X237490000Y-80010000D03*
X237490000Y-72390000D03*
X234950000Y-80010000D03*
X240030000Y-72390000D03*
X232410000Y-80010000D03*
X242570000Y-72390000D03*
X229870000Y-80010000D03*
X245110000Y-72390000D03*
D12*
X227330000Y-80010000D03*
D11*
X198120000Y-72390000D03*
X215900000Y-80010000D03*
X200660000Y-72390000D03*
X213360000Y-80010000D03*
X203200000Y-72390000D03*
X210820000Y-80010000D03*
X205740000Y-72390000D03*
X208280000Y-80010000D03*
X208280000Y-72390000D03*
X205740000Y-80010000D03*
X210820000Y-72390000D03*
X203200000Y-80010000D03*
X213360000Y-72390000D03*
X200660000Y-80010000D03*
X215900000Y-72390000D03*
D12*
X198120000Y-80010000D03*
D11*
X31750000Y-116840000D03*
X80010000Y-132080000D03*
X34290000Y-116840000D03*
X77470000Y-132080000D03*
X36830000Y-116840000D03*
X74930000Y-132080000D03*
X39370000Y-116840000D03*
X72390000Y-132080000D03*
X41910000Y-116840000D03*
X69850000Y-132080000D03*
X44450000Y-116840000D03*
X67310000Y-132080000D03*
X46990000Y-116840000D03*
X64770000Y-132080000D03*
X49530000Y-116840000D03*
X62230000Y-132080000D03*
X52070000Y-116840000D03*
X59690000Y-132080000D03*
X54610000Y-116840000D03*
X57150000Y-132080000D03*
X57150000Y-116840000D03*
X54610000Y-132080000D03*
X59690000Y-116840000D03*
X52070000Y-132080000D03*
X62230000Y-116840000D03*
X49530000Y-132080000D03*
X64770000Y-116840000D03*
X46990000Y-132080000D03*
X67310000Y-116840000D03*
X44450000Y-132080000D03*
X69850000Y-116840000D03*
X41910000Y-132080000D03*
X72390000Y-116840000D03*
X39370000Y-132080000D03*
X74930000Y-116840000D03*
X36830000Y-132080000D03*
X77470000Y-116840000D03*
X34290000Y-132080000D03*
X80010000Y-116840000D03*
D12*
X31750000Y-132080000D03*
D11*
X27940000Y-140970000D03*
X30480000Y-140970000D03*
X33020000Y-140970000D03*
X35560000Y-140970000D03*
X38100000Y-140970000D03*
X40640000Y-140970000D03*
X43180000Y-140970000D03*
X45720000Y-140970000D03*
D12*
X48260000Y-140970000D03*
D11*
X276860000Y-59690000D03*
X279400000Y-59690000D03*
X281940000Y-59690000D03*
X284480000Y-59690000D03*
X287020000Y-59690000D03*
X289560000Y-59690000D03*
X292100000Y-59690000D03*
X294640000Y-59690000D03*
D12*
X297180000Y-59690000D03*
D11*
X241300000Y-59690000D03*
X243840000Y-59690000D03*
X246380000Y-59690000D03*
X248920000Y-59690000D03*
X251460000Y-59690000D03*
X254000000Y-59690000D03*
X256540000Y-59690000D03*
X259080000Y-59690000D03*
D12*
X261620000Y-59690000D03*
D13*
X57080000Y-60310000D03*
X53680000Y-49010000D03*
D14*
X55880000Y-52110000D03*
X55880000Y-54610000D03*
X55880000Y-57110000D03*
D15*
X141732000Y-57150000D03*
X144020540Y-57150000D03*
X146309080Y-57150000D03*
X148597620Y-57150000D03*
X150888700Y-57150000D03*
X140591540Y-54610000D03*
X142880080Y-54610000D03*
X145171160Y-54610000D03*
X147459700Y-54610000D03*
X149748240Y-54610000D03*
X141732000Y-52070000D03*
X144020540Y-52070000D03*
X146309080Y-52070000D03*
X148597620Y-52070000D03*
X150888700Y-52070000D03*
D16*
X133550660Y-54610000D03*
X158549340Y-54610000D03*
D17*
X205740000Y-58420000D03*
X207010000Y-55880000D03*
X208280000Y-58420000D03*
X209550000Y-55880000D03*
X210820000Y-58420000D03*
X212090000Y-55880000D03*
X213360000Y-58420000D03*
D18*
X214630000Y-55880000D03*
D19*
X216120000Y-49530000D03*
X204250000Y-49530000D03*
D15*
X256826740Y-54008160D03*
X254055600Y-54008160D03*
X251287000Y-54008160D03*
X248518400Y-54008160D03*
D20*
X245747260Y-54008160D03*
D15*
X255434820Y-51168440D03*
X252666220Y-51168440D03*
X249907780Y-51168440D03*
X247139180Y-51168440D03*
D16*
X238787660Y-52588300D03*
X263786340Y-52588300D03*
D21*
X124378720Y-52750720D03*
X121879360Y-52750720D03*
X119380000Y-47752000D03*
X114381280Y-52750720D03*
X116880640Y-52750720D03*
D22*
X38100000Y-49174400D03*
X33301940Y-51973480D03*
X38100000Y-54973220D03*
D16*
X299519340Y-52588300D03*
X274520660Y-52588300D03*
D15*
X282872180Y-51168440D03*
X285640780Y-51168440D03*
X288399220Y-51168440D03*
X291167820Y-51168440D03*
D20*
X281480260Y-54008160D03*
D15*
X284251400Y-54008160D03*
X287020000Y-54008160D03*
X289788600Y-54008160D03*
X292559740Y-54008160D03*
D19*
X182660000Y-49530000D03*
X194530000Y-49530000D03*
D18*
X193040000Y-55880000D03*
D17*
X191770000Y-58420000D03*
X190500000Y-55880000D03*
X189230000Y-58420000D03*
X187960000Y-55880000D03*
X186690000Y-58420000D03*
X185420000Y-55880000D03*
X184150000Y-58420000D03*
D12*
X195580000Y-135890000D03*
D11*
X203200000Y-143510000D03*
X195580000Y-138430000D03*
X203200000Y-140970000D03*
X195580000Y-140970000D03*
X203200000Y-138430000D03*
X195580000Y-143510000D03*
X203200000Y-135890000D03*
D12*
X264160000Y-93980000D03*
D11*
X271780000Y-101600000D03*
X264160000Y-96520000D03*
X271780000Y-99060000D03*
X264160000Y-99060000D03*
X271780000Y-96520000D03*
X264160000Y-101600000D03*
X271780000Y-93980000D03*
D23*
X76200000Y-86360000D03*
D24*
X83820000Y-86360000D03*
D12*
X115570000Y-80010000D03*
D11*
X123190000Y-87630000D03*
X115570000Y-82550000D03*
X123190000Y-85090000D03*
X115570000Y-85090000D03*
X123190000Y-82550000D03*
X115570000Y-87630000D03*
X123190000Y-80010000D03*
D12*
X176530000Y-135890000D03*
D11*
X184150000Y-143510000D03*
X176530000Y-138430000D03*
X184150000Y-140970000D03*
X176530000Y-140970000D03*
X184150000Y-138430000D03*
X176530000Y-143510000D03*
X184150000Y-135890000D03*
D23*
X115570000Y-66040000D03*
D24*
X115570000Y-73660000D03*
D23*
X87630000Y-58420000D03*
D24*
X80010000Y-58420000D03*
D23*
X185420000Y-64770000D03*
D24*
X185420000Y-72390000D03*
D23*
X181610000Y-64770000D03*
D24*
X181610000Y-72390000D03*
D12*
X30480000Y-67310000D03*
D11*
X38100000Y-67310000D03*
D23*
X167640000Y-64770000D03*
D24*
X167640000Y-72390000D03*
D23*
X163830000Y-64770000D03*
D24*
X163830000Y-72390000D03*
D23*
X149860000Y-64770000D03*
D24*
X149860000Y-72390000D03*
D23*
X146050000Y-64770000D03*
D24*
X146050000Y-72390000D03*
D23*
X177800000Y-72390000D03*
D24*
X177800000Y-64770000D03*
D23*
X160020000Y-72390000D03*
D24*
X160020000Y-64770000D03*
D12*
X152400000Y-80010000D03*
D11*
X137160000Y-87630000D03*
X149860000Y-80010000D03*
X139700000Y-87630000D03*
X147320000Y-80010000D03*
X142240000Y-87630000D03*
X144780000Y-80010000D03*
X144780000Y-87630000D03*
X142240000Y-80010000D03*
X147320000Y-87630000D03*
X139700000Y-80010000D03*
X149860000Y-87630000D03*
X137160000Y-80010000D03*
X152400000Y-87630000D03*
D23*
X142240000Y-72390000D03*
D24*
X142240000Y-64770000D03*
D14*
X279400000Y-105410000D03*
X276900000Y-105410000D03*
X222250000Y-105410000D03*
X219750000Y-105410000D03*
X238760000Y-105410000D03*
X236260000Y-105410000D03*
X255270000Y-105410000D03*
X252770000Y-105410000D03*
X285750000Y-115530000D03*
X285750000Y-113030000D03*
X87630000Y-77470000D03*
X87630000Y-79970000D03*
X52070000Y-86360000D03*
X49570000Y-86360000D03*
X82550000Y-66080000D03*
X82550000Y-68580000D03*
X293370000Y-64770000D03*
X290870000Y-64770000D03*
X85090000Y-119380000D03*
X85090000Y-116880000D03*
X157480000Y-87630000D03*
X157480000Y-85130000D03*
X186690000Y-87630000D03*
X186690000Y-85130000D03*
X208280000Y-135890000D03*
X208280000Y-138390000D03*
X276860000Y-94020000D03*
X276860000Y-96520000D03*
X128270000Y-80010000D03*
X128270000Y-82510000D03*
X189230000Y-135890000D03*
X189230000Y-138390000D03*
D23*
X173990000Y-64770000D03*
D24*
X173990000Y-72390000D03*
D23*
X156210000Y-64770000D03*
D24*
X156210000Y-72390000D03*
D23*
X138430000Y-64770000D03*
D24*
X138430000Y-72390000D03*
D14*
X129540000Y-137160000D03*
X129540000Y-134660000D03*
X170180000Y-111760000D03*
X170180000Y-109260000D03*
X129540000Y-127000000D03*
X129540000Y-124500000D03*
X170180000Y-138430000D03*
X170180000Y-140930000D03*
X170180000Y-129580000D03*
X170180000Y-132080000D03*
X170180000Y-119380000D03*
X170180000Y-121880000D03*
X129540000Y-111720000D03*
X129540000Y-109220000D03*
X129540000Y-116840000D03*
X129540000Y-119340000D03*
D25*
X252730000Y-96520000D03*
X252730000Y-99060000D03*
X250190000Y-96520000D03*
X250190000Y-99060000D03*
X247650000Y-96520000D03*
X247650000Y-99060000D03*
X245110000Y-96520000D03*
X245110000Y-99060000D03*
X242570000Y-96520000D03*
D26*
X242570000Y-99060000D03*
D14*
X177800000Y-115530000D03*
X177800000Y-113030000D03*
X205740000Y-119340000D03*
X205740000Y-116840000D03*
X205740000Y-124460000D03*
X205740000Y-126960000D03*
X177800000Y-121920000D03*
X177800000Y-124420000D03*
X88900000Y-132120000D03*
X88900000Y-134620000D03*
X88900000Y-124500000D03*
X88900000Y-127000000D03*
X124460000Y-119380000D03*
X124460000Y-116880000D03*
D27*
X217170000Y-87630000D03*
D28*
X215670000Y-87630000D03*
X204700000Y-87630000D03*
D27*
X203200000Y-87630000D03*
X209550000Y-87630000D03*
D28*
X211050000Y-87630000D03*
X196753000Y-87630000D03*
D27*
X198253000Y-87630000D03*
D28*
X199620000Y-66040000D03*
D27*
X198120000Y-66040000D03*
X38100000Y-75598000D03*
D28*
X36600000Y-75598000D03*
X31980000Y-75598000D03*
D27*
X30480000Y-75598000D03*
D11*
X279400000Y-110490000D03*
X264160000Y-143510000D03*
X279400000Y-113030000D03*
X264160000Y-140970000D03*
X279400000Y-115570000D03*
X264160000Y-138430000D03*
X279400000Y-118110000D03*
X264160000Y-135890000D03*
X279400000Y-120650000D03*
X264160000Y-133350000D03*
X279400000Y-123190000D03*
X264160000Y-130810000D03*
X279400000Y-125730000D03*
X264160000Y-128270000D03*
X279400000Y-128270000D03*
X264160000Y-125730000D03*
X279400000Y-130810000D03*
X264160000Y-123190000D03*
X279400000Y-133350000D03*
X264160000Y-120650000D03*
X279400000Y-135890000D03*
X264160000Y-118110000D03*
X279400000Y-138430000D03*
X264160000Y-115570000D03*
X279400000Y-140970000D03*
X264160000Y-113030000D03*
X279400000Y-143510000D03*
D12*
X264160000Y-110490000D03*
D29*
X193040000Y-109220000D03*
X195580000Y-111760000D03*
X195580000Y-109220000D03*
X198120000Y-111760000D03*
X198120000Y-109220000D03*
X200660000Y-111760000D03*
X198120000Y-114300000D03*
X200660000Y-114300000D03*
X198120000Y-116840000D03*
X200660000Y-116840000D03*
X198120000Y-119380000D03*
X200660000Y-119380000D03*
X198120000Y-121920000D03*
X200660000Y-121920000D03*
X198120000Y-124460000D03*
X200660000Y-124460000D03*
X198120000Y-127000000D03*
X195580000Y-124460000D03*
X195580000Y-127000000D03*
X193040000Y-124460000D03*
X193040000Y-127000000D03*
X190500000Y-124460000D03*
X190500000Y-127000000D03*
X187960000Y-124460000D03*
X187960000Y-127000000D03*
X185420000Y-124460000D03*
X185420000Y-127000000D03*
X182880000Y-124460000D03*
X185420000Y-121920000D03*
X182880000Y-121920000D03*
X185420000Y-119380000D03*
X182880000Y-119380000D03*
X185420000Y-116840000D03*
X182880000Y-116840000D03*
X185420000Y-114300000D03*
X182880000Y-114300000D03*
X185420000Y-111760000D03*
X182880000Y-111760000D03*
X185420000Y-109220000D03*
X187960000Y-111760000D03*
X187960000Y-109220000D03*
X190500000Y-111760000D03*
X190500000Y-109220000D03*
D30*
X193040000Y-111760000D03*
D11*
X222250000Y-110490000D03*
X214630000Y-143510000D03*
X222250000Y-113030000D03*
X214630000Y-140970000D03*
X222250000Y-115570000D03*
X214630000Y-138430000D03*
X222250000Y-118110000D03*
X214630000Y-135890000D03*
X222250000Y-120650000D03*
X214630000Y-133350000D03*
X222250000Y-123190000D03*
X214630000Y-130810000D03*
X222250000Y-125730000D03*
X214630000Y-128270000D03*
X222250000Y-128270000D03*
X214630000Y-125730000D03*
X222250000Y-130810000D03*
X214630000Y-123190000D03*
X222250000Y-133350000D03*
X214630000Y-120650000D03*
X222250000Y-135890000D03*
X214630000Y-118110000D03*
X222250000Y-138430000D03*
X214630000Y-115570000D03*
X222250000Y-140970000D03*
X214630000Y-113030000D03*
X222250000Y-143510000D03*
D12*
X214630000Y-110490000D03*
D11*
X107950000Y-52070000D03*
X92710000Y-100330000D03*
X107950000Y-54610000D03*
X92710000Y-97790000D03*
X107950000Y-57150000D03*
X92710000Y-95250000D03*
X107950000Y-59690000D03*
X92710000Y-92710000D03*
X107950000Y-62230000D03*
X92710000Y-90170000D03*
X107950000Y-64770000D03*
X92710000Y-87630000D03*
X107950000Y-67310000D03*
X92710000Y-85090000D03*
X107950000Y-69850000D03*
X92710000Y-82550000D03*
X107950000Y-72390000D03*
X92710000Y-80010000D03*
X107950000Y-74930000D03*
X92710000Y-77470000D03*
X107950000Y-77470000D03*
X92710000Y-74930000D03*
X107950000Y-80010000D03*
X92710000Y-72390000D03*
X107950000Y-82550000D03*
X92710000Y-69850000D03*
X107950000Y-85090000D03*
X92710000Y-67310000D03*
X107950000Y-87630000D03*
X92710000Y-64770000D03*
X107950000Y-90170000D03*
X92710000Y-62230000D03*
X107950000Y-92710000D03*
X92710000Y-59690000D03*
X107950000Y-95250000D03*
X92710000Y-57150000D03*
X107950000Y-97790000D03*
X92710000Y-54610000D03*
X107950000Y-100330000D03*
D12*
X92710000Y-52070000D03*
D11*
X238760000Y-110490000D03*
X231140000Y-143510000D03*
X238760000Y-113030000D03*
X231140000Y-140970000D03*
X238760000Y-115570000D03*
X231140000Y-138430000D03*
X238760000Y-118110000D03*
X231140000Y-135890000D03*
X238760000Y-120650000D03*
X231140000Y-133350000D03*
X238760000Y-123190000D03*
X231140000Y-130810000D03*
X238760000Y-125730000D03*
X231140000Y-128270000D03*
X238760000Y-128270000D03*
X231140000Y-125730000D03*
X238760000Y-130810000D03*
X231140000Y-123190000D03*
X238760000Y-133350000D03*
X231140000Y-120650000D03*
X238760000Y-135890000D03*
X231140000Y-118110000D03*
X238760000Y-138430000D03*
X231140000Y-115570000D03*
X238760000Y-140970000D03*
X231140000Y-113030000D03*
X238760000Y-143510000D03*
D12*
X231140000Y-110490000D03*
X247650000Y-110490000D03*
D11*
X255270000Y-143510000D03*
X247650000Y-113030000D03*
X255270000Y-140970000D03*
X247650000Y-115570000D03*
X255270000Y-138430000D03*
X247650000Y-118110000D03*
X255270000Y-135890000D03*
X247650000Y-120650000D03*
X255270000Y-133350000D03*
X247650000Y-123190000D03*
X255270000Y-130810000D03*
X247650000Y-125730000D03*
X255270000Y-128270000D03*
X247650000Y-128270000D03*
X255270000Y-125730000D03*
X247650000Y-130810000D03*
X255270000Y-123190000D03*
X247650000Y-133350000D03*
X255270000Y-120650000D03*
X247650000Y-135890000D03*
X255270000Y-118110000D03*
X247650000Y-138430000D03*
X255270000Y-115570000D03*
X247650000Y-140970000D03*
X255270000Y-113030000D03*
X247650000Y-143510000D03*
X255270000Y-110490000D03*
X49530000Y-66040000D03*
X77470000Y-81280000D03*
X52070000Y-66040000D03*
X74930000Y-81280000D03*
X54610000Y-66040000D03*
X72390000Y-81280000D03*
X57150000Y-66040000D03*
X69850000Y-81280000D03*
X59690000Y-66040000D03*
X67310000Y-81280000D03*
X62230000Y-66040000D03*
X64770000Y-81280000D03*
X64770000Y-66040000D03*
X62230000Y-81280000D03*
X67310000Y-66040000D03*
X59690000Y-81280000D03*
X69850000Y-66040000D03*
X57150000Y-81280000D03*
X72390000Y-66040000D03*
X54610000Y-81280000D03*
X74930000Y-66040000D03*
X52070000Y-81280000D03*
X77470000Y-66040000D03*
D12*
X49530000Y-81280000D03*
D31*
X83820000Y-52070000D03*
D32*
X83820000Y-49530000D03*
X83820000Y-50800000D03*
D12*
X257810000Y-85090000D03*
D11*
X306070000Y-69850000D03*
X260350000Y-85090000D03*
X303530000Y-69850000D03*
X262890000Y-85090000D03*
X300990000Y-69850000D03*
X265430000Y-85090000D03*
X298450000Y-69850000D03*
X267970000Y-85090000D03*
X295910000Y-69850000D03*
X270510000Y-85090000D03*
X293370000Y-69850000D03*
X273050000Y-85090000D03*
X290830000Y-69850000D03*
X275590000Y-85090000D03*
X288290000Y-69850000D03*
X278130000Y-85090000D03*
X285750000Y-69850000D03*
X280670000Y-85090000D03*
X283210000Y-69850000D03*
X283210000Y-85090000D03*
X280670000Y-69850000D03*
X285750000Y-85090000D03*
X278130000Y-69850000D03*
X288290000Y-85090000D03*
X275590000Y-69850000D03*
X290830000Y-85090000D03*
X273050000Y-69850000D03*
X293370000Y-85090000D03*
X270510000Y-69850000D03*
X295910000Y-85090000D03*
X267970000Y-69850000D03*
X298450000Y-85090000D03*
X265430000Y-69850000D03*
X300990000Y-85090000D03*
X262890000Y-69850000D03*
X303530000Y-85090000D03*
X260350000Y-69850000D03*
X306070000Y-85090000D03*
X257810000Y-69850000D03*
X306070000Y-95232500D03*
X290830000Y-143492500D03*
X306070000Y-97772500D03*
X290830000Y-140952500D03*
X306070000Y-100312500D03*
X290830000Y-138412500D03*
X306070000Y-102852500D03*
X290830000Y-135872500D03*
X306070000Y-105392500D03*
X290830000Y-133332500D03*
X306070000Y-107932500D03*
X290830000Y-130792500D03*
X306070000Y-110472500D03*
X290830000Y-128252500D03*
X306070000Y-113012500D03*
X290830000Y-125712500D03*
X306070000Y-115552500D03*
X290830000Y-123172500D03*
X306070000Y-118092500D03*
X290830000Y-120632500D03*
X306070000Y-120632500D03*
X290830000Y-118092500D03*
X306070000Y-123172500D03*
X290830000Y-115552500D03*
X306070000Y-125712500D03*
X290830000Y-113012500D03*
X306070000Y-128252500D03*
X290830000Y-110472500D03*
X306070000Y-130792500D03*
X290830000Y-107932500D03*
X306070000Y-133332500D03*
X290830000Y-105392500D03*
X306070000Y-135872500D03*
X290830000Y-102852500D03*
X306070000Y-138412500D03*
X290830000Y-100312500D03*
X306070000Y-140952500D03*
X290830000Y-97772500D03*
X306070000Y-143492500D03*
D12*
X290830000Y-95232500D03*
D33*
X31750000Y-83820000D03*
X34290000Y-83820000D03*
D34*
X36830000Y-83820000D03*
D29*
X109220000Y-119380000D03*
X109220000Y-116840000D03*
X111760000Y-119380000D03*
X111760000Y-116840000D03*
X114300000Y-119380000D03*
X114300000Y-116840000D03*
X116840000Y-119380000D03*
X116840000Y-116840000D03*
X119380000Y-119380000D03*
X116840000Y-121920000D03*
X119380000Y-121920000D03*
X116840000Y-124460000D03*
X119380000Y-124460000D03*
X116840000Y-127000000D03*
X119380000Y-127000000D03*
X116840000Y-129540000D03*
X119380000Y-129540000D03*
X116840000Y-132080000D03*
X119380000Y-132080000D03*
X116840000Y-134620000D03*
X119380000Y-134620000D03*
X116840000Y-137160000D03*
X119380000Y-137160000D03*
X116840000Y-139700000D03*
X119380000Y-139700000D03*
X116840000Y-142240000D03*
X114300000Y-139700000D03*
X114300000Y-142240000D03*
X111760000Y-139700000D03*
X111760000Y-142240000D03*
X109220000Y-139700000D03*
X109220000Y-142240000D03*
X106680000Y-139700000D03*
X106680000Y-142240000D03*
X104140000Y-139700000D03*
X104140000Y-142240000D03*
X101600000Y-139700000D03*
X101600000Y-142240000D03*
X99060000Y-139700000D03*
X99060000Y-142240000D03*
X96520000Y-139700000D03*
X96520000Y-142240000D03*
X93980000Y-139700000D03*
X96520000Y-137160000D03*
X93980000Y-137160000D03*
X96520000Y-134620000D03*
X93980000Y-134620000D03*
X96520000Y-132080000D03*
X93980000Y-132080000D03*
X96520000Y-129540000D03*
X93980000Y-129540000D03*
X96520000Y-127000000D03*
X93980000Y-127000000D03*
X96520000Y-124460000D03*
X93980000Y-124460000D03*
X96520000Y-121920000D03*
X93980000Y-121920000D03*
X96520000Y-119380000D03*
X93980000Y-119380000D03*
X96520000Y-116840000D03*
X99060000Y-119380000D03*
X99060000Y-116840000D03*
X101600000Y-119380000D03*
X101600000Y-116840000D03*
X104140000Y-119380000D03*
X104140000Y-116840000D03*
X106680000Y-119380000D03*
D30*
X106680000Y-116840000D03*
D11*
X181610000Y-87630000D03*
X166370000Y-80010000D03*
X179070000Y-87630000D03*
X168910000Y-80010000D03*
X176530000Y-87630000D03*
X171450000Y-80010000D03*
X173990000Y-87630000D03*
X173990000Y-80010000D03*
X171450000Y-87630000D03*
X176530000Y-80010000D03*
X168910000Y-87630000D03*
X179070000Y-80010000D03*
X166370000Y-87630000D03*
D12*
X181610000Y-80010000D03*
X49530000Y-106680000D03*
D11*
X82550000Y-91440000D03*
X52070000Y-106680000D03*
X80010000Y-91440000D03*
X54610000Y-106680000D03*
X77470000Y-91440000D03*
X57150000Y-106680000D03*
X74930000Y-91440000D03*
X59690000Y-106680000D03*
X72390000Y-91440000D03*
X62230000Y-106680000D03*
X69850000Y-91440000D03*
X64770000Y-106680000D03*
X67310000Y-91440000D03*
X67310000Y-106680000D03*
X64770000Y-91440000D03*
X69850000Y-106680000D03*
X62230000Y-91440000D03*
X72390000Y-106680000D03*
X59690000Y-91440000D03*
X74930000Y-106680000D03*
X57150000Y-91440000D03*
X77470000Y-106680000D03*
X54610000Y-91440000D03*
X80010000Y-106680000D03*
X52070000Y-91440000D03*
X82550000Y-106680000D03*
X49530000Y-91440000D03*
D29*
X162560000Y-127000000D03*
X165100000Y-127000000D03*
X162560000Y-129540000D03*
X165100000Y-129540000D03*
X162560000Y-132080000D03*
X165100000Y-132080000D03*
X162560000Y-134620000D03*
X165100000Y-134620000D03*
X162560000Y-137160000D03*
X165100000Y-137160000D03*
X162560000Y-139700000D03*
X160020000Y-137160000D03*
X160020000Y-139700000D03*
X157480000Y-137160000D03*
X157480000Y-139700000D03*
X154940000Y-137160000D03*
X154940000Y-139700000D03*
X152400000Y-137160000D03*
X152400000Y-139700000D03*
X149860000Y-137160000D03*
X149860000Y-139700000D03*
X147320000Y-137160000D03*
X147320000Y-139700000D03*
X144780000Y-137160000D03*
X144780000Y-139700000D03*
X142240000Y-137160000D03*
X142240000Y-139700000D03*
X139700000Y-137160000D03*
X139700000Y-139700000D03*
X137160000Y-137160000D03*
X137160000Y-139700000D03*
X134620000Y-137160000D03*
X137160000Y-134620000D03*
X134620000Y-134620000D03*
X137160000Y-132080000D03*
X134620000Y-132080000D03*
X137160000Y-129540000D03*
X134620000Y-129540000D03*
X137160000Y-127000000D03*
X134620000Y-127000000D03*
X137160000Y-124460000D03*
X134620000Y-124460000D03*
X137160000Y-121920000D03*
X134620000Y-121920000D03*
X137160000Y-119380000D03*
X134620000Y-119380000D03*
X137160000Y-116840000D03*
X134620000Y-116840000D03*
X137160000Y-114300000D03*
X134620000Y-114300000D03*
X137160000Y-111760000D03*
X134620000Y-111760000D03*
X137160000Y-109220000D03*
X139700000Y-111760000D03*
X139700000Y-109220000D03*
X142240000Y-111760000D03*
X142240000Y-109220000D03*
X144780000Y-111760000D03*
X144780000Y-109220000D03*
X147320000Y-111760000D03*
X147320000Y-109220000D03*
X149860000Y-111760000D03*
X149860000Y-109220000D03*
X152400000Y-111760000D03*
X152400000Y-109220000D03*
X154940000Y-111760000D03*
X154940000Y-109220000D03*
X157480000Y-111760000D03*
X157480000Y-109220000D03*
X160020000Y-111760000D03*
X160020000Y-109220000D03*
X162560000Y-111760000D03*
X162560000Y-109220000D03*
X165100000Y-111760000D03*
X162560000Y-114300000D03*
X165100000Y-114300000D03*
X162560000Y-116840000D03*
X165100000Y-116840000D03*
X162560000Y-119380000D03*
X165100000Y-119380000D03*
X162560000Y-121920000D03*
X165100000Y-121920000D03*
X162560000Y-124460000D03*
D30*
X165100000Y-124460000D03*
D27*
X246380000Y-87630000D03*
D28*
X244880000Y-87630000D03*
X233910000Y-87630000D03*
D27*
X232410000Y-87630000D03*
X238760000Y-87630000D03*
D28*
X240260000Y-87630000D03*
X225830000Y-87630000D03*
D27*
X227330000Y-87630000D03*
D28*
X228830000Y-66040000D03*
D27*
X227330000Y-66040000D03*
D25*
X74930000Y-140970000D03*
X74930000Y-143510000D03*
X72390000Y-140970000D03*
X72390000Y-143510000D03*
X69850000Y-140970000D03*
X69850000Y-143510000D03*
X67310000Y-140970000D03*
X67310000Y-143510000D03*
X64770000Y-140970000D03*
X64770000Y-143510000D03*
X62230000Y-140970000D03*
X62230000Y-143510000D03*
X59690000Y-140970000D03*
X59690000Y-143510000D03*
X57150000Y-140970000D03*
D26*
X57150000Y-143510000D03*
D14*
X116840000Y-60960000D03*
X114340000Y-60960000D03*
X121960000Y-60960000D03*
X124460000Y-60960000D03*
D24*
X123190000Y-73660000D03*
D23*
X123190000Y-66040000D03*
X119380000Y-66040000D03*
D24*
X119380000Y-73660000D03*
D14*
X72390000Y-57110000D03*
X72390000Y-54610000D03*
X72390000Y-52110000D03*
D35*
X70190000Y-49010000D03*
X73590000Y-60310000D03*
D36*
X293370000Y-143510000D03*
X117475000Y-86995000D03*
X69215000Y-101600000D03*
X81915000Y-101600000D03*
X90170000Y-88265000D03*
X83185000Y-88265000D03*
X117475000Y-63500000D03*
X117475000Y-81280000D03*
X257175000Y-67945000D03*
X201930000Y-82550000D03*
X257175000Y-79375000D03*
X26670000Y-71755000D03*
X26670000Y-73660000D03*
X26670000Y-75565000D03*
X26670000Y-77470000D03*
X32385000Y-73660000D03*
X36195000Y-73660000D03*
X40005000Y-79375000D03*
X32385000Y-79375000D03*
X36195000Y-77470000D03*
X32385000Y-77470000D03*
X36195000Y-79375000D03*
X28575000Y-77470000D03*
X28575000Y-75565000D03*
X28575000Y-73660000D03*
X28575000Y-71755000D03*
X30480000Y-71755000D03*
X30480000Y-73660000D03*
X26670000Y-79375000D03*
X28575000Y-79375000D03*
X40005000Y-77470000D03*
X40005000Y-75565000D03*
X40005000Y-73660000D03*
X40005000Y-71755000D03*
X41910000Y-71755000D03*
X41910000Y-73660000D03*
X41910000Y-75565000D03*
X41910000Y-77470000D03*
X41910000Y-79375000D03*
X32385000Y-71755000D03*
X36195000Y-71755000D03*
X272415000Y-124460000D03*
X292735000Y-74295000D03*
X300355000Y-74295000D03*
X77470000Y-94615000D03*
X87630000Y-94615000D03*
X87630000Y-86995000D03*
X87630000Y-90170000D03*
X89535000Y-90170000D03*
X89535000Y-76200000D03*
X247650000Y-77470000D03*
X248920000Y-86995000D03*
X292100000Y-86995000D03*
X210185000Y-75565000D03*
X212090000Y-77470000D03*
X90170000Y-85725000D03*
X78105000Y-83820000D03*
X90170000Y-83820000D03*
X70485000Y-63500000D03*
X257810000Y-90805000D03*
X258445000Y-144780000D03*
X103505000Y-53340000D03*
X110490000Y-114300000D03*
X122555000Y-96520000D03*
X103505000Y-114300000D03*
X122555000Y-114300000D03*
X234315000Y-96520000D03*
X234315000Y-123190000D03*
X186690000Y-106680000D03*
X134620000Y-106680000D03*
X127635000Y-100965000D03*
X120015000Y-100965000D03*
X120015000Y-97790000D03*
X102870000Y-55245000D03*
X109220000Y-114935000D03*
X123190000Y-97155000D03*
X102870000Y-114935000D03*
X123190000Y-114935000D03*
X234950000Y-97155000D03*
X234950000Y-114300000D03*
X44450000Y-116840000D03*
X300355000Y-114935000D03*
X299085000Y-71755000D03*
X62230000Y-100965000D03*
X45085000Y-108585000D03*
X185420000Y-106045000D03*
X135255000Y-106045000D03*
X128270000Y-100330000D03*
X213995000Y-106045000D03*
X213995000Y-99695000D03*
X270510000Y-71755000D03*
X269240000Y-83820000D03*
X236220000Y-84455000D03*
X236220000Y-99695000D03*
X118110000Y-94615000D03*
X118110000Y-107315000D03*
X184150000Y-107315000D03*
X184150000Y-120015000D03*
X303530000Y-138430000D03*
X304165000Y-90170000D03*
X262255000Y-90170000D03*
X303530000Y-100965000D03*
X95250000Y-104775000D03*
X216535000Y-102235000D03*
X216535000Y-139700000D03*
X86360000Y-104775000D03*
X86360000Y-97790000D03*
X49530000Y-98425000D03*
X66040000Y-97790000D03*
X48895000Y-111125000D03*
X34925000Y-111125000D03*
X95250000Y-67310000D03*
X286385000Y-111125000D03*
X286385000Y-72390000D03*
X102235000Y-85725000D03*
X102235000Y-100965000D03*
X82550000Y-102235000D03*
X40005000Y-109855000D03*
X109855000Y-76835000D03*
X246380000Y-76835000D03*
X247650000Y-72390000D03*
X266065000Y-72390000D03*
X82550000Y-109855000D03*
X287655000Y-99060000D03*
X287655000Y-143510000D03*
X259715000Y-89535000D03*
X94615000Y-117475000D03*
X94615000Y-104140000D03*
X212725000Y-142240000D03*
X212725000Y-101600000D03*
X86995000Y-104140000D03*
X86995000Y-97155000D03*
X68580000Y-97155000D03*
X49530000Y-97155000D03*
X46990000Y-97790000D03*
X46355000Y-110490000D03*
X32385000Y-110490000D03*
X287655000Y-89535000D03*
X288290000Y-101600000D03*
X288290000Y-138430000D03*
X288290000Y-90805000D03*
X264795000Y-90805000D03*
X95885000Y-114935000D03*
X97155000Y-118110000D03*
X95885000Y-105410000D03*
X217170000Y-102870000D03*
X217170000Y-137160000D03*
X85725000Y-105410000D03*
X85725000Y-98425000D03*
X52070000Y-99060000D03*
X63500000Y-98425000D03*
X51435000Y-111760000D03*
X37465000Y-111760000D03*
X95885000Y-72390000D03*
X302895000Y-133350000D03*
X302895000Y-104140000D03*
X263525000Y-88900000D03*
X97790000Y-121920000D03*
X97155000Y-115570000D03*
X97155000Y-106045000D03*
X217805000Y-103505000D03*
X217805000Y-134620000D03*
X85090000Y-106045000D03*
X85090000Y-99060000D03*
X54610000Y-99695000D03*
X60960000Y-99060000D03*
X38735000Y-113665000D03*
X53975000Y-113665000D03*
X302895000Y-89535000D03*
X96520000Y-74930000D03*
X304800000Y-91440000D03*
X259715000Y-91440000D03*
X259080000Y-134620000D03*
X270510000Y-91440000D03*
X109855000Y-78105000D03*
X113030000Y-119380000D03*
X113665000Y-115570000D03*
X224155000Y-89535000D03*
X109855000Y-111125000D03*
X113665000Y-111125000D03*
X224155000Y-134620000D03*
X73025000Y-114935000D03*
X46355000Y-114935000D03*
X55245000Y-83820000D03*
X73025000Y-83820000D03*
X73660000Y-88900000D03*
X109855000Y-88900000D03*
X304165000Y-97155000D03*
X293370000Y-92075000D03*
X293370000Y-97155000D03*
X260350000Y-92075000D03*
X259715000Y-132080000D03*
X267970000Y-92075000D03*
X115570000Y-119380000D03*
X110490000Y-90170000D03*
X114935000Y-115570000D03*
X224790000Y-90170000D03*
X110490000Y-110490000D03*
X114935000Y-110490000D03*
X224790000Y-132080000D03*
X70485000Y-114300000D03*
X43815000Y-114300000D03*
X71120000Y-85090000D03*
X110490000Y-81280000D03*
X80010000Y-84455000D03*
X80010000Y-81915000D03*
X110490000Y-74930000D03*
X302260000Y-140970000D03*
X258445000Y-88265000D03*
X302260000Y-88265000D03*
X302260000Y-98425000D03*
X93980000Y-103505000D03*
X212090000Y-140970000D03*
X212090000Y-100965000D03*
X87630000Y-103505000D03*
X87630000Y-96520000D03*
X52070000Y-95885000D03*
X71120000Y-96520000D03*
X33655000Y-112395000D03*
X53340000Y-96520000D03*
X52705000Y-112395000D03*
X111125000Y-90805000D03*
X201930000Y-90805000D03*
X225425000Y-90805000D03*
X123190000Y-123190000D03*
X111125000Y-109855000D03*
X123825000Y-109855000D03*
X225425000Y-129540000D03*
X111125000Y-72390000D03*
X288925000Y-104140000D03*
X288925000Y-133350000D03*
X260985000Y-87630000D03*
X95250000Y-121920000D03*
X93345000Y-118110000D03*
X93345000Y-114300000D03*
X98425000Y-114300000D03*
X97155000Y-83185000D03*
X98425000Y-106680000D03*
X218440000Y-104140000D03*
X218440000Y-132080000D03*
X84455000Y-106680000D03*
X84455000Y-99695000D03*
X57150000Y-100330000D03*
X58420000Y-99695000D03*
X36195000Y-113030000D03*
X56515000Y-113030000D03*
X288925000Y-87630000D03*
X111760000Y-91440000D03*
X200660000Y-91440000D03*
X226060000Y-91440000D03*
X111760000Y-109220000D03*
X120015000Y-109220000D03*
X226060000Y-127000000D03*
X111760000Y-69850000D03*
X301625000Y-135890000D03*
X303547500Y-95232500D03*
X301625000Y-95885000D03*
X97155000Y-85725000D03*
X97790000Y-102235000D03*
X210820000Y-99695000D03*
X210820000Y-135890000D03*
X88900000Y-102235000D03*
X88900000Y-95250000D03*
X57150000Y-94615000D03*
X76200000Y-95250000D03*
X79375000Y-110490000D03*
X88900000Y-110490000D03*
X287020000Y-96520000D03*
X287020000Y-139700000D03*
X305435000Y-87630000D03*
X96520000Y-88265000D03*
X96520000Y-102870000D03*
X211455000Y-100330000D03*
X211455000Y-138430000D03*
X88265000Y-102870000D03*
X88265000Y-95885000D03*
X54610000Y-95250000D03*
X73660000Y-95885000D03*
X81915000Y-111125000D03*
X88265000Y-111125000D03*
X290830000Y-87630000D03*
X113030000Y-92710000D03*
X227330000Y-92710000D03*
X113030000Y-107950000D03*
X119380000Y-107950000D03*
X227330000Y-121920000D03*
X113030000Y-64770000D03*
X113665000Y-62865000D03*
X113665000Y-93345000D03*
X227965000Y-93345000D03*
X113665000Y-107315000D03*
X116840000Y-107315000D03*
X227965000Y-119380000D03*
X106045000Y-60325000D03*
X228600000Y-93980000D03*
X106045000Y-111760000D03*
X115570000Y-111760000D03*
X228600000Y-116840000D03*
X106045000Y-91440000D03*
X105410000Y-57785000D03*
X120650000Y-94615000D03*
X120650000Y-112395000D03*
X229235000Y-94615000D03*
X105410000Y-112395000D03*
X114300000Y-112395000D03*
X229235000Y-117475000D03*
X187960000Y-104775000D03*
X136525000Y-104775000D03*
X100965000Y-97790000D03*
X100965000Y-84455000D03*
X130810000Y-84455000D03*
X104775000Y-55245000D03*
X113030000Y-113030000D03*
X121285000Y-95250000D03*
X104775000Y-113030000D03*
X121285000Y-113030000D03*
X233045000Y-95250000D03*
X233045000Y-120015000D03*
X300990000Y-104775000D03*
X302260000Y-71120000D03*
X267970000Y-71755000D03*
X72390000Y-108585000D03*
X42545000Y-109220000D03*
X72390000Y-100965000D03*
X189230000Y-105410000D03*
X135890000Y-105410000D03*
X101600000Y-100330000D03*
X101600000Y-86995000D03*
X130175000Y-86995000D03*
X213360000Y-105410000D03*
X213360000Y-99060000D03*
X267970000Y-83185000D03*
X235585000Y-83820000D03*
X235585000Y-99060000D03*
X104140000Y-52705000D03*
X111760000Y-113665000D03*
X121920000Y-95885000D03*
X104140000Y-113665000D03*
X121920000Y-113665000D03*
X233680000Y-95885000D03*
X233680000Y-128270000D03*
X258445000Y-67310000D03*
X238125000Y-67310000D03*
X260985000Y-80010000D03*
X307975000Y-80010000D03*
X308610000Y-137795000D03*
X309245000Y-135255000D03*
X260985000Y-66675000D03*
X240665000Y-66675000D03*
X263525000Y-79375000D03*
X308610000Y-79375000D03*
X263525000Y-66040000D03*
X243205000Y-66040000D03*
X266065000Y-78740000D03*
X309245000Y-78740000D03*
X309880000Y-130175000D03*
X266065000Y-65405000D03*
X245745000Y-65405000D03*
X267970000Y-78105000D03*
X309880000Y-78105000D03*
X310515000Y-125095000D03*
X284497500Y-123172500D03*
X283845000Y-80645000D03*
X250825000Y-80645000D03*
X249555000Y-74295000D03*
X283862500Y-130792500D03*
X281305000Y-81280000D03*
X250190000Y-81280000D03*
X248920000Y-74930000D03*
X184150000Y-130810000D03*
X203835000Y-130810000D03*
X203835000Y-107950000D03*
X283210000Y-136525000D03*
X278765000Y-81915000D03*
X249555000Y-81915000D03*
X248285000Y-75565000D03*
X282575000Y-137795000D03*
X276225000Y-82550000D03*
X248920000Y-82550000D03*
X247650000Y-76200000D03*
X182880000Y-145415000D03*
X81280000Y-109220000D03*
X83820000Y-109220000D03*
X83820000Y-144145000D03*
X102235000Y-125730000D03*
X125730000Y-125730000D03*
X126365000Y-123190000D03*
X180340000Y-125730000D03*
X208915000Y-124460000D03*
X208915000Y-115570000D03*
X180340000Y-116840000D03*
X103505000Y-124460000D03*
X114935000Y-124460000D03*
X121285000Y-124460000D03*
X125095000Y-124460000D03*
X126365000Y-120650000D03*
X180975000Y-123190000D03*
X172085000Y-128270000D03*
X170180000Y-78740000D03*
X172720000Y-126365000D03*
X172720000Y-83820000D03*
X132080000Y-82550000D03*
X131445000Y-68580000D03*
X206375000Y-128905000D03*
X206375000Y-146050000D03*
X266700000Y-130810000D03*
X266700000Y-145415000D03*
X105410000Y-148590000D03*
X200660000Y-146050000D03*
X210185000Y-121920000D03*
X210185000Y-129540000D03*
X225425000Y-130810000D03*
X225425000Y-144780000D03*
X209550000Y-118110000D03*
X209550000Y-144780000D03*
X202565000Y-119380000D03*
X207010000Y-121285000D03*
X207010000Y-145415000D03*
X240665000Y-130810000D03*
X240665000Y-145415000D03*
X195580000Y-120650000D03*
X199390000Y-120650000D03*
X199390000Y-143510000D03*
X182245000Y-127635000D03*
X182245000Y-143510000D03*
X181610000Y-76200000D03*
X172720000Y-76200000D03*
X99060000Y-57785000D03*
X99060000Y-96520000D03*
X191770000Y-97790000D03*
X240665000Y-115570000D03*
X238125000Y-97790000D03*
X99695000Y-60325000D03*
X99695000Y-99060000D03*
X194310000Y-98425000D03*
X241300000Y-111760000D03*
X238760000Y-98425000D03*
X100330000Y-62865000D03*
X100330000Y-101600000D03*
X196850000Y-99060000D03*
X62230000Y-93345000D03*
X118745000Y-110490000D03*
X133350000Y-110490000D03*
X118745000Y-95885000D03*
X59690000Y-70485000D03*
X191770000Y-71120000D03*
X191770000Y-84455000D03*
X207010000Y-84455000D03*
X202565000Y-114300000D03*
X207010000Y-114300000D03*
X132080000Y-130810000D03*
X132080000Y-127000000D03*
X123825000Y-133350000D03*
X123825000Y-128905000D03*
X114935000Y-134620000D03*
X121285000Y-132080000D03*
X133350000Y-131445000D03*
X113665000Y-133350000D03*
X122555000Y-132080000D03*
X98425000Y-129540000D03*
X114935000Y-129540000D03*
X122555000Y-129540000D03*
X114935000Y-137160000D03*
X121285000Y-134620000D03*
X157480000Y-147320000D03*
X99060000Y-146050000D03*
X153670000Y-146685000D03*
X154940000Y-146050000D03*
X151130000Y-145415000D03*
X148590000Y-144780000D03*
X149860000Y-144145000D03*
X146050000Y-143510000D03*
X121285000Y-140335000D03*
X135890000Y-140335000D03*
X135890000Y-142875000D03*
X143510000Y-142875000D03*
X138430000Y-141605000D03*
X126365000Y-138430000D03*
X122555000Y-139700000D03*
X177800000Y-110490000D03*
X167005000Y-110490000D03*
X167005000Y-120650000D03*
X167640000Y-119380000D03*
X167640000Y-116840000D03*
X175260000Y-116840000D03*
X194310000Y-69850000D03*
X190500000Y-78740000D03*
X189230000Y-78105000D03*
X187960000Y-74295000D03*
X163830000Y-77470000D03*
X148590000Y-77470000D03*
X143510000Y-76200000D03*
X149860000Y-76200000D03*
X160020000Y-62230000D03*
X144780000Y-62230000D03*
X152400000Y-54610000D03*
X171450000Y-59690000D03*
X153035000Y-59690000D03*
X153654760Y-52070000D03*
X168910000Y-58420000D03*
X154305000Y-58420000D03*
X177800000Y-60960000D03*
X142240000Y-60960000D03*
X185420000Y-77470000D03*
X177800000Y-77470000D03*
X185420000Y-129540000D03*
X208280000Y-129540000D03*
X208280000Y-99060000D03*
X266700000Y-100330000D03*
X140970000Y-110490000D03*
X144145000Y-113030000D03*
X161290000Y-113030000D03*
X149860000Y-114300000D03*
X167640000Y-114300000D03*
X173990000Y-115570000D03*
X179070000Y-111125000D03*
X175895000Y-111125000D03*
X175895000Y-118110000D03*
X292735000Y-73025000D03*
X255905000Y-73025000D03*
X290195000Y-73660000D03*
X255270000Y-73660000D03*
X287655000Y-74295000D03*
X254635000Y-74295000D03*
X285115000Y-74930000D03*
X254000000Y-74930000D03*
X280035000Y-75565000D03*
X253365000Y-75565000D03*
X277495000Y-76200000D03*
X252730000Y-76200000D03*
X274955000Y-76835000D03*
X252095000Y-76835000D03*
X272415000Y-77470000D03*
X251460000Y-77470000D03*
X244475000Y-148590000D03*
X179070000Y-144780000D03*
X179070000Y-148590000D03*
X158750000Y-142875000D03*
X243840000Y-147955000D03*
X181610000Y-147955000D03*
X181610000Y-130810000D03*
X151130000Y-128270000D03*
X243205000Y-147320000D03*
X186690000Y-117475000D03*
X186690000Y-147320000D03*
X242570000Y-146685000D03*
X198120000Y-146685000D03*
X198120000Y-142240000D03*
X180340000Y-111760000D03*
X179070000Y-139700000D03*
X156210000Y-141605000D03*
X199390000Y-83820000D03*
X203200000Y-83820000D03*
X138430000Y-74930000D03*
X146050000Y-74930000D03*
X297180000Y-109220000D03*
X75565000Y-103505000D03*
X81280000Y-103505000D03*
X81280000Y-61595000D03*
X288925000Y-64770000D03*
X289560000Y-93345000D03*
X292735000Y-93345000D03*
X228600000Y-83820000D03*
X231140000Y-83820000D03*
X234950000Y-68580000D03*
X207010000Y-68580000D03*
X209550000Y-62230000D03*
X241935000Y-62230000D03*
X240030000Y-63500000D03*
X213360000Y-63500000D03*
X232410000Y-69850000D03*
X215900000Y-69850000D03*
X112395000Y-92075000D03*
X198120000Y-92075000D03*
X226695000Y-92075000D03*
X112395000Y-108585000D03*
X118110000Y-108585000D03*
X226695000Y-124460000D03*
X112395000Y-67310000D03*
X40640000Y-137160000D03*
X40640000Y-130175000D03*
X46990000Y-130175000D03*
X50800000Y-144780000D03*
X43180000Y-137795000D03*
X43180000Y-129540000D03*
X52070000Y-129540000D03*
X52070000Y-144145000D03*
X50800000Y-130175000D03*
X54610000Y-130175000D03*
X45720000Y-138430000D03*
X45720000Y-128905000D03*
X57150000Y-128905000D03*
X53340000Y-129540000D03*
X59690000Y-129540000D03*
X55880000Y-130175000D03*
X62230000Y-130175000D03*
X58420000Y-128905000D03*
X64770000Y-128905000D03*
X74930000Y-138430000D03*
X46990000Y-135890000D03*
X73660000Y-137795000D03*
X49530000Y-135255000D03*
X72390000Y-137160000D03*
X52070000Y-135255000D03*
X71120000Y-136525000D03*
X54610000Y-135255000D03*
X69850000Y-135890000D03*
X59690000Y-135255000D03*
X72390000Y-73025000D03*
X121285000Y-139065000D03*
X135890000Y-139065000D03*
X139065000Y-135890000D03*
X190500000Y-114300000D03*
X191770000Y-137160000D03*
X85090000Y-134620000D03*
X85090000Y-142240000D03*
X118110000Y-142875000D03*
X125095000Y-142875000D03*
X187960000Y-132080000D03*
X139065000Y-130810000D03*
X107950000Y-144780000D03*
X77470000Y-114300000D03*
X80010000Y-60960000D03*
X302895000Y-62865000D03*
D37*
X290847500Y-143510000D02*
X290830000Y-143492500D01*
X293370000Y-143510000D02*
X290847500Y-143510000D01*
X117475000Y-63500000D02*
X117475000Y-63500000D01*
X123190000Y-87630000D02*
X118110000Y-87630000D01*
X118110000Y-87630000D02*
X117475000Y-86995000D01*
X117475000Y-86995000D02*
X117475000Y-86995000D01*
X69215000Y-101600000D02*
X81915000Y-101600000D01*
X81915000Y-101600000D02*
X81915000Y-101600000D01*
X83185000Y-88265000D02*
X90170000Y-88265000D01*
X106045000Y-64770000D02*
X92710000Y-64770000D01*
X107315000Y-63500000D02*
X106045000Y-64770000D01*
X117475000Y-63500000D02*
X107315000Y-63500000D01*
X257175000Y-79375000D02*
X257175000Y-79375000D01*
X257175000Y-67945000D02*
X295275000Y-67945000D01*
X295275000Y-67945000D02*
X295910000Y-68580000D01*
X295910000Y-68580000D02*
X295910000Y-69850000D01*
X133985000Y-82550000D02*
X132715000Y-81280000D01*
X247015000Y-82550000D02*
X133985000Y-82550000D01*
X250190000Y-79375000D02*
X247015000Y-82550000D01*
X132715000Y-81280000D02*
X117475000Y-81280000D01*
X257175000Y-79375000D02*
X250190000Y-79375000D01*
X140591540Y-54610000D02*
X149748240Y-54610000D01*
X101517000Y-139624000D02*
X102863000Y-140970000D01*
X102863000Y-140970000D02*
X105410000Y-140970000D01*
X105410000Y-140977000D02*
X106597000Y-142164000D01*
X105410000Y-140970000D02*
X105410000Y-140977000D01*
D38*
X152400000Y-87630000D02*
X157480000Y-87630000D01*
X181610000Y-87630000D02*
X186690000Y-87630000D01*
X88900000Y-127000000D02*
X90170000Y-128270000D01*
X90170000Y-128270000D02*
X95250000Y-128270000D01*
X95250000Y-128270000D02*
X96520000Y-127000000D01*
X290807500Y-115530000D02*
X290830000Y-115552500D01*
X285750000Y-115530000D02*
X290807500Y-115530000D01*
X276820000Y-93980000D02*
X276860000Y-94020000D01*
X271780000Y-93980000D02*
X276820000Y-93980000D01*
X87630000Y-77470000D02*
X92710000Y-77470000D01*
X77510000Y-66080000D02*
X77470000Y-66040000D01*
X82550000Y-66080000D02*
X77510000Y-66080000D01*
X134580000Y-124500000D02*
X134620000Y-124460000D01*
X129540000Y-124500000D02*
X134580000Y-124500000D01*
X129540000Y-137160000D02*
X134620000Y-137160000D01*
X170140000Y-121920000D02*
X170180000Y-121880000D01*
X165100000Y-121920000D02*
X170140000Y-121920000D01*
X137160000Y-116840000D02*
X135890000Y-118110000D01*
X135890000Y-118110000D02*
X130810000Y-118110000D01*
X130810000Y-118110000D02*
X129540000Y-116840000D01*
X205740000Y-116840000D02*
X200660000Y-116840000D01*
X203200000Y-135890000D02*
X208280000Y-135890000D01*
X189230000Y-135890000D02*
X184150000Y-135890000D01*
X190500000Y-124460000D02*
X191770000Y-123190000D01*
X191770000Y-123190000D02*
X204470000Y-123190000D01*
X204470000Y-123190000D02*
X205740000Y-124460000D01*
X177800000Y-121920000D02*
X182880000Y-121920000D01*
X189230000Y-113030000D02*
X190500000Y-111760000D01*
X177800000Y-113030000D02*
X189230000Y-113030000D01*
X162560000Y-111760000D02*
X163830000Y-113030000D01*
X163830000Y-113030000D02*
X168910000Y-113030000D01*
X168910000Y-113030000D02*
X170180000Y-111760000D01*
X144780000Y-109220000D02*
X143510000Y-107950000D01*
X143510000Y-107950000D02*
X130810000Y-107950000D01*
X130810000Y-107950000D02*
X129540000Y-109220000D01*
X109220000Y-119380000D02*
X110490000Y-120650000D01*
X123190000Y-120650000D02*
X124460000Y-119380000D01*
X110490000Y-120650000D02*
X123190000Y-120650000D01*
X59690000Y-91440000D02*
X57150000Y-88900000D01*
X57150000Y-88900000D02*
X54610000Y-88900000D01*
X54610000Y-88900000D02*
X52070000Y-86360000D01*
X85090000Y-119380000D02*
X69850000Y-119380000D01*
X69850000Y-119380000D02*
X67310000Y-116840000D01*
X152400000Y-139700000D02*
X153670000Y-138430000D01*
X153670000Y-138430000D02*
X170180000Y-138430000D01*
X162560000Y-134620000D02*
X163830000Y-133350000D01*
X163830000Y-133350000D02*
X168910000Y-133350000D01*
X168910000Y-133350000D02*
X170180000Y-132080000D01*
X88900000Y-134620000D02*
X93980000Y-134620000D01*
D37*
X290830000Y-128252500D02*
X306070000Y-128252500D01*
X289577500Y-124460000D02*
X290830000Y-125712500D01*
X272415000Y-124460000D02*
X289577500Y-124460000D01*
X292735000Y-74295000D02*
X300355000Y-74295000D01*
X87630000Y-94615000D02*
X87630000Y-94615000D01*
X87630000Y-94615000D02*
X77470000Y-94615000D01*
X83820000Y-86360000D02*
X86995000Y-86360000D01*
X86995000Y-86360000D02*
X87630000Y-86995000D01*
X87630000Y-86995000D02*
X87630000Y-86995000D01*
X92710000Y-90170000D02*
X89535000Y-90170000D01*
X87630000Y-90170000D02*
X87630000Y-90170000D01*
X89535000Y-90170000D02*
X87630000Y-90170000D01*
X210185000Y-75565000D02*
X210185000Y-75565000D01*
X247650000Y-77470000D02*
X247650000Y-77470000D01*
X248920000Y-86995000D02*
X292100000Y-86995000D01*
X292100000Y-86995000D02*
X292100000Y-86995000D01*
X142240000Y-76200000D02*
X89535000Y-76200000D01*
X142875000Y-75565000D02*
X142240000Y-76200000D01*
X210185000Y-75565000D02*
X142875000Y-75565000D01*
X212090000Y-77470000D02*
X247650000Y-77470000D01*
X83820000Y-54610000D02*
X83820000Y-52070000D01*
X82550000Y-55880000D02*
X83820000Y-54610000D01*
X82550000Y-55880000D02*
X85090000Y-58420000D01*
X85090000Y-58420000D02*
X87630000Y-58420000D01*
X73700000Y-57110000D02*
X72390000Y-57110000D01*
X74930000Y-55880000D02*
X73700000Y-57110000D01*
X82550000Y-55880000D02*
X74930000Y-55880000D01*
X107950000Y-87630000D02*
X97790000Y-87630000D01*
X97790000Y-87630000D02*
X97155000Y-87630000D01*
X97155000Y-87630000D02*
X95885000Y-86360000D01*
X95885000Y-86360000D02*
X90805000Y-86360000D01*
X90805000Y-86360000D02*
X90170000Y-85725000D01*
X90170000Y-85725000D02*
X90170000Y-85725000D01*
X78105000Y-83820000D02*
X90170000Y-83820000D01*
X90170000Y-83820000D02*
X90170000Y-83820000D01*
X70485000Y-63500000D02*
X59690000Y-63500000D01*
X227965000Y-90805000D02*
X257810000Y-90805000D01*
X226060000Y-88900000D02*
X227965000Y-90805000D01*
X111760000Y-88900000D02*
X226060000Y-88900000D01*
X110490000Y-87630000D02*
X111760000Y-88900000D01*
X107950000Y-87630000D02*
X110490000Y-87630000D01*
X257810000Y-90805000D02*
X257810000Y-90805000D01*
X304800000Y-144780000D02*
X306070000Y-143492500D01*
X258445000Y-144780000D02*
X304800000Y-144780000D01*
X57150000Y-66040000D02*
X57150000Y-64135000D01*
X57150000Y-64135000D02*
X57785000Y-63500000D01*
X57785000Y-63500000D02*
X59690000Y-63500000D01*
X222250000Y-123190000D02*
X228600000Y-123190000D01*
X228600000Y-123190000D02*
X228600000Y-123190000D01*
X232410000Y-121920000D02*
X233680000Y-123190000D01*
X229870000Y-121920000D02*
X232410000Y-121920000D01*
X233680000Y-123190000D02*
X234315000Y-123190000D01*
X238760000Y-123190000D02*
X245110000Y-123190000D01*
X245110000Y-123190000D02*
X246380000Y-121920000D01*
X255270000Y-123190000D02*
X250190000Y-123190000D01*
X250190000Y-123190000D02*
X248920000Y-121920000D01*
X246380000Y-121920000D02*
X248920000Y-121920000D01*
X255270000Y-123190000D02*
X261620000Y-123190000D01*
X261620000Y-123190000D02*
X262890000Y-121920000D01*
X262890000Y-121920000D02*
X265430000Y-121920000D01*
X265430000Y-121920000D02*
X266700000Y-123190000D01*
X266700000Y-123190000D02*
X279400000Y-123190000D01*
X103505000Y-53340000D02*
X103505000Y-53340000D01*
X102235000Y-52070000D02*
X92710000Y-52070000D01*
X103505000Y-53340000D02*
X102235000Y-52070000D01*
X103505000Y-114300000D02*
X103505000Y-114300000D01*
X122555000Y-114300000D02*
X122555000Y-114300000D01*
X228600000Y-123190000D02*
X229870000Y-121920000D01*
X104140000Y-114300000D02*
X110490000Y-114300000D01*
X103505000Y-114300000D02*
X104140000Y-114300000D01*
X114935000Y-114300000D02*
X110490000Y-114300000D01*
X122555000Y-114300000D02*
X114935000Y-114300000D01*
X122555000Y-96520000D02*
X234315000Y-96520000D01*
X234315000Y-96520000D02*
X234315000Y-96520000D01*
X234315000Y-123190000D02*
X238760000Y-123190000D01*
X186690000Y-106680000D02*
X134620000Y-106680000D01*
X134620000Y-106680000D02*
X134620000Y-106680000D01*
X107950000Y-97790000D02*
X120015000Y-97790000D01*
X127635000Y-100965000D02*
X120015000Y-100965000D01*
X120015000Y-100965000D02*
X120015000Y-100965000D01*
X120015000Y-97790000D02*
X120015000Y-97790000D01*
X214630000Y-113030000D02*
X219710000Y-113030000D01*
X219710000Y-113030000D02*
X220980000Y-114300000D01*
X220980000Y-114300000D02*
X228600000Y-114300000D01*
X228600000Y-114300000D02*
X229235000Y-113665000D01*
X229870000Y-113030000D02*
X231140000Y-113030000D01*
X231140000Y-113030000D02*
X232410000Y-113030000D01*
X232410000Y-113030000D02*
X233680000Y-114300000D01*
X233680000Y-114300000D02*
X234950000Y-114300000D01*
X245110000Y-114300000D02*
X246380000Y-113030000D01*
X246380000Y-113030000D02*
X247650000Y-113030000D01*
X247650000Y-113030000D02*
X248920000Y-113030000D01*
X248920000Y-113030000D02*
X250190000Y-114300000D01*
X250190000Y-114300000D02*
X261620000Y-114300000D01*
X261620000Y-114300000D02*
X262890000Y-113030000D01*
X262890000Y-113030000D02*
X264160000Y-113030000D01*
X92710000Y-54610000D02*
X102235000Y-54610000D01*
X102235000Y-54610000D02*
X102870000Y-55245000D01*
X102870000Y-55245000D02*
X102870000Y-55245000D01*
X102870000Y-114935000D02*
X102870000Y-114935000D01*
X123190000Y-114935000D02*
X123190000Y-114935000D01*
X229235000Y-113665000D02*
X229870000Y-113030000D01*
X103505000Y-114935000D02*
X109220000Y-114935000D01*
X102870000Y-114935000D02*
X103505000Y-114935000D01*
X115570000Y-114935000D02*
X109220000Y-114935000D01*
X123190000Y-114935000D02*
X115570000Y-114935000D01*
X123190000Y-97155000D02*
X234950000Y-97155000D01*
X234950000Y-97155000D02*
X234950000Y-97155000D01*
X234950000Y-114300000D02*
X245110000Y-114300000D01*
X306070000Y-115552500D02*
X300972500Y-115552500D01*
X300972500Y-115552500D02*
X300355000Y-114935000D01*
X300355000Y-114935000D02*
X300355000Y-114935000D01*
X62230000Y-100965000D02*
X62230000Y-100965000D01*
X90805000Y-99060000D02*
X93980000Y-99060000D01*
X89535000Y-100330000D02*
X90805000Y-99060000D01*
X62865000Y-100330000D02*
X89535000Y-100330000D01*
X62230000Y-100965000D02*
X62865000Y-100330000D01*
X62230000Y-106680000D02*
X62230000Y-107950000D01*
X62230000Y-107950000D02*
X61595000Y-108585000D01*
X61595000Y-108585000D02*
X45085000Y-108585000D01*
X45085000Y-108585000D02*
X45085000Y-108585000D01*
X185420000Y-106045000D02*
X135255000Y-106045000D01*
X135255000Y-106045000D02*
X135255000Y-106045000D01*
X107950000Y-100330000D02*
X128270000Y-100330000D01*
X94615000Y-99695000D02*
X107315000Y-99695000D01*
X107315000Y-99695000D02*
X107950000Y-100330000D01*
X93980000Y-99060000D02*
X94615000Y-99695000D01*
X185420000Y-106045000D02*
X213995000Y-106045000D01*
X213995000Y-106045000D02*
X213995000Y-106045000D01*
X270510000Y-71755000D02*
X299085000Y-71755000D01*
X269240000Y-83820000D02*
X257022798Y-83820000D01*
X257022798Y-83820000D02*
X236855000Y-83820000D01*
X236855000Y-83820000D02*
X236220000Y-84455000D01*
X236220000Y-84455000D02*
X236220000Y-84455000D01*
X213995000Y-99695000D02*
X236220000Y-99695000D01*
X107950000Y-92710000D02*
X109855000Y-92710000D01*
X109855000Y-92710000D02*
X111760000Y-94615000D01*
X111760000Y-94615000D02*
X117475000Y-94615000D01*
X117475000Y-94615000D02*
X118110000Y-94615000D01*
X118110000Y-94615000D02*
X118110000Y-94615000D01*
X118110000Y-107315000D02*
X184150000Y-107315000D01*
X184150000Y-107315000D02*
X184150000Y-107315000D01*
X187960000Y-123825000D02*
X187960000Y-124460000D01*
X187325000Y-123190000D02*
X187960000Y-123825000D01*
X184150000Y-123190000D02*
X187325000Y-123190000D01*
X184150000Y-123190000D02*
X184150000Y-120015000D01*
X222250000Y-140970000D02*
X228600000Y-140970000D01*
X228600000Y-140970000D02*
X229870000Y-139700000D01*
X232410000Y-139700000D02*
X233680000Y-140970000D01*
X229870000Y-139700000D02*
X232410000Y-139700000D01*
X233680000Y-140970000D02*
X238760000Y-140970000D01*
X238760000Y-140970000D02*
X245110000Y-140970000D01*
X245110000Y-140970000D02*
X246380000Y-139700000D01*
X246380000Y-139700000D02*
X248920000Y-139700000D01*
X248920000Y-139700000D02*
X250190000Y-140970000D01*
X250190000Y-140970000D02*
X255270000Y-140970000D01*
X255270000Y-140970000D02*
X261620000Y-140970000D01*
X261620000Y-140970000D02*
X262890000Y-139700000D01*
X262890000Y-139700000D02*
X265430000Y-139700000D01*
X265430000Y-139700000D02*
X266700000Y-140970000D01*
X266700000Y-140970000D02*
X279400000Y-140970000D01*
X279400000Y-140970000D02*
X288290000Y-140970000D01*
X288290000Y-140970000D02*
X289560000Y-139700000D01*
X289560000Y-139700000D02*
X293370000Y-139700000D01*
X293370000Y-139700000D02*
X302260000Y-139700000D01*
X302260000Y-139700000D02*
X303530000Y-138430000D01*
X303530000Y-138430000D02*
X303530000Y-138430000D01*
X262255000Y-90170000D02*
X304165000Y-90170000D01*
X303530000Y-100965000D02*
X303530000Y-100965000D01*
X304165000Y-100312500D02*
X306070000Y-100312500D01*
X303530000Y-100965000D02*
X304165000Y-100312500D01*
X95250000Y-67310000D02*
X95250000Y-67310000D01*
X216535000Y-102235000D02*
X216535000Y-102235000D01*
X222250000Y-140970000D02*
X220980000Y-140970000D01*
X220980000Y-140970000D02*
X219710000Y-139700000D01*
X219710000Y-139700000D02*
X216535000Y-139700000D01*
X216535000Y-139700000D02*
X216535000Y-139700000D01*
X95250000Y-104775000D02*
X86360000Y-104775000D01*
X86360000Y-104775000D02*
X86360000Y-104775000D01*
X86360000Y-97790000D02*
X50165000Y-97790000D01*
X50165000Y-97790000D02*
X49530000Y-98425000D01*
X49530000Y-98425000D02*
X49530000Y-98425000D01*
X48895000Y-111125000D02*
X34925000Y-111125000D01*
X131445000Y-104775000D02*
X133985000Y-102235000D01*
X133985000Y-102235000D02*
X216535000Y-102235000D01*
X95250000Y-104775000D02*
X131445000Y-104775000D01*
X94615000Y-67310000D02*
X92710000Y-67310000D01*
X95250000Y-67310000D02*
X94615000Y-67310000D01*
X290830000Y-113012500D02*
X289577500Y-111760000D01*
X287020000Y-111760000D02*
X286385000Y-111125000D01*
X289577500Y-111760000D02*
X287020000Y-111760000D01*
X286385000Y-111125000D02*
X286385000Y-111125000D01*
X107950000Y-85090000D02*
X102870000Y-85090000D01*
X102870000Y-85090000D02*
X102235000Y-85725000D01*
X102235000Y-85725000D02*
X102235000Y-85725000D01*
X82550000Y-102235000D02*
X82550000Y-102235000D01*
X100081586Y-100965000D02*
X102235000Y-100965000D01*
X95250000Y-100965000D02*
X100081586Y-100965000D01*
X94615000Y-101600000D02*
X95250000Y-100965000D01*
X83185000Y-101600000D02*
X94615000Y-101600000D01*
X82550000Y-102235000D02*
X83185000Y-101600000D01*
X40005000Y-109855000D02*
X40005000Y-109855000D01*
X246380000Y-76835000D02*
X246380000Y-76835000D01*
X109855000Y-76835000D02*
X246380000Y-76835000D01*
X286385000Y-72390000D02*
X266065000Y-72390000D01*
X255656586Y-72390000D02*
X247650000Y-72390000D01*
X266065000Y-72390000D02*
X255656586Y-72390000D01*
X62865000Y-109855000D02*
X40005000Y-109855000D01*
X82550000Y-109855000D02*
X62865000Y-109855000D01*
X222250000Y-143510000D02*
X228600000Y-143510000D01*
X228600000Y-143510000D02*
X229870000Y-142240000D01*
X229870000Y-142240000D02*
X232410000Y-142240000D01*
X232410000Y-142240000D02*
X233680000Y-143510000D01*
X233680000Y-143510000D02*
X238760000Y-143510000D01*
X238760000Y-143510000D02*
X245110000Y-143510000D01*
X245110000Y-143510000D02*
X246380000Y-142240000D01*
X246380000Y-142240000D02*
X248920000Y-142240000D01*
X248920000Y-142240000D02*
X250190000Y-143510000D01*
X250190000Y-143510000D02*
X255270000Y-143510000D01*
X255270000Y-143510000D02*
X261620000Y-143510000D01*
X261620000Y-143510000D02*
X262890000Y-142240000D01*
X262890000Y-142240000D02*
X265430000Y-142240000D01*
X265430000Y-142240000D02*
X266700000Y-143510000D01*
X266700000Y-143510000D02*
X279400000Y-143510000D01*
X290830000Y-97772500D02*
X288942500Y-97772500D01*
X288942500Y-97772500D02*
X287655000Y-99060000D01*
X287655000Y-99060000D02*
X287655000Y-99060000D01*
X279400000Y-143510000D02*
X287655000Y-143510000D01*
X96520000Y-119380000D02*
X94615000Y-117475000D01*
X94615000Y-117475000D02*
X94615000Y-117475000D01*
X212725000Y-142240000D02*
X212725000Y-142240000D01*
X220980000Y-143510000D02*
X222250000Y-143510000D01*
X219710000Y-142240000D02*
X220980000Y-143510000D01*
X212725000Y-142240000D02*
X219710000Y-142240000D01*
X94615000Y-104140000D02*
X86995000Y-104140000D01*
X86995000Y-104140000D02*
X86995000Y-104140000D01*
X49530000Y-97155000D02*
X49530000Y-97155000D01*
X50165000Y-97155000D02*
X49530000Y-97155000D01*
X86995000Y-97155000D02*
X50165000Y-97155000D01*
X49530000Y-97155000D02*
X47625000Y-97155000D01*
X47625000Y-97155000D02*
X46990000Y-97790000D01*
X46990000Y-97790000D02*
X46990000Y-97790000D01*
X46355000Y-110490000D02*
X32385000Y-110490000D01*
X130810000Y-104140000D02*
X133350000Y-101600000D01*
X212725000Y-101600000D02*
X133350000Y-101600000D01*
X130810000Y-104140000D02*
X94615000Y-104140000D01*
X259715000Y-89535000D02*
X287655000Y-89535000D01*
X232410000Y-137160000D02*
X233680000Y-138430000D01*
X233680000Y-138430000D02*
X238760000Y-138430000D01*
X222250000Y-138430000D02*
X228600000Y-138430000D01*
X228600000Y-138430000D02*
X229870000Y-137160000D01*
X229870000Y-137160000D02*
X232410000Y-137160000D01*
X238760000Y-138430000D02*
X245110000Y-138430000D01*
X245110000Y-138430000D02*
X246380000Y-137160000D01*
X246380000Y-137160000D02*
X248920000Y-137160000D01*
X248920000Y-137160000D02*
X250190000Y-138430000D01*
X250190000Y-138430000D02*
X255270000Y-138430000D01*
X255270000Y-138430000D02*
X261620000Y-138430000D01*
X261620000Y-138430000D02*
X262890000Y-137160000D01*
X262890000Y-137160000D02*
X265430000Y-137160000D01*
X265430000Y-137160000D02*
X266700000Y-138430000D01*
X266700000Y-138430000D02*
X279400000Y-138430000D01*
X279400000Y-138430000D02*
X288290000Y-138430000D01*
X290830000Y-100312500D02*
X289577500Y-100312500D01*
X289577500Y-100312500D02*
X288290000Y-101600000D01*
X288290000Y-101600000D02*
X288290000Y-101600000D01*
X264795000Y-90805000D02*
X288290000Y-90805000D01*
X95885000Y-114935000D02*
X95885000Y-114935000D01*
X97155000Y-118110000D02*
X95885000Y-118110000D01*
X95885000Y-118110000D02*
X95250000Y-117475000D01*
X95250000Y-117475000D02*
X95250000Y-115570000D01*
X95250000Y-115570000D02*
X95885000Y-114935000D01*
X217170000Y-102870000D02*
X217170000Y-102870000D01*
X222250000Y-138430000D02*
X220980000Y-138430000D01*
X220980000Y-138430000D02*
X219710000Y-137160000D01*
X219710000Y-137160000D02*
X217170000Y-137160000D01*
X217170000Y-137160000D02*
X217170000Y-137160000D01*
X95885000Y-105410000D02*
X85725000Y-105410000D01*
X85725000Y-105410000D02*
X85725000Y-105410000D01*
X85725000Y-98425000D02*
X52705000Y-98425000D01*
X52705000Y-98425000D02*
X52070000Y-99060000D01*
X52070000Y-99060000D02*
X52070000Y-99060000D01*
X51435000Y-111760000D02*
X37465000Y-111760000D01*
X132080000Y-105410000D02*
X134620000Y-102870000D01*
X134620000Y-102870000D02*
X217170000Y-102870000D01*
X95885000Y-105410000D02*
X132080000Y-105410000D01*
X95885000Y-72390000D02*
X95250000Y-72390000D01*
X95250000Y-72390000D02*
X92710000Y-72390000D01*
X222250000Y-135890000D02*
X228600000Y-135890000D01*
X228600000Y-135890000D02*
X229870000Y-134620000D01*
X232410000Y-134620000D02*
X233680000Y-135890000D01*
X229870000Y-134620000D02*
X232410000Y-134620000D01*
X233680000Y-135890000D02*
X238760000Y-135890000D01*
X238760000Y-135890000D02*
X245110000Y-135890000D01*
X245110000Y-135890000D02*
X246380000Y-134620000D01*
X255270000Y-135890000D02*
X250190000Y-135890000D01*
X250190000Y-135890000D02*
X248920000Y-134620000D01*
X246380000Y-134620000D02*
X248920000Y-134620000D01*
X255270000Y-135890000D02*
X261620000Y-135890000D01*
X261620000Y-135890000D02*
X262890000Y-134620000D01*
X262890000Y-134620000D02*
X265430000Y-134620000D01*
X265430000Y-134620000D02*
X266700000Y-135890000D01*
X266700000Y-135890000D02*
X279400000Y-135890000D01*
X279400000Y-135890000D02*
X288290000Y-135890000D01*
X288290000Y-135890000D02*
X289560000Y-134620000D01*
X289560000Y-134620000D02*
X293370000Y-134620000D01*
X293370000Y-134620000D02*
X300990000Y-134620000D01*
X300990000Y-134620000D02*
X301625000Y-134620000D01*
X301625000Y-134620000D02*
X302895000Y-133350000D01*
X302895000Y-133350000D02*
X302895000Y-133350000D01*
X304182500Y-102852500D02*
X302895000Y-104140000D01*
X306070000Y-102852500D02*
X304182500Y-102852500D01*
X97790000Y-121920000D02*
X97790000Y-116205000D01*
X97790000Y-116205000D02*
X97155000Y-115570000D01*
X97155000Y-115570000D02*
X97155000Y-115570000D01*
X217805000Y-103505000D02*
X217805000Y-103505000D01*
X222250000Y-135890000D02*
X220980000Y-135890000D01*
X220980000Y-135890000D02*
X219710000Y-134620000D01*
X219710000Y-134620000D02*
X217805000Y-134620000D01*
X217805000Y-134620000D02*
X217805000Y-134620000D01*
X97155000Y-106045000D02*
X85090000Y-106045000D01*
X85090000Y-106045000D02*
X85090000Y-106045000D01*
X85090000Y-99060000D02*
X55245000Y-99060000D01*
X55245000Y-99060000D02*
X54610000Y-99695000D01*
X54610000Y-99695000D02*
X54610000Y-99695000D01*
X38735000Y-113665000D02*
X53975000Y-113665000D01*
X53975000Y-113665000D02*
X53975000Y-113665000D01*
X132715000Y-106045000D02*
X135255000Y-103505000D01*
X97155000Y-106045000D02*
X132715000Y-106045000D01*
X135255000Y-103505000D02*
X217805000Y-103505000D01*
X263525000Y-88900000D02*
X302260000Y-88900000D01*
X302260000Y-88900000D02*
X302895000Y-89535000D01*
X95885000Y-74930000D02*
X92710000Y-74930000D01*
X96520000Y-74930000D02*
X95885000Y-74930000D01*
X214630000Y-133350000D02*
X219710000Y-133350000D01*
X219710000Y-133350000D02*
X220980000Y-134620000D01*
X220980000Y-134620000D02*
X224155000Y-134620000D01*
X229870000Y-133350000D02*
X231140000Y-133350000D01*
X228600000Y-134620000D02*
X229870000Y-133350000D01*
X231140000Y-133350000D02*
X232410000Y-133350000D01*
X232410000Y-133350000D02*
X233680000Y-134620000D01*
X233680000Y-134620000D02*
X245110000Y-134620000D01*
X245110000Y-134620000D02*
X246380000Y-133350000D01*
X246380000Y-133350000D02*
X247650000Y-133350000D01*
X247650000Y-133350000D02*
X248920000Y-133350000D01*
X248920000Y-133350000D02*
X250190000Y-134620000D01*
X250190000Y-134620000D02*
X261620000Y-134620000D01*
X261620000Y-134620000D02*
X262890000Y-133350000D01*
X262890000Y-133350000D02*
X264160000Y-133350000D01*
X259715000Y-91440000D02*
X259715000Y-91440000D01*
X304800000Y-91440000D02*
X270510000Y-91440000D01*
X270510000Y-91440000D02*
X259715000Y-91440000D01*
X107950000Y-77470000D02*
X109220000Y-77470000D01*
X109220000Y-77470000D02*
X109855000Y-78105000D01*
X109855000Y-78105000D02*
X109855000Y-78105000D01*
X113665000Y-115570000D02*
X113665000Y-115570000D01*
X109855000Y-111125000D02*
X109855000Y-111125000D01*
X226060000Y-134620000D02*
X228600000Y-134620000D01*
X113030000Y-116205000D02*
X113030000Y-119380000D01*
X113665000Y-115570000D02*
X113030000Y-116205000D01*
X224155000Y-89535000D02*
X224155000Y-89535000D01*
X109855000Y-111125000D02*
X113665000Y-111125000D01*
X224155000Y-134620000D02*
X226060000Y-134620000D01*
X46355000Y-114935000D02*
X73025000Y-114935000D01*
X55245000Y-83820000D02*
X73025000Y-83820000D01*
X73660000Y-88900000D02*
X109855000Y-88900000D01*
X110490000Y-89535000D02*
X224155000Y-89535000D01*
X109855000Y-88900000D02*
X109855000Y-88900000D01*
X109855000Y-88900000D02*
X110490000Y-89535000D01*
X214630000Y-130810000D02*
X219710000Y-130810000D01*
X219710000Y-130810000D02*
X220980000Y-132080000D01*
X220980000Y-132080000D02*
X224790000Y-132080000D01*
X229870000Y-130810000D02*
X231140000Y-130810000D01*
X228600000Y-132080000D02*
X229870000Y-130810000D01*
X231140000Y-130810000D02*
X232410000Y-130810000D01*
X232410000Y-130810000D02*
X233680000Y-132080000D01*
X233680000Y-132080000D02*
X245110000Y-132080000D01*
X245110000Y-132080000D02*
X246380000Y-130810000D01*
X246380000Y-130810000D02*
X247650000Y-130810000D01*
X247650000Y-130810000D02*
X248920000Y-130810000D01*
X248920000Y-130810000D02*
X250190000Y-132080000D01*
X250190000Y-132080000D02*
X261620000Y-132080000D01*
X261620000Y-132080000D02*
X262890000Y-130810000D01*
X262890000Y-130810000D02*
X264160000Y-130810000D01*
X300990000Y-97155000D02*
X300990000Y-97155000D01*
X301625000Y-97155000D02*
X304165000Y-97155000D01*
X293370000Y-97155000D02*
X301625000Y-97155000D01*
X260350000Y-92075000D02*
X260350000Y-92075000D01*
X267970000Y-92075000D02*
X260350000Y-92075000D01*
X293370000Y-92075000D02*
X267970000Y-92075000D01*
X110490000Y-74930000D02*
X110490000Y-74930000D01*
X114935000Y-115570000D02*
X114935000Y-115570000D01*
X225425000Y-132080000D02*
X228600000Y-132080000D01*
X115570000Y-116205000D02*
X115570000Y-119380000D01*
X114935000Y-115570000D02*
X115570000Y-116205000D01*
X110490000Y-90170000D02*
X224790000Y-90170000D01*
X224790000Y-90170000D02*
X224790000Y-90170000D01*
X110490000Y-110490000D02*
X114935000Y-110490000D01*
X224790000Y-132080000D02*
X225425000Y-132080000D01*
X43815000Y-114300000D02*
X70485000Y-114300000D01*
X71120000Y-85090000D02*
X71120000Y-85090000D01*
X71755000Y-84455000D02*
X80010000Y-84455000D01*
X71120000Y-85090000D02*
X71755000Y-84455000D01*
X110490000Y-81280000D02*
X80645000Y-81280000D01*
X80645000Y-81280000D02*
X80010000Y-81915000D01*
X80010000Y-81915000D02*
X80010000Y-81915000D01*
X109855000Y-74930000D02*
X107950000Y-74930000D01*
X110490000Y-74930000D02*
X109855000Y-74930000D01*
X214630000Y-140970000D02*
X219710000Y-140970000D01*
X219710000Y-140970000D02*
X220980000Y-142240000D01*
X220980000Y-142240000D02*
X228600000Y-142240000D01*
X229870000Y-140970000D02*
X231140000Y-140970000D01*
X228600000Y-142240000D02*
X229870000Y-140970000D01*
X231140000Y-140970000D02*
X232410000Y-140970000D01*
X232410000Y-140970000D02*
X233680000Y-142240000D01*
X233680000Y-142240000D02*
X245110000Y-142240000D01*
X245110000Y-142240000D02*
X246380000Y-140970000D01*
X246380000Y-140970000D02*
X247650000Y-140970000D01*
X247650000Y-140970000D02*
X248920000Y-140970000D01*
X248920000Y-140970000D02*
X250190000Y-142240000D01*
X250190000Y-142240000D02*
X261620000Y-142240000D01*
X261620000Y-142240000D02*
X262890000Y-140970000D01*
X262890000Y-140970000D02*
X264160000Y-140970000D01*
X264160000Y-140970000D02*
X265430000Y-140970000D01*
X265430000Y-140970000D02*
X266700000Y-142240000D01*
X266700000Y-142240000D02*
X288290000Y-142240000D01*
X288290000Y-142240000D02*
X299720000Y-142240000D01*
X299720000Y-142240000D02*
X300990000Y-142240000D01*
X300990000Y-142240000D02*
X302260000Y-140970000D01*
X302260000Y-140970000D02*
X302260000Y-140970000D01*
X302895000Y-97772500D02*
X306070000Y-97772500D01*
X302260000Y-98425000D02*
X302895000Y-97772500D01*
X258445000Y-88265000D02*
X302260000Y-88265000D01*
X212090000Y-140970000D02*
X212090000Y-140970000D01*
X212090000Y-140970000D02*
X214630000Y-140970000D01*
X93980000Y-103505000D02*
X87630000Y-103505000D01*
X87630000Y-103505000D02*
X87630000Y-103505000D01*
X87630000Y-96520000D02*
X53340000Y-96520000D01*
X52705000Y-96520000D02*
X52070000Y-95885000D01*
X52070000Y-95885000D02*
X52070000Y-95885000D01*
X33655000Y-112395000D02*
X52705000Y-112395000D01*
X53340000Y-96520000D02*
X52705000Y-96520000D01*
X130175000Y-103505000D02*
X132715000Y-100965000D01*
X212090000Y-100965000D02*
X132715000Y-100965000D01*
X130175000Y-103505000D02*
X93980000Y-103505000D01*
X214630000Y-128270000D02*
X219710000Y-128270000D01*
X219710000Y-128270000D02*
X220980000Y-129540000D01*
X220980000Y-129540000D02*
X224790000Y-129540000D01*
X228600000Y-129540000D02*
X229870000Y-128270000D01*
X229870000Y-128270000D02*
X231140000Y-128270000D01*
X231140000Y-128270000D02*
X232410000Y-128270000D01*
X232410000Y-128270000D02*
X233680000Y-129540000D01*
X233680000Y-129540000D02*
X245110000Y-129540000D01*
X245110000Y-129540000D02*
X246380000Y-128270000D01*
X246380000Y-128270000D02*
X247650000Y-128270000D01*
X247650000Y-128270000D02*
X248920000Y-128270000D01*
X248920000Y-128270000D02*
X250190000Y-129540000D01*
X250190000Y-129540000D02*
X261620000Y-129540000D01*
X261620000Y-129540000D02*
X262890000Y-128270000D01*
X262890000Y-128270000D02*
X264160000Y-128270000D01*
X111125000Y-72390000D02*
X111125000Y-72390000D01*
X123190000Y-123190000D02*
X123190000Y-123190000D01*
X224790000Y-129540000D02*
X225425000Y-129540000D01*
X111125000Y-90805000D02*
X225425000Y-90805000D01*
X225425000Y-90805000D02*
X225425000Y-90805000D01*
X118110000Y-123190000D02*
X116840000Y-124460000D01*
X123190000Y-123190000D02*
X118110000Y-123190000D01*
X111125000Y-109855000D02*
X123825000Y-109855000D01*
X225425000Y-129540000D02*
X228600000Y-129540000D01*
X110490000Y-72390000D02*
X107950000Y-72390000D01*
X111125000Y-72390000D02*
X110490000Y-72390000D01*
X222250000Y-133350000D02*
X228600000Y-133350000D01*
X228600000Y-133350000D02*
X229870000Y-132080000D01*
X232410000Y-132080000D02*
X233680000Y-133350000D01*
X229870000Y-132080000D02*
X232410000Y-132080000D01*
X233680000Y-133350000D02*
X238760000Y-133350000D01*
X238760000Y-133350000D02*
X245110000Y-133350000D01*
X245110000Y-133350000D02*
X246380000Y-132080000D01*
X255270000Y-133350000D02*
X250190000Y-133350000D01*
X250190000Y-133350000D02*
X248920000Y-132080000D01*
X246380000Y-132080000D02*
X248920000Y-132080000D01*
X255270000Y-133350000D02*
X261620000Y-133350000D01*
X261620000Y-133350000D02*
X262890000Y-132080000D01*
X262890000Y-132080000D02*
X265430000Y-132080000D01*
X265430000Y-132080000D02*
X266700000Y-133350000D01*
X266700000Y-133350000D02*
X279400000Y-133350000D01*
X290830000Y-102852500D02*
X290212500Y-102852500D01*
X290212500Y-102852500D02*
X288925000Y-104140000D01*
X288925000Y-104140000D02*
X288925000Y-104140000D01*
X279400000Y-133350000D02*
X288925000Y-133350000D01*
X95250000Y-121920000D02*
X95250000Y-118745000D01*
X95250000Y-118745000D02*
X94615000Y-118110000D01*
X94615000Y-118110000D02*
X93345000Y-118110000D01*
X93345000Y-118110000D02*
X93345000Y-118110000D01*
X93345000Y-114300000D02*
X98425000Y-114300000D01*
X98425000Y-114300000D02*
X98425000Y-114300000D01*
X96520000Y-82550000D02*
X97155000Y-83185000D01*
X92710000Y-82550000D02*
X96520000Y-82550000D01*
X218440000Y-104140000D02*
X218440000Y-104140000D01*
X222250000Y-133350000D02*
X220980000Y-133350000D01*
X220980000Y-133350000D02*
X219710000Y-132080000D01*
X219710000Y-132080000D02*
X218440000Y-132080000D01*
X218440000Y-132080000D02*
X218440000Y-132080000D01*
X98425000Y-106680000D02*
X84455000Y-106680000D01*
X84455000Y-106680000D02*
X84455000Y-106680000D01*
X84455000Y-99695000D02*
X57785000Y-99695000D01*
X57785000Y-99695000D02*
X57150000Y-100330000D01*
X57150000Y-100330000D02*
X57150000Y-100330000D01*
X36195000Y-113030000D02*
X56515000Y-113030000D01*
X56515000Y-113030000D02*
X56515000Y-113030000D01*
X133350000Y-106680000D02*
X135890000Y-104140000D01*
X135890000Y-104140000D02*
X218440000Y-104140000D01*
X98425000Y-106680000D02*
X133350000Y-106680000D01*
X260985000Y-87630000D02*
X288925000Y-87630000D01*
X214630000Y-125730000D02*
X219710000Y-125730000D01*
X219710000Y-125730000D02*
X220980000Y-127000000D01*
X220980000Y-127000000D02*
X224155000Y-127000000D01*
X228600000Y-127000000D02*
X229870000Y-125730000D01*
X229870000Y-125730000D02*
X231140000Y-125730000D01*
X231140000Y-125730000D02*
X232410000Y-125730000D01*
X232410000Y-125730000D02*
X233680000Y-127000000D01*
X233680000Y-127000000D02*
X245110000Y-127000000D01*
X245110000Y-127000000D02*
X246380000Y-125730000D01*
X246380000Y-125730000D02*
X247650000Y-125730000D01*
X247650000Y-125730000D02*
X248920000Y-125730000D01*
X248920000Y-125730000D02*
X250190000Y-127000000D01*
X250190000Y-127000000D02*
X261620000Y-127000000D01*
X261620000Y-127000000D02*
X262890000Y-125730000D01*
X262890000Y-125730000D02*
X264160000Y-125730000D01*
X111760000Y-69850000D02*
X111760000Y-69850000D01*
X224155000Y-127000000D02*
X226060000Y-127000000D01*
X111760000Y-91440000D02*
X226060000Y-91440000D01*
X226060000Y-91440000D02*
X226060000Y-91440000D01*
X111760000Y-109220000D02*
X120015000Y-109220000D01*
X226060000Y-127000000D02*
X228600000Y-127000000D01*
X111125000Y-69850000D02*
X107950000Y-69850000D01*
X111760000Y-69850000D02*
X111125000Y-69850000D01*
X214630000Y-135890000D02*
X219710000Y-135890000D01*
X219710000Y-135890000D02*
X220980000Y-137160000D01*
X220980000Y-137160000D02*
X228600000Y-137160000D01*
X229870000Y-135890000D02*
X231140000Y-135890000D01*
X228600000Y-137160000D02*
X229870000Y-135890000D01*
X231140000Y-135890000D02*
X232410000Y-135890000D01*
X232410000Y-135890000D02*
X233680000Y-137160000D01*
X233680000Y-137160000D02*
X245110000Y-137160000D01*
X245110000Y-137160000D02*
X246380000Y-135890000D01*
X246380000Y-135890000D02*
X247650000Y-135890000D01*
X247650000Y-135890000D02*
X248920000Y-135890000D01*
X248920000Y-135890000D02*
X250190000Y-137160000D01*
X250190000Y-137160000D02*
X261620000Y-137160000D01*
X261620000Y-137160000D02*
X262890000Y-135890000D01*
X262890000Y-135890000D02*
X264160000Y-135890000D01*
X264160000Y-135890000D02*
X265430000Y-135890000D01*
X265430000Y-135890000D02*
X266700000Y-137160000D01*
X266700000Y-137160000D02*
X288290000Y-137160000D01*
X288290000Y-137160000D02*
X298450000Y-137160000D01*
X298450000Y-137160000D02*
X300355000Y-137160000D01*
X300355000Y-137160000D02*
X301625000Y-135890000D01*
X301625000Y-135890000D02*
X301625000Y-135890000D01*
X306070000Y-95232500D02*
X303547500Y-95232500D01*
X302260000Y-95232500D02*
X303547500Y-95232500D01*
X301625000Y-95885000D02*
X302260000Y-95232500D01*
X96520000Y-85090000D02*
X97155000Y-85725000D01*
X92710000Y-85090000D02*
X96520000Y-85090000D01*
X210820000Y-135890000D02*
X210820000Y-135890000D01*
X210820000Y-135890000D02*
X214630000Y-135890000D01*
X97790000Y-102235000D02*
X88900000Y-102235000D01*
X88900000Y-102235000D02*
X88900000Y-102235000D01*
X88900000Y-95250000D02*
X57785000Y-95250000D01*
X57785000Y-95250000D02*
X57150000Y-94615000D01*
X57150000Y-94615000D02*
X57150000Y-94615000D01*
X79375000Y-110490000D02*
X88900000Y-110490000D01*
X88900000Y-110490000D02*
X88900000Y-110490000D01*
X128905000Y-102235000D02*
X131445000Y-99695000D01*
X210820000Y-99695000D02*
X131445000Y-99695000D01*
X128905000Y-102235000D02*
X97790000Y-102235000D01*
X214630000Y-138430000D02*
X219710000Y-138430000D01*
X219710000Y-138430000D02*
X220980000Y-139700000D01*
X220980000Y-139700000D02*
X228600000Y-139700000D01*
X229870000Y-138430000D02*
X231140000Y-138430000D01*
X228600000Y-139700000D02*
X229870000Y-138430000D01*
X231140000Y-138430000D02*
X232410000Y-138430000D01*
X232410000Y-138430000D02*
X233680000Y-139700000D01*
X233680000Y-139700000D02*
X245110000Y-139700000D01*
X245110000Y-139700000D02*
X246380000Y-138430000D01*
X246380000Y-138430000D02*
X247650000Y-138430000D01*
X247650000Y-138430000D02*
X248920000Y-138430000D01*
X248920000Y-138430000D02*
X250190000Y-139700000D01*
X250190000Y-139700000D02*
X261620000Y-139700000D01*
X261620000Y-139700000D02*
X262890000Y-138430000D01*
X262890000Y-138430000D02*
X264160000Y-138430000D01*
X290830000Y-95232500D02*
X288307500Y-95232500D01*
X288307500Y-95232500D02*
X287020000Y-96520000D01*
X287020000Y-96520000D02*
X287020000Y-96520000D01*
X266700000Y-139700000D02*
X287020000Y-139700000D01*
X265430000Y-138430000D02*
X266700000Y-139700000D01*
X264160000Y-138430000D02*
X265430000Y-138430000D01*
X92710000Y-87630000D02*
X95885000Y-87630000D01*
X95885000Y-87630000D02*
X96520000Y-88265000D01*
X96520000Y-88265000D02*
X96520000Y-88265000D01*
X211455000Y-138430000D02*
X211455000Y-138430000D01*
X211455000Y-138430000D02*
X214630000Y-138430000D01*
X96520000Y-102870000D02*
X88265000Y-102870000D01*
X88265000Y-102870000D02*
X88265000Y-102870000D01*
X88265000Y-95885000D02*
X55245000Y-95885000D01*
X55245000Y-95885000D02*
X54610000Y-95250000D01*
X54610000Y-95250000D02*
X54610000Y-95250000D01*
X81915000Y-111125000D02*
X88265000Y-111125000D01*
X88265000Y-111125000D02*
X88265000Y-111125000D01*
X129540000Y-102870000D02*
X132080000Y-100330000D01*
X211455000Y-100330000D02*
X132080000Y-100330000D01*
X129540000Y-102870000D02*
X96520000Y-102870000D01*
X290830000Y-87630000D02*
X305435000Y-87630000D01*
X214630000Y-120650000D02*
X217805000Y-120650000D01*
X219710000Y-120650000D02*
X220980000Y-121920000D01*
X220980000Y-121920000D02*
X227330000Y-121920000D01*
X228600000Y-121920000D02*
X229870000Y-120650000D01*
X229870000Y-120650000D02*
X231140000Y-120650000D01*
X231140000Y-120650000D02*
X232410000Y-120650000D01*
X232410000Y-120650000D02*
X233680000Y-121920000D01*
X233680000Y-121920000D02*
X233680000Y-121920000D01*
X245110000Y-121920000D02*
X246380000Y-120650000D01*
X246380000Y-120650000D02*
X247650000Y-120650000D01*
X247650000Y-120650000D02*
X248920000Y-120650000D01*
X248920000Y-120650000D02*
X250190000Y-121920000D01*
X250190000Y-121920000D02*
X261620000Y-121920000D01*
X261620000Y-121920000D02*
X262890000Y-120650000D01*
X262890000Y-120650000D02*
X264160000Y-120650000D01*
X113030000Y-64770000D02*
X113030000Y-64770000D01*
X217805000Y-120650000D02*
X219710000Y-120650000D01*
X233680000Y-121920000D02*
X245110000Y-121920000D01*
X113030000Y-92710000D02*
X227330000Y-92710000D01*
X227330000Y-92710000D02*
X227330000Y-92710000D01*
X113030000Y-107950000D02*
X119380000Y-107950000D01*
X227330000Y-121920000D02*
X228600000Y-121920000D01*
X112395000Y-64770000D02*
X107950000Y-64770000D01*
X113030000Y-64770000D02*
X112395000Y-64770000D01*
X214630000Y-118110000D02*
X217170000Y-118110000D01*
X219710000Y-118110000D02*
X220980000Y-119380000D01*
X220980000Y-119380000D02*
X227965000Y-119380000D01*
X228600000Y-119380000D02*
X229870000Y-118110000D01*
X229870000Y-118110000D02*
X231140000Y-118110000D01*
X231140000Y-118110000D02*
X232410000Y-118110000D01*
X232410000Y-118110000D02*
X233680000Y-119380000D01*
X233680000Y-119380000D02*
X234315000Y-119380000D01*
X245110000Y-119380000D02*
X246380000Y-118110000D01*
X246380000Y-118110000D02*
X247650000Y-118110000D01*
X247650000Y-118110000D02*
X248920000Y-118110000D01*
X248920000Y-118110000D02*
X250190000Y-119380000D01*
X250190000Y-119380000D02*
X261620000Y-119380000D01*
X261620000Y-119380000D02*
X262890000Y-118110000D01*
X262890000Y-118110000D02*
X264160000Y-118110000D01*
X107950000Y-62230000D02*
X113030000Y-62230000D01*
X113030000Y-62230000D02*
X113665000Y-62865000D01*
X113665000Y-62865000D02*
X113665000Y-62865000D01*
X217170000Y-118110000D02*
X219710000Y-118110000D01*
X234315000Y-119380000D02*
X245110000Y-119380000D01*
X113665000Y-93345000D02*
X227965000Y-93345000D01*
X227965000Y-93345000D02*
X227965000Y-93345000D01*
X113665000Y-107315000D02*
X116840000Y-107315000D01*
X227965000Y-119380000D02*
X228600000Y-119380000D01*
X214630000Y-115570000D02*
X216535000Y-115570000D01*
X219710000Y-115570000D02*
X220980000Y-116840000D01*
X220980000Y-116840000D02*
X228600000Y-116840000D01*
X228600000Y-116840000D02*
X229870000Y-115570000D01*
X229870000Y-115570000D02*
X231140000Y-115570000D01*
X246380000Y-115570000D02*
X247650000Y-115570000D01*
X245110000Y-116840000D02*
X246380000Y-115570000D01*
X233680000Y-116840000D02*
X234950000Y-116840000D01*
X232410000Y-115570000D02*
X233680000Y-116840000D01*
X231140000Y-115570000D02*
X232410000Y-115570000D01*
X247650000Y-115570000D02*
X248920000Y-115570000D01*
X248920000Y-115570000D02*
X250190000Y-116840000D01*
X250190000Y-116840000D02*
X261620000Y-116840000D01*
X261620000Y-116840000D02*
X262890000Y-115570000D01*
X262890000Y-115570000D02*
X264160000Y-115570000D01*
X107950000Y-59690000D02*
X106680000Y-59690000D01*
X106680000Y-59690000D02*
X106045000Y-60325000D01*
X106045000Y-60325000D02*
X106045000Y-60325000D01*
X216535000Y-115570000D02*
X219710000Y-115570000D01*
X234950000Y-116840000D02*
X245110000Y-116840000D01*
X228600000Y-93980000D02*
X228600000Y-93980000D01*
X106045000Y-111760000D02*
X115570000Y-111760000D01*
X228600000Y-116840000D02*
X228600000Y-116840000D01*
X106045000Y-91440000D02*
X109855000Y-91440000D01*
X109855000Y-91440000D02*
X112395000Y-93980000D01*
X112395000Y-93980000D02*
X228600000Y-93980000D01*
X222250000Y-118110000D02*
X226695000Y-118110000D01*
X228600000Y-118110000D02*
X229235000Y-117475000D01*
X232410000Y-116840000D02*
X233680000Y-118110000D01*
X229870000Y-116840000D02*
X232410000Y-116840000D01*
X233680000Y-118110000D02*
X238760000Y-118110000D01*
X238760000Y-118110000D02*
X245110000Y-118110000D01*
X245110000Y-118110000D02*
X246380000Y-116840000D01*
X255270000Y-118110000D02*
X250190000Y-118110000D01*
X250190000Y-118110000D02*
X248920000Y-116840000D01*
X246380000Y-116840000D02*
X248920000Y-116840000D01*
X255270000Y-118110000D02*
X261620000Y-118110000D01*
X261620000Y-118110000D02*
X262890000Y-116840000D01*
X262890000Y-116840000D02*
X265430000Y-116840000D01*
X265430000Y-116840000D02*
X266700000Y-118110000D01*
X266700000Y-118110000D02*
X279400000Y-118110000D01*
X107950000Y-57150000D02*
X106045000Y-57150000D01*
X106045000Y-57150000D02*
X105410000Y-57785000D01*
X105410000Y-57785000D02*
X105410000Y-57785000D01*
X120650000Y-112395000D02*
X120650000Y-112395000D01*
X226695000Y-118110000D02*
X228600000Y-118110000D01*
X196215000Y-94615000D02*
X229235000Y-94615000D01*
X120650000Y-94615000D02*
X196215000Y-94615000D01*
X229235000Y-94615000D02*
X229235000Y-94615000D01*
X105410000Y-112395000D02*
X114300000Y-112395000D01*
X114300000Y-112395000D02*
X120650000Y-112395000D01*
X229235000Y-117475000D02*
X229870000Y-116840000D01*
X187960000Y-104775000D02*
X136525000Y-104775000D01*
X136525000Y-104775000D02*
X136525000Y-104775000D01*
X92710000Y-97790000D02*
X100965000Y-97790000D01*
X100965000Y-97790000D02*
X100965000Y-97790000D01*
X130810000Y-84455000D02*
X130810000Y-84455000D01*
X101600000Y-83820000D02*
X100965000Y-84455000D01*
X130175000Y-83820000D02*
X101600000Y-83820000D01*
X130810000Y-84455000D02*
X130175000Y-83820000D01*
X222250000Y-120650000D02*
X227330000Y-120650000D01*
X228600000Y-120650000D02*
X229870000Y-119380000D01*
X232410000Y-119380000D02*
X233045000Y-120015000D01*
X229870000Y-119380000D02*
X232410000Y-119380000D01*
X233680000Y-120650000D02*
X238760000Y-120650000D01*
X238760000Y-120650000D02*
X245110000Y-120650000D01*
X245110000Y-120650000D02*
X246380000Y-119380000D01*
X255270000Y-120650000D02*
X250190000Y-120650000D01*
X250190000Y-120650000D02*
X248920000Y-119380000D01*
X246380000Y-119380000D02*
X248920000Y-119380000D01*
X255270000Y-120650000D02*
X261620000Y-120650000D01*
X261620000Y-120650000D02*
X262890000Y-119380000D01*
X262890000Y-119380000D02*
X265430000Y-119380000D01*
X265430000Y-119380000D02*
X266700000Y-120650000D01*
X266700000Y-120650000D02*
X279400000Y-120650000D01*
X107950000Y-54610000D02*
X105410000Y-54610000D01*
X105410000Y-54610000D02*
X104775000Y-55245000D01*
X104775000Y-55245000D02*
X104775000Y-55245000D01*
X104775000Y-113030000D02*
X104775000Y-113030000D01*
X121285000Y-113030000D02*
X121285000Y-113030000D01*
X227330000Y-120650000D02*
X228600000Y-120650000D01*
X105410000Y-113030000D02*
X113030000Y-113030000D01*
X104775000Y-113030000D02*
X105410000Y-113030000D01*
X121285000Y-113030000D02*
X113665000Y-113030000D01*
X113665000Y-113030000D02*
X113030000Y-113030000D01*
X196850000Y-95250000D02*
X233045000Y-95250000D01*
X121285000Y-95250000D02*
X196850000Y-95250000D01*
X233045000Y-95250000D02*
X233045000Y-95250000D01*
X233045000Y-120015000D02*
X233680000Y-120650000D01*
X306070000Y-105392500D02*
X301607500Y-105392500D01*
X301607500Y-105392500D02*
X300990000Y-104775000D01*
X300990000Y-104775000D02*
X300990000Y-104775000D01*
X72390000Y-100965000D02*
X72390000Y-100965000D01*
X72390000Y-108585000D02*
X71755000Y-109220000D01*
X71755000Y-109220000D02*
X42545000Y-109220000D01*
X42545000Y-109220000D02*
X42545000Y-109220000D01*
X90805000Y-100330000D02*
X92710000Y-100330000D01*
X90170000Y-100965000D02*
X90805000Y-100330000D01*
X72390000Y-100965000D02*
X90170000Y-100965000D01*
X189230000Y-105410000D02*
X135890000Y-105410000D01*
X135890000Y-105410000D02*
X135890000Y-105410000D01*
X92710000Y-100330000D02*
X101600000Y-100330000D01*
X101600000Y-100330000D02*
X101600000Y-100330000D01*
X130175000Y-86995000D02*
X130175000Y-86995000D01*
X102235000Y-86360000D02*
X101600000Y-86995000D01*
X129540000Y-86360000D02*
X102235000Y-86360000D01*
X130175000Y-86995000D02*
X129540000Y-86360000D01*
X189230000Y-105410000D02*
X213360000Y-105410000D01*
X213360000Y-105410000D02*
X213360000Y-105410000D01*
X267970000Y-71755000D02*
X269240000Y-71755000D01*
X269240000Y-71755000D02*
X269875000Y-71120000D01*
X269875000Y-71120000D02*
X302260000Y-71120000D01*
X267970000Y-83185000D02*
X236220000Y-83185000D01*
X236220000Y-83185000D02*
X235585000Y-83820000D01*
X235585000Y-83820000D02*
X235585000Y-83820000D01*
X213360000Y-99060000D02*
X235585000Y-99060000D01*
X222250000Y-128270000D02*
X227965000Y-128270000D01*
X228600000Y-128270000D02*
X229870000Y-127000000D01*
X232410000Y-127000000D02*
X233680000Y-128270000D01*
X229870000Y-127000000D02*
X232410000Y-127000000D01*
X233680000Y-128270000D02*
X233680000Y-128270000D01*
X238760000Y-128270000D02*
X245110000Y-128270000D01*
X245110000Y-128270000D02*
X246380000Y-127000000D01*
X255270000Y-128270000D02*
X250190000Y-128270000D01*
X250190000Y-128270000D02*
X248920000Y-127000000D01*
X246380000Y-127000000D02*
X248920000Y-127000000D01*
X255270000Y-128270000D02*
X261620000Y-128270000D01*
X261620000Y-128270000D02*
X262890000Y-127000000D01*
X262890000Y-127000000D02*
X265430000Y-127000000D01*
X265430000Y-127000000D02*
X266700000Y-128270000D01*
X266700000Y-128270000D02*
X279400000Y-128270000D01*
X107950000Y-52070000D02*
X104775000Y-52070000D01*
X104775000Y-52070000D02*
X104140000Y-52705000D01*
X104140000Y-52705000D02*
X104140000Y-52705000D01*
X104140000Y-113665000D02*
X104140000Y-113665000D01*
X121920000Y-113665000D02*
X121920000Y-113665000D01*
X227965000Y-128270000D02*
X228600000Y-128270000D01*
X104775000Y-113665000D02*
X111760000Y-113665000D01*
X104140000Y-113665000D02*
X104775000Y-113665000D01*
X114300000Y-113665000D02*
X111760000Y-113665000D01*
X121920000Y-113665000D02*
X114300000Y-113665000D01*
X121920000Y-95885000D02*
X233680000Y-95885000D01*
X233680000Y-95885000D02*
X233680000Y-95885000D01*
X233680000Y-128270000D02*
X238760000Y-128270000D01*
X307975000Y-80010000D02*
X307975000Y-80010000D01*
X238125000Y-67310000D02*
X258445000Y-67310000D01*
X260985000Y-80010000D02*
X307975000Y-80010000D01*
X307992500Y-138412500D02*
X306070000Y-138412500D01*
X308610000Y-137795000D02*
X307992500Y-138412500D01*
X308610000Y-79375000D02*
X308610000Y-79375000D01*
X258693414Y-66675000D02*
X260985000Y-66675000D01*
X240665000Y-66675000D02*
X258693414Y-66675000D01*
X263525000Y-79375000D02*
X308610000Y-79375000D01*
X308627500Y-135872500D02*
X309245000Y-135255000D01*
X306070000Y-135872500D02*
X308627500Y-135872500D01*
X309245000Y-78740000D02*
X309245000Y-78740000D01*
X263525000Y-66040000D02*
X243205000Y-66040000D01*
X266065000Y-78740000D02*
X309245000Y-78740000D01*
X309262500Y-130792500D02*
X306070000Y-130792500D01*
X309880000Y-130175000D02*
X309262500Y-130792500D01*
X309880000Y-78105000D02*
X309880000Y-78105000D01*
X245745000Y-65405000D02*
X266065000Y-65405000D01*
X309897500Y-125712500D02*
X306070000Y-125712500D01*
X310515000Y-125095000D02*
X309897500Y-125712500D01*
X267970000Y-78105000D02*
X309880000Y-78105000D01*
X290830000Y-123172500D02*
X284497500Y-123172500D01*
X284497500Y-123172500D02*
X284497500Y-123172500D01*
X283845000Y-80645000D02*
X281056586Y-80645000D01*
X281056586Y-80645000D02*
X250825000Y-80645000D01*
X250825000Y-80645000D02*
X250825000Y-80645000D01*
X215900000Y-72390000D02*
X217805000Y-74295000D01*
X249555000Y-74295000D02*
X217805000Y-74295000D01*
X290830000Y-130792500D02*
X283862500Y-130792500D01*
X283862500Y-130792500D02*
X283862500Y-130792500D01*
X281305000Y-81280000D02*
X278516586Y-81280000D01*
X278516586Y-81280000D02*
X250190000Y-81280000D01*
X250190000Y-81280000D02*
X250190000Y-81280000D01*
X215900000Y-74930000D02*
X213360000Y-72390000D01*
X248920000Y-74930000D02*
X215900000Y-74930000D01*
X184150000Y-130810000D02*
X203835000Y-130810000D01*
X203835000Y-130810000D02*
X203835000Y-130810000D01*
X292100000Y-109220000D02*
X293387500Y-107932500D01*
X293387500Y-107932500D02*
X306070000Y-107932500D01*
X289560000Y-109220000D02*
X292100000Y-109220000D01*
X288290000Y-107950000D02*
X289560000Y-109220000D01*
X203835000Y-107950000D02*
X288290000Y-107950000D01*
X290830000Y-135872500D02*
X290212500Y-135872500D01*
X290212500Y-135872500D02*
X289560000Y-136525000D01*
X289560000Y-136525000D02*
X283210000Y-136525000D01*
X283210000Y-136525000D02*
X283210000Y-136525000D01*
X278765000Y-81915000D02*
X249555000Y-81915000D01*
X249555000Y-81915000D02*
X249555000Y-81915000D01*
X213995000Y-75565000D02*
X210820000Y-72390000D01*
X248285000Y-75565000D02*
X213995000Y-75565000D01*
X290830000Y-138412500D02*
X290812500Y-138412500D01*
X290812500Y-138412500D02*
X290195000Y-137795000D01*
X290195000Y-137795000D02*
X282575000Y-137795000D01*
X282575000Y-137795000D02*
X282575000Y-137795000D01*
X276225000Y-82550000D02*
X248920000Y-82550000D01*
X248920000Y-82550000D02*
X248920000Y-82550000D01*
X247650000Y-76200000D02*
X212090000Y-76200000D01*
X208280000Y-72390000D02*
X212090000Y-76200000D01*
X81280000Y-109220000D02*
X83820000Y-109220000D01*
X83820000Y-109220000D02*
X83820000Y-109220000D01*
X173990000Y-145415000D02*
X172085000Y-143510000D01*
X182880000Y-145415000D02*
X173990000Y-145415000D01*
X160020000Y-147955000D02*
X164465000Y-143510000D01*
X172085000Y-143510000D02*
X164465000Y-143510000D01*
X87630000Y-147955000D02*
X83820000Y-144145000D01*
X160020000Y-147955000D02*
X87630000Y-147955000D01*
X222250000Y-125730000D02*
X228600000Y-125730000D01*
X228600000Y-125730000D02*
X229870000Y-124460000D01*
X232410000Y-124460000D02*
X233680000Y-125730000D01*
X229870000Y-124460000D02*
X232410000Y-124460000D01*
X233680000Y-125730000D02*
X238760000Y-125730000D01*
X238760000Y-125730000D02*
X245110000Y-125730000D01*
X245110000Y-125730000D02*
X246380000Y-124460000D01*
X255270000Y-125730000D02*
X250190000Y-125730000D01*
X250190000Y-125730000D02*
X248920000Y-124460000D01*
X246380000Y-124460000D02*
X248920000Y-124460000D01*
X255270000Y-125730000D02*
X261620000Y-125730000D01*
X261620000Y-125730000D02*
X262890000Y-124460000D01*
X262890000Y-124460000D02*
X265430000Y-124460000D01*
X265430000Y-124460000D02*
X266700000Y-125730000D01*
X266700000Y-125730000D02*
X279400000Y-125730000D01*
X125730000Y-125730000D02*
X125730000Y-125730000D01*
X102235000Y-125730000D02*
X125730000Y-125730000D01*
X180340000Y-125730000D02*
X180340000Y-125730000D01*
X158750000Y-123190000D02*
X126365000Y-123190000D01*
X161290000Y-125730000D02*
X158750000Y-123190000D01*
X180340000Y-125730000D02*
X161290000Y-125730000D01*
X222250000Y-125730000D02*
X220980000Y-125730000D01*
X220980000Y-125730000D02*
X219710000Y-124460000D01*
X219710000Y-124460000D02*
X208915000Y-124460000D01*
X208915000Y-124460000D02*
X208915000Y-124460000D01*
X208915000Y-115570000D02*
X194310000Y-115570000D01*
X194310000Y-115570000D02*
X191770000Y-118110000D01*
X191770000Y-118110000D02*
X181610000Y-118110000D01*
X181610000Y-118110000D02*
X180340000Y-116840000D01*
X180340000Y-116840000D02*
X180340000Y-116840000D01*
X222250000Y-113030000D02*
X228600000Y-113030000D01*
X228600000Y-113030000D02*
X229870000Y-111760000D01*
X232410000Y-111760000D02*
X233680000Y-113030000D01*
X229870000Y-111760000D02*
X232410000Y-111760000D01*
X233680000Y-113030000D02*
X238760000Y-113030000D01*
X238760000Y-113030000D02*
X245110000Y-113030000D01*
X245110000Y-113030000D02*
X246380000Y-111760000D01*
X255270000Y-113030000D02*
X250190000Y-113030000D01*
X250190000Y-113030000D02*
X248920000Y-111760000D01*
X246380000Y-111760000D02*
X248920000Y-111760000D01*
X114935000Y-124460000D02*
X114935000Y-124460000D01*
X103505000Y-124460000D02*
X114935000Y-124460000D01*
X125095000Y-124460000D02*
X125095000Y-124460000D01*
X121285000Y-124460000D02*
X125095000Y-124460000D01*
X180975000Y-123190000D02*
X180975000Y-123190000D01*
X158750000Y-120650000D02*
X126365000Y-120650000D01*
X161290000Y-123190000D02*
X158750000Y-120650000D01*
X180975000Y-123190000D02*
X161290000Y-123190000D01*
X184150000Y-115570000D02*
X182880000Y-116840000D01*
X191770000Y-115570000D02*
X184150000Y-115570000D01*
X194310000Y-113030000D02*
X191770000Y-115570000D01*
X201930000Y-113030000D02*
X194310000Y-113030000D01*
X203200000Y-111760000D02*
X201930000Y-113030000D01*
X219710000Y-111760000D02*
X203200000Y-111760000D01*
X220980000Y-113030000D02*
X219710000Y-111760000D01*
X222250000Y-113030000D02*
X220980000Y-113030000D01*
X191770000Y-128270000D02*
X172085000Y-128270000D01*
X193040000Y-127000000D02*
X191770000Y-128270000D01*
X172085000Y-128270000D02*
X172085000Y-128270000D01*
X52705000Y-78740000D02*
X170180000Y-78740000D01*
X52070000Y-79375000D02*
X52705000Y-78740000D01*
X52070000Y-81280000D02*
X52070000Y-79375000D01*
X185420000Y-124460000D02*
X183515000Y-126365000D01*
X183515000Y-126365000D02*
X172720000Y-126365000D01*
X172720000Y-126365000D02*
X172720000Y-126365000D01*
X172720000Y-83820000D02*
X133350000Y-83820000D01*
X133350000Y-83820000D02*
X132080000Y-82550000D01*
X132080000Y-82550000D02*
X132080000Y-82550000D01*
X83820000Y-67310000D02*
X85090000Y-68580000D01*
X81280000Y-67310000D02*
X83820000Y-67310000D01*
X80010000Y-68580000D02*
X81280000Y-67310000D01*
X50165000Y-68580000D02*
X80010000Y-68580000D01*
X49530000Y-67945000D02*
X50165000Y-68580000D01*
X85090000Y-68580000D02*
X131445000Y-68580000D01*
X49530000Y-66040000D02*
X49530000Y-67945000D01*
X131445000Y-68580000D02*
X131445000Y-68580000D01*
X198120000Y-127000000D02*
X203200000Y-127000000D01*
X203200000Y-127000000D02*
X205105000Y-128905000D01*
X205105000Y-128905000D02*
X206375000Y-128905000D01*
X206375000Y-128905000D02*
X206375000Y-128905000D01*
X279400000Y-130810000D02*
X266700000Y-130810000D01*
X266700000Y-130810000D02*
X266700000Y-130810000D01*
X241935000Y-145415000D02*
X266700000Y-145415000D01*
X241300000Y-146050000D02*
X241935000Y-145415000D01*
X206375000Y-146050000D02*
X241300000Y-146050000D01*
X266700000Y-145415000D02*
X266700000Y-145415000D01*
X105410000Y-148590000D02*
X160655000Y-148590000D01*
X160655000Y-148590000D02*
X165100000Y-144145000D01*
X165100000Y-144145000D02*
X171450000Y-144145000D01*
X171450000Y-144145000D02*
X173355000Y-146050000D01*
X173355000Y-146050000D02*
X200660000Y-146050000D01*
X200660000Y-146050000D02*
X200660000Y-146050000D01*
X222250000Y-130810000D02*
X220980000Y-130810000D01*
X220980000Y-130810000D02*
X219710000Y-129540000D01*
X219710000Y-129540000D02*
X210185000Y-129540000D01*
X200660000Y-121920000D02*
X210185000Y-121920000D01*
X210185000Y-121920000D02*
X210185000Y-121920000D01*
X210185000Y-129540000D02*
X210185000Y-129540000D01*
X238760000Y-130810000D02*
X233680000Y-130810000D01*
X233680000Y-130810000D02*
X232410000Y-129540000D01*
X232410000Y-129540000D02*
X229870000Y-129540000D01*
X229870000Y-129540000D02*
X228600000Y-130810000D01*
X228600000Y-130810000D02*
X225425000Y-130810000D01*
X225425000Y-130810000D02*
X225425000Y-130810000D01*
X225425000Y-144780000D02*
X209550000Y-144780000D01*
X200660000Y-119380000D02*
X201930000Y-118110000D01*
X201930000Y-118110000D02*
X209550000Y-118110000D01*
X209550000Y-118110000D02*
X209550000Y-118110000D01*
X209550000Y-144780000D02*
X209550000Y-144780000D01*
X207010000Y-121285000D02*
X207010000Y-121285000D01*
X204470000Y-121285000D02*
X202565000Y-119380000D01*
X207010000Y-121285000D02*
X204470000Y-121285000D01*
X255270000Y-130810000D02*
X250190000Y-130810000D01*
X250190000Y-130810000D02*
X248920000Y-129540000D01*
X248920000Y-129540000D02*
X246380000Y-129540000D01*
X246380000Y-129540000D02*
X245110000Y-130810000D01*
X245110000Y-130810000D02*
X240665000Y-130810000D01*
X240665000Y-130810000D02*
X240665000Y-130810000D01*
X240665000Y-145415000D02*
X207010000Y-145415000D01*
X195580000Y-120650000D02*
X199390000Y-120650000D01*
X199390000Y-120650000D02*
X199390000Y-120650000D01*
X200660000Y-143510000D02*
X203200000Y-143510000D01*
X199390000Y-143510000D02*
X199390000Y-143510000D01*
X199390000Y-143510000D02*
X200660000Y-143510000D01*
X165100000Y-127000000D02*
X181610000Y-127000000D01*
X181610000Y-127000000D02*
X182245000Y-127635000D01*
X182245000Y-127635000D02*
X182245000Y-127635000D01*
X182245000Y-143510000D02*
X183515000Y-143510000D01*
X172720000Y-76200000D02*
X181610000Y-76200000D01*
X92710000Y-57150000D02*
X98425000Y-57150000D01*
X98425000Y-57150000D02*
X99060000Y-57785000D01*
X99060000Y-57785000D02*
X99060000Y-57785000D01*
X238125000Y-97790000D02*
X238125000Y-97790000D01*
X249555000Y-114935000D02*
X249555000Y-114935000D01*
X245110000Y-115570000D02*
X240665000Y-115570000D01*
X246380000Y-114300000D02*
X245110000Y-115570000D01*
X248920000Y-114300000D02*
X246380000Y-114300000D01*
X250190000Y-115570000D02*
X248920000Y-114300000D01*
X255270000Y-115570000D02*
X250190000Y-115570000D01*
X240665000Y-115570000D02*
X240665000Y-115570000D01*
X121285000Y-96520000D02*
X99060000Y-96520000D01*
X122555000Y-97790000D02*
X121285000Y-96520000D01*
X238125000Y-97790000D02*
X122555000Y-97790000D01*
X92710000Y-59690000D02*
X99060000Y-59690000D01*
X99060000Y-59690000D02*
X99695000Y-60325000D01*
X99695000Y-60325000D02*
X99695000Y-60325000D01*
X238760000Y-98425000D02*
X238760000Y-98425000D01*
X245110000Y-111760000D02*
X241300000Y-111760000D01*
X246380000Y-110490000D02*
X245110000Y-111760000D01*
X247650000Y-110490000D02*
X246380000Y-110490000D01*
X241300000Y-111760000D02*
X241300000Y-111760000D01*
X109855000Y-99060000D02*
X99695000Y-99060000D01*
X110490000Y-98425000D02*
X109855000Y-99060000D01*
X238760000Y-98425000D02*
X110490000Y-98425000D01*
X92710000Y-62230000D02*
X99695000Y-62230000D01*
X99695000Y-62230000D02*
X100330000Y-62865000D01*
X100330000Y-62865000D02*
X100330000Y-62865000D01*
X128270000Y-101600000D02*
X130810000Y-99060000D01*
X130810000Y-99060000D02*
X196850000Y-99060000D01*
X100330000Y-101600000D02*
X128270000Y-101600000D01*
X118745000Y-95885000D02*
X118745000Y-95885000D01*
X118745000Y-110490000D02*
X133350000Y-110490000D01*
X62865000Y-93980000D02*
X62230000Y-93345000D01*
X109855000Y-93980000D02*
X62865000Y-93980000D01*
X111760000Y-95885000D02*
X109855000Y-93980000D01*
X118745000Y-95885000D02*
X111760000Y-95885000D01*
X60325000Y-71120000D02*
X191770000Y-71120000D01*
X59690000Y-70485000D02*
X60325000Y-71120000D01*
X191770000Y-71120000D02*
X191770000Y-71120000D01*
X191770000Y-84455000D02*
X207010000Y-84455000D01*
X207010000Y-84455000D02*
X207010000Y-84455000D01*
X202565000Y-114300000D02*
X207010000Y-114300000D01*
X96520000Y-129540000D02*
X97790000Y-128270000D01*
X131445000Y-126365000D02*
X132080000Y-125730000D01*
X132080000Y-125730000D02*
X135890000Y-125730000D01*
X135890000Y-125730000D02*
X137160000Y-124460000D01*
X130810000Y-128270000D02*
X131445000Y-127635000D01*
X131445000Y-127635000D02*
X131445000Y-126365000D01*
X97790000Y-128270000D02*
X130810000Y-128270000D01*
X132080000Y-127000000D02*
X132080000Y-127000000D01*
X132080000Y-130810000D02*
X132080000Y-130810000D01*
X95885000Y-130810000D02*
X132080000Y-130810000D01*
X94615000Y-132080000D02*
X95885000Y-130810000D01*
X93980000Y-132080000D02*
X94615000Y-132080000D01*
X132080000Y-127000000D02*
X134620000Y-127000000D01*
X135890000Y-128270000D02*
X137160000Y-127000000D01*
X133350000Y-128270000D02*
X135890000Y-128270000D01*
X133350000Y-128270000D02*
X132715000Y-128905000D01*
X132715000Y-128905000D02*
X123825000Y-128905000D01*
X116205000Y-133350000D02*
X123825000Y-133350000D01*
X114935000Y-132080000D02*
X116205000Y-133350000D01*
X96520000Y-132080000D02*
X114935000Y-132080000D01*
X123825000Y-133350000D02*
X123825000Y-133350000D01*
X123825000Y-128905000D02*
X123825000Y-128905000D01*
X96520000Y-134620000D02*
X114935000Y-134620000D01*
X114935000Y-134620000D02*
X114935000Y-134620000D01*
X121285000Y-132080000D02*
X121920000Y-131445000D01*
X121920000Y-131445000D02*
X133350000Y-131445000D01*
X133350000Y-131445000D02*
X133350000Y-131445000D01*
X113665000Y-133350000D02*
X113665000Y-133350000D01*
X95250000Y-135890000D02*
X93980000Y-137160000D01*
X95250000Y-133985000D02*
X95250000Y-135890000D01*
X95885000Y-133350000D02*
X95250000Y-133985000D01*
X113665000Y-133350000D02*
X95885000Y-133350000D01*
X122555000Y-132080000D02*
X134620000Y-132080000D01*
X98425000Y-129540000D02*
X114935000Y-129540000D01*
X114935000Y-129540000D02*
X114935000Y-129540000D01*
X122555000Y-129540000D02*
X132715000Y-129540000D01*
X132715000Y-129540000D02*
X133985000Y-130810000D01*
X133985000Y-130810000D02*
X135890000Y-130810000D01*
X135890000Y-130810000D02*
X137160000Y-132080000D01*
X99695000Y-135890000D02*
X133350000Y-135890000D01*
X97155000Y-138430000D02*
X99695000Y-135890000D01*
X95250000Y-138430000D02*
X97155000Y-138430000D01*
X93980000Y-139700000D02*
X95250000Y-138430000D01*
X133350000Y-135890000D02*
X134620000Y-134620000D01*
X96520000Y-142240000D02*
X97790000Y-140970000D01*
X97790000Y-140970000D02*
X97790000Y-139065000D01*
X97790000Y-139065000D02*
X99695000Y-137160000D01*
X99695000Y-137160000D02*
X114935000Y-137160000D01*
X114935000Y-137160000D02*
X114935000Y-137160000D01*
X137160000Y-134620000D02*
X135890000Y-133350000D01*
X135890000Y-133350000D02*
X125095000Y-133350000D01*
X125095000Y-133350000D02*
X124460000Y-133985000D01*
X121920000Y-133985000D02*
X121285000Y-134620000D01*
X124460000Y-133985000D02*
X121920000Y-133985000D01*
X121285000Y-134620000D02*
X121285000Y-134620000D01*
X99060000Y-146050000D02*
X100330000Y-147320000D01*
X100330000Y-147320000D02*
X157480000Y-147320000D01*
X157480000Y-147320000D02*
X157480000Y-147320000D01*
X99060000Y-146050000D02*
X99060000Y-146050000D01*
X106680000Y-139700000D02*
X107950000Y-140970000D01*
X107950000Y-140970000D02*
X107950000Y-143510000D01*
X107950000Y-143510000D02*
X111125000Y-146685000D01*
X111125000Y-146685000D02*
X153670000Y-146685000D01*
X153670000Y-146685000D02*
X153670000Y-146685000D01*
X109220000Y-142240000D02*
X109220000Y-143510000D01*
X109220000Y-143510000D02*
X111760000Y-146050000D01*
X111760000Y-146050000D02*
X154940000Y-146050000D01*
X154940000Y-146050000D02*
X154940000Y-146050000D01*
X109220000Y-139700000D02*
X110490000Y-140970000D01*
X110490000Y-140970000D02*
X110490000Y-143510000D01*
X110490000Y-143510000D02*
X112395000Y-145415000D01*
X112395000Y-145415000D02*
X151130000Y-145415000D01*
X151130000Y-145415000D02*
X151130000Y-145415000D01*
X113030000Y-144780000D02*
X111760000Y-143510000D01*
X111760000Y-143510000D02*
X111760000Y-142240000D01*
X148590000Y-144780000D02*
X113030000Y-144780000D01*
X111760000Y-139700000D02*
X113030000Y-140970000D01*
X113030000Y-140970000D02*
X113030000Y-143510000D01*
X113030000Y-143510000D02*
X113665000Y-144145000D01*
X113665000Y-144145000D02*
X149860000Y-144145000D01*
X115570000Y-143510000D02*
X114300000Y-142240000D01*
X146050000Y-143510000D02*
X115570000Y-143510000D01*
X121285000Y-140335000D02*
X135890000Y-140335000D01*
X135890000Y-140335000D02*
X135890000Y-140335000D01*
X135890000Y-142875000D02*
X135890000Y-142875000D01*
X143510000Y-142875000D02*
X135890000Y-142875000D01*
X116840000Y-142240000D02*
X143510000Y-142240000D01*
X143510000Y-142240000D02*
X144780000Y-140970000D01*
X144780000Y-140970000D02*
X144780000Y-139700000D01*
X119380000Y-139700000D02*
X120650000Y-140970000D01*
X120650000Y-140970000D02*
X140970000Y-140970000D01*
X140970000Y-140970000D02*
X142240000Y-139700000D01*
X116840000Y-139700000D02*
X118745000Y-141605000D01*
X118745000Y-141605000D02*
X138430000Y-141605000D01*
X138430000Y-141605000D02*
X138430000Y-141605000D01*
X119380000Y-137160000D02*
X126365000Y-137160000D01*
X126365000Y-137160000D02*
X127635000Y-138430000D01*
X127635000Y-138430000D02*
X138430000Y-138430000D01*
X138430000Y-138430000D02*
X139700000Y-139700000D01*
X126365000Y-138430000D02*
X126365000Y-138430000D01*
X118110000Y-138430000D02*
X116840000Y-137160000D01*
X126365000Y-138430000D02*
X118110000Y-138430000D01*
X137160000Y-139700000D02*
X122555000Y-139700000D01*
X122555000Y-139700000D02*
X122555000Y-139700000D01*
X177800000Y-110490000D02*
X167005000Y-110490000D01*
X167005000Y-110490000D02*
X167005000Y-110490000D01*
X163830000Y-120650000D02*
X162560000Y-121920000D01*
X167005000Y-120650000D02*
X163830000Y-120650000D01*
X167640000Y-119380000D02*
X167640000Y-119380000D01*
X167640000Y-116840000D02*
X167640000Y-116840000D01*
X165100000Y-119380000D02*
X167640000Y-119380000D01*
X175260000Y-116840000D02*
X167640000Y-116840000D01*
X203200000Y-72390000D02*
X203200000Y-71120000D01*
X203200000Y-71120000D02*
X201930000Y-69850000D01*
X201930000Y-69850000D02*
X194310000Y-69850000D01*
X194310000Y-69850000D02*
X194310000Y-69850000D01*
X212090000Y-78740000D02*
X213360000Y-80010000D01*
X190500000Y-78740000D02*
X212090000Y-78740000D01*
X215900000Y-79375000D02*
X215900000Y-80010000D01*
X214630000Y-78105000D02*
X215900000Y-79375000D01*
X189230000Y-78105000D02*
X214630000Y-78105000D01*
X187960000Y-74295000D02*
X187960000Y-74295000D01*
X205740000Y-73025000D02*
X205740000Y-72390000D01*
X204470000Y-74295000D02*
X205740000Y-73025000D01*
X187960000Y-74295000D02*
X204470000Y-74295000D01*
D38*
X40680000Y-57110000D02*
X55880000Y-57110000D01*
X38100000Y-59690000D02*
X40680000Y-57110000D01*
X38100000Y-67310000D02*
X38100000Y-59690000D01*
D37*
X163830000Y-77470000D02*
X148590000Y-77470000D01*
X149860000Y-76200000D02*
X143510000Y-76200000D01*
X160020000Y-64770000D02*
X163830000Y-64770000D01*
X144780000Y-62230000D02*
X160020000Y-62230000D01*
X146309080Y-52070000D02*
X147579080Y-53340000D01*
X147579080Y-53340000D02*
X150320250Y-53340000D01*
X150320250Y-53340000D02*
X151130000Y-53340000D01*
X151130000Y-53340000D02*
X152400000Y-54610000D01*
X152400000Y-54610000D02*
X152400000Y-54610000D01*
X171450000Y-59690000D02*
X153035000Y-59690000D01*
X148597620Y-52070000D02*
X149860000Y-50807620D01*
X149860000Y-50807620D02*
X152392380Y-50807620D01*
X152392380Y-50807620D02*
X153654760Y-52070000D01*
X153654760Y-52070000D02*
X153654760Y-52070000D01*
X154305000Y-58420000D02*
X168910000Y-58420000D01*
X177800000Y-64770000D02*
X181610000Y-64770000D01*
X142240000Y-60960000D02*
X177800000Y-60960000D01*
X142240000Y-64770000D02*
X146050000Y-64770000D01*
X177800000Y-77470000D02*
X185420000Y-77470000D01*
X185420000Y-129540000D02*
X208280000Y-129540000D01*
X208280000Y-129540000D02*
X208280000Y-129540000D01*
X208280000Y-99060000D02*
X212090000Y-99060000D01*
X212090000Y-99060000D02*
X213995000Y-100965000D01*
X262803080Y-100965000D02*
X263438080Y-100330000D01*
X213995000Y-100965000D02*
X262803080Y-100965000D01*
X263438080Y-100330000D02*
X266700000Y-100330000D01*
X266700000Y-100330000D02*
X266700000Y-100330000D01*
X161290000Y-110490000D02*
X162560000Y-109220000D01*
X140970000Y-110490000D02*
X161290000Y-110490000D01*
X144145000Y-113030000D02*
X161290000Y-113030000D01*
X161290000Y-113030000D02*
X161290000Y-113030000D01*
X149860000Y-114300000D02*
X162560000Y-114300000D01*
X165100000Y-114300000D02*
X167640000Y-114300000D01*
X163830000Y-115570000D02*
X162560000Y-116840000D01*
X173990000Y-115570000D02*
X163830000Y-115570000D01*
X175895000Y-118110000D02*
X175895000Y-118110000D01*
X175895000Y-111125000D02*
X179070000Y-111125000D01*
X163830000Y-118110000D02*
X162560000Y-119380000D01*
X175895000Y-118110000D02*
X163830000Y-118110000D01*
X292735000Y-73025000D02*
X255905000Y-73025000D01*
X255905000Y-73025000D02*
X255905000Y-73025000D01*
X290195000Y-73660000D02*
X255270000Y-73660000D01*
X255270000Y-73660000D02*
X255270000Y-73660000D01*
X288399220Y-51168440D02*
X288399220Y-55135780D01*
X288399220Y-55135780D02*
X287655000Y-55880000D01*
X287655000Y-55880000D02*
X280670000Y-55880000D01*
X279400000Y-57150000D02*
X279400000Y-59690000D01*
X280670000Y-55880000D02*
X279400000Y-57150000D01*
X287655000Y-74295000D02*
X254635000Y-74295000D01*
X254635000Y-74295000D02*
X254635000Y-74295000D01*
X291167820Y-56217820D02*
X291167820Y-51168440D01*
X290235640Y-57150000D02*
X291167820Y-56217820D01*
X282575000Y-57150000D02*
X290235640Y-57150000D01*
X281940000Y-57785000D02*
X282575000Y-57150000D01*
X281940000Y-59690000D02*
X281940000Y-57785000D01*
X285115000Y-74930000D02*
X254000000Y-74930000D01*
X254000000Y-74930000D02*
X254000000Y-74930000D01*
X280035000Y-75565000D02*
X253365000Y-75565000D01*
X253365000Y-75565000D02*
X253365000Y-75565000D01*
X277495000Y-76200000D02*
X252730000Y-76200000D01*
X252730000Y-76200000D02*
X252730000Y-76200000D01*
X255434820Y-51168440D02*
X255434820Y-56350180D01*
X255434820Y-56350180D02*
X254635000Y-57150000D01*
X254635000Y-57150000D02*
X247015000Y-57150000D01*
X247015000Y-57150000D02*
X246380000Y-57785000D01*
X246380000Y-57785000D02*
X246380000Y-59690000D01*
X274955000Y-76835000D02*
X252095000Y-76835000D01*
X252095000Y-76835000D02*
X252095000Y-76835000D01*
X252666220Y-51168440D02*
X252666220Y-55308780D01*
X252666220Y-55308780D02*
X252095000Y-55880000D01*
X252095000Y-55880000D02*
X245110000Y-55880000D01*
X245110000Y-55880000D02*
X243840000Y-57150000D01*
X243840000Y-57150000D02*
X243840000Y-59690000D01*
X272415000Y-77470000D02*
X251460000Y-77470000D01*
X251460000Y-77470000D02*
X251460000Y-77470000D01*
X244475000Y-148590000D02*
X179070000Y-148590000D01*
X179070000Y-144780000D02*
X179070000Y-144780000D01*
X179070000Y-148590000D02*
X179070000Y-148590000D01*
X174625000Y-144780000D02*
X179070000Y-144780000D01*
X172720000Y-142875000D02*
X174625000Y-144780000D01*
X158750000Y-142875000D02*
X172720000Y-142875000D01*
X243840000Y-147955000D02*
X181610000Y-147955000D01*
X173741586Y-130810000D02*
X171201586Y-128270000D01*
X181610000Y-130810000D02*
X173741586Y-130810000D01*
X171201586Y-128270000D02*
X151130000Y-128270000D01*
X151130000Y-128270000D02*
X151130000Y-128270000D01*
X198120000Y-114300000D02*
X194310000Y-114300000D01*
X194310000Y-114300000D02*
X191770000Y-116840000D01*
X191770000Y-116840000D02*
X187325000Y-116840000D01*
X187325000Y-116840000D02*
X186690000Y-117475000D01*
X186690000Y-117475000D02*
X186690000Y-117475000D01*
X243205000Y-147320000D02*
X186690000Y-147320000D01*
X242570000Y-146685000D02*
X198120000Y-146685000D01*
X147320000Y-140970000D02*
X148590000Y-142240000D01*
X198120000Y-142240000D02*
X148590000Y-142240000D01*
X147320000Y-140970000D02*
X147320000Y-139700000D01*
X182880000Y-111760000D02*
X180340000Y-111760000D01*
X180340000Y-111760000D02*
X180340000Y-111760000D01*
X179070000Y-139700000D02*
X165100000Y-139700000D01*
X165100000Y-139700000D02*
X163195000Y-141605000D01*
X163195000Y-141605000D02*
X156210000Y-141605000D01*
X156210000Y-141605000D02*
X156210000Y-141605000D01*
X203200000Y-83820000D02*
X203200000Y-83820000D01*
X199390000Y-83820000D02*
X199390000Y-83820000D01*
X199390000Y-83820000D02*
X203200000Y-83820000D01*
X121960000Y-60960000D02*
X116840000Y-60960000D01*
D38*
X55516780Y-54973220D02*
X55880000Y-54610000D01*
X38100000Y-54973220D02*
X55516780Y-54973220D01*
D37*
X173990000Y-72390000D02*
X177800000Y-72390000D01*
X156210000Y-72390000D02*
X160020000Y-72390000D01*
X138430000Y-72390000D02*
X142240000Y-72390000D01*
X146050000Y-74930000D02*
X138430000Y-74930000D01*
X295927500Y-110472500D02*
X297180000Y-109220000D01*
X290830000Y-110472500D02*
X295927500Y-110472500D01*
X75565000Y-103505000D02*
X81280000Y-103505000D01*
X81280000Y-103505000D02*
X81280000Y-103505000D01*
X211455000Y-63500000D02*
X212090000Y-64135000D01*
X141605000Y-63500000D02*
X211455000Y-63500000D01*
X212090000Y-64135000D02*
X288925000Y-64770000D01*
X137160000Y-59055000D02*
X141605000Y-63500000D01*
X111760000Y-59055000D02*
X137160000Y-59055000D01*
X109855000Y-60960000D02*
X111760000Y-59055000D01*
X90170000Y-60960000D02*
X109855000Y-60960000D01*
X89535000Y-61595000D02*
X90170000Y-60960000D01*
X81280000Y-61595000D02*
X89535000Y-61595000D01*
X288925000Y-64770000D02*
X288925000Y-64770000D01*
X289560000Y-93345000D02*
X292735000Y-93345000D01*
X292735000Y-93345000D02*
X292735000Y-93345000D01*
X228600000Y-83820000D02*
X228600000Y-83820000D01*
X231140000Y-83820000D02*
X231140000Y-83820000D01*
X228600000Y-83820000D02*
X231140000Y-83820000D01*
X207010000Y-68580000D02*
X234950000Y-68580000D01*
X209550000Y-62230000D02*
X241935000Y-62230000D01*
X213360000Y-63500000D02*
X240030000Y-63500000D01*
X215900000Y-69850000D02*
X232410000Y-69850000D01*
X214630000Y-123190000D02*
X218440000Y-123190000D01*
X219710000Y-123190000D02*
X220980000Y-124460000D01*
X220980000Y-124460000D02*
X226695000Y-124460000D01*
X228600000Y-124460000D02*
X229870000Y-123190000D01*
X229870000Y-123190000D02*
X231140000Y-123190000D01*
X231140000Y-123190000D02*
X232410000Y-123190000D01*
X232410000Y-123190000D02*
X233045000Y-123825000D01*
X233680000Y-124460000D02*
X245110000Y-124460000D01*
X245110000Y-124460000D02*
X246380000Y-123190000D01*
X246380000Y-123190000D02*
X247650000Y-123190000D01*
X247650000Y-123190000D02*
X248920000Y-123190000D01*
X248920000Y-123190000D02*
X250190000Y-124460000D01*
X250190000Y-124460000D02*
X261620000Y-124460000D01*
X261620000Y-124460000D02*
X262890000Y-123190000D01*
X262890000Y-123190000D02*
X264160000Y-123190000D01*
X112395000Y-67310000D02*
X112395000Y-67310000D01*
X218440000Y-123190000D02*
X219710000Y-123190000D01*
X233045000Y-123825000D02*
X233680000Y-124460000D01*
X112395000Y-92075000D02*
X226695000Y-92075000D01*
X226695000Y-92075000D02*
X226695000Y-92075000D01*
X112395000Y-108585000D02*
X118110000Y-108585000D01*
X226695000Y-124460000D02*
X228600000Y-124460000D01*
X111760000Y-67310000D02*
X107950000Y-67310000D01*
X112395000Y-67310000D02*
X111760000Y-67310000D01*
X62230000Y-138430000D02*
X64770000Y-140970000D01*
X52070000Y-138430000D02*
X62230000Y-138430000D01*
X34290000Y-138430000D02*
X38100000Y-138430000D01*
X33655000Y-139065000D02*
X34290000Y-138430000D01*
X29845000Y-139065000D02*
X33655000Y-139065000D01*
X27940000Y-140970000D02*
X29845000Y-139065000D01*
X39370000Y-137160000D02*
X50800000Y-137160000D01*
X50800000Y-137160000D02*
X52070000Y-138430000D01*
X38100000Y-138430000D02*
X39370000Y-137160000D01*
X40640000Y-130175000D02*
X46990000Y-130175000D01*
X36195000Y-142875000D02*
X32385000Y-142875000D01*
X36830000Y-143510000D02*
X36195000Y-142875000D01*
X50800000Y-144780000D02*
X41910000Y-144780000D01*
X32385000Y-142875000D02*
X30480000Y-140970000D01*
X40640000Y-143510000D02*
X36830000Y-143510000D01*
X41910000Y-144780000D02*
X40640000Y-143510000D01*
X61595000Y-146685000D02*
X64770000Y-143510000D01*
X55245000Y-146685000D02*
X61595000Y-146685000D01*
X53340000Y-144780000D02*
X55245000Y-146685000D01*
X50800000Y-144780000D02*
X53340000Y-144780000D01*
X56258224Y-139065000D02*
X56270035Y-139053189D01*
X56270035Y-139053189D02*
X60313189Y-139053189D01*
X34925000Y-139065000D02*
X33020000Y-140970000D01*
X38735000Y-139065000D02*
X34925000Y-139065000D01*
X60313189Y-139053189D02*
X62230000Y-140970000D01*
X51435000Y-139065000D02*
X56258224Y-139065000D01*
X40005000Y-137795000D02*
X50165000Y-137795000D01*
X50165000Y-137795000D02*
X51435000Y-139065000D01*
X40005000Y-137795000D02*
X38735000Y-139065000D01*
X43180000Y-129540000D02*
X52070000Y-129540000D01*
X59690000Y-146050000D02*
X62230000Y-143510000D01*
X55880000Y-146050000D02*
X59690000Y-146050000D01*
X53975000Y-144145000D02*
X55880000Y-146050000D01*
X52070000Y-144145000D02*
X53975000Y-144145000D01*
X37465000Y-142875000D02*
X35560000Y-140970000D01*
X41275000Y-142875000D02*
X37465000Y-142875000D01*
X42545000Y-144145000D02*
X41275000Y-142875000D01*
X52070000Y-144145000D02*
X42545000Y-144145000D01*
X50800000Y-130175000D02*
X54610000Y-130175000D01*
X45720000Y-138430000D02*
X45720000Y-138430000D01*
X50800000Y-139700000D02*
X58420000Y-139700000D01*
X58420000Y-139700000D02*
X59690000Y-140970000D01*
X49530000Y-138430000D02*
X50800000Y-139700000D01*
X40640000Y-138430000D02*
X49530000Y-138430000D01*
X40640000Y-138430000D02*
X38100000Y-140970000D01*
X45720000Y-128905000D02*
X57150000Y-128905000D01*
X57785000Y-145415000D02*
X59690000Y-143510000D01*
X54610000Y-143510000D02*
X56515000Y-145415000D01*
X56515000Y-145415000D02*
X57785000Y-145415000D01*
X43180000Y-143510000D02*
X54610000Y-143510000D01*
X40640000Y-140970000D02*
X43180000Y-143510000D01*
X53340000Y-129540000D02*
X59690000Y-129540000D01*
X43180000Y-139700000D02*
X43180000Y-140970000D01*
X55245000Y-140335000D02*
X50165000Y-140335000D01*
X55880000Y-140970000D02*
X55245000Y-140335000D01*
X57150000Y-140970000D02*
X55880000Y-140970000D01*
X43815000Y-139065000D02*
X48895000Y-139065000D01*
X50165000Y-140335000D02*
X48895000Y-139065000D01*
X43815000Y-139065000D02*
X43180000Y-139700000D01*
X55880000Y-130175000D02*
X62230000Y-130175000D01*
X45720000Y-140970000D02*
X47625000Y-142875000D01*
X47625000Y-142875000D02*
X55245000Y-142875000D01*
X55245000Y-142875000D02*
X55880000Y-143510000D01*
X55880000Y-143510000D02*
X57150000Y-143510000D01*
X58420000Y-128905000D02*
X64770000Y-128905000D01*
X74930000Y-138430000D02*
X63500000Y-138430000D01*
X63500000Y-138430000D02*
X62865000Y-137795000D01*
X62865000Y-137795000D02*
X52705000Y-137795000D01*
X52705000Y-137795000D02*
X51435000Y-136525000D01*
X51435000Y-136525000D02*
X47625000Y-136525000D01*
X47625000Y-136525000D02*
X46990000Y-135890000D01*
X46990000Y-135890000D02*
X46990000Y-135890000D01*
X73660000Y-137795000D02*
X64135000Y-137795000D01*
X64135000Y-137795000D02*
X63500000Y-137160000D01*
X63500000Y-137160000D02*
X53340000Y-137160000D01*
X53340000Y-137160000D02*
X52070000Y-135890000D01*
X52070000Y-135890000D02*
X50165000Y-135890000D01*
X50165000Y-135890000D02*
X49530000Y-135255000D01*
X49530000Y-135255000D02*
X49530000Y-135255000D01*
X72390000Y-137160000D02*
X64770000Y-137160000D01*
X64770000Y-137160000D02*
X64135000Y-136525000D01*
X64135000Y-136525000D02*
X53975000Y-136525000D01*
X53975000Y-136525000D02*
X52705000Y-135255000D01*
X52705000Y-135255000D02*
X52070000Y-135255000D01*
X52070000Y-135255000D02*
X52070000Y-135255000D01*
X71120000Y-136525000D02*
X65405000Y-136525000D01*
X65405000Y-136525000D02*
X64770000Y-135890000D01*
X64770000Y-135890000D02*
X55245000Y-135890000D01*
X55245000Y-135890000D02*
X54610000Y-135255000D01*
X54610000Y-135255000D02*
X54610000Y-135255000D01*
X65405000Y-135255000D02*
X59690000Y-135255000D01*
X66040000Y-135890000D02*
X65405000Y-135255000D01*
X69850000Y-135890000D02*
X66040000Y-135890000D01*
X59690000Y-135255000D02*
X59690000Y-135255000D01*
X115570000Y-73660000D02*
X116840000Y-72390000D01*
X116840000Y-72390000D02*
X121920000Y-72390000D01*
X121920000Y-72390000D02*
X123190000Y-73660000D01*
X115570000Y-73660000D02*
X73025000Y-73660000D01*
X73025000Y-73660000D02*
X72390000Y-73025000D01*
X72390000Y-73025000D02*
X72390000Y-73025000D01*
X64770000Y-66040000D02*
X67310000Y-66040000D01*
X67310000Y-66040000D02*
X68580000Y-64770000D01*
X68580000Y-64770000D02*
X71120000Y-64770000D01*
X71120000Y-64770000D02*
X72390000Y-66040000D01*
X121285000Y-139065000D02*
X135890000Y-139065000D01*
X135890000Y-139065000D02*
X135890000Y-139065000D01*
X191770000Y-137160000D02*
X191770000Y-137160000D01*
X191770000Y-110490000D02*
X193040000Y-109220000D01*
X191770000Y-113030000D02*
X191770000Y-110490000D01*
X190500000Y-114300000D02*
X191770000Y-113030000D01*
X173355000Y-135890000D02*
X139065000Y-135890000D01*
X174625000Y-137160000D02*
X173355000Y-135890000D01*
X191770000Y-137160000D02*
X174625000Y-137160000D01*
X39370000Y-132080000D02*
X39370000Y-133985000D01*
X39370000Y-133985000D02*
X40005000Y-134620000D01*
X40005000Y-134620000D02*
X85090000Y-134620000D01*
X85090000Y-134620000D02*
X85090000Y-134620000D01*
X125095000Y-142875000D02*
X125095000Y-142875000D01*
X118110000Y-142875000D02*
X125095000Y-142875000D01*
X187960000Y-132080000D02*
X173355000Y-132080000D01*
X173355000Y-132080000D02*
X172085000Y-130810000D01*
X172085000Y-130810000D02*
X139065000Y-130810000D01*
X139065000Y-130810000D02*
X139065000Y-130810000D01*
X107950000Y-144780000D02*
X87630000Y-144780000D01*
X87630000Y-144780000D02*
X85090000Y-142240000D01*
X72390000Y-116840000D02*
X74930000Y-114300000D01*
X74930000Y-114300000D02*
X77470000Y-114300000D01*
X77470000Y-114300000D02*
X77470000Y-114300000D01*
X80010000Y-60960000D02*
X88900000Y-60960000D01*
X88900000Y-60960000D02*
X91440000Y-58420000D01*
X91440000Y-58420000D02*
X137795000Y-58420000D01*
X137795000Y-58420000D02*
X142240000Y-62865000D01*
X142240000Y-62865000D02*
X194310000Y-62865000D01*
X194310000Y-62865000D02*
X213995000Y-62865000D01*
X213995000Y-62865000D02*
X302895000Y-62865000D01*
D39*
X43053000Y-80518000D02*
X25527000Y-80518000D01*
X25527000Y-76198000D01*
X29241928Y-76198000D01*
X29254188Y-76322482D01*
X29290498Y-76442180D01*
X29349463Y-76552494D01*
X29428815Y-76649185D01*
X29525506Y-76728537D01*
X29635820Y-76787502D01*
X29755518Y-76823812D01*
X29880000Y-76836072D01*
X30194250Y-76833000D01*
X30353000Y-76674250D01*
X30353000Y-75725000D01*
X29403750Y-75725000D01*
X29245000Y-75883750D01*
X29241928Y-76198000D01*
X25527000Y-76198000D01*
X25527000Y-74998000D01*
X29241928Y-74998000D01*
X29245000Y-75312250D01*
X29403750Y-75471000D01*
X30353000Y-75471000D01*
X30353000Y-74521750D01*
X30607000Y-74521750D01*
X30607000Y-75471000D01*
X30627000Y-75471000D01*
X30627000Y-75725000D01*
X30607000Y-75725000D01*
X30607000Y-76674250D01*
X30765750Y-76833000D01*
X31080000Y-76836072D01*
X31204482Y-76823812D01*
X31324180Y-76787502D01*
X31434494Y-76728537D01*
X31450478Y-76715419D01*
X31619764Y-76785540D01*
X31858363Y-76833000D01*
X32101637Y-76833000D01*
X32340236Y-76785540D01*
X32564992Y-76692443D01*
X32767267Y-76557287D01*
X32939287Y-76385267D01*
X33074443Y-76182992D01*
X33167540Y-75958236D01*
X33215000Y-75719637D01*
X33215000Y-75476363D01*
X35365000Y-75476363D01*
X35365000Y-75719637D01*
X35412460Y-75958236D01*
X35505557Y-76182992D01*
X35640713Y-76385267D01*
X35812733Y-76557287D01*
X36015008Y-76692443D01*
X36239764Y-76785540D01*
X36478363Y-76833000D01*
X36721637Y-76833000D01*
X36960236Y-76785540D01*
X37129522Y-76715419D01*
X37145506Y-76728537D01*
X37255820Y-76787502D01*
X37375518Y-76823812D01*
X37500000Y-76836072D01*
X38700000Y-76836072D01*
X38824482Y-76823812D01*
X38944180Y-76787502D01*
X39054494Y-76728537D01*
X39151185Y-76649185D01*
X39230537Y-76552494D01*
X39289502Y-76442180D01*
X39325812Y-76322482D01*
X39338072Y-76198000D01*
X39338072Y-74998000D01*
X39325812Y-74873518D01*
X39289502Y-74753820D01*
X39230537Y-74643506D01*
X39151185Y-74546815D01*
X39054494Y-74467463D01*
X38944180Y-74408498D01*
X38824482Y-74372188D01*
X38700000Y-74359928D01*
X37500000Y-74359928D01*
X37375518Y-74372188D01*
X37255820Y-74408498D01*
X37145506Y-74467463D01*
X37129522Y-74480581D01*
X36960236Y-74410460D01*
X36721637Y-74363000D01*
X36478363Y-74363000D01*
X36239764Y-74410460D01*
X36015008Y-74503557D01*
X35812733Y-74638713D01*
X35640713Y-74810733D01*
X35505557Y-75013008D01*
X35412460Y-75237764D01*
X35365000Y-75476363D01*
X33215000Y-75476363D01*
X33167540Y-75237764D01*
X33074443Y-75013008D01*
X32939287Y-74810733D01*
X32767267Y-74638713D01*
X32564992Y-74503557D01*
X32340236Y-74410460D01*
X32101637Y-74363000D01*
X31858363Y-74363000D01*
X31619764Y-74410460D01*
X31450478Y-74480581D01*
X31434494Y-74467463D01*
X31324180Y-74408498D01*
X31204482Y-74372188D01*
X31080000Y-74359928D01*
X30765750Y-74363000D01*
X30607000Y-74521750D01*
X30353000Y-74521750D01*
X30194250Y-74363000D01*
X29880000Y-74359928D01*
X29755518Y-74372188D01*
X29635820Y-74408498D01*
X29525506Y-74467463D01*
X29428815Y-74546815D01*
X29349463Y-74643506D01*
X29290498Y-74753820D01*
X29254188Y-74873518D01*
X29241928Y-74998000D01*
X25527000Y-74998000D01*
X25527000Y-70612000D01*
X43053000Y-70612000D01*
X43053000Y-80518000D01*
%TA.AperFunction,Conductor*%
D40*
G36*
X43053000Y-80518000D02*
G01*
X25527000Y-80518000D01*
X25527000Y-76198000D01*
X29241928Y-76198000D01*
X29254188Y-76322482D01*
X29290498Y-76442180D01*
X29349463Y-76552494D01*
X29428815Y-76649185D01*
X29525506Y-76728537D01*
X29635820Y-76787502D01*
X29755518Y-76823812D01*
X29880000Y-76836072D01*
X30194250Y-76833000D01*
X30353000Y-76674250D01*
X30353000Y-75725000D01*
X29403750Y-75725000D01*
X29245000Y-75883750D01*
X29241928Y-76198000D01*
X25527000Y-76198000D01*
X25527000Y-74998000D01*
X29241928Y-74998000D01*
X29245000Y-75312250D01*
X29403750Y-75471000D01*
X30353000Y-75471000D01*
X30353000Y-74521750D01*
X30607000Y-74521750D01*
X30607000Y-75471000D01*
X30627000Y-75471000D01*
X30627000Y-75725000D01*
X30607000Y-75725000D01*
X30607000Y-76674250D01*
X30765750Y-76833000D01*
X31080000Y-76836072D01*
X31204482Y-76823812D01*
X31324180Y-76787502D01*
X31434494Y-76728537D01*
X31450478Y-76715419D01*
X31619764Y-76785540D01*
X31858363Y-76833000D01*
X32101637Y-76833000D01*
X32340236Y-76785540D01*
X32564992Y-76692443D01*
X32767267Y-76557287D01*
X32939287Y-76385267D01*
X33074443Y-76182992D01*
X33167540Y-75958236D01*
X33215000Y-75719637D01*
X33215000Y-75476363D01*
X35365000Y-75476363D01*
X35365000Y-75719637D01*
X35412460Y-75958236D01*
X35505557Y-76182992D01*
X35640713Y-76385267D01*
X35812733Y-76557287D01*
X36015008Y-76692443D01*
X36239764Y-76785540D01*
X36478363Y-76833000D01*
X36721637Y-76833000D01*
X36960236Y-76785540D01*
X37129522Y-76715419D01*
X37145506Y-76728537D01*
X37255820Y-76787502D01*
X37375518Y-76823812D01*
X37500000Y-76836072D01*
X38700000Y-76836072D01*
X38824482Y-76823812D01*
X38944180Y-76787502D01*
X39054494Y-76728537D01*
X39151185Y-76649185D01*
X39230537Y-76552494D01*
X39289502Y-76442180D01*
X39325812Y-76322482D01*
X39338072Y-76198000D01*
X39338072Y-74998000D01*
X39325812Y-74873518D01*
X39289502Y-74753820D01*
X39230537Y-74643506D01*
X39151185Y-74546815D01*
X39054494Y-74467463D01*
X38944180Y-74408498D01*
X38824482Y-74372188D01*
X38700000Y-74359928D01*
X37500000Y-74359928D01*
X37375518Y-74372188D01*
X37255820Y-74408498D01*
X37145506Y-74467463D01*
X37129522Y-74480581D01*
X36960236Y-74410460D01*
X36721637Y-74363000D01*
X36478363Y-74363000D01*
X36239764Y-74410460D01*
X36015008Y-74503557D01*
X35812733Y-74638713D01*
X35640713Y-74810733D01*
X35505557Y-75013008D01*
X35412460Y-75237764D01*
X35365000Y-75476363D01*
X33215000Y-75476363D01*
X33167540Y-75237764D01*
X33074443Y-75013008D01*
X32939287Y-74810733D01*
X32767267Y-74638713D01*
X32564992Y-74503557D01*
X32340236Y-74410460D01*
X32101637Y-74363000D01*
X31858363Y-74363000D01*
X31619764Y-74410460D01*
X31450478Y-74480581D01*
X31434494Y-74467463D01*
X31324180Y-74408498D01*
X31204482Y-74372188D01*
X31080000Y-74359928D01*
X30765750Y-74363000D01*
X30607000Y-74521750D01*
X30353000Y-74521750D01*
X30194250Y-74363000D01*
X29880000Y-74359928D01*
X29755518Y-74372188D01*
X29635820Y-74408498D01*
X29525506Y-74467463D01*
X29428815Y-74546815D01*
X29349463Y-74643506D01*
X29290498Y-74753820D01*
X29254188Y-74873518D01*
X29241928Y-74998000D01*
X25527000Y-74998000D01*
X25527000Y-70612000D01*
X43053000Y-70612000D01*
X43053000Y-80518000D01*
G37*
%TD.AperFunction*%
M02*
