M48
; DRILL file {KiCad (5.1.9)-1} date 09/01/21 00:43:16
; FORMAT={-:-/ absolute / metric / decimal}
; #@! TF.CreationDate,2021-09-01T00:43:16-05:00
; #@! TF.GenerationSoftware,Kicad,Pcbnew,(5.1.9)-1
; #@! TF.FileFunction,Plated,1,4,PTH
FMAT,2
METRIC
T1C0.330
T2C0.600
T3C0.700
T4C0.800
T5C0.813
T6C0.900
T7C1.000
T8C1.016
T9C1.298
T10C3.302
%
G90
G05
T1
X26.67Y-71.755
X26.67Y-73.66
X26.67Y-75.565
X26.67Y-77.47
X26.67Y-79.375
X28.575Y-71.755
X28.575Y-73.66
X28.575Y-75.565
X28.575Y-77.47
X28.575Y-79.375
X30.48Y-71.755
X30.48Y-73.66
X32.385Y-71.755
X32.385Y-73.66
X32.385Y-77.47
X32.385Y-79.375
X32.385Y-110.49
X33.655Y-112.395
X34.925Y-111.125
X36.195Y-71.755
X36.195Y-73.66
X36.195Y-77.47
X36.195Y-79.375
X36.195Y-113.03
X37.465Y-111.76
X38.735Y-113.665
X40.005Y-71.755
X40.005Y-73.66
X40.005Y-75.565
X40.005Y-77.47
X40.005Y-79.375
X40.005Y-109.855
X40.64Y-130.175
X40.64Y-137.16
X41.91Y-71.755
X41.91Y-73.66
X41.91Y-75.565
X41.91Y-77.47
X41.91Y-79.375
X42.545Y-109.22
X43.18Y-129.54
X43.18Y-137.795
X43.815Y-114.3
X44.45Y-116.84
X45.085Y-108.585
X45.72Y-128.905
X45.72Y-138.43
X46.355Y-110.49
X46.355Y-114.935
X46.99Y-97.79
X46.99Y-130.175
X46.99Y-135.89
X48.895Y-111.125
X49.53Y-97.155
X49.53Y-98.425
X49.53Y-135.255
X50.8Y-130.175
X50.8Y-144.78
X51.435Y-111.76
X52.07Y-95.885
X52.07Y-99.06
X52.07Y-129.54
X52.07Y-135.255
X52.07Y-144.145
X52.705Y-112.395
X53.34Y-96.52
X53.34Y-129.54
X53.975Y-113.665
X54.61Y-95.25
X54.61Y-99.695
X54.61Y-130.175
X54.61Y-135.255
X55.245Y-83.82
X55.88Y-130.175
X56.515Y-113.03
X57.15Y-94.615
X57.15Y-100.33
X57.15Y-128.905
X58.42Y-99.695
X58.42Y-128.905
X59.69Y-70.485
X59.69Y-129.54
X59.69Y-135.255
X60.96Y-99.06
X62.23Y-93.345
X62.23Y-100.965
X62.23Y-130.175
X63.5Y-98.425
X64.77Y-128.905
X66.04Y-97.79
X68.58Y-97.155
X69.215Y-101.6
X69.85Y-135.89
X70.485Y-63.5
X70.485Y-114.3
X71.12Y-85.09
X71.12Y-96.52
X71.12Y-136.525
X72.39Y-73.025
X72.39Y-100.965
X72.39Y-108.585
X72.39Y-137.16
X73.025Y-83.82
X73.025Y-114.935
X73.66Y-88.9
X73.66Y-95.885
X73.66Y-137.795
X74.93Y-138.43
X75.565Y-103.505
X76.2Y-95.25
X77.47Y-94.615
X77.47Y-114.3
X78.105Y-83.82
X79.375Y-110.49
X80.01Y-60.96
X80.01Y-81.915
X80.01Y-84.455
X81.28Y-61.595
X81.28Y-103.505
X81.28Y-109.22
X81.915Y-101.6
X81.915Y-111.125
X82.55Y-102.235
X82.55Y-109.855
X83.185Y-88.265
X83.82Y-109.22
X83.82Y-144.145
X84.455Y-99.695
X84.455Y-106.68
X85.09Y-99.06
X85.09Y-106.045
X85.09Y-134.62
X85.09Y-142.24
X85.725Y-98.425
X85.725Y-105.41
X86.36Y-97.79
X86.36Y-104.775
X86.995Y-97.155
X86.995Y-104.14
X87.63Y-86.995
X87.63Y-90.17
X87.63Y-94.615
X87.63Y-96.52
X87.63Y-103.505
X88.265Y-95.885
X88.265Y-102.87
X88.265Y-111.125
X88.9Y-95.25
X88.9Y-102.235
X88.9Y-110.49
X89.535Y-76.2
X89.535Y-90.17
X90.17Y-83.82
X90.17Y-85.725
X90.17Y-88.265
X93.345Y-114.3
X93.345Y-118.11
X93.98Y-103.505
X94.615Y-104.14
X94.615Y-117.475
X95.25Y-67.31
X95.25Y-104.775
X95.25Y-121.92
X95.885Y-72.39
X95.885Y-105.41
X95.885Y-114.935
X96.52Y-74.93
X96.52Y-88.265
X96.52Y-102.87
X97.155Y-83.185
X97.155Y-85.725
X97.155Y-106.045
X97.155Y-115.57
X97.155Y-118.11
X97.79Y-102.235
X97.79Y-121.92
X98.425Y-106.68
X98.425Y-114.3
X98.425Y-129.54
X99.06Y-57.785
X99.06Y-96.52
X99.06Y-146.05
X99.695Y-60.325
X99.695Y-99.06
X100.33Y-62.865
X100.33Y-101.6
X100.965Y-84.455
X100.965Y-97.79
X101.6Y-86.995
X101.6Y-100.33
X102.235Y-85.725
X102.235Y-100.965
X102.235Y-125.73
X102.87Y-55.245
X102.87Y-114.935
X103.505Y-53.34
X103.505Y-114.3
X103.505Y-124.46
X104.14Y-52.705
X104.14Y-113.665
X104.775Y-55.245
X104.775Y-113.03
X105.41Y-57.785
X105.41Y-112.395
X105.41Y-148.59
X106.045Y-60.325
X106.045Y-91.44
X106.045Y-111.76
X107.95Y-144.78
X109.22Y-114.935
X109.855Y-76.835
X109.855Y-78.105
X109.855Y-88.9
X109.855Y-111.125
X110.49Y-74.93
X110.49Y-81.28
X110.49Y-90.17
X110.49Y-110.49
X110.49Y-114.3
X111.125Y-72.39
X111.125Y-90.805
X111.125Y-109.855
X111.76Y-69.85
X111.76Y-91.44
X111.76Y-109.22
X111.76Y-113.665
X112.395Y-67.31
X112.395Y-92.075
X112.395Y-108.585
X113.03Y-64.77
X113.03Y-92.71
X113.03Y-107.95
X113.03Y-113.03
X113.03Y-119.38
X113.665Y-62.865
X113.665Y-93.345
X113.665Y-107.315
X113.665Y-111.125
X113.665Y-115.57
X113.665Y-133.35
X114.3Y-112.395
X114.935Y-110.49
X114.935Y-115.57
X114.935Y-124.46
X114.935Y-129.54
X114.935Y-134.62
X114.935Y-137.16
X115.57Y-111.76
X115.57Y-119.38
X116.84Y-107.315
X117.475Y-63.5
X117.475Y-81.28
X117.475Y-86.995
X118.11Y-94.615
X118.11Y-107.315
X118.11Y-108.585
X118.11Y-142.875
X118.745Y-95.885
X118.745Y-110.49
X119.38Y-107.95
X120.015Y-97.79
X120.015Y-100.965
X120.015Y-109.22
X120.65Y-94.615
X120.65Y-112.395
X121.285Y-95.25
X121.285Y-113.03
X121.285Y-124.46
X121.285Y-132.08
X121.285Y-134.62
X121.285Y-139.065
X121.285Y-140.335
X121.92Y-95.885
X121.92Y-113.665
X122.555Y-96.52
X122.555Y-114.3
X122.555Y-129.54
X122.555Y-132.08
X122.555Y-139.7
X123.19Y-97.155
X123.19Y-114.935
X123.19Y-123.19
X123.825Y-109.855
X123.825Y-128.905
X123.825Y-133.35
X125.095Y-124.46
X125.095Y-142.875
X125.73Y-125.73
X126.365Y-120.65
X126.365Y-123.19
X126.365Y-138.43
X127.635Y-100.965
X128.27Y-100.33
X130.175Y-86.995
X130.81Y-84.455
X131.445Y-68.58
X132.08Y-82.55
X132.08Y-127.0
X132.08Y-130.81
X133.35Y-110.49
X133.35Y-131.445
X134.62Y-106.68
X135.255Y-106.045
X135.89Y-105.41
X135.89Y-139.065
X135.89Y-140.335
X135.89Y-142.875
X136.525Y-104.775
X138.43Y-74.93
X138.43Y-141.605
X139.065Y-130.81
X139.065Y-135.89
X140.97Y-110.49
X142.24Y-60.96
X143.51Y-76.2
X143.51Y-142.875
X144.145Y-113.03
X144.78Y-62.23
X146.05Y-74.93
X146.05Y-143.51
X148.59Y-77.47
X148.59Y-144.78
X149.86Y-76.2
X149.86Y-114.3
X149.86Y-144.145
X151.13Y-128.27
X151.13Y-145.415
X152.4Y-54.61
X153.035Y-59.69
X153.655Y-52.07
X153.67Y-146.685
X154.305Y-58.42
X154.94Y-146.05
X156.21Y-141.605
X157.48Y-147.32
X158.75Y-142.875
X160.02Y-62.23
X161.29Y-113.03
X163.83Y-77.47
X167.005Y-110.49
X167.005Y-120.65
X167.64Y-114.3
X167.64Y-116.84
X167.64Y-119.38
X168.91Y-58.42
X170.18Y-78.74
X171.45Y-59.69
X172.085Y-128.27
X172.72Y-76.2
X172.72Y-83.82
X172.72Y-126.365
X173.99Y-115.57
X175.26Y-116.84
X175.895Y-111.125
X175.895Y-118.11
X177.8Y-60.96
X177.8Y-77.47
X177.8Y-110.49
X179.07Y-111.125
X179.07Y-139.7
X179.07Y-144.78
X179.07Y-148.59
X180.34Y-111.76
X180.34Y-116.84
X180.34Y-125.73
X180.975Y-123.19
X181.61Y-76.2
X181.61Y-130.81
X181.61Y-147.955
X182.245Y-127.635
X182.245Y-143.51
X182.88Y-145.415
X184.15Y-107.315
X184.15Y-120.015
X184.15Y-130.81
X185.42Y-77.47
X185.42Y-106.045
X185.42Y-129.54
X186.69Y-106.68
X186.69Y-117.475
X186.69Y-147.32
X187.96Y-74.295
X187.96Y-104.775
X187.96Y-132.08
X189.23Y-78.105
X189.23Y-105.41
X190.5Y-78.74
X190.5Y-114.3
X191.77Y-71.12
X191.77Y-84.455
X191.77Y-97.79
X191.77Y-137.16
X194.31Y-69.85
X194.31Y-98.425
X195.58Y-120.65
X196.85Y-99.06
X198.12Y-92.075
X198.12Y-142.24
X198.12Y-146.685
X199.39Y-83.82
X199.39Y-120.65
X199.39Y-143.51
X200.66Y-91.44
X200.66Y-146.05
X201.93Y-82.55
X201.93Y-90.805
X202.565Y-114.3
X202.565Y-119.38
X203.2Y-83.82
X203.835Y-107.95
X203.835Y-130.81
X206.375Y-128.905
X206.375Y-146.05
X207.01Y-68.58
X207.01Y-84.455
X207.01Y-114.3
X207.01Y-121.285
X207.01Y-145.415
X208.28Y-99.06
X208.28Y-129.54
X208.915Y-115.57
X208.915Y-124.46
X209.55Y-62.23
X209.55Y-118.11
X209.55Y-144.78
X210.185Y-75.565
X210.185Y-121.92
X210.185Y-129.54
X210.82Y-99.695
X210.82Y-135.89
X211.455Y-100.33
X211.455Y-138.43
X212.09Y-77.47
X212.09Y-100.965
X212.09Y-140.97
X212.725Y-101.6
X212.725Y-142.24
X213.36Y-63.5
X213.36Y-99.06
X213.36Y-105.41
X213.995Y-99.695
X213.995Y-106.045
X215.9Y-69.85
X216.535Y-102.235
X216.535Y-139.7
X217.17Y-102.87
X217.17Y-137.16
X217.805Y-103.505
X217.805Y-134.62
X218.44Y-104.14
X218.44Y-132.08
X224.155Y-89.535
X224.155Y-134.62
X224.79Y-90.17
X224.79Y-132.08
X225.425Y-90.805
X225.425Y-129.54
X225.425Y-130.81
X225.425Y-144.78
X226.06Y-91.44
X226.06Y-127.0
X226.695Y-92.075
X226.695Y-124.46
X227.33Y-92.71
X227.33Y-121.92
X227.965Y-93.345
X227.965Y-119.38
X228.6Y-83.82
X228.6Y-93.98
X228.6Y-116.84
X229.235Y-94.615
X229.235Y-117.475
X231.14Y-83.82
X232.41Y-69.85
X233.045Y-95.25
X233.045Y-120.015
X233.68Y-95.885
X233.68Y-128.27
X234.315Y-96.52
X234.315Y-123.19
X234.95Y-68.58
X234.95Y-97.155
X234.95Y-114.3
X235.585Y-83.82
X235.585Y-99.06
X236.22Y-84.455
X236.22Y-99.695
X238.125Y-67.31
X238.125Y-97.79
X238.76Y-98.425
X240.03Y-63.5
X240.665Y-66.675
X240.665Y-115.57
X240.665Y-130.81
X240.665Y-145.415
X241.3Y-111.76
X241.935Y-62.23
X242.57Y-146.685
X243.205Y-66.04
X243.205Y-147.32
X243.84Y-147.955
X244.475Y-148.59
X245.745Y-65.405
X246.38Y-76.835
X247.65Y-72.39
X247.65Y-76.2
X247.65Y-77.47
X248.285Y-75.565
X248.92Y-74.93
X248.92Y-82.55
X248.92Y-86.995
X249.555Y-74.295
X249.555Y-81.915
X250.19Y-81.28
X250.825Y-80.645
X251.46Y-77.47
X252.095Y-76.835
X252.73Y-76.2
X253.365Y-75.565
X254.0Y-74.93
X254.635Y-74.295
X255.27Y-73.66
X255.905Y-73.025
X257.175Y-67.945
X257.175Y-79.375
X257.81Y-90.805
X258.445Y-67.31
X258.445Y-88.265
X258.445Y-144.78
X259.08Y-134.62
X259.715Y-89.535
X259.715Y-91.44
X259.715Y-132.08
X260.35Y-92.075
X260.985Y-66.675
X260.985Y-80.01
X260.985Y-87.63
X262.255Y-90.17
X263.525Y-66.04
X263.525Y-79.375
X263.525Y-88.9
X264.795Y-90.805
X266.065Y-65.405
X266.065Y-72.39
X266.065Y-78.74
X266.7Y-100.33
X266.7Y-130.81
X266.7Y-145.415
X267.97Y-71.755
X267.97Y-78.105
X267.97Y-83.185
X267.97Y-92.075
X269.24Y-83.82
X270.51Y-71.755
X270.51Y-91.44
X272.415Y-77.47
X272.415Y-124.46
X274.955Y-76.835
X276.225Y-82.55
X277.495Y-76.2
X278.765Y-81.915
X280.035Y-75.565
X281.305Y-81.28
X282.575Y-137.795
X283.21Y-136.525
X283.845Y-80.645
X283.863Y-130.792
X284.498Y-123.172
X285.115Y-74.93
X286.385Y-72.39
X286.385Y-111.125
X287.02Y-96.52
X287.02Y-139.7
X287.655Y-74.295
X287.655Y-89.535
X287.655Y-99.06
X287.655Y-143.51
X288.29Y-90.805
X288.29Y-101.6
X288.29Y-138.43
X288.925Y-64.77
X288.925Y-87.63
X288.925Y-104.14
X288.925Y-133.35
X289.56Y-93.345
X290.195Y-73.66
X290.83Y-87.63
X292.1Y-86.995
X292.735Y-73.025
X292.735Y-74.295
X292.735Y-93.345
X293.37Y-92.075
X293.37Y-97.155
X293.37Y-143.51
X297.18Y-109.22
X299.085Y-71.755
X300.355Y-74.295
X300.355Y-114.935
X300.99Y-104.775
X301.625Y-95.885
X301.625Y-135.89
X302.26Y-71.12
X302.26Y-88.265
X302.26Y-98.425
X302.26Y-140.97
X302.895Y-62.865
X302.895Y-89.535
X302.895Y-104.14
X302.895Y-133.35
X303.53Y-100.965
X303.53Y-138.43
X303.548Y-95.233
X304.165Y-90.17
X304.165Y-97.155
X304.8Y-91.44
X305.435Y-87.63
X307.975Y-80.01
X308.61Y-79.375
X308.61Y-137.795
X309.245Y-78.74
X309.245Y-135.255
X309.88Y-78.105
X309.88Y-130.175
X310.515Y-125.095
T2
X30.48Y-75.598
X31.98Y-75.598
X36.6Y-75.598
X38.1Y-75.598
X83.82Y-49.53
X83.82Y-50.8
X83.82Y-52.07
X196.753Y-87.63
X198.12Y-66.04
X198.253Y-87.63
X199.62Y-66.04
X203.2Y-87.63
X204.7Y-87.63
X209.55Y-87.63
X211.05Y-87.63
X215.67Y-87.63
X217.17Y-87.63
X225.83Y-87.63
X227.33Y-66.04
X227.33Y-87.63
X228.83Y-66.04
X232.41Y-87.63
X233.91Y-87.63
X238.76Y-87.63
X240.26Y-87.63
X244.88Y-87.63
X246.38Y-87.63
T3
X76.2Y-86.36
X80.01Y-58.42
X83.82Y-86.36
X87.63Y-58.42
X115.57Y-66.04
X115.57Y-73.66
X119.38Y-66.04
X119.38Y-73.66
X123.19Y-66.04
X123.19Y-73.66
X138.43Y-64.77
X138.43Y-72.39
X142.24Y-64.77
X142.24Y-72.39
X146.05Y-64.77
X146.05Y-72.39
X149.86Y-64.77
X149.86Y-72.39
X156.21Y-64.77
X156.21Y-72.39
X160.02Y-64.77
X160.02Y-72.39
X163.83Y-64.77
X163.83Y-72.39
X167.64Y-64.77
X167.64Y-72.39
X173.99Y-64.77
X173.99Y-72.39
X177.8Y-64.77
X177.8Y-72.39
X181.61Y-64.77
X181.61Y-72.39
X185.42Y-64.77
X185.42Y-72.39
T4
X27.94Y-140.97
X30.48Y-67.31
X30.48Y-140.97
X31.75Y-116.84
X31.75Y-132.08
X33.02Y-140.97
X34.29Y-116.84
X34.29Y-132.08
X35.56Y-140.97
X36.83Y-116.84
X36.83Y-132.08
X38.1Y-67.31
X38.1Y-140.97
X39.37Y-116.84
X39.37Y-132.08
X40.64Y-140.97
X41.91Y-116.84
X41.91Y-132.08
X43.18Y-140.97
X44.45Y-116.84
X44.45Y-132.08
X45.72Y-140.97
X46.99Y-116.84
X46.99Y-132.08
X48.26Y-140.97
X49.53Y-66.04
X49.53Y-81.28
X49.53Y-91.44
X49.53Y-106.68
X49.53Y-116.84
X49.53Y-132.08
X49.57Y-86.36
X52.07Y-66.04
X52.07Y-81.28
X52.07Y-86.36
X52.07Y-91.44
X52.07Y-106.68
X52.07Y-116.84
X52.07Y-132.08
X54.61Y-66.04
X54.61Y-81.28
X54.61Y-91.44
X54.61Y-106.68
X54.61Y-116.84
X54.61Y-132.08
X57.15Y-66.04
X57.15Y-81.28
X57.15Y-91.44
X57.15Y-106.68
X57.15Y-116.84
X57.15Y-132.08
X59.69Y-66.04
X59.69Y-81.28
X59.69Y-91.44
X59.69Y-106.68
X59.69Y-116.84
X59.69Y-132.08
X62.23Y-66.04
X62.23Y-81.28
X62.23Y-91.44
X62.23Y-106.68
X62.23Y-116.84
X62.23Y-132.08
X64.77Y-66.04
X64.77Y-81.28
X64.77Y-91.44
X64.77Y-106.68
X64.77Y-116.84
X64.77Y-132.08
X67.31Y-66.04
X67.31Y-81.28
X67.31Y-91.44
X67.31Y-106.68
X67.31Y-116.84
X67.31Y-132.08
X69.85Y-66.04
X69.85Y-81.28
X69.85Y-91.44
X69.85Y-106.68
X69.85Y-116.84
X69.85Y-132.08
X72.39Y-66.04
X72.39Y-81.28
X72.39Y-91.44
X72.39Y-106.68
X72.39Y-116.84
X72.39Y-132.08
X74.93Y-66.04
X74.93Y-81.28
X74.93Y-91.44
X74.93Y-106.68
X74.93Y-116.84
X74.93Y-132.08
X77.47Y-66.04
X77.47Y-81.28
X77.47Y-91.44
X77.47Y-106.68
X77.47Y-116.84
X77.47Y-132.08
X80.01Y-91.44
X80.01Y-106.68
X80.01Y-116.84
X80.01Y-132.08
X82.55Y-66.08
X82.55Y-68.58
X82.55Y-91.44
X82.55Y-106.68
X85.09Y-116.88
X85.09Y-119.38
X87.63Y-77.47
X87.63Y-79.97
X88.9Y-124.5
X88.9Y-127.0
X88.9Y-132.12
X88.9Y-134.62
X92.71Y-52.07
X92.71Y-54.61
X92.71Y-57.15
X92.71Y-59.69
X92.71Y-62.23
X92.71Y-64.77
X92.71Y-67.31
X92.71Y-69.85
X92.71Y-72.39
X92.71Y-74.93
X92.71Y-77.47
X92.71Y-80.01
X92.71Y-82.55
X92.71Y-85.09
X92.71Y-87.63
X92.71Y-90.17
X92.71Y-92.71
X92.71Y-95.25
X92.71Y-97.79
X92.71Y-100.33
X107.95Y-52.07
X107.95Y-54.61
X107.95Y-57.15
X107.95Y-59.69
X107.95Y-62.23
X107.95Y-64.77
X107.95Y-67.31
X107.95Y-69.85
X107.95Y-72.39
X107.95Y-74.93
X107.95Y-77.47
X107.95Y-80.01
X107.95Y-82.55
X107.95Y-85.09
X107.95Y-87.63
X107.95Y-90.17
X107.95Y-92.71
X107.95Y-95.25
X107.95Y-97.79
X107.95Y-100.33
X114.34Y-60.96
X115.57Y-80.01
X115.57Y-82.55
X115.57Y-85.09
X115.57Y-87.63
X116.84Y-60.96
X121.96Y-60.96
X123.19Y-80.01
X123.19Y-82.55
X123.19Y-85.09
X123.19Y-87.63
X124.46Y-60.96
X124.46Y-116.88
X124.46Y-119.38
X128.27Y-80.01
X128.27Y-82.51
X129.54Y-109.22
X129.54Y-111.72
X129.54Y-116.84
X129.54Y-119.34
X129.54Y-124.5
X129.54Y-127.0
X129.54Y-134.66
X129.54Y-137.16
X137.16Y-80.01
X137.16Y-87.63
X139.7Y-80.01
X139.7Y-87.63
X142.24Y-80.01
X142.24Y-87.63
X144.78Y-80.01
X144.78Y-87.63
X147.32Y-80.01
X147.32Y-87.63
X149.86Y-80.01
X149.86Y-87.63
X152.4Y-80.01
X152.4Y-87.63
X157.48Y-85.13
X157.48Y-87.63
X166.37Y-80.01
X166.37Y-87.63
X168.91Y-80.01
X168.91Y-87.63
X170.18Y-109.26
X170.18Y-111.76
X170.18Y-119.38
X170.18Y-121.88
X170.18Y-129.58
X170.18Y-132.08
X170.18Y-138.43
X170.18Y-140.93
X171.45Y-80.01
X171.45Y-87.63
X173.99Y-80.01
X173.99Y-87.63
X176.53Y-80.01
X176.53Y-87.63
X176.53Y-135.89
X176.53Y-138.43
X176.53Y-140.97
X176.53Y-143.51
X177.8Y-113.03
X177.8Y-115.53
X177.8Y-121.92
X177.8Y-124.42
X179.07Y-80.01
X179.07Y-87.63
X181.61Y-80.01
X181.61Y-87.63
X184.15Y-135.89
X184.15Y-138.43
X184.15Y-140.97
X184.15Y-143.51
X186.69Y-85.13
X186.69Y-87.63
X189.23Y-135.89
X189.23Y-138.39
X195.58Y-135.89
X195.58Y-138.43
X195.58Y-140.97
X195.58Y-143.51
X198.12Y-72.39
X198.12Y-80.01
X200.66Y-72.39
X200.66Y-80.01
X203.2Y-72.39
X203.2Y-80.01
X203.2Y-135.89
X203.2Y-138.43
X203.2Y-140.97
X203.2Y-143.51
X205.74Y-72.39
X205.74Y-80.01
X205.74Y-116.84
X205.74Y-119.34
X205.74Y-124.46
X205.74Y-126.96
X208.28Y-72.39
X208.28Y-80.01
X208.28Y-135.89
X208.28Y-138.39
X210.82Y-72.39
X210.82Y-80.01
X213.36Y-72.39
X213.36Y-80.01
X214.63Y-110.49
X214.63Y-113.03
X214.63Y-115.57
X214.63Y-118.11
X214.63Y-120.65
X214.63Y-123.19
X214.63Y-125.73
X214.63Y-128.27
X214.63Y-130.81
X214.63Y-133.35
X214.63Y-135.89
X214.63Y-138.43
X214.63Y-140.97
X214.63Y-143.51
X215.9Y-72.39
X215.9Y-80.01
X219.75Y-105.41
X222.25Y-105.41
X222.25Y-110.49
X222.25Y-113.03
X222.25Y-115.57
X222.25Y-118.11
X222.25Y-120.65
X222.25Y-123.19
X222.25Y-125.73
X222.25Y-128.27
X222.25Y-130.81
X222.25Y-133.35
X222.25Y-135.89
X222.25Y-138.43
X222.25Y-140.97
X222.25Y-143.51
X227.33Y-72.39
X227.33Y-80.01
X229.87Y-72.39
X229.87Y-80.01
X231.14Y-110.49
X231.14Y-113.03
X231.14Y-115.57
X231.14Y-118.11
X231.14Y-120.65
X231.14Y-123.19
X231.14Y-125.73
X231.14Y-128.27
X231.14Y-130.81
X231.14Y-133.35
X231.14Y-135.89
X231.14Y-138.43
X231.14Y-140.97
X231.14Y-143.51
X232.41Y-72.39
X232.41Y-80.01
X234.95Y-72.39
X234.95Y-80.01
X236.26Y-105.41
X237.49Y-72.39
X237.49Y-80.01
X238.76Y-105.41
X238.76Y-110.49
X238.76Y-113.03
X238.76Y-115.57
X238.76Y-118.11
X238.76Y-120.65
X238.76Y-123.19
X238.76Y-125.73
X238.76Y-128.27
X238.76Y-130.81
X238.76Y-133.35
X238.76Y-135.89
X238.76Y-138.43
X238.76Y-140.97
X238.76Y-143.51
X240.03Y-72.39
X240.03Y-80.01
X241.3Y-59.69
X242.57Y-72.39
X242.57Y-80.01
X243.84Y-59.69
X245.11Y-72.39
X245.11Y-80.01
X246.38Y-59.69
X247.65Y-110.49
X247.65Y-113.03
X247.65Y-115.57
X247.65Y-118.11
X247.65Y-120.65
X247.65Y-123.19
X247.65Y-125.73
X247.65Y-128.27
X247.65Y-130.81
X247.65Y-133.35
X247.65Y-135.89
X247.65Y-138.43
X247.65Y-140.97
X247.65Y-143.51
X248.92Y-59.69
X251.46Y-59.69
X252.77Y-105.41
X254.0Y-59.69
X255.27Y-105.41
X255.27Y-110.49
X255.27Y-113.03
X255.27Y-115.57
X255.27Y-118.11
X255.27Y-120.65
X255.27Y-123.19
X255.27Y-125.73
X255.27Y-128.27
X255.27Y-130.81
X255.27Y-133.35
X255.27Y-135.89
X255.27Y-138.43
X255.27Y-140.97
X255.27Y-143.51
X256.54Y-59.69
X257.81Y-69.85
X257.81Y-85.09
X259.08Y-59.69
X260.35Y-69.85
X260.35Y-85.09
X261.62Y-59.69
X262.89Y-69.85
X262.89Y-85.09
X264.16Y-93.98
X264.16Y-96.52
X264.16Y-99.06
X264.16Y-101.6
X264.16Y-110.49
X264.16Y-113.03
X264.16Y-115.57
X264.16Y-118.11
X264.16Y-120.65
X264.16Y-123.19
X264.16Y-125.73
X264.16Y-128.27
X264.16Y-130.81
X264.16Y-133.35
X264.16Y-135.89
X264.16Y-138.43
X264.16Y-140.97
X264.16Y-143.51
X265.43Y-69.85
X265.43Y-85.09
X267.97Y-69.85
X267.97Y-85.09
X270.51Y-69.85
X270.51Y-85.09
X271.78Y-93.98
X271.78Y-96.52
X271.78Y-99.06
X271.78Y-101.6
X273.05Y-69.85
X273.05Y-85.09
X275.59Y-69.85
X275.59Y-85.09
X276.86Y-59.69
X276.86Y-94.02
X276.86Y-96.52
X276.9Y-105.41
X278.13Y-69.85
X278.13Y-85.09
X279.4Y-59.69
X279.4Y-105.41
X279.4Y-110.49
X279.4Y-113.03
X279.4Y-115.57
X279.4Y-118.11
X279.4Y-120.65
X279.4Y-123.19
X279.4Y-125.73
X279.4Y-128.27
X279.4Y-130.81
X279.4Y-133.35
X279.4Y-135.89
X279.4Y-138.43
X279.4Y-140.97
X279.4Y-143.51
X280.67Y-69.85
X280.67Y-85.09
X281.94Y-59.69
X283.21Y-69.85
X283.21Y-85.09
X284.48Y-59.69
X285.75Y-69.85
X285.75Y-85.09
X285.75Y-113.03
X285.75Y-115.53
X287.02Y-59.69
X288.29Y-69.85
X288.29Y-85.09
X289.56Y-59.69
X290.83Y-69.85
X290.83Y-85.09
X290.83Y-95.233
X290.83Y-97.772
X290.83Y-100.312
X290.83Y-102.852
X290.83Y-105.392
X290.83Y-107.932
X290.83Y-110.472
X290.83Y-113.012
X290.83Y-115.552
X290.83Y-118.093
X290.83Y-120.632
X290.83Y-123.172
X290.83Y-125.712
X290.83Y-128.252
X290.83Y-130.792
X290.83Y-133.332
X290.83Y-135.873
X290.83Y-138.412
X290.83Y-140.952
X290.83Y-143.493
X290.87Y-64.77
X292.1Y-59.69
X293.37Y-64.77
X293.37Y-69.85
X293.37Y-85.09
X294.64Y-59.69
X295.91Y-69.85
X295.91Y-85.09
X297.18Y-59.69
X298.45Y-69.85
X298.45Y-85.09
X300.99Y-69.85
X300.99Y-85.09
X303.53Y-69.85
X303.53Y-85.09
X306.07Y-69.85
X306.07Y-85.09
X306.07Y-95.233
X306.07Y-97.772
X306.07Y-100.312
X306.07Y-102.852
X306.07Y-105.392
X306.07Y-107.932
X306.07Y-110.472
X306.07Y-113.012
X306.07Y-115.552
X306.07Y-118.093
X306.07Y-120.632
X306.07Y-123.172
X306.07Y-125.712
X306.07Y-128.252
X306.07Y-130.792
X306.07Y-133.332
X306.07Y-135.873
X306.07Y-138.412
X306.07Y-140.952
X306.07Y-143.493
T5
X93.98Y-119.38
X93.98Y-121.92
X93.98Y-124.46
X93.98Y-127.0
X93.98Y-129.54
X93.98Y-132.08
X93.98Y-134.62
X93.98Y-137.16
X93.98Y-139.7
X96.52Y-116.84
X96.52Y-119.38
X96.52Y-121.92
X96.52Y-124.46
X96.52Y-127.0
X96.52Y-129.54
X96.52Y-132.08
X96.52Y-134.62
X96.52Y-137.16
X96.52Y-139.7
X96.52Y-142.24
X99.06Y-116.84
X99.06Y-119.38
X99.06Y-139.7
X99.06Y-142.24
X101.6Y-116.84
X101.6Y-119.38
X101.6Y-139.7
X101.6Y-142.24
X104.14Y-116.84
X104.14Y-119.38
X104.14Y-139.7
X104.14Y-142.24
X106.68Y-116.84
X106.68Y-119.38
X106.68Y-139.7
X106.68Y-142.24
X109.22Y-116.84
X109.22Y-119.38
X109.22Y-139.7
X109.22Y-142.24
X111.76Y-116.84
X111.76Y-119.38
X111.76Y-139.7
X111.76Y-142.24
X114.3Y-116.84
X114.3Y-119.38
X114.3Y-139.7
X114.3Y-142.24
X116.84Y-116.84
X116.84Y-119.38
X116.84Y-121.92
X116.84Y-124.46
X116.84Y-127.0
X116.84Y-129.54
X116.84Y-132.08
X116.84Y-134.62
X116.84Y-137.16
X116.84Y-139.7
X116.84Y-142.24
X119.38Y-119.38
X119.38Y-121.92
X119.38Y-124.46
X119.38Y-127.0
X119.38Y-129.54
X119.38Y-132.08
X119.38Y-134.62
X119.38Y-137.16
X119.38Y-139.7
X134.62Y-111.76
X134.62Y-114.3
X134.62Y-116.84
X134.62Y-119.38
X134.62Y-121.92
X134.62Y-124.46
X134.62Y-127.0
X134.62Y-129.54
X134.62Y-132.08
X134.62Y-134.62
X134.62Y-137.16
X137.16Y-109.22
X137.16Y-111.76
X137.16Y-114.3
X137.16Y-116.84
X137.16Y-119.38
X137.16Y-121.92
X137.16Y-124.46
X137.16Y-127.0
X137.16Y-129.54
X137.16Y-132.08
X137.16Y-134.62
X137.16Y-137.16
X137.16Y-139.7
X139.7Y-109.22
X139.7Y-111.76
X139.7Y-137.16
X139.7Y-139.7
X142.24Y-109.22
X142.24Y-111.76
X142.24Y-137.16
X142.24Y-139.7
X144.78Y-109.22
X144.78Y-111.76
X144.78Y-137.16
X144.78Y-139.7
X147.32Y-109.22
X147.32Y-111.76
X147.32Y-137.16
X147.32Y-139.7
X149.86Y-109.22
X149.86Y-111.76
X149.86Y-137.16
X149.86Y-139.7
X152.4Y-109.22
X152.4Y-111.76
X152.4Y-137.16
X152.4Y-139.7
X154.94Y-109.22
X154.94Y-111.76
X154.94Y-137.16
X154.94Y-139.7
X157.48Y-109.22
X157.48Y-111.76
X157.48Y-137.16
X157.48Y-139.7
X160.02Y-109.22
X160.02Y-111.76
X160.02Y-137.16
X160.02Y-139.7
X162.56Y-109.22
X162.56Y-111.76
X162.56Y-114.3
X162.56Y-116.84
X162.56Y-119.38
X162.56Y-121.92
X162.56Y-124.46
X162.56Y-127.0
X162.56Y-129.54
X162.56Y-132.08
X162.56Y-134.62
X162.56Y-137.16
X162.56Y-139.7
X165.1Y-111.76
X165.1Y-114.3
X165.1Y-116.84
X165.1Y-119.38
X165.1Y-121.92
X165.1Y-124.46
X165.1Y-127.0
X165.1Y-129.54
X165.1Y-132.08
X165.1Y-134.62
X165.1Y-137.16
X182.88Y-111.76
X182.88Y-114.3
X182.88Y-116.84
X182.88Y-119.38
X182.88Y-121.92
X182.88Y-124.46
X185.42Y-109.22
X185.42Y-111.76
X185.42Y-114.3
X185.42Y-116.84
X185.42Y-119.38
X185.42Y-121.92
X185.42Y-124.46
X185.42Y-127.0
X187.96Y-109.22
X187.96Y-111.76
X187.96Y-124.46
X187.96Y-127.0
X190.5Y-109.22
X190.5Y-111.76
X190.5Y-124.46
X190.5Y-127.0
X193.04Y-109.22
X193.04Y-111.76
X193.04Y-124.46
X193.04Y-127.0
X195.58Y-109.22
X195.58Y-111.76
X195.58Y-124.46
X195.58Y-127.0
X198.12Y-109.22
X198.12Y-111.76
X198.12Y-114.3
X198.12Y-116.84
X198.12Y-119.38
X198.12Y-121.92
X198.12Y-124.46
X198.12Y-127.0
X200.66Y-111.76
X200.66Y-114.3
X200.66Y-116.84
X200.66Y-119.38
X200.66Y-121.92
X200.66Y-124.46
T6
X55.88Y-52.11
X55.88Y-54.61
X55.88Y-57.11
X72.39Y-52.11
X72.39Y-54.61
X72.39Y-57.11
X184.15Y-58.42
X185.42Y-55.88
X186.69Y-58.42
X187.96Y-55.88
X189.23Y-58.42
X190.5Y-55.88
X191.77Y-58.42
X193.04Y-55.88
X205.74Y-58.42
X207.01Y-55.88
X208.28Y-58.42
X209.55Y-55.88
X210.82Y-58.42
X212.09Y-55.88
X213.36Y-58.42
X214.63Y-55.88
T7
X31.75Y-83.82
X34.29Y-83.82
X36.83Y-83.82
X57.15Y-140.97
X57.15Y-143.51
X59.69Y-140.97
X59.69Y-143.51
X62.23Y-140.97
X62.23Y-143.51
X64.77Y-140.97
X64.77Y-143.51
X67.31Y-140.97
X67.31Y-143.51
X69.85Y-140.97
X69.85Y-143.51
X72.39Y-140.97
X72.39Y-143.51
X74.93Y-140.97
X74.93Y-143.51
X242.57Y-96.52
X242.57Y-99.06
X245.11Y-96.52
X245.11Y-99.06
X247.65Y-96.52
X247.65Y-99.06
X250.19Y-96.52
X250.19Y-99.06
X252.73Y-96.52
X252.73Y-99.06
T8
X140.592Y-54.61
X141.732Y-52.07
X141.732Y-57.15
X142.88Y-54.61
X144.021Y-52.07
X144.021Y-57.15
X145.171Y-54.61
X146.309Y-52.07
X146.309Y-57.15
X147.46Y-54.61
X148.598Y-52.07
X148.598Y-57.15
X149.748Y-54.61
X150.889Y-52.07
X150.889Y-57.15
X245.747Y-54.008
X247.139Y-51.168
X248.518Y-54.008
X249.908Y-51.168
X251.287Y-54.008
X252.666Y-51.168
X254.056Y-54.008
X255.435Y-51.168
X256.827Y-54.008
X281.48Y-54.008
X282.872Y-51.168
X284.251Y-54.008
X285.641Y-51.168
X287.02Y-54.008
X288.399Y-51.168
X289.789Y-54.008
X291.168Y-51.168
X292.56Y-54.008
T9
X33.302Y-51.973
X38.1Y-49.174
X38.1Y-54.973
X114.381Y-52.751
X116.881Y-52.751
X119.38Y-47.752
X121.879Y-52.751
X124.379Y-52.751
T10
X133.551Y-54.61
X158.549Y-54.61
X238.788Y-52.588
X263.786Y-52.588
X274.521Y-52.588
X299.519Y-52.588
T0
M30
