%TF.GenerationSoftware,KiCad,Pcbnew,(5.0.1)-3*%
%TF.CreationDate,2018-12-07T19:46:10-06:00*%
%TF.ProjectId,z80sbc_keyboard,7A38307362635F6B6579626F6172642E,rev?*%
%TF.SameCoordinates,Original*%
%TF.FileFunction,Legend,Top*%
%TF.FilePolarity,Positive*%
%FSLAX46Y46*%
G04 Gerber Fmt 4.6, Leading zero omitted, Abs format (unit mm)*
G04 Created by KiCad (PCBNEW (5.0.1)-3) date 12/7/2018 7:46:10 PM*
%MOMM*%
%LPD*%
G01*
G04 APERTURE LIST*
%ADD10C,0.150000*%
%ADD11C,0.120000*%
G04 APERTURE END LIST*
D10*
X26670000Y-50800000D02*
X26670000Y-160020000D01*
X326390000Y-50800000D02*
X26670000Y-50800000D01*
X326390000Y-160020000D02*
X326390000Y-50800000D01*
X26670000Y-160020000D02*
X326390000Y-160020000D01*
D11*
X41780000Y-75140000D02*
X41780000Y-77260000D01*
X46010000Y-76200000D02*
X45240000Y-76200000D01*
X40350000Y-76200000D02*
X41120000Y-76200000D01*
X45240000Y-75140000D02*
X41120000Y-75140000D01*
X45240000Y-77260000D02*
X45240000Y-75140000D01*
X41120000Y-77260000D02*
X45240000Y-77260000D01*
X41120000Y-75140000D02*
X41120000Y-77260000D01*
X60170000Y-75140000D02*
X60170000Y-77260000D01*
X60170000Y-77260000D02*
X64290000Y-77260000D01*
X64290000Y-77260000D02*
X64290000Y-75140000D01*
X64290000Y-75140000D02*
X60170000Y-75140000D01*
X59400000Y-76200000D02*
X60170000Y-76200000D01*
X65060000Y-76200000D02*
X64290000Y-76200000D01*
X60830000Y-75140000D02*
X60830000Y-77260000D01*
X79880000Y-75140000D02*
X79880000Y-77260000D01*
X84110000Y-76200000D02*
X83340000Y-76200000D01*
X78450000Y-76200000D02*
X79220000Y-76200000D01*
X83340000Y-75140000D02*
X79220000Y-75140000D01*
X83340000Y-77260000D02*
X83340000Y-75140000D01*
X79220000Y-77260000D02*
X83340000Y-77260000D01*
X79220000Y-75140000D02*
X79220000Y-77260000D01*
X98930000Y-75140000D02*
X98930000Y-77260000D01*
X103160000Y-76200000D02*
X102390000Y-76200000D01*
X97500000Y-76200000D02*
X98270000Y-76200000D01*
X102390000Y-75140000D02*
X98270000Y-75140000D01*
X102390000Y-77260000D02*
X102390000Y-75140000D01*
X98270000Y-77260000D02*
X102390000Y-77260000D01*
X98270000Y-75140000D02*
X98270000Y-77260000D01*
X117980000Y-75140000D02*
X117980000Y-77260000D01*
X122210000Y-76200000D02*
X121440000Y-76200000D01*
X116550000Y-76200000D02*
X117320000Y-76200000D01*
X121440000Y-75140000D02*
X117320000Y-75140000D01*
X121440000Y-77260000D02*
X121440000Y-75140000D01*
X117320000Y-77260000D02*
X121440000Y-77260000D01*
X117320000Y-75140000D02*
X117320000Y-77260000D01*
X136370000Y-75140000D02*
X136370000Y-77260000D01*
X136370000Y-77260000D02*
X140490000Y-77260000D01*
X140490000Y-77260000D02*
X140490000Y-75140000D01*
X140490000Y-75140000D02*
X136370000Y-75140000D01*
X135600000Y-76200000D02*
X136370000Y-76200000D01*
X141260000Y-76200000D02*
X140490000Y-76200000D01*
X137030000Y-75140000D02*
X137030000Y-77260000D01*
X155420000Y-75140000D02*
X155420000Y-77260000D01*
X155420000Y-77260000D02*
X159540000Y-77260000D01*
X159540000Y-77260000D02*
X159540000Y-75140000D01*
X159540000Y-75140000D02*
X155420000Y-75140000D01*
X154650000Y-76200000D02*
X155420000Y-76200000D01*
X160310000Y-76200000D02*
X159540000Y-76200000D01*
X156080000Y-75140000D02*
X156080000Y-77260000D01*
X175130000Y-75140000D02*
X175130000Y-77260000D01*
X179360000Y-76200000D02*
X178590000Y-76200000D01*
X173700000Y-76200000D02*
X174470000Y-76200000D01*
X178590000Y-75140000D02*
X174470000Y-75140000D01*
X178590000Y-77260000D02*
X178590000Y-75140000D01*
X174470000Y-77260000D02*
X178590000Y-77260000D01*
X174470000Y-75140000D02*
X174470000Y-77260000D01*
X194180000Y-75140000D02*
X194180000Y-77260000D01*
X198410000Y-76200000D02*
X197640000Y-76200000D01*
X192750000Y-76200000D02*
X193520000Y-76200000D01*
X197640000Y-75140000D02*
X193520000Y-75140000D01*
X197640000Y-77260000D02*
X197640000Y-75140000D01*
X193520000Y-77260000D02*
X197640000Y-77260000D01*
X193520000Y-75140000D02*
X193520000Y-77260000D01*
X212570000Y-75140000D02*
X212570000Y-77260000D01*
X212570000Y-77260000D02*
X216690000Y-77260000D01*
X216690000Y-77260000D02*
X216690000Y-75140000D01*
X216690000Y-75140000D02*
X212570000Y-75140000D01*
X211800000Y-76200000D02*
X212570000Y-76200000D01*
X217460000Y-76200000D02*
X216690000Y-76200000D01*
X213230000Y-75140000D02*
X213230000Y-77260000D01*
X231620000Y-75140000D02*
X231620000Y-77260000D01*
X231620000Y-77260000D02*
X235740000Y-77260000D01*
X235740000Y-77260000D02*
X235740000Y-75140000D01*
X235740000Y-75140000D02*
X231620000Y-75140000D01*
X230850000Y-76200000D02*
X231620000Y-76200000D01*
X236510000Y-76200000D02*
X235740000Y-76200000D01*
X232280000Y-75140000D02*
X232280000Y-77260000D01*
X251330000Y-75140000D02*
X251330000Y-77260000D01*
X255560000Y-76200000D02*
X254790000Y-76200000D01*
X249900000Y-76200000D02*
X250670000Y-76200000D01*
X254790000Y-75140000D02*
X250670000Y-75140000D01*
X254790000Y-77260000D02*
X254790000Y-75140000D01*
X250670000Y-77260000D02*
X254790000Y-77260000D01*
X250670000Y-75140000D02*
X250670000Y-77260000D01*
X269720000Y-75140000D02*
X269720000Y-77260000D01*
X269720000Y-77260000D02*
X273840000Y-77260000D01*
X273840000Y-77260000D02*
X273840000Y-75140000D01*
X273840000Y-75140000D02*
X269720000Y-75140000D01*
X268950000Y-76200000D02*
X269720000Y-76200000D01*
X274610000Y-76200000D02*
X273840000Y-76200000D01*
X270380000Y-75140000D02*
X270380000Y-77260000D01*
X283000000Y-67180000D02*
X280880000Y-67180000D01*
X281940000Y-71410000D02*
X281940000Y-70640000D01*
X281940000Y-65750000D02*
X281940000Y-66520000D01*
X283000000Y-70640000D02*
X283000000Y-66520000D01*
X280880000Y-70640000D02*
X283000000Y-70640000D01*
X280880000Y-66520000D02*
X280880000Y-70640000D01*
X283000000Y-66520000D02*
X280880000Y-66520000D01*
X46860000Y-94190000D02*
X46860000Y-96310000D01*
X51090000Y-95250000D02*
X50320000Y-95250000D01*
X45430000Y-95250000D02*
X46200000Y-95250000D01*
X50320000Y-94190000D02*
X46200000Y-94190000D01*
X50320000Y-96310000D02*
X50320000Y-94190000D01*
X46200000Y-96310000D02*
X50320000Y-96310000D01*
X46200000Y-94190000D02*
X46200000Y-96310000D01*
X70330000Y-94190000D02*
X70330000Y-96310000D01*
X70330000Y-96310000D02*
X74450000Y-96310000D01*
X74450000Y-96310000D02*
X74450000Y-94190000D01*
X74450000Y-94190000D02*
X70330000Y-94190000D01*
X69560000Y-95250000D02*
X70330000Y-95250000D01*
X75220000Y-95250000D02*
X74450000Y-95250000D01*
X70990000Y-94190000D02*
X70990000Y-96310000D01*
X90040000Y-94190000D02*
X90040000Y-96310000D01*
X94270000Y-95250000D02*
X93500000Y-95250000D01*
X88610000Y-95250000D02*
X89380000Y-95250000D01*
X93500000Y-94190000D02*
X89380000Y-94190000D01*
X93500000Y-96310000D02*
X93500000Y-94190000D01*
X89380000Y-96310000D02*
X93500000Y-96310000D01*
X89380000Y-94190000D02*
X89380000Y-96310000D01*
X108430000Y-94190000D02*
X108430000Y-96310000D01*
X108430000Y-96310000D02*
X112550000Y-96310000D01*
X112550000Y-96310000D02*
X112550000Y-94190000D01*
X112550000Y-94190000D02*
X108430000Y-94190000D01*
X107660000Y-95250000D02*
X108430000Y-95250000D01*
X113320000Y-95250000D02*
X112550000Y-95250000D01*
X109090000Y-94190000D02*
X109090000Y-96310000D01*
X128140000Y-94190000D02*
X128140000Y-96310000D01*
X132370000Y-95250000D02*
X131600000Y-95250000D01*
X126710000Y-95250000D02*
X127480000Y-95250000D01*
X131600000Y-94190000D02*
X127480000Y-94190000D01*
X131600000Y-96310000D02*
X131600000Y-94190000D01*
X127480000Y-96310000D02*
X131600000Y-96310000D01*
X127480000Y-94190000D02*
X127480000Y-96310000D01*
X146530000Y-94190000D02*
X146530000Y-96310000D01*
X146530000Y-96310000D02*
X150650000Y-96310000D01*
X150650000Y-96310000D02*
X150650000Y-94190000D01*
X150650000Y-94190000D02*
X146530000Y-94190000D01*
X145760000Y-95250000D02*
X146530000Y-95250000D01*
X151420000Y-95250000D02*
X150650000Y-95250000D01*
X147190000Y-94190000D02*
X147190000Y-96310000D01*
X166240000Y-94190000D02*
X166240000Y-96310000D01*
X170470000Y-95250000D02*
X169700000Y-95250000D01*
X164810000Y-95250000D02*
X165580000Y-95250000D01*
X169700000Y-94190000D02*
X165580000Y-94190000D01*
X169700000Y-96310000D02*
X169700000Y-94190000D01*
X165580000Y-96310000D02*
X169700000Y-96310000D01*
X165580000Y-94190000D02*
X165580000Y-96310000D01*
X184630000Y-94190000D02*
X184630000Y-96310000D01*
X184630000Y-96310000D02*
X188750000Y-96310000D01*
X188750000Y-96310000D02*
X188750000Y-94190000D01*
X188750000Y-94190000D02*
X184630000Y-94190000D01*
X183860000Y-95250000D02*
X184630000Y-95250000D01*
X189520000Y-95250000D02*
X188750000Y-95250000D01*
X185290000Y-94190000D02*
X185290000Y-96310000D01*
X203680000Y-94190000D02*
X203680000Y-96310000D01*
X203680000Y-96310000D02*
X207800000Y-96310000D01*
X207800000Y-96310000D02*
X207800000Y-94190000D01*
X207800000Y-94190000D02*
X203680000Y-94190000D01*
X202910000Y-95250000D02*
X203680000Y-95250000D01*
X208570000Y-95250000D02*
X207800000Y-95250000D01*
X204340000Y-94190000D02*
X204340000Y-96310000D01*
X222730000Y-94190000D02*
X222730000Y-96310000D01*
X222730000Y-96310000D02*
X226850000Y-96310000D01*
X226850000Y-96310000D02*
X226850000Y-94190000D01*
X226850000Y-94190000D02*
X222730000Y-94190000D01*
X221960000Y-95250000D02*
X222730000Y-95250000D01*
X227620000Y-95250000D02*
X226850000Y-95250000D01*
X223390000Y-94190000D02*
X223390000Y-96310000D01*
X242440000Y-94190000D02*
X242440000Y-96310000D01*
X246670000Y-95250000D02*
X245900000Y-95250000D01*
X241010000Y-95250000D02*
X241780000Y-95250000D01*
X245900000Y-94190000D02*
X241780000Y-94190000D01*
X245900000Y-96310000D02*
X245900000Y-94190000D01*
X241780000Y-96310000D02*
X245900000Y-96310000D01*
X241780000Y-94190000D02*
X241780000Y-96310000D01*
X260830000Y-94190000D02*
X260830000Y-96310000D01*
X260830000Y-96310000D02*
X264950000Y-96310000D01*
X264950000Y-96310000D02*
X264950000Y-94190000D01*
X264950000Y-94190000D02*
X260830000Y-94190000D01*
X260060000Y-95250000D02*
X260830000Y-95250000D01*
X265720000Y-95250000D02*
X264950000Y-95250000D01*
X261490000Y-94190000D02*
X261490000Y-96310000D01*
X275460000Y-94190000D02*
X275460000Y-96310000D01*
X279690000Y-95250000D02*
X278920000Y-95250000D01*
X274030000Y-95250000D02*
X274800000Y-95250000D01*
X278920000Y-94190000D02*
X274800000Y-94190000D01*
X278920000Y-96310000D02*
X278920000Y-94190000D01*
X274800000Y-96310000D02*
X278920000Y-96310000D01*
X274800000Y-94190000D02*
X274800000Y-96310000D01*
X298320000Y-94190000D02*
X298320000Y-96310000D01*
X302550000Y-95250000D02*
X301780000Y-95250000D01*
X296890000Y-95250000D02*
X297660000Y-95250000D01*
X301780000Y-94190000D02*
X297660000Y-94190000D01*
X301780000Y-96310000D02*
X301780000Y-94190000D01*
X297660000Y-96310000D02*
X301780000Y-96310000D01*
X297660000Y-94190000D02*
X297660000Y-96310000D01*
X52550000Y-113240000D02*
X52550000Y-115360000D01*
X52550000Y-115360000D02*
X56670000Y-115360000D01*
X56670000Y-115360000D02*
X56670000Y-113240000D01*
X56670000Y-113240000D02*
X52550000Y-113240000D01*
X51780000Y-114300000D02*
X52550000Y-114300000D01*
X57440000Y-114300000D02*
X56670000Y-114300000D01*
X53210000Y-113240000D02*
X53210000Y-115360000D01*
X76070000Y-113240000D02*
X76070000Y-115360000D01*
X80300000Y-114300000D02*
X79530000Y-114300000D01*
X74640000Y-114300000D02*
X75410000Y-114300000D01*
X79530000Y-113240000D02*
X75410000Y-113240000D01*
X79530000Y-115360000D02*
X79530000Y-113240000D01*
X75410000Y-115360000D02*
X79530000Y-115360000D01*
X75410000Y-113240000D02*
X75410000Y-115360000D01*
X94460000Y-113240000D02*
X94460000Y-115360000D01*
X94460000Y-115360000D02*
X98580000Y-115360000D01*
X98580000Y-115360000D02*
X98580000Y-113240000D01*
X98580000Y-113240000D02*
X94460000Y-113240000D01*
X93690000Y-114300000D02*
X94460000Y-114300000D01*
X99350000Y-114300000D02*
X98580000Y-114300000D01*
X95120000Y-113240000D02*
X95120000Y-115360000D01*
X112900000Y-113240000D02*
X112900000Y-115360000D01*
X117130000Y-114300000D02*
X116360000Y-114300000D01*
X111470000Y-114300000D02*
X112240000Y-114300000D01*
X116360000Y-113240000D02*
X112240000Y-113240000D01*
X116360000Y-115360000D02*
X116360000Y-113240000D01*
X112240000Y-115360000D02*
X116360000Y-115360000D01*
X112240000Y-113240000D02*
X112240000Y-115360000D01*
X132560000Y-113240000D02*
X132560000Y-115360000D01*
X132560000Y-115360000D02*
X136680000Y-115360000D01*
X136680000Y-115360000D02*
X136680000Y-113240000D01*
X136680000Y-113240000D02*
X132560000Y-113240000D01*
X131790000Y-114300000D02*
X132560000Y-114300000D01*
X137450000Y-114300000D02*
X136680000Y-114300000D01*
X133220000Y-113240000D02*
X133220000Y-115360000D01*
X151000000Y-113240000D02*
X151000000Y-115360000D01*
X155230000Y-114300000D02*
X154460000Y-114300000D01*
X149570000Y-114300000D02*
X150340000Y-114300000D01*
X154460000Y-113240000D02*
X150340000Y-113240000D01*
X154460000Y-115360000D02*
X154460000Y-113240000D01*
X150340000Y-115360000D02*
X154460000Y-115360000D01*
X150340000Y-113240000D02*
X150340000Y-115360000D01*
X170050000Y-113240000D02*
X170050000Y-115360000D01*
X174280000Y-114300000D02*
X173510000Y-114300000D01*
X168620000Y-114300000D02*
X169390000Y-114300000D01*
X173510000Y-113240000D02*
X169390000Y-113240000D01*
X173510000Y-115360000D02*
X173510000Y-113240000D01*
X169390000Y-115360000D02*
X173510000Y-115360000D01*
X169390000Y-113240000D02*
X169390000Y-115360000D01*
X188440000Y-113240000D02*
X188440000Y-115360000D01*
X188440000Y-115360000D02*
X192560000Y-115360000D01*
X192560000Y-115360000D02*
X192560000Y-113240000D01*
X192560000Y-113240000D02*
X188440000Y-113240000D01*
X187670000Y-114300000D02*
X188440000Y-114300000D01*
X193330000Y-114300000D02*
X192560000Y-114300000D01*
X189100000Y-113240000D02*
X189100000Y-115360000D01*
X207490000Y-113240000D02*
X207490000Y-115360000D01*
X207490000Y-115360000D02*
X211610000Y-115360000D01*
X211610000Y-115360000D02*
X211610000Y-113240000D01*
X211610000Y-113240000D02*
X207490000Y-113240000D01*
X206720000Y-114300000D02*
X207490000Y-114300000D01*
X212380000Y-114300000D02*
X211610000Y-114300000D01*
X208150000Y-113240000D02*
X208150000Y-115360000D01*
X227200000Y-113240000D02*
X227200000Y-115360000D01*
X231430000Y-114300000D02*
X230660000Y-114300000D01*
X225770000Y-114300000D02*
X226540000Y-114300000D01*
X230660000Y-113240000D02*
X226540000Y-113240000D01*
X230660000Y-115360000D02*
X230660000Y-113240000D01*
X226540000Y-115360000D02*
X230660000Y-115360000D01*
X226540000Y-113240000D02*
X226540000Y-115360000D01*
X245590000Y-113240000D02*
X245590000Y-115360000D01*
X245590000Y-115360000D02*
X249710000Y-115360000D01*
X249710000Y-115360000D02*
X249710000Y-113240000D01*
X249710000Y-113240000D02*
X245590000Y-113240000D01*
X244820000Y-114300000D02*
X245590000Y-114300000D01*
X250480000Y-114300000D02*
X249710000Y-114300000D01*
X246250000Y-113240000D02*
X246250000Y-115360000D01*
X265300000Y-113240000D02*
X265300000Y-115360000D01*
X269530000Y-114300000D02*
X268760000Y-114300000D01*
X263870000Y-114300000D02*
X264640000Y-114300000D01*
X268760000Y-113240000D02*
X264640000Y-113240000D01*
X268760000Y-115360000D02*
X268760000Y-113240000D01*
X264640000Y-115360000D02*
X268760000Y-115360000D01*
X264640000Y-113240000D02*
X264640000Y-115360000D01*
X280460000Y-104620000D02*
X278340000Y-104620000D01*
X278340000Y-104620000D02*
X278340000Y-108740000D01*
X278340000Y-108740000D02*
X280460000Y-108740000D01*
X280460000Y-108740000D02*
X280460000Y-104620000D01*
X279400000Y-103850000D02*
X279400000Y-104620000D01*
X279400000Y-109510000D02*
X279400000Y-108740000D01*
X280460000Y-105280000D02*
X278340000Y-105280000D01*
X74720000Y-124330000D02*
X72600000Y-124330000D01*
X73660000Y-128560000D02*
X73660000Y-127790000D01*
X73660000Y-122900000D02*
X73660000Y-123670000D01*
X74720000Y-127790000D02*
X74720000Y-123670000D01*
X72600000Y-127790000D02*
X74720000Y-127790000D01*
X72600000Y-123670000D02*
X72600000Y-127790000D01*
X74720000Y-123670000D02*
X72600000Y-123670000D01*
X84300000Y-132290000D02*
X84300000Y-134410000D01*
X84300000Y-134410000D02*
X88420000Y-134410000D01*
X88420000Y-134410000D02*
X88420000Y-132290000D01*
X88420000Y-132290000D02*
X84300000Y-132290000D01*
X83530000Y-133350000D02*
X84300000Y-133350000D01*
X89190000Y-133350000D02*
X88420000Y-133350000D01*
X84960000Y-132290000D02*
X84960000Y-134410000D01*
X102740000Y-132290000D02*
X102740000Y-134410000D01*
X106970000Y-133350000D02*
X106200000Y-133350000D01*
X101310000Y-133350000D02*
X102080000Y-133350000D01*
X106200000Y-132290000D02*
X102080000Y-132290000D01*
X106200000Y-134410000D02*
X106200000Y-132290000D01*
X102080000Y-134410000D02*
X106200000Y-134410000D01*
X102080000Y-132290000D02*
X102080000Y-134410000D01*
X123670000Y-132290000D02*
X123670000Y-134410000D01*
X123670000Y-134410000D02*
X127790000Y-134410000D01*
X127790000Y-134410000D02*
X127790000Y-132290000D01*
X127790000Y-132290000D02*
X123670000Y-132290000D01*
X122900000Y-133350000D02*
X123670000Y-133350000D01*
X128560000Y-133350000D02*
X127790000Y-133350000D01*
X124330000Y-132290000D02*
X124330000Y-134410000D01*
X142110000Y-132290000D02*
X142110000Y-134410000D01*
X146340000Y-133350000D02*
X145570000Y-133350000D01*
X140680000Y-133350000D02*
X141450000Y-133350000D01*
X145570000Y-132290000D02*
X141450000Y-132290000D01*
X145570000Y-134410000D02*
X145570000Y-132290000D01*
X141450000Y-134410000D02*
X145570000Y-134410000D01*
X141450000Y-132290000D02*
X141450000Y-134410000D01*
X160500000Y-132290000D02*
X160500000Y-134410000D01*
X160500000Y-134410000D02*
X164620000Y-134410000D01*
X164620000Y-134410000D02*
X164620000Y-132290000D01*
X164620000Y-132290000D02*
X160500000Y-132290000D01*
X159730000Y-133350000D02*
X160500000Y-133350000D01*
X165390000Y-133350000D02*
X164620000Y-133350000D01*
X161160000Y-132290000D02*
X161160000Y-134410000D01*
X180210000Y-132290000D02*
X180210000Y-134410000D01*
X184440000Y-133350000D02*
X183670000Y-133350000D01*
X178780000Y-133350000D02*
X179550000Y-133350000D01*
X183670000Y-132290000D02*
X179550000Y-132290000D01*
X183670000Y-134410000D02*
X183670000Y-132290000D01*
X179550000Y-134410000D02*
X183670000Y-134410000D01*
X179550000Y-132290000D02*
X179550000Y-134410000D01*
X198600000Y-132290000D02*
X198600000Y-134410000D01*
X198600000Y-134410000D02*
X202720000Y-134410000D01*
X202720000Y-134410000D02*
X202720000Y-132290000D01*
X202720000Y-132290000D02*
X198600000Y-132290000D01*
X197830000Y-133350000D02*
X198600000Y-133350000D01*
X203490000Y-133350000D02*
X202720000Y-133350000D01*
X199260000Y-132290000D02*
X199260000Y-134410000D01*
X223390000Y-132290000D02*
X223390000Y-134410000D01*
X227620000Y-133350000D02*
X226850000Y-133350000D01*
X221960000Y-133350000D02*
X222730000Y-133350000D01*
X226850000Y-132290000D02*
X222730000Y-132290000D01*
X226850000Y-134410000D02*
X226850000Y-132290000D01*
X222730000Y-134410000D02*
X226850000Y-134410000D01*
X222730000Y-132290000D02*
X222730000Y-134410000D01*
X236700000Y-132290000D02*
X236700000Y-134410000D01*
X236700000Y-134410000D02*
X240820000Y-134410000D01*
X240820000Y-134410000D02*
X240820000Y-132290000D01*
X240820000Y-132290000D02*
X236700000Y-132290000D01*
X235930000Y-133350000D02*
X236700000Y-133350000D01*
X241590000Y-133350000D02*
X240820000Y-133350000D01*
X237360000Y-132290000D02*
X237360000Y-134410000D01*
X256410000Y-132290000D02*
X256410000Y-134410000D01*
X260640000Y-133350000D02*
X259870000Y-133350000D01*
X254980000Y-133350000D02*
X255750000Y-133350000D01*
X259870000Y-132290000D02*
X255750000Y-132290000D01*
X259870000Y-134410000D02*
X259870000Y-132290000D01*
X255750000Y-134410000D02*
X259870000Y-134410000D01*
X255750000Y-132290000D02*
X255750000Y-134410000D01*
X275380000Y-123670000D02*
X273260000Y-123670000D01*
X273260000Y-123670000D02*
X273260000Y-127790000D01*
X273260000Y-127790000D02*
X275380000Y-127790000D01*
X275380000Y-127790000D02*
X275380000Y-123670000D01*
X274320000Y-122900000D02*
X274320000Y-123670000D01*
X274320000Y-128560000D02*
X274320000Y-127790000D01*
X275380000Y-124330000D02*
X273260000Y-124330000D01*
X44320000Y-151340000D02*
X44320000Y-153460000D01*
X48550000Y-152400000D02*
X47780000Y-152400000D01*
X42890000Y-152400000D02*
X43660000Y-152400000D01*
X47780000Y-151340000D02*
X43660000Y-151340000D01*
X47780000Y-153460000D02*
X47780000Y-151340000D01*
X43660000Y-153460000D02*
X47780000Y-153460000D01*
X43660000Y-151340000D02*
X43660000Y-153460000D01*
X67790000Y-151340000D02*
X67790000Y-153460000D01*
X67790000Y-153460000D02*
X71910000Y-153460000D01*
X71910000Y-153460000D02*
X71910000Y-151340000D01*
X71910000Y-151340000D02*
X67790000Y-151340000D01*
X67020000Y-152400000D02*
X67790000Y-152400000D01*
X72680000Y-152400000D02*
X71910000Y-152400000D01*
X68450000Y-151340000D02*
X68450000Y-153460000D01*
X91310000Y-151340000D02*
X91310000Y-153460000D01*
X95540000Y-152400000D02*
X94770000Y-152400000D01*
X89880000Y-152400000D02*
X90650000Y-152400000D01*
X94770000Y-151340000D02*
X90650000Y-151340000D01*
X94770000Y-153460000D02*
X94770000Y-151340000D01*
X90650000Y-153460000D02*
X94770000Y-153460000D01*
X90650000Y-151340000D02*
X90650000Y-153460000D01*
X154730000Y-142720000D02*
X152610000Y-142720000D01*
X152610000Y-142720000D02*
X152610000Y-146840000D01*
X152610000Y-146840000D02*
X154730000Y-146840000D01*
X154730000Y-146840000D02*
X154730000Y-142720000D01*
X153670000Y-141950000D02*
X153670000Y-142720000D01*
X153670000Y-147610000D02*
X153670000Y-146840000D01*
X154730000Y-143380000D02*
X152610000Y-143380000D01*
X234820000Y-151340000D02*
X234820000Y-153460000D01*
X239050000Y-152400000D02*
X238280000Y-152400000D01*
X233390000Y-152400000D02*
X234160000Y-152400000D01*
X238280000Y-151340000D02*
X234160000Y-151340000D01*
X238280000Y-153460000D02*
X238280000Y-151340000D01*
X234160000Y-153460000D02*
X238280000Y-153460000D01*
X234160000Y-151340000D02*
X234160000Y-153460000D01*
X258290000Y-151340000D02*
X258290000Y-153460000D01*
X258290000Y-153460000D02*
X262410000Y-153460000D01*
X262410000Y-153460000D02*
X262410000Y-151340000D01*
X262410000Y-151340000D02*
X258290000Y-151340000D01*
X257520000Y-152400000D02*
X258290000Y-152400000D01*
X263180000Y-152400000D02*
X262410000Y-152400000D01*
X258950000Y-151340000D02*
X258950000Y-153460000D01*
X281810000Y-151340000D02*
X281810000Y-153460000D01*
X286040000Y-152400000D02*
X285270000Y-152400000D01*
X280380000Y-152400000D02*
X281150000Y-152400000D01*
X285270000Y-151340000D02*
X281150000Y-151340000D01*
X285270000Y-153460000D02*
X285270000Y-151340000D01*
X281150000Y-153460000D02*
X285270000Y-153460000D01*
X281150000Y-151340000D02*
X281150000Y-153460000D01*
X305280000Y-151340000D02*
X305280000Y-153460000D01*
X305280000Y-153460000D02*
X309400000Y-153460000D01*
X309400000Y-153460000D02*
X309400000Y-151340000D01*
X309400000Y-151340000D02*
X305280000Y-151340000D01*
X304510000Y-152400000D02*
X305280000Y-152400000D01*
X310170000Y-152400000D02*
X309400000Y-152400000D01*
X305940000Y-151340000D02*
X305940000Y-153460000D01*
X36195000Y-60325000D02*
X50165000Y-60325000D01*
X50165000Y-60325000D02*
X50165000Y-74295000D01*
X50165000Y-74295000D02*
X36195000Y-74295000D01*
X36195000Y-74295000D02*
X36195000Y-60325000D01*
X55245000Y-74295000D02*
X55245000Y-60325000D01*
X69215000Y-74295000D02*
X55245000Y-74295000D01*
X69215000Y-60325000D02*
X69215000Y-74295000D01*
X55245000Y-60325000D02*
X69215000Y-60325000D01*
X74295000Y-74295000D02*
X74295000Y-60325000D01*
X88265000Y-74295000D02*
X74295000Y-74295000D01*
X88265000Y-60325000D02*
X88265000Y-74295000D01*
X74295000Y-60325000D02*
X88265000Y-60325000D01*
X93345000Y-60325000D02*
X107315000Y-60325000D01*
X107315000Y-60325000D02*
X107315000Y-74295000D01*
X107315000Y-74295000D02*
X93345000Y-74295000D01*
X93345000Y-74295000D02*
X93345000Y-60325000D01*
X112395000Y-74295000D02*
X112395000Y-60325000D01*
X126365000Y-74295000D02*
X112395000Y-74295000D01*
X126365000Y-60325000D02*
X126365000Y-74295000D01*
X112395000Y-60325000D02*
X126365000Y-60325000D01*
X131445000Y-60325000D02*
X145415000Y-60325000D01*
X145415000Y-60325000D02*
X145415000Y-74295000D01*
X145415000Y-74295000D02*
X131445000Y-74295000D01*
X131445000Y-74295000D02*
X131445000Y-60325000D01*
X150495000Y-74295000D02*
X150495000Y-60325000D01*
X164465000Y-74295000D02*
X150495000Y-74295000D01*
X164465000Y-60325000D02*
X164465000Y-74295000D01*
X150495000Y-60325000D02*
X164465000Y-60325000D01*
X169545000Y-60325000D02*
X183515000Y-60325000D01*
X183515000Y-60325000D02*
X183515000Y-74295000D01*
X183515000Y-74295000D02*
X169545000Y-74295000D01*
X169545000Y-74295000D02*
X169545000Y-60325000D01*
X188595000Y-60325000D02*
X202565000Y-60325000D01*
X202565000Y-60325000D02*
X202565000Y-74295000D01*
X202565000Y-74295000D02*
X188595000Y-74295000D01*
X188595000Y-74295000D02*
X188595000Y-60325000D01*
X207645000Y-60325000D02*
X221615000Y-60325000D01*
X221615000Y-60325000D02*
X221615000Y-74295000D01*
X221615000Y-74295000D02*
X207645000Y-74295000D01*
X207645000Y-74295000D02*
X207645000Y-60325000D01*
X226695000Y-74295000D02*
X226695000Y-60325000D01*
X240665000Y-74295000D02*
X226695000Y-74295000D01*
X240665000Y-60325000D02*
X240665000Y-74295000D01*
X226695000Y-60325000D02*
X240665000Y-60325000D01*
X245745000Y-60325000D02*
X259715000Y-60325000D01*
X259715000Y-60325000D02*
X259715000Y-74295000D01*
X259715000Y-74295000D02*
X245745000Y-74295000D01*
X245745000Y-74295000D02*
X245745000Y-60325000D01*
X264795000Y-74295000D02*
X264795000Y-60325000D01*
X278765000Y-74295000D02*
X264795000Y-74295000D01*
X278765000Y-60325000D02*
X278765000Y-74295000D01*
X264795000Y-60325000D02*
X278765000Y-60325000D01*
X64770000Y-93345000D02*
X64770000Y-79375000D01*
X78740000Y-93345000D02*
X64770000Y-93345000D01*
X78740000Y-79375000D02*
X78740000Y-93345000D01*
X64770000Y-79375000D02*
X78740000Y-79375000D01*
X83820000Y-93345000D02*
X83820000Y-79375000D01*
X97790000Y-93345000D02*
X83820000Y-93345000D01*
X97790000Y-79375000D02*
X97790000Y-93345000D01*
X83820000Y-79375000D02*
X97790000Y-79375000D01*
X102870000Y-79375000D02*
X116840000Y-79375000D01*
X116840000Y-79375000D02*
X116840000Y-93345000D01*
X116840000Y-93345000D02*
X102870000Y-93345000D01*
X102870000Y-93345000D02*
X102870000Y-79375000D01*
X121920000Y-93345000D02*
X121920000Y-79375000D01*
X135890000Y-93345000D02*
X121920000Y-93345000D01*
X135890000Y-79375000D02*
X135890000Y-93345000D01*
X121920000Y-79375000D02*
X135890000Y-79375000D01*
X140970000Y-93345000D02*
X140970000Y-79375000D01*
X154940000Y-93345000D02*
X140970000Y-93345000D01*
X154940000Y-79375000D02*
X154940000Y-93345000D01*
X140970000Y-79375000D02*
X154940000Y-79375000D01*
X160020000Y-79375000D02*
X173990000Y-79375000D01*
X173990000Y-79375000D02*
X173990000Y-93345000D01*
X173990000Y-93345000D02*
X160020000Y-93345000D01*
X160020000Y-93345000D02*
X160020000Y-79375000D01*
X179070000Y-93345000D02*
X179070000Y-79375000D01*
X193040000Y-93345000D02*
X179070000Y-93345000D01*
X193040000Y-79375000D02*
X193040000Y-93345000D01*
X179070000Y-79375000D02*
X193040000Y-79375000D01*
X198120000Y-79375000D02*
X212090000Y-79375000D01*
X212090000Y-79375000D02*
X212090000Y-93345000D01*
X212090000Y-93345000D02*
X198120000Y-93345000D01*
X198120000Y-93345000D02*
X198120000Y-79375000D01*
X217170000Y-79375000D02*
X231140000Y-79375000D01*
X231140000Y-79375000D02*
X231140000Y-93345000D01*
X231140000Y-93345000D02*
X217170000Y-93345000D01*
X217170000Y-93345000D02*
X217170000Y-79375000D01*
X236220000Y-79375000D02*
X250190000Y-79375000D01*
X250190000Y-79375000D02*
X250190000Y-93345000D01*
X250190000Y-93345000D02*
X236220000Y-93345000D01*
X236220000Y-93345000D02*
X236220000Y-79375000D01*
X255270000Y-93345000D02*
X255270000Y-79375000D01*
X269240000Y-93345000D02*
X255270000Y-93345000D01*
X269240000Y-79375000D02*
X269240000Y-93345000D01*
X255270000Y-79375000D02*
X269240000Y-79375000D01*
X274320000Y-93345000D02*
X274320000Y-79375000D01*
X288290000Y-93345000D02*
X274320000Y-93345000D01*
X288290000Y-79375000D02*
X288290000Y-93345000D01*
X274320000Y-79375000D02*
X288290000Y-79375000D01*
X69532500Y-112395000D02*
X69532500Y-98425000D01*
X83502500Y-112395000D02*
X69532500Y-112395000D01*
X83502500Y-98425000D02*
X83502500Y-112395000D01*
X69532500Y-98425000D02*
X83502500Y-98425000D01*
X88582500Y-98425000D02*
X102552500Y-98425000D01*
X102552500Y-98425000D02*
X102552500Y-112395000D01*
X102552500Y-112395000D02*
X88582500Y-112395000D01*
X88582500Y-112395000D02*
X88582500Y-98425000D01*
X107633000Y-98425000D02*
X121603000Y-98425000D01*
X121603000Y-98425000D02*
X121603000Y-112395000D01*
X121603000Y-112395000D02*
X107633000Y-112395000D01*
X107633000Y-112395000D02*
X107633000Y-98425000D01*
X126683000Y-98425000D02*
X140653000Y-98425000D01*
X140653000Y-98425000D02*
X140653000Y-112395000D01*
X140653000Y-112395000D02*
X126683000Y-112395000D01*
X126683000Y-112395000D02*
X126683000Y-98425000D01*
X145733000Y-112395000D02*
X145733000Y-98425000D01*
X159703000Y-112395000D02*
X145733000Y-112395000D01*
X159703000Y-98425000D02*
X159703000Y-112395000D01*
X145733000Y-98425000D02*
X159703000Y-98425000D01*
X164783000Y-98425000D02*
X178753000Y-98425000D01*
X178753000Y-98425000D02*
X178753000Y-112395000D01*
X178753000Y-112395000D02*
X164783000Y-112395000D01*
X164783000Y-112395000D02*
X164783000Y-98425000D01*
X183833000Y-112395000D02*
X183833000Y-98425000D01*
X197803000Y-112395000D02*
X183833000Y-112395000D01*
X197803000Y-98425000D02*
X197803000Y-112395000D01*
X183833000Y-98425000D02*
X197803000Y-98425000D01*
X202883000Y-112395000D02*
X202883000Y-98425000D01*
X216853000Y-112395000D02*
X202883000Y-112395000D01*
X216853000Y-98425000D02*
X216853000Y-112395000D01*
X202883000Y-98425000D02*
X216853000Y-98425000D01*
X221933000Y-98425000D02*
X235903000Y-98425000D01*
X235903000Y-98425000D02*
X235903000Y-112395000D01*
X235903000Y-112395000D02*
X221933000Y-112395000D01*
X221933000Y-112395000D02*
X221933000Y-98425000D01*
X240983000Y-112395000D02*
X240983000Y-98425000D01*
X254953000Y-112395000D02*
X240983000Y-112395000D01*
X254953000Y-98425000D02*
X254953000Y-112395000D01*
X240983000Y-98425000D02*
X254953000Y-98425000D01*
X260033000Y-112395000D02*
X260033000Y-98425000D01*
X274003000Y-112395000D02*
X260033000Y-112395000D01*
X274003000Y-98425000D02*
X274003000Y-112395000D01*
X260033000Y-98425000D02*
X274003000Y-98425000D01*
X79057500Y-117475000D02*
X93027500Y-117475000D01*
X93027500Y-117475000D02*
X93027500Y-131445000D01*
X93027500Y-131445000D02*
X79057500Y-131445000D01*
X79057500Y-131445000D02*
X79057500Y-117475000D01*
X98107000Y-131445000D02*
X98107000Y-117475000D01*
X112077000Y-131445000D02*
X98107000Y-131445000D01*
X112077000Y-117475000D02*
X112077000Y-131445000D01*
X98107000Y-117475000D02*
X112077000Y-117475000D01*
X117157000Y-131445000D02*
X117157000Y-117475000D01*
X131127000Y-131445000D02*
X117157000Y-131445000D01*
X131127000Y-117475000D02*
X131127000Y-131445000D01*
X117157000Y-117475000D02*
X131127000Y-117475000D01*
X136207000Y-131445000D02*
X136207000Y-117475000D01*
X150177000Y-131445000D02*
X136207000Y-131445000D01*
X150177000Y-117475000D02*
X150177000Y-131445000D01*
X136207000Y-117475000D02*
X150177000Y-117475000D01*
X155257000Y-117475000D02*
X169227000Y-117475000D01*
X169227000Y-117475000D02*
X169227000Y-131445000D01*
X169227000Y-131445000D02*
X155257000Y-131445000D01*
X155257000Y-131445000D02*
X155257000Y-117475000D01*
X174307000Y-131445000D02*
X174307000Y-117475000D01*
X188277000Y-131445000D02*
X174307000Y-131445000D01*
X188277000Y-117475000D02*
X188277000Y-131445000D01*
X174307000Y-117475000D02*
X188277000Y-117475000D01*
X193357000Y-117475000D02*
X207327000Y-117475000D01*
X207327000Y-117475000D02*
X207327000Y-131445000D01*
X207327000Y-131445000D02*
X193357000Y-131445000D01*
X193357000Y-131445000D02*
X193357000Y-117475000D01*
X212407000Y-131445000D02*
X212407000Y-117475000D01*
X226377000Y-131445000D02*
X212407000Y-131445000D01*
X226377000Y-117475000D02*
X226377000Y-131445000D01*
X212407000Y-117475000D02*
X226377000Y-117475000D01*
X231457000Y-131445000D02*
X231457000Y-117475000D01*
X245427000Y-131445000D02*
X231457000Y-131445000D01*
X245427000Y-117475000D02*
X245427000Y-131445000D01*
X231457000Y-117475000D02*
X245427000Y-117475000D01*
X250507000Y-117475000D02*
X264477000Y-117475000D01*
X264477000Y-117475000D02*
X264477000Y-131445000D01*
X264477000Y-131445000D02*
X250507000Y-131445000D01*
X250507000Y-131445000D02*
X250507000Y-117475000D01*
X293370000Y-74295000D02*
X293370000Y-60325000D01*
X307340000Y-74295000D02*
X293370000Y-74295000D01*
X307340000Y-60325000D02*
X307340000Y-74295000D01*
X293370000Y-60325000D02*
X307340000Y-60325000D01*
X40957500Y-93345000D02*
X40957500Y-79375000D01*
X54927500Y-93345000D02*
X40957500Y-93345000D01*
X54927500Y-79375000D02*
X54927500Y-93345000D01*
X40957500Y-79375000D02*
X54927500Y-79375000D01*
X298133000Y-93345000D02*
X298133000Y-79375000D01*
X312103000Y-93345000D02*
X298133000Y-93345000D01*
X312103000Y-79375000D02*
X312103000Y-93345000D01*
X298133000Y-79375000D02*
X312103000Y-79375000D01*
X43338800Y-112395000D02*
X43338800Y-98425000D01*
X57308800Y-112395000D02*
X43338800Y-112395000D01*
X57308800Y-98425000D02*
X57308800Y-112395000D01*
X43338800Y-98425000D02*
X57308800Y-98425000D01*
X290989000Y-112395000D02*
X290989000Y-98425000D01*
X304959000Y-112395000D02*
X290989000Y-112395000D01*
X304959000Y-98425000D02*
X304959000Y-112395000D01*
X290989000Y-98425000D02*
X304959000Y-98425000D01*
X48101200Y-117475000D02*
X62071200Y-117475000D01*
X62071200Y-117475000D02*
X62071200Y-131445000D01*
X62071200Y-131445000D02*
X48101200Y-131445000D01*
X48101200Y-131445000D02*
X48101200Y-117475000D01*
X286226000Y-131445000D02*
X286226000Y-117475000D01*
X300196000Y-131445000D02*
X286226000Y-131445000D01*
X300196000Y-117475000D02*
X300196000Y-131445000D01*
X286226000Y-117475000D02*
X300196000Y-117475000D01*
X38576200Y-136525000D02*
X52546200Y-136525000D01*
X52546200Y-136525000D02*
X52546200Y-150495000D01*
X52546200Y-150495000D02*
X38576200Y-150495000D01*
X38576200Y-150495000D02*
X38576200Y-136525000D01*
X62388800Y-150495000D02*
X62388800Y-136525000D01*
X76358800Y-150495000D02*
X62388800Y-150495000D01*
X76358800Y-136525000D02*
X76358800Y-150495000D01*
X62388800Y-136525000D02*
X76358800Y-136525000D01*
X86201200Y-136525000D02*
X100171200Y-136525000D01*
X100171200Y-136525000D02*
X100171200Y-150495000D01*
X100171200Y-150495000D02*
X86201200Y-150495000D01*
X86201200Y-150495000D02*
X86201200Y-136525000D01*
X157639000Y-150495000D02*
X157639000Y-136525000D01*
X171609000Y-150495000D02*
X157639000Y-150495000D01*
X171609000Y-136525000D02*
X171609000Y-150495000D01*
X157639000Y-136525000D02*
X171609000Y-136525000D01*
X229076000Y-150495000D02*
X229076000Y-136525000D01*
X243046000Y-150495000D02*
X229076000Y-150495000D01*
X243046000Y-136525000D02*
X243046000Y-150495000D01*
X229076000Y-136525000D02*
X243046000Y-136525000D01*
X252889000Y-150495000D02*
X252889000Y-136525000D01*
X266859000Y-150495000D02*
X252889000Y-150495000D01*
X266859000Y-136525000D02*
X266859000Y-150495000D01*
X252889000Y-136525000D02*
X266859000Y-136525000D01*
X276701000Y-136525000D02*
X290671000Y-136525000D01*
X290671000Y-136525000D02*
X290671000Y-150495000D01*
X290671000Y-150495000D02*
X276701000Y-150495000D01*
X276701000Y-150495000D02*
X276701000Y-136525000D01*
X300514000Y-150495000D02*
X300514000Y-136525000D01*
X314484000Y-150495000D02*
X300514000Y-150495000D01*
X314484000Y-136525000D02*
X314484000Y-150495000D01*
X300514000Y-136525000D02*
X314484000Y-136525000D01*
X82550000Y-55880000D02*
X82550000Y-54610000D01*
X83820000Y-55880000D02*
X82550000Y-55880000D01*
X122300000Y-53567071D02*
X122300000Y-53170000D01*
X121540000Y-53567071D02*
X121540000Y-53170000D01*
X122300000Y-44510000D02*
X122300000Y-50510000D01*
X121540000Y-44510000D02*
X122300000Y-44510000D01*
X121540000Y-50510000D02*
X121540000Y-44510000D01*
X120650000Y-53170000D02*
X120650000Y-50510000D01*
X119760000Y-53567071D02*
X119760000Y-53170000D01*
X119000000Y-53567071D02*
X119000000Y-53170000D01*
X119760000Y-44510000D02*
X119760000Y-50510000D01*
X119000000Y-44510000D02*
X119760000Y-44510000D01*
X119000000Y-50510000D02*
X119000000Y-44510000D01*
X118110000Y-53170000D02*
X118110000Y-50510000D01*
X117220000Y-53567071D02*
X117220000Y-53170000D01*
X116460000Y-53567071D02*
X116460000Y-53170000D01*
X117220000Y-44510000D02*
X117220000Y-50510000D01*
X116460000Y-44510000D02*
X117220000Y-44510000D01*
X116460000Y-50510000D02*
X116460000Y-44510000D01*
X115570000Y-53170000D02*
X115570000Y-50510000D01*
X114680000Y-53567071D02*
X114680000Y-53170000D01*
X113920000Y-53567071D02*
X113920000Y-53170000D01*
X114680000Y-44510000D02*
X114680000Y-50510000D01*
X113920000Y-44510000D02*
X114680000Y-44510000D01*
X113920000Y-50510000D02*
X113920000Y-44510000D01*
X113030000Y-53170000D02*
X113030000Y-50510000D01*
X112140000Y-53567071D02*
X112140000Y-53170000D01*
X111380000Y-53567071D02*
X111380000Y-53170000D01*
X112140000Y-44510000D02*
X112140000Y-50510000D01*
X111380000Y-44510000D02*
X112140000Y-44510000D01*
X111380000Y-50510000D02*
X111380000Y-44510000D01*
X110490000Y-53170000D02*
X110490000Y-50510000D01*
X109600000Y-53567071D02*
X109600000Y-53170000D01*
X108840000Y-53567071D02*
X108840000Y-53170000D01*
X109600000Y-44510000D02*
X109600000Y-50510000D01*
X108840000Y-44510000D02*
X109600000Y-44510000D01*
X108840000Y-50510000D02*
X108840000Y-44510000D01*
X107950000Y-53170000D02*
X107950000Y-50510000D01*
X107060000Y-53567071D02*
X107060000Y-53170000D01*
X106300000Y-53567071D02*
X106300000Y-53170000D01*
X107060000Y-44510000D02*
X107060000Y-50510000D01*
X106300000Y-44510000D02*
X107060000Y-44510000D01*
X106300000Y-50510000D02*
X106300000Y-44510000D01*
X105410000Y-53170000D02*
X105410000Y-50510000D01*
X104520000Y-53567071D02*
X104520000Y-53170000D01*
X103760000Y-53567071D02*
X103760000Y-53170000D01*
X104520000Y-44510000D02*
X104520000Y-50510000D01*
X103760000Y-44510000D02*
X104520000Y-44510000D01*
X103760000Y-50510000D02*
X103760000Y-44510000D01*
X102870000Y-53170000D02*
X102870000Y-50510000D01*
X101980000Y-53567071D02*
X101980000Y-53170000D01*
X101220000Y-53567071D02*
X101220000Y-53170000D01*
X101980000Y-44510000D02*
X101980000Y-50510000D01*
X101220000Y-44510000D02*
X101980000Y-44510000D01*
X101220000Y-50510000D02*
X101220000Y-44510000D01*
X100330000Y-53170000D02*
X100330000Y-50510000D01*
X99440000Y-53567071D02*
X99440000Y-53170000D01*
X98680000Y-53567071D02*
X98680000Y-53170000D01*
X99440000Y-44510000D02*
X99440000Y-50510000D01*
X98680000Y-44510000D02*
X99440000Y-44510000D01*
X98680000Y-50510000D02*
X98680000Y-44510000D01*
X97790000Y-53170000D02*
X97790000Y-50510000D01*
X96900000Y-53567071D02*
X96900000Y-53170000D01*
X96140000Y-53567071D02*
X96140000Y-53170000D01*
X96900000Y-44510000D02*
X96900000Y-50510000D01*
X96140000Y-44510000D02*
X96900000Y-44510000D01*
X96140000Y-50510000D02*
X96140000Y-44510000D01*
X95250000Y-53170000D02*
X95250000Y-50510000D01*
X94360000Y-53567071D02*
X94360000Y-53170000D01*
X93600000Y-53567071D02*
X93600000Y-53170000D01*
X94360000Y-44510000D02*
X94360000Y-50510000D01*
X93600000Y-44510000D02*
X94360000Y-44510000D01*
X93600000Y-50510000D02*
X93600000Y-44510000D01*
X92710000Y-53170000D02*
X92710000Y-50510000D01*
X91820000Y-53567071D02*
X91820000Y-53170000D01*
X91060000Y-53567071D02*
X91060000Y-53170000D01*
X91820000Y-44510000D02*
X91820000Y-50510000D01*
X91060000Y-44510000D02*
X91820000Y-44510000D01*
X91060000Y-50510000D02*
X91060000Y-44510000D01*
X90170000Y-53170000D02*
X90170000Y-50510000D01*
X89280000Y-53567071D02*
X89280000Y-53170000D01*
X88520000Y-53567071D02*
X88520000Y-53170000D01*
X89280000Y-44510000D02*
X89280000Y-50510000D01*
X88520000Y-44510000D02*
X89280000Y-44510000D01*
X88520000Y-50510000D02*
X88520000Y-44510000D01*
X87630000Y-53170000D02*
X87630000Y-50510000D01*
X86740000Y-53567071D02*
X86740000Y-53170000D01*
X85980000Y-53567071D02*
X85980000Y-53170000D01*
X86740000Y-44510000D02*
X86740000Y-50510000D01*
X85980000Y-44510000D02*
X86740000Y-44510000D01*
X85980000Y-50510000D02*
X85980000Y-44510000D01*
X85090000Y-53170000D02*
X85090000Y-50510000D01*
X84200000Y-53500000D02*
X84200000Y-53170000D01*
X83440000Y-53500000D02*
X83440000Y-53170000D01*
X84100000Y-50510000D02*
X84100000Y-44510000D01*
X83980000Y-50510000D02*
X83980000Y-44510000D01*
X83860000Y-50510000D02*
X83860000Y-44510000D01*
X83740000Y-50510000D02*
X83740000Y-44510000D01*
X83620000Y-50510000D02*
X83620000Y-44510000D01*
X83500000Y-50510000D02*
X83500000Y-44510000D01*
X84200000Y-44510000D02*
X84200000Y-50510000D01*
X83440000Y-44510000D02*
X84200000Y-44510000D01*
X83440000Y-50510000D02*
X83440000Y-44510000D01*
X82490000Y-50510000D02*
X82490000Y-53170000D01*
X123250000Y-50510000D02*
X82490000Y-50510000D01*
X123250000Y-53170000D02*
X123250000Y-50510000D01*
X82490000Y-53170000D02*
X123250000Y-53170000D01*
D10*
X36091904Y-76652380D02*
X36091904Y-75652380D01*
X36330000Y-75652380D01*
X36472857Y-75700000D01*
X36568095Y-75795238D01*
X36615714Y-75890476D01*
X36663333Y-76080952D01*
X36663333Y-76223809D01*
X36615714Y-76414285D01*
X36568095Y-76509523D01*
X36472857Y-76604761D01*
X36330000Y-76652380D01*
X36091904Y-76652380D01*
X37615714Y-76652380D02*
X37044285Y-76652380D01*
X37330000Y-76652380D02*
X37330000Y-75652380D01*
X37234761Y-75795238D01*
X37139523Y-75890476D01*
X37044285Y-75938095D01*
X55141904Y-76652380D02*
X55141904Y-75652380D01*
X55380000Y-75652380D01*
X55522857Y-75700000D01*
X55618095Y-75795238D01*
X55665714Y-75890476D01*
X55713333Y-76080952D01*
X55713333Y-76223809D01*
X55665714Y-76414285D01*
X55618095Y-76509523D01*
X55522857Y-76604761D01*
X55380000Y-76652380D01*
X55141904Y-76652380D01*
X56094285Y-75747619D02*
X56141904Y-75700000D01*
X56237142Y-75652380D01*
X56475238Y-75652380D01*
X56570476Y-75700000D01*
X56618095Y-75747619D01*
X56665714Y-75842857D01*
X56665714Y-75938095D01*
X56618095Y-76080952D01*
X56046666Y-76652380D01*
X56665714Y-76652380D01*
X74191904Y-76652380D02*
X74191904Y-75652380D01*
X74430000Y-75652380D01*
X74572857Y-75700000D01*
X74668095Y-75795238D01*
X74715714Y-75890476D01*
X74763333Y-76080952D01*
X74763333Y-76223809D01*
X74715714Y-76414285D01*
X74668095Y-76509523D01*
X74572857Y-76604761D01*
X74430000Y-76652380D01*
X74191904Y-76652380D01*
X75096666Y-75652380D02*
X75715714Y-75652380D01*
X75382380Y-76033333D01*
X75525238Y-76033333D01*
X75620476Y-76080952D01*
X75668095Y-76128571D01*
X75715714Y-76223809D01*
X75715714Y-76461904D01*
X75668095Y-76557142D01*
X75620476Y-76604761D01*
X75525238Y-76652380D01*
X75239523Y-76652380D01*
X75144285Y-76604761D01*
X75096666Y-76557142D01*
X93241904Y-76652380D02*
X93241904Y-75652380D01*
X93480000Y-75652380D01*
X93622857Y-75700000D01*
X93718095Y-75795238D01*
X93765714Y-75890476D01*
X93813333Y-76080952D01*
X93813333Y-76223809D01*
X93765714Y-76414285D01*
X93718095Y-76509523D01*
X93622857Y-76604761D01*
X93480000Y-76652380D01*
X93241904Y-76652380D01*
X94670476Y-75985714D02*
X94670476Y-76652380D01*
X94432380Y-75604761D02*
X94194285Y-76319047D01*
X94813333Y-76319047D01*
X112291904Y-76652380D02*
X112291904Y-75652380D01*
X112530000Y-75652380D01*
X112672857Y-75700000D01*
X112768095Y-75795238D01*
X112815714Y-75890476D01*
X112863333Y-76080952D01*
X112863333Y-76223809D01*
X112815714Y-76414285D01*
X112768095Y-76509523D01*
X112672857Y-76604761D01*
X112530000Y-76652380D01*
X112291904Y-76652380D01*
X113768095Y-75652380D02*
X113291904Y-75652380D01*
X113244285Y-76128571D01*
X113291904Y-76080952D01*
X113387142Y-76033333D01*
X113625238Y-76033333D01*
X113720476Y-76080952D01*
X113768095Y-76128571D01*
X113815714Y-76223809D01*
X113815714Y-76461904D01*
X113768095Y-76557142D01*
X113720476Y-76604761D01*
X113625238Y-76652380D01*
X113387142Y-76652380D01*
X113291904Y-76604761D01*
X113244285Y-76557142D01*
X131341904Y-76652380D02*
X131341904Y-75652380D01*
X131580000Y-75652380D01*
X131722857Y-75700000D01*
X131818095Y-75795238D01*
X131865714Y-75890476D01*
X131913333Y-76080952D01*
X131913333Y-76223809D01*
X131865714Y-76414285D01*
X131818095Y-76509523D01*
X131722857Y-76604761D01*
X131580000Y-76652380D01*
X131341904Y-76652380D01*
X132770476Y-75652380D02*
X132580000Y-75652380D01*
X132484761Y-75700000D01*
X132437142Y-75747619D01*
X132341904Y-75890476D01*
X132294285Y-76080952D01*
X132294285Y-76461904D01*
X132341904Y-76557142D01*
X132389523Y-76604761D01*
X132484761Y-76652380D01*
X132675238Y-76652380D01*
X132770476Y-76604761D01*
X132818095Y-76557142D01*
X132865714Y-76461904D01*
X132865714Y-76223809D01*
X132818095Y-76128571D01*
X132770476Y-76080952D01*
X132675238Y-76033333D01*
X132484761Y-76033333D01*
X132389523Y-76080952D01*
X132341904Y-76128571D01*
X132294285Y-76223809D01*
X150391904Y-76652380D02*
X150391904Y-75652380D01*
X150630000Y-75652380D01*
X150772857Y-75700000D01*
X150868095Y-75795238D01*
X150915714Y-75890476D01*
X150963333Y-76080952D01*
X150963333Y-76223809D01*
X150915714Y-76414285D01*
X150868095Y-76509523D01*
X150772857Y-76604761D01*
X150630000Y-76652380D01*
X150391904Y-76652380D01*
X151296666Y-75652380D02*
X151963333Y-75652380D01*
X151534761Y-76652380D01*
X169441904Y-76652380D02*
X169441904Y-75652380D01*
X169680000Y-75652380D01*
X169822857Y-75700000D01*
X169918095Y-75795238D01*
X169965714Y-75890476D01*
X170013333Y-76080952D01*
X170013333Y-76223809D01*
X169965714Y-76414285D01*
X169918095Y-76509523D01*
X169822857Y-76604761D01*
X169680000Y-76652380D01*
X169441904Y-76652380D01*
X170584761Y-76080952D02*
X170489523Y-76033333D01*
X170441904Y-75985714D01*
X170394285Y-75890476D01*
X170394285Y-75842857D01*
X170441904Y-75747619D01*
X170489523Y-75700000D01*
X170584761Y-75652380D01*
X170775238Y-75652380D01*
X170870476Y-75700000D01*
X170918095Y-75747619D01*
X170965714Y-75842857D01*
X170965714Y-75890476D01*
X170918095Y-75985714D01*
X170870476Y-76033333D01*
X170775238Y-76080952D01*
X170584761Y-76080952D01*
X170489523Y-76128571D01*
X170441904Y-76176190D01*
X170394285Y-76271428D01*
X170394285Y-76461904D01*
X170441904Y-76557142D01*
X170489523Y-76604761D01*
X170584761Y-76652380D01*
X170775238Y-76652380D01*
X170870476Y-76604761D01*
X170918095Y-76557142D01*
X170965714Y-76461904D01*
X170965714Y-76271428D01*
X170918095Y-76176190D01*
X170870476Y-76128571D01*
X170775238Y-76080952D01*
X188491904Y-76652380D02*
X188491904Y-75652380D01*
X188730000Y-75652380D01*
X188872857Y-75700000D01*
X188968095Y-75795238D01*
X189015714Y-75890476D01*
X189063333Y-76080952D01*
X189063333Y-76223809D01*
X189015714Y-76414285D01*
X188968095Y-76509523D01*
X188872857Y-76604761D01*
X188730000Y-76652380D01*
X188491904Y-76652380D01*
X189539523Y-76652380D02*
X189730000Y-76652380D01*
X189825238Y-76604761D01*
X189872857Y-76557142D01*
X189968095Y-76414285D01*
X190015714Y-76223809D01*
X190015714Y-75842857D01*
X189968095Y-75747619D01*
X189920476Y-75700000D01*
X189825238Y-75652380D01*
X189634761Y-75652380D01*
X189539523Y-75700000D01*
X189491904Y-75747619D01*
X189444285Y-75842857D01*
X189444285Y-76080952D01*
X189491904Y-76176190D01*
X189539523Y-76223809D01*
X189634761Y-76271428D01*
X189825238Y-76271428D01*
X189920476Y-76223809D01*
X189968095Y-76176190D01*
X190015714Y-76080952D01*
X207065714Y-76652380D02*
X207065714Y-75652380D01*
X207303809Y-75652380D01*
X207446666Y-75700000D01*
X207541904Y-75795238D01*
X207589523Y-75890476D01*
X207637142Y-76080952D01*
X207637142Y-76223809D01*
X207589523Y-76414285D01*
X207541904Y-76509523D01*
X207446666Y-76604761D01*
X207303809Y-76652380D01*
X207065714Y-76652380D01*
X208589523Y-76652380D02*
X208018095Y-76652380D01*
X208303809Y-76652380D02*
X208303809Y-75652380D01*
X208208571Y-75795238D01*
X208113333Y-75890476D01*
X208018095Y-75938095D01*
X209208571Y-75652380D02*
X209303809Y-75652380D01*
X209399047Y-75700000D01*
X209446666Y-75747619D01*
X209494285Y-75842857D01*
X209541904Y-76033333D01*
X209541904Y-76271428D01*
X209494285Y-76461904D01*
X209446666Y-76557142D01*
X209399047Y-76604761D01*
X209303809Y-76652380D01*
X209208571Y-76652380D01*
X209113333Y-76604761D01*
X209065714Y-76557142D01*
X209018095Y-76461904D01*
X208970476Y-76271428D01*
X208970476Y-76033333D01*
X209018095Y-75842857D01*
X209065714Y-75747619D01*
X209113333Y-75700000D01*
X209208571Y-75652380D01*
X226115714Y-76652380D02*
X226115714Y-75652380D01*
X226353809Y-75652380D01*
X226496666Y-75700000D01*
X226591904Y-75795238D01*
X226639523Y-75890476D01*
X226687142Y-76080952D01*
X226687142Y-76223809D01*
X226639523Y-76414285D01*
X226591904Y-76509523D01*
X226496666Y-76604761D01*
X226353809Y-76652380D01*
X226115714Y-76652380D01*
X227639523Y-76652380D02*
X227068095Y-76652380D01*
X227353809Y-76652380D02*
X227353809Y-75652380D01*
X227258571Y-75795238D01*
X227163333Y-75890476D01*
X227068095Y-75938095D01*
X228591904Y-76652380D02*
X228020476Y-76652380D01*
X228306190Y-76652380D02*
X228306190Y-75652380D01*
X228210952Y-75795238D01*
X228115714Y-75890476D01*
X228020476Y-75938095D01*
X245165714Y-76652380D02*
X245165714Y-75652380D01*
X245403809Y-75652380D01*
X245546666Y-75700000D01*
X245641904Y-75795238D01*
X245689523Y-75890476D01*
X245737142Y-76080952D01*
X245737142Y-76223809D01*
X245689523Y-76414285D01*
X245641904Y-76509523D01*
X245546666Y-76604761D01*
X245403809Y-76652380D01*
X245165714Y-76652380D01*
X246689523Y-76652380D02*
X246118095Y-76652380D01*
X246403809Y-76652380D02*
X246403809Y-75652380D01*
X246308571Y-75795238D01*
X246213333Y-75890476D01*
X246118095Y-75938095D01*
X247070476Y-75747619D02*
X247118095Y-75700000D01*
X247213333Y-75652380D01*
X247451428Y-75652380D01*
X247546666Y-75700000D01*
X247594285Y-75747619D01*
X247641904Y-75842857D01*
X247641904Y-75938095D01*
X247594285Y-76080952D01*
X247022857Y-76652380D01*
X247641904Y-76652380D01*
X264215714Y-76652380D02*
X264215714Y-75652380D01*
X264453809Y-75652380D01*
X264596666Y-75700000D01*
X264691904Y-75795238D01*
X264739523Y-75890476D01*
X264787142Y-76080952D01*
X264787142Y-76223809D01*
X264739523Y-76414285D01*
X264691904Y-76509523D01*
X264596666Y-76604761D01*
X264453809Y-76652380D01*
X264215714Y-76652380D01*
X265739523Y-76652380D02*
X265168095Y-76652380D01*
X265453809Y-76652380D02*
X265453809Y-75652380D01*
X265358571Y-75795238D01*
X265263333Y-75890476D01*
X265168095Y-75938095D01*
X266072857Y-75652380D02*
X266691904Y-75652380D01*
X266358571Y-76033333D01*
X266501428Y-76033333D01*
X266596666Y-76080952D01*
X266644285Y-76128571D01*
X266691904Y-76223809D01*
X266691904Y-76461904D01*
X266644285Y-76557142D01*
X266596666Y-76604761D01*
X266501428Y-76652380D01*
X266215714Y-76652380D01*
X266120476Y-76604761D01*
X266072857Y-76557142D01*
X284932380Y-69794285D02*
X283932380Y-69794285D01*
X283932380Y-69556190D01*
X283980000Y-69413333D01*
X284075238Y-69318095D01*
X284170476Y-69270476D01*
X284360952Y-69222857D01*
X284503809Y-69222857D01*
X284694285Y-69270476D01*
X284789523Y-69318095D01*
X284884761Y-69413333D01*
X284932380Y-69556190D01*
X284932380Y-69794285D01*
X284932380Y-68270476D02*
X284932380Y-68841904D01*
X284932380Y-68556190D02*
X283932380Y-68556190D01*
X284075238Y-68651428D01*
X284170476Y-68746666D01*
X284218095Y-68841904D01*
X284265714Y-67413333D02*
X284932380Y-67413333D01*
X283884761Y-67651428D02*
X284599047Y-67889523D01*
X284599047Y-67270476D01*
X40695714Y-95702380D02*
X40695714Y-94702380D01*
X40933809Y-94702380D01*
X41076666Y-94750000D01*
X41171904Y-94845238D01*
X41219523Y-94940476D01*
X41267142Y-95130952D01*
X41267142Y-95273809D01*
X41219523Y-95464285D01*
X41171904Y-95559523D01*
X41076666Y-95654761D01*
X40933809Y-95702380D01*
X40695714Y-95702380D01*
X42219523Y-95702380D02*
X41648095Y-95702380D01*
X41933809Y-95702380D02*
X41933809Y-94702380D01*
X41838571Y-94845238D01*
X41743333Y-94940476D01*
X41648095Y-94988095D01*
X43124285Y-94702380D02*
X42648095Y-94702380D01*
X42600476Y-95178571D01*
X42648095Y-95130952D01*
X42743333Y-95083333D01*
X42981428Y-95083333D01*
X43076666Y-95130952D01*
X43124285Y-95178571D01*
X43171904Y-95273809D01*
X43171904Y-95511904D01*
X43124285Y-95607142D01*
X43076666Y-95654761D01*
X42981428Y-95702380D01*
X42743333Y-95702380D01*
X42648095Y-95654761D01*
X42600476Y-95607142D01*
X64825714Y-95702380D02*
X64825714Y-94702380D01*
X65063809Y-94702380D01*
X65206666Y-94750000D01*
X65301904Y-94845238D01*
X65349523Y-94940476D01*
X65397142Y-95130952D01*
X65397142Y-95273809D01*
X65349523Y-95464285D01*
X65301904Y-95559523D01*
X65206666Y-95654761D01*
X65063809Y-95702380D01*
X64825714Y-95702380D01*
X66349523Y-95702380D02*
X65778095Y-95702380D01*
X66063809Y-95702380D02*
X66063809Y-94702380D01*
X65968571Y-94845238D01*
X65873333Y-94940476D01*
X65778095Y-94988095D01*
X67206666Y-94702380D02*
X67016190Y-94702380D01*
X66920952Y-94750000D01*
X66873333Y-94797619D01*
X66778095Y-94940476D01*
X66730476Y-95130952D01*
X66730476Y-95511904D01*
X66778095Y-95607142D01*
X66825714Y-95654761D01*
X66920952Y-95702380D01*
X67111428Y-95702380D01*
X67206666Y-95654761D01*
X67254285Y-95607142D01*
X67301904Y-95511904D01*
X67301904Y-95273809D01*
X67254285Y-95178571D01*
X67206666Y-95130952D01*
X67111428Y-95083333D01*
X66920952Y-95083333D01*
X66825714Y-95130952D01*
X66778095Y-95178571D01*
X66730476Y-95273809D01*
X83875714Y-95702380D02*
X83875714Y-94702380D01*
X84113809Y-94702380D01*
X84256666Y-94750000D01*
X84351904Y-94845238D01*
X84399523Y-94940476D01*
X84447142Y-95130952D01*
X84447142Y-95273809D01*
X84399523Y-95464285D01*
X84351904Y-95559523D01*
X84256666Y-95654761D01*
X84113809Y-95702380D01*
X83875714Y-95702380D01*
X85399523Y-95702380D02*
X84828095Y-95702380D01*
X85113809Y-95702380D02*
X85113809Y-94702380D01*
X85018571Y-94845238D01*
X84923333Y-94940476D01*
X84828095Y-94988095D01*
X85732857Y-94702380D02*
X86399523Y-94702380D01*
X85970952Y-95702380D01*
X102925714Y-95702380D02*
X102925714Y-94702380D01*
X103163809Y-94702380D01*
X103306666Y-94750000D01*
X103401904Y-94845238D01*
X103449523Y-94940476D01*
X103497142Y-95130952D01*
X103497142Y-95273809D01*
X103449523Y-95464285D01*
X103401904Y-95559523D01*
X103306666Y-95654761D01*
X103163809Y-95702380D01*
X102925714Y-95702380D01*
X104449523Y-95702380D02*
X103878095Y-95702380D01*
X104163809Y-95702380D02*
X104163809Y-94702380D01*
X104068571Y-94845238D01*
X103973333Y-94940476D01*
X103878095Y-94988095D01*
X105020952Y-95130952D02*
X104925714Y-95083333D01*
X104878095Y-95035714D01*
X104830476Y-94940476D01*
X104830476Y-94892857D01*
X104878095Y-94797619D01*
X104925714Y-94750000D01*
X105020952Y-94702380D01*
X105211428Y-94702380D01*
X105306666Y-94750000D01*
X105354285Y-94797619D01*
X105401904Y-94892857D01*
X105401904Y-94940476D01*
X105354285Y-95035714D01*
X105306666Y-95083333D01*
X105211428Y-95130952D01*
X105020952Y-95130952D01*
X104925714Y-95178571D01*
X104878095Y-95226190D01*
X104830476Y-95321428D01*
X104830476Y-95511904D01*
X104878095Y-95607142D01*
X104925714Y-95654761D01*
X105020952Y-95702380D01*
X105211428Y-95702380D01*
X105306666Y-95654761D01*
X105354285Y-95607142D01*
X105401904Y-95511904D01*
X105401904Y-95321428D01*
X105354285Y-95226190D01*
X105306666Y-95178571D01*
X105211428Y-95130952D01*
X121975714Y-95702380D02*
X121975714Y-94702380D01*
X122213809Y-94702380D01*
X122356666Y-94750000D01*
X122451904Y-94845238D01*
X122499523Y-94940476D01*
X122547142Y-95130952D01*
X122547142Y-95273809D01*
X122499523Y-95464285D01*
X122451904Y-95559523D01*
X122356666Y-95654761D01*
X122213809Y-95702380D01*
X121975714Y-95702380D01*
X123499523Y-95702380D02*
X122928095Y-95702380D01*
X123213809Y-95702380D02*
X123213809Y-94702380D01*
X123118571Y-94845238D01*
X123023333Y-94940476D01*
X122928095Y-94988095D01*
X123975714Y-95702380D02*
X124166190Y-95702380D01*
X124261428Y-95654761D01*
X124309047Y-95607142D01*
X124404285Y-95464285D01*
X124451904Y-95273809D01*
X124451904Y-94892857D01*
X124404285Y-94797619D01*
X124356666Y-94750000D01*
X124261428Y-94702380D01*
X124070952Y-94702380D01*
X123975714Y-94750000D01*
X123928095Y-94797619D01*
X123880476Y-94892857D01*
X123880476Y-95130952D01*
X123928095Y-95226190D01*
X123975714Y-95273809D01*
X124070952Y-95321428D01*
X124261428Y-95321428D01*
X124356666Y-95273809D01*
X124404285Y-95226190D01*
X124451904Y-95130952D01*
X141025714Y-95702380D02*
X141025714Y-94702380D01*
X141263809Y-94702380D01*
X141406666Y-94750000D01*
X141501904Y-94845238D01*
X141549523Y-94940476D01*
X141597142Y-95130952D01*
X141597142Y-95273809D01*
X141549523Y-95464285D01*
X141501904Y-95559523D01*
X141406666Y-95654761D01*
X141263809Y-95702380D01*
X141025714Y-95702380D01*
X141978095Y-94797619D02*
X142025714Y-94750000D01*
X142120952Y-94702380D01*
X142359047Y-94702380D01*
X142454285Y-94750000D01*
X142501904Y-94797619D01*
X142549523Y-94892857D01*
X142549523Y-94988095D01*
X142501904Y-95130952D01*
X141930476Y-95702380D01*
X142549523Y-95702380D01*
X143168571Y-94702380D02*
X143263809Y-94702380D01*
X143359047Y-94750000D01*
X143406666Y-94797619D01*
X143454285Y-94892857D01*
X143501904Y-95083333D01*
X143501904Y-95321428D01*
X143454285Y-95511904D01*
X143406666Y-95607142D01*
X143359047Y-95654761D01*
X143263809Y-95702380D01*
X143168571Y-95702380D01*
X143073333Y-95654761D01*
X143025714Y-95607142D01*
X142978095Y-95511904D01*
X142930476Y-95321428D01*
X142930476Y-95083333D01*
X142978095Y-94892857D01*
X143025714Y-94797619D01*
X143073333Y-94750000D01*
X143168571Y-94702380D01*
X160075714Y-95702380D02*
X160075714Y-94702380D01*
X160313809Y-94702380D01*
X160456666Y-94750000D01*
X160551904Y-94845238D01*
X160599523Y-94940476D01*
X160647142Y-95130952D01*
X160647142Y-95273809D01*
X160599523Y-95464285D01*
X160551904Y-95559523D01*
X160456666Y-95654761D01*
X160313809Y-95702380D01*
X160075714Y-95702380D01*
X161028095Y-94797619D02*
X161075714Y-94750000D01*
X161170952Y-94702380D01*
X161409047Y-94702380D01*
X161504285Y-94750000D01*
X161551904Y-94797619D01*
X161599523Y-94892857D01*
X161599523Y-94988095D01*
X161551904Y-95130952D01*
X160980476Y-95702380D01*
X161599523Y-95702380D01*
X162551904Y-95702380D02*
X161980476Y-95702380D01*
X162266190Y-95702380D02*
X162266190Y-94702380D01*
X162170952Y-94845238D01*
X162075714Y-94940476D01*
X161980476Y-94988095D01*
X179125714Y-95702380D02*
X179125714Y-94702380D01*
X179363809Y-94702380D01*
X179506666Y-94750000D01*
X179601904Y-94845238D01*
X179649523Y-94940476D01*
X179697142Y-95130952D01*
X179697142Y-95273809D01*
X179649523Y-95464285D01*
X179601904Y-95559523D01*
X179506666Y-95654761D01*
X179363809Y-95702380D01*
X179125714Y-95702380D01*
X180078095Y-94797619D02*
X180125714Y-94750000D01*
X180220952Y-94702380D01*
X180459047Y-94702380D01*
X180554285Y-94750000D01*
X180601904Y-94797619D01*
X180649523Y-94892857D01*
X180649523Y-94988095D01*
X180601904Y-95130952D01*
X180030476Y-95702380D01*
X180649523Y-95702380D01*
X181030476Y-94797619D02*
X181078095Y-94750000D01*
X181173333Y-94702380D01*
X181411428Y-94702380D01*
X181506666Y-94750000D01*
X181554285Y-94797619D01*
X181601904Y-94892857D01*
X181601904Y-94988095D01*
X181554285Y-95130952D01*
X180982857Y-95702380D01*
X181601904Y-95702380D01*
X198175714Y-95702380D02*
X198175714Y-94702380D01*
X198413809Y-94702380D01*
X198556666Y-94750000D01*
X198651904Y-94845238D01*
X198699523Y-94940476D01*
X198747142Y-95130952D01*
X198747142Y-95273809D01*
X198699523Y-95464285D01*
X198651904Y-95559523D01*
X198556666Y-95654761D01*
X198413809Y-95702380D01*
X198175714Y-95702380D01*
X199128095Y-94797619D02*
X199175714Y-94750000D01*
X199270952Y-94702380D01*
X199509047Y-94702380D01*
X199604285Y-94750000D01*
X199651904Y-94797619D01*
X199699523Y-94892857D01*
X199699523Y-94988095D01*
X199651904Y-95130952D01*
X199080476Y-95702380D01*
X199699523Y-95702380D01*
X200032857Y-94702380D02*
X200651904Y-94702380D01*
X200318571Y-95083333D01*
X200461428Y-95083333D01*
X200556666Y-95130952D01*
X200604285Y-95178571D01*
X200651904Y-95273809D01*
X200651904Y-95511904D01*
X200604285Y-95607142D01*
X200556666Y-95654761D01*
X200461428Y-95702380D01*
X200175714Y-95702380D01*
X200080476Y-95654761D01*
X200032857Y-95607142D01*
X217225714Y-95702380D02*
X217225714Y-94702380D01*
X217463809Y-94702380D01*
X217606666Y-94750000D01*
X217701904Y-94845238D01*
X217749523Y-94940476D01*
X217797142Y-95130952D01*
X217797142Y-95273809D01*
X217749523Y-95464285D01*
X217701904Y-95559523D01*
X217606666Y-95654761D01*
X217463809Y-95702380D01*
X217225714Y-95702380D01*
X218178095Y-94797619D02*
X218225714Y-94750000D01*
X218320952Y-94702380D01*
X218559047Y-94702380D01*
X218654285Y-94750000D01*
X218701904Y-94797619D01*
X218749523Y-94892857D01*
X218749523Y-94988095D01*
X218701904Y-95130952D01*
X218130476Y-95702380D01*
X218749523Y-95702380D01*
X219606666Y-95035714D02*
X219606666Y-95702380D01*
X219368571Y-94654761D02*
X219130476Y-95369047D01*
X219749523Y-95369047D01*
X236275714Y-95702380D02*
X236275714Y-94702380D01*
X236513809Y-94702380D01*
X236656666Y-94750000D01*
X236751904Y-94845238D01*
X236799523Y-94940476D01*
X236847142Y-95130952D01*
X236847142Y-95273809D01*
X236799523Y-95464285D01*
X236751904Y-95559523D01*
X236656666Y-95654761D01*
X236513809Y-95702380D01*
X236275714Y-95702380D01*
X237228095Y-94797619D02*
X237275714Y-94750000D01*
X237370952Y-94702380D01*
X237609047Y-94702380D01*
X237704285Y-94750000D01*
X237751904Y-94797619D01*
X237799523Y-94892857D01*
X237799523Y-94988095D01*
X237751904Y-95130952D01*
X237180476Y-95702380D01*
X237799523Y-95702380D01*
X238704285Y-94702380D02*
X238228095Y-94702380D01*
X238180476Y-95178571D01*
X238228095Y-95130952D01*
X238323333Y-95083333D01*
X238561428Y-95083333D01*
X238656666Y-95130952D01*
X238704285Y-95178571D01*
X238751904Y-95273809D01*
X238751904Y-95511904D01*
X238704285Y-95607142D01*
X238656666Y-95654761D01*
X238561428Y-95702380D01*
X238323333Y-95702380D01*
X238228095Y-95654761D01*
X238180476Y-95607142D01*
X255325714Y-95702380D02*
X255325714Y-94702380D01*
X255563809Y-94702380D01*
X255706666Y-94750000D01*
X255801904Y-94845238D01*
X255849523Y-94940476D01*
X255897142Y-95130952D01*
X255897142Y-95273809D01*
X255849523Y-95464285D01*
X255801904Y-95559523D01*
X255706666Y-95654761D01*
X255563809Y-95702380D01*
X255325714Y-95702380D01*
X256278095Y-94797619D02*
X256325714Y-94750000D01*
X256420952Y-94702380D01*
X256659047Y-94702380D01*
X256754285Y-94750000D01*
X256801904Y-94797619D01*
X256849523Y-94892857D01*
X256849523Y-94988095D01*
X256801904Y-95130952D01*
X256230476Y-95702380D01*
X256849523Y-95702380D01*
X257706666Y-94702380D02*
X257516190Y-94702380D01*
X257420952Y-94750000D01*
X257373333Y-94797619D01*
X257278095Y-94940476D01*
X257230476Y-95130952D01*
X257230476Y-95511904D01*
X257278095Y-95607142D01*
X257325714Y-95654761D01*
X257420952Y-95702380D01*
X257611428Y-95702380D01*
X257706666Y-95654761D01*
X257754285Y-95607142D01*
X257801904Y-95511904D01*
X257801904Y-95273809D01*
X257754285Y-95178571D01*
X257706666Y-95130952D01*
X257611428Y-95083333D01*
X257420952Y-95083333D01*
X257325714Y-95130952D01*
X257278095Y-95178571D01*
X257230476Y-95273809D01*
X281995714Y-95702380D02*
X281995714Y-94702380D01*
X282233809Y-94702380D01*
X282376666Y-94750000D01*
X282471904Y-94845238D01*
X282519523Y-94940476D01*
X282567142Y-95130952D01*
X282567142Y-95273809D01*
X282519523Y-95464285D01*
X282471904Y-95559523D01*
X282376666Y-95654761D01*
X282233809Y-95702380D01*
X281995714Y-95702380D01*
X282948095Y-94797619D02*
X282995714Y-94750000D01*
X283090952Y-94702380D01*
X283329047Y-94702380D01*
X283424285Y-94750000D01*
X283471904Y-94797619D01*
X283519523Y-94892857D01*
X283519523Y-94988095D01*
X283471904Y-95130952D01*
X282900476Y-95702380D01*
X283519523Y-95702380D01*
X283852857Y-94702380D02*
X284519523Y-94702380D01*
X284090952Y-95702380D01*
X306125714Y-95702380D02*
X306125714Y-94702380D01*
X306363809Y-94702380D01*
X306506666Y-94750000D01*
X306601904Y-94845238D01*
X306649523Y-94940476D01*
X306697142Y-95130952D01*
X306697142Y-95273809D01*
X306649523Y-95464285D01*
X306601904Y-95559523D01*
X306506666Y-95654761D01*
X306363809Y-95702380D01*
X306125714Y-95702380D01*
X307078095Y-94797619D02*
X307125714Y-94750000D01*
X307220952Y-94702380D01*
X307459047Y-94702380D01*
X307554285Y-94750000D01*
X307601904Y-94797619D01*
X307649523Y-94892857D01*
X307649523Y-94988095D01*
X307601904Y-95130952D01*
X307030476Y-95702380D01*
X307649523Y-95702380D01*
X308220952Y-95130952D02*
X308125714Y-95083333D01*
X308078095Y-95035714D01*
X308030476Y-94940476D01*
X308030476Y-94892857D01*
X308078095Y-94797619D01*
X308125714Y-94750000D01*
X308220952Y-94702380D01*
X308411428Y-94702380D01*
X308506666Y-94750000D01*
X308554285Y-94797619D01*
X308601904Y-94892857D01*
X308601904Y-94940476D01*
X308554285Y-95035714D01*
X308506666Y-95083333D01*
X308411428Y-95130952D01*
X308220952Y-95130952D01*
X308125714Y-95178571D01*
X308078095Y-95226190D01*
X308030476Y-95321428D01*
X308030476Y-95511904D01*
X308078095Y-95607142D01*
X308125714Y-95654761D01*
X308220952Y-95702380D01*
X308411428Y-95702380D01*
X308506666Y-95654761D01*
X308554285Y-95607142D01*
X308601904Y-95511904D01*
X308601904Y-95321428D01*
X308554285Y-95226190D01*
X308506666Y-95178571D01*
X308411428Y-95130952D01*
X47045714Y-114752380D02*
X47045714Y-113752380D01*
X47283809Y-113752380D01*
X47426666Y-113800000D01*
X47521904Y-113895238D01*
X47569523Y-113990476D01*
X47617142Y-114180952D01*
X47617142Y-114323809D01*
X47569523Y-114514285D01*
X47521904Y-114609523D01*
X47426666Y-114704761D01*
X47283809Y-114752380D01*
X47045714Y-114752380D01*
X47998095Y-113847619D02*
X48045714Y-113800000D01*
X48140952Y-113752380D01*
X48379047Y-113752380D01*
X48474285Y-113800000D01*
X48521904Y-113847619D01*
X48569523Y-113942857D01*
X48569523Y-114038095D01*
X48521904Y-114180952D01*
X47950476Y-114752380D01*
X48569523Y-114752380D01*
X49045714Y-114752380D02*
X49236190Y-114752380D01*
X49331428Y-114704761D01*
X49379047Y-114657142D01*
X49474285Y-114514285D01*
X49521904Y-114323809D01*
X49521904Y-113942857D01*
X49474285Y-113847619D01*
X49426666Y-113800000D01*
X49331428Y-113752380D01*
X49140952Y-113752380D01*
X49045714Y-113800000D01*
X48998095Y-113847619D01*
X48950476Y-113942857D01*
X48950476Y-114180952D01*
X48998095Y-114276190D01*
X49045714Y-114323809D01*
X49140952Y-114371428D01*
X49331428Y-114371428D01*
X49426666Y-114323809D01*
X49474285Y-114276190D01*
X49521904Y-114180952D01*
X69905714Y-114752380D02*
X69905714Y-113752380D01*
X70143809Y-113752380D01*
X70286666Y-113800000D01*
X70381904Y-113895238D01*
X70429523Y-113990476D01*
X70477142Y-114180952D01*
X70477142Y-114323809D01*
X70429523Y-114514285D01*
X70381904Y-114609523D01*
X70286666Y-114704761D01*
X70143809Y-114752380D01*
X69905714Y-114752380D01*
X70810476Y-113752380D02*
X71429523Y-113752380D01*
X71096190Y-114133333D01*
X71239047Y-114133333D01*
X71334285Y-114180952D01*
X71381904Y-114228571D01*
X71429523Y-114323809D01*
X71429523Y-114561904D01*
X71381904Y-114657142D01*
X71334285Y-114704761D01*
X71239047Y-114752380D01*
X70953333Y-114752380D01*
X70858095Y-114704761D01*
X70810476Y-114657142D01*
X72048571Y-113752380D02*
X72143809Y-113752380D01*
X72239047Y-113800000D01*
X72286666Y-113847619D01*
X72334285Y-113942857D01*
X72381904Y-114133333D01*
X72381904Y-114371428D01*
X72334285Y-114561904D01*
X72286666Y-114657142D01*
X72239047Y-114704761D01*
X72143809Y-114752380D01*
X72048571Y-114752380D01*
X71953333Y-114704761D01*
X71905714Y-114657142D01*
X71858095Y-114561904D01*
X71810476Y-114371428D01*
X71810476Y-114133333D01*
X71858095Y-113942857D01*
X71905714Y-113847619D01*
X71953333Y-113800000D01*
X72048571Y-113752380D01*
X88955714Y-114752380D02*
X88955714Y-113752380D01*
X89193809Y-113752380D01*
X89336666Y-113800000D01*
X89431904Y-113895238D01*
X89479523Y-113990476D01*
X89527142Y-114180952D01*
X89527142Y-114323809D01*
X89479523Y-114514285D01*
X89431904Y-114609523D01*
X89336666Y-114704761D01*
X89193809Y-114752380D01*
X88955714Y-114752380D01*
X89860476Y-113752380D02*
X90479523Y-113752380D01*
X90146190Y-114133333D01*
X90289047Y-114133333D01*
X90384285Y-114180952D01*
X90431904Y-114228571D01*
X90479523Y-114323809D01*
X90479523Y-114561904D01*
X90431904Y-114657142D01*
X90384285Y-114704761D01*
X90289047Y-114752380D01*
X90003333Y-114752380D01*
X89908095Y-114704761D01*
X89860476Y-114657142D01*
X91431904Y-114752380D02*
X90860476Y-114752380D01*
X91146190Y-114752380D02*
X91146190Y-113752380D01*
X91050952Y-113895238D01*
X90955714Y-113990476D01*
X90860476Y-114038095D01*
X106735714Y-114752380D02*
X106735714Y-113752380D01*
X106973809Y-113752380D01*
X107116666Y-113800000D01*
X107211904Y-113895238D01*
X107259523Y-113990476D01*
X107307142Y-114180952D01*
X107307142Y-114323809D01*
X107259523Y-114514285D01*
X107211904Y-114609523D01*
X107116666Y-114704761D01*
X106973809Y-114752380D01*
X106735714Y-114752380D01*
X107640476Y-113752380D02*
X108259523Y-113752380D01*
X107926190Y-114133333D01*
X108069047Y-114133333D01*
X108164285Y-114180952D01*
X108211904Y-114228571D01*
X108259523Y-114323809D01*
X108259523Y-114561904D01*
X108211904Y-114657142D01*
X108164285Y-114704761D01*
X108069047Y-114752380D01*
X107783333Y-114752380D01*
X107688095Y-114704761D01*
X107640476Y-114657142D01*
X108640476Y-113847619D02*
X108688095Y-113800000D01*
X108783333Y-113752380D01*
X109021428Y-113752380D01*
X109116666Y-113800000D01*
X109164285Y-113847619D01*
X109211904Y-113942857D01*
X109211904Y-114038095D01*
X109164285Y-114180952D01*
X108592857Y-114752380D01*
X109211904Y-114752380D01*
X127055714Y-114752380D02*
X127055714Y-113752380D01*
X127293809Y-113752380D01*
X127436666Y-113800000D01*
X127531904Y-113895238D01*
X127579523Y-113990476D01*
X127627142Y-114180952D01*
X127627142Y-114323809D01*
X127579523Y-114514285D01*
X127531904Y-114609523D01*
X127436666Y-114704761D01*
X127293809Y-114752380D01*
X127055714Y-114752380D01*
X127960476Y-113752380D02*
X128579523Y-113752380D01*
X128246190Y-114133333D01*
X128389047Y-114133333D01*
X128484285Y-114180952D01*
X128531904Y-114228571D01*
X128579523Y-114323809D01*
X128579523Y-114561904D01*
X128531904Y-114657142D01*
X128484285Y-114704761D01*
X128389047Y-114752380D01*
X128103333Y-114752380D01*
X128008095Y-114704761D01*
X127960476Y-114657142D01*
X128912857Y-113752380D02*
X129531904Y-113752380D01*
X129198571Y-114133333D01*
X129341428Y-114133333D01*
X129436666Y-114180952D01*
X129484285Y-114228571D01*
X129531904Y-114323809D01*
X129531904Y-114561904D01*
X129484285Y-114657142D01*
X129436666Y-114704761D01*
X129341428Y-114752380D01*
X129055714Y-114752380D01*
X128960476Y-114704761D01*
X128912857Y-114657142D01*
X144835714Y-114752380D02*
X144835714Y-113752380D01*
X145073809Y-113752380D01*
X145216666Y-113800000D01*
X145311904Y-113895238D01*
X145359523Y-113990476D01*
X145407142Y-114180952D01*
X145407142Y-114323809D01*
X145359523Y-114514285D01*
X145311904Y-114609523D01*
X145216666Y-114704761D01*
X145073809Y-114752380D01*
X144835714Y-114752380D01*
X145740476Y-113752380D02*
X146359523Y-113752380D01*
X146026190Y-114133333D01*
X146169047Y-114133333D01*
X146264285Y-114180952D01*
X146311904Y-114228571D01*
X146359523Y-114323809D01*
X146359523Y-114561904D01*
X146311904Y-114657142D01*
X146264285Y-114704761D01*
X146169047Y-114752380D01*
X145883333Y-114752380D01*
X145788095Y-114704761D01*
X145740476Y-114657142D01*
X147216666Y-114085714D02*
X147216666Y-114752380D01*
X146978571Y-113704761D02*
X146740476Y-114419047D01*
X147359523Y-114419047D01*
X163885714Y-114752380D02*
X163885714Y-113752380D01*
X164123809Y-113752380D01*
X164266666Y-113800000D01*
X164361904Y-113895238D01*
X164409523Y-113990476D01*
X164457142Y-114180952D01*
X164457142Y-114323809D01*
X164409523Y-114514285D01*
X164361904Y-114609523D01*
X164266666Y-114704761D01*
X164123809Y-114752380D01*
X163885714Y-114752380D01*
X164790476Y-113752380D02*
X165409523Y-113752380D01*
X165076190Y-114133333D01*
X165219047Y-114133333D01*
X165314285Y-114180952D01*
X165361904Y-114228571D01*
X165409523Y-114323809D01*
X165409523Y-114561904D01*
X165361904Y-114657142D01*
X165314285Y-114704761D01*
X165219047Y-114752380D01*
X164933333Y-114752380D01*
X164838095Y-114704761D01*
X164790476Y-114657142D01*
X166314285Y-113752380D02*
X165838095Y-113752380D01*
X165790476Y-114228571D01*
X165838095Y-114180952D01*
X165933333Y-114133333D01*
X166171428Y-114133333D01*
X166266666Y-114180952D01*
X166314285Y-114228571D01*
X166361904Y-114323809D01*
X166361904Y-114561904D01*
X166314285Y-114657142D01*
X166266666Y-114704761D01*
X166171428Y-114752380D01*
X165933333Y-114752380D01*
X165838095Y-114704761D01*
X165790476Y-114657142D01*
X182935714Y-114752380D02*
X182935714Y-113752380D01*
X183173809Y-113752380D01*
X183316666Y-113800000D01*
X183411904Y-113895238D01*
X183459523Y-113990476D01*
X183507142Y-114180952D01*
X183507142Y-114323809D01*
X183459523Y-114514285D01*
X183411904Y-114609523D01*
X183316666Y-114704761D01*
X183173809Y-114752380D01*
X182935714Y-114752380D01*
X183840476Y-113752380D02*
X184459523Y-113752380D01*
X184126190Y-114133333D01*
X184269047Y-114133333D01*
X184364285Y-114180952D01*
X184411904Y-114228571D01*
X184459523Y-114323809D01*
X184459523Y-114561904D01*
X184411904Y-114657142D01*
X184364285Y-114704761D01*
X184269047Y-114752380D01*
X183983333Y-114752380D01*
X183888095Y-114704761D01*
X183840476Y-114657142D01*
X185316666Y-113752380D02*
X185126190Y-113752380D01*
X185030952Y-113800000D01*
X184983333Y-113847619D01*
X184888095Y-113990476D01*
X184840476Y-114180952D01*
X184840476Y-114561904D01*
X184888095Y-114657142D01*
X184935714Y-114704761D01*
X185030952Y-114752380D01*
X185221428Y-114752380D01*
X185316666Y-114704761D01*
X185364285Y-114657142D01*
X185411904Y-114561904D01*
X185411904Y-114323809D01*
X185364285Y-114228571D01*
X185316666Y-114180952D01*
X185221428Y-114133333D01*
X185030952Y-114133333D01*
X184935714Y-114180952D01*
X184888095Y-114228571D01*
X184840476Y-114323809D01*
X201985714Y-114752380D02*
X201985714Y-113752380D01*
X202223809Y-113752380D01*
X202366666Y-113800000D01*
X202461904Y-113895238D01*
X202509523Y-113990476D01*
X202557142Y-114180952D01*
X202557142Y-114323809D01*
X202509523Y-114514285D01*
X202461904Y-114609523D01*
X202366666Y-114704761D01*
X202223809Y-114752380D01*
X201985714Y-114752380D01*
X202890476Y-113752380D02*
X203509523Y-113752380D01*
X203176190Y-114133333D01*
X203319047Y-114133333D01*
X203414285Y-114180952D01*
X203461904Y-114228571D01*
X203509523Y-114323809D01*
X203509523Y-114561904D01*
X203461904Y-114657142D01*
X203414285Y-114704761D01*
X203319047Y-114752380D01*
X203033333Y-114752380D01*
X202938095Y-114704761D01*
X202890476Y-114657142D01*
X203842857Y-113752380D02*
X204509523Y-113752380D01*
X204080952Y-114752380D01*
X221035714Y-114752380D02*
X221035714Y-113752380D01*
X221273809Y-113752380D01*
X221416666Y-113800000D01*
X221511904Y-113895238D01*
X221559523Y-113990476D01*
X221607142Y-114180952D01*
X221607142Y-114323809D01*
X221559523Y-114514285D01*
X221511904Y-114609523D01*
X221416666Y-114704761D01*
X221273809Y-114752380D01*
X221035714Y-114752380D01*
X221940476Y-113752380D02*
X222559523Y-113752380D01*
X222226190Y-114133333D01*
X222369047Y-114133333D01*
X222464285Y-114180952D01*
X222511904Y-114228571D01*
X222559523Y-114323809D01*
X222559523Y-114561904D01*
X222511904Y-114657142D01*
X222464285Y-114704761D01*
X222369047Y-114752380D01*
X222083333Y-114752380D01*
X221988095Y-114704761D01*
X221940476Y-114657142D01*
X223130952Y-114180952D02*
X223035714Y-114133333D01*
X222988095Y-114085714D01*
X222940476Y-113990476D01*
X222940476Y-113942857D01*
X222988095Y-113847619D01*
X223035714Y-113800000D01*
X223130952Y-113752380D01*
X223321428Y-113752380D01*
X223416666Y-113800000D01*
X223464285Y-113847619D01*
X223511904Y-113942857D01*
X223511904Y-113990476D01*
X223464285Y-114085714D01*
X223416666Y-114133333D01*
X223321428Y-114180952D01*
X223130952Y-114180952D01*
X223035714Y-114228571D01*
X222988095Y-114276190D01*
X222940476Y-114371428D01*
X222940476Y-114561904D01*
X222988095Y-114657142D01*
X223035714Y-114704761D01*
X223130952Y-114752380D01*
X223321428Y-114752380D01*
X223416666Y-114704761D01*
X223464285Y-114657142D01*
X223511904Y-114561904D01*
X223511904Y-114371428D01*
X223464285Y-114276190D01*
X223416666Y-114228571D01*
X223321428Y-114180952D01*
X240085714Y-114752380D02*
X240085714Y-113752380D01*
X240323809Y-113752380D01*
X240466666Y-113800000D01*
X240561904Y-113895238D01*
X240609523Y-113990476D01*
X240657142Y-114180952D01*
X240657142Y-114323809D01*
X240609523Y-114514285D01*
X240561904Y-114609523D01*
X240466666Y-114704761D01*
X240323809Y-114752380D01*
X240085714Y-114752380D01*
X240990476Y-113752380D02*
X241609523Y-113752380D01*
X241276190Y-114133333D01*
X241419047Y-114133333D01*
X241514285Y-114180952D01*
X241561904Y-114228571D01*
X241609523Y-114323809D01*
X241609523Y-114561904D01*
X241561904Y-114657142D01*
X241514285Y-114704761D01*
X241419047Y-114752380D01*
X241133333Y-114752380D01*
X241038095Y-114704761D01*
X240990476Y-114657142D01*
X242085714Y-114752380D02*
X242276190Y-114752380D01*
X242371428Y-114704761D01*
X242419047Y-114657142D01*
X242514285Y-114514285D01*
X242561904Y-114323809D01*
X242561904Y-113942857D01*
X242514285Y-113847619D01*
X242466666Y-113800000D01*
X242371428Y-113752380D01*
X242180952Y-113752380D01*
X242085714Y-113800000D01*
X242038095Y-113847619D01*
X241990476Y-113942857D01*
X241990476Y-114180952D01*
X242038095Y-114276190D01*
X242085714Y-114323809D01*
X242180952Y-114371428D01*
X242371428Y-114371428D01*
X242466666Y-114323809D01*
X242514285Y-114276190D01*
X242561904Y-114180952D01*
X259135714Y-114752380D02*
X259135714Y-113752380D01*
X259373809Y-113752380D01*
X259516666Y-113800000D01*
X259611904Y-113895238D01*
X259659523Y-113990476D01*
X259707142Y-114180952D01*
X259707142Y-114323809D01*
X259659523Y-114514285D01*
X259611904Y-114609523D01*
X259516666Y-114704761D01*
X259373809Y-114752380D01*
X259135714Y-114752380D01*
X260564285Y-114085714D02*
X260564285Y-114752380D01*
X260326190Y-113704761D02*
X260088095Y-114419047D01*
X260707142Y-114419047D01*
X261278571Y-113752380D02*
X261373809Y-113752380D01*
X261469047Y-113800000D01*
X261516666Y-113847619D01*
X261564285Y-113942857D01*
X261611904Y-114133333D01*
X261611904Y-114371428D01*
X261564285Y-114561904D01*
X261516666Y-114657142D01*
X261469047Y-114704761D01*
X261373809Y-114752380D01*
X261278571Y-114752380D01*
X261183333Y-114704761D01*
X261135714Y-114657142D01*
X261088095Y-114561904D01*
X261040476Y-114371428D01*
X261040476Y-114133333D01*
X261088095Y-113942857D01*
X261135714Y-113847619D01*
X261183333Y-113800000D01*
X261278571Y-113752380D01*
X282392380Y-107894285D02*
X281392380Y-107894285D01*
X281392380Y-107656190D01*
X281440000Y-107513333D01*
X281535238Y-107418095D01*
X281630476Y-107370476D01*
X281820952Y-107322857D01*
X281963809Y-107322857D01*
X282154285Y-107370476D01*
X282249523Y-107418095D01*
X282344761Y-107513333D01*
X282392380Y-107656190D01*
X282392380Y-107894285D01*
X281725714Y-106465714D02*
X282392380Y-106465714D01*
X281344761Y-106703809D02*
X282059047Y-106941904D01*
X282059047Y-106322857D01*
X282392380Y-105418095D02*
X282392380Y-105989523D01*
X282392380Y-105703809D02*
X281392380Y-105703809D01*
X281535238Y-105799047D01*
X281630476Y-105894285D01*
X281678095Y-105989523D01*
X71572380Y-126944285D02*
X70572380Y-126944285D01*
X70572380Y-126706190D01*
X70620000Y-126563333D01*
X70715238Y-126468095D01*
X70810476Y-126420476D01*
X71000952Y-126372857D01*
X71143809Y-126372857D01*
X71334285Y-126420476D01*
X71429523Y-126468095D01*
X71524761Y-126563333D01*
X71572380Y-126706190D01*
X71572380Y-126944285D01*
X70905714Y-125515714D02*
X71572380Y-125515714D01*
X70524761Y-125753809D02*
X71239047Y-125991904D01*
X71239047Y-125372857D01*
X70667619Y-125039523D02*
X70620000Y-124991904D01*
X70572380Y-124896666D01*
X70572380Y-124658571D01*
X70620000Y-124563333D01*
X70667619Y-124515714D01*
X70762857Y-124468095D01*
X70858095Y-124468095D01*
X71000952Y-124515714D01*
X71572380Y-125087142D01*
X71572380Y-124468095D01*
X78795714Y-133802380D02*
X78795714Y-132802380D01*
X79033809Y-132802380D01*
X79176666Y-132850000D01*
X79271904Y-132945238D01*
X79319523Y-133040476D01*
X79367142Y-133230952D01*
X79367142Y-133373809D01*
X79319523Y-133564285D01*
X79271904Y-133659523D01*
X79176666Y-133754761D01*
X79033809Y-133802380D01*
X78795714Y-133802380D01*
X80224285Y-133135714D02*
X80224285Y-133802380D01*
X79986190Y-132754761D02*
X79748095Y-133469047D01*
X80367142Y-133469047D01*
X80652857Y-132802380D02*
X81271904Y-132802380D01*
X80938571Y-133183333D01*
X81081428Y-133183333D01*
X81176666Y-133230952D01*
X81224285Y-133278571D01*
X81271904Y-133373809D01*
X81271904Y-133611904D01*
X81224285Y-133707142D01*
X81176666Y-133754761D01*
X81081428Y-133802380D01*
X80795714Y-133802380D01*
X80700476Y-133754761D01*
X80652857Y-133707142D01*
X96575714Y-133802380D02*
X96575714Y-132802380D01*
X96813809Y-132802380D01*
X96956666Y-132850000D01*
X97051904Y-132945238D01*
X97099523Y-133040476D01*
X97147142Y-133230952D01*
X97147142Y-133373809D01*
X97099523Y-133564285D01*
X97051904Y-133659523D01*
X96956666Y-133754761D01*
X96813809Y-133802380D01*
X96575714Y-133802380D01*
X98004285Y-133135714D02*
X98004285Y-133802380D01*
X97766190Y-132754761D02*
X97528095Y-133469047D01*
X98147142Y-133469047D01*
X98956666Y-133135714D02*
X98956666Y-133802380D01*
X98718571Y-132754761D02*
X98480476Y-133469047D01*
X99099523Y-133469047D01*
X118165714Y-133802380D02*
X118165714Y-132802380D01*
X118403809Y-132802380D01*
X118546666Y-132850000D01*
X118641904Y-132945238D01*
X118689523Y-133040476D01*
X118737142Y-133230952D01*
X118737142Y-133373809D01*
X118689523Y-133564285D01*
X118641904Y-133659523D01*
X118546666Y-133754761D01*
X118403809Y-133802380D01*
X118165714Y-133802380D01*
X119594285Y-133135714D02*
X119594285Y-133802380D01*
X119356190Y-132754761D02*
X119118095Y-133469047D01*
X119737142Y-133469047D01*
X120594285Y-132802380D02*
X120118095Y-132802380D01*
X120070476Y-133278571D01*
X120118095Y-133230952D01*
X120213333Y-133183333D01*
X120451428Y-133183333D01*
X120546666Y-133230952D01*
X120594285Y-133278571D01*
X120641904Y-133373809D01*
X120641904Y-133611904D01*
X120594285Y-133707142D01*
X120546666Y-133754761D01*
X120451428Y-133802380D01*
X120213333Y-133802380D01*
X120118095Y-133754761D01*
X120070476Y-133707142D01*
X135945714Y-133802380D02*
X135945714Y-132802380D01*
X136183809Y-132802380D01*
X136326666Y-132850000D01*
X136421904Y-132945238D01*
X136469523Y-133040476D01*
X136517142Y-133230952D01*
X136517142Y-133373809D01*
X136469523Y-133564285D01*
X136421904Y-133659523D01*
X136326666Y-133754761D01*
X136183809Y-133802380D01*
X135945714Y-133802380D01*
X137374285Y-133135714D02*
X137374285Y-133802380D01*
X137136190Y-132754761D02*
X136898095Y-133469047D01*
X137517142Y-133469047D01*
X138326666Y-132802380D02*
X138136190Y-132802380D01*
X138040952Y-132850000D01*
X137993333Y-132897619D01*
X137898095Y-133040476D01*
X137850476Y-133230952D01*
X137850476Y-133611904D01*
X137898095Y-133707142D01*
X137945714Y-133754761D01*
X138040952Y-133802380D01*
X138231428Y-133802380D01*
X138326666Y-133754761D01*
X138374285Y-133707142D01*
X138421904Y-133611904D01*
X138421904Y-133373809D01*
X138374285Y-133278571D01*
X138326666Y-133230952D01*
X138231428Y-133183333D01*
X138040952Y-133183333D01*
X137945714Y-133230952D01*
X137898095Y-133278571D01*
X137850476Y-133373809D01*
X154995714Y-133802380D02*
X154995714Y-132802380D01*
X155233809Y-132802380D01*
X155376666Y-132850000D01*
X155471904Y-132945238D01*
X155519523Y-133040476D01*
X155567142Y-133230952D01*
X155567142Y-133373809D01*
X155519523Y-133564285D01*
X155471904Y-133659523D01*
X155376666Y-133754761D01*
X155233809Y-133802380D01*
X154995714Y-133802380D01*
X156424285Y-133135714D02*
X156424285Y-133802380D01*
X156186190Y-132754761D02*
X155948095Y-133469047D01*
X156567142Y-133469047D01*
X156852857Y-132802380D02*
X157519523Y-132802380D01*
X157090952Y-133802380D01*
X174045714Y-133802380D02*
X174045714Y-132802380D01*
X174283809Y-132802380D01*
X174426666Y-132850000D01*
X174521904Y-132945238D01*
X174569523Y-133040476D01*
X174617142Y-133230952D01*
X174617142Y-133373809D01*
X174569523Y-133564285D01*
X174521904Y-133659523D01*
X174426666Y-133754761D01*
X174283809Y-133802380D01*
X174045714Y-133802380D01*
X175474285Y-133135714D02*
X175474285Y-133802380D01*
X175236190Y-132754761D02*
X174998095Y-133469047D01*
X175617142Y-133469047D01*
X176140952Y-133230952D02*
X176045714Y-133183333D01*
X175998095Y-133135714D01*
X175950476Y-133040476D01*
X175950476Y-132992857D01*
X175998095Y-132897619D01*
X176045714Y-132850000D01*
X176140952Y-132802380D01*
X176331428Y-132802380D01*
X176426666Y-132850000D01*
X176474285Y-132897619D01*
X176521904Y-132992857D01*
X176521904Y-133040476D01*
X176474285Y-133135714D01*
X176426666Y-133183333D01*
X176331428Y-133230952D01*
X176140952Y-133230952D01*
X176045714Y-133278571D01*
X175998095Y-133326190D01*
X175950476Y-133421428D01*
X175950476Y-133611904D01*
X175998095Y-133707142D01*
X176045714Y-133754761D01*
X176140952Y-133802380D01*
X176331428Y-133802380D01*
X176426666Y-133754761D01*
X176474285Y-133707142D01*
X176521904Y-133611904D01*
X176521904Y-133421428D01*
X176474285Y-133326190D01*
X176426666Y-133278571D01*
X176331428Y-133230952D01*
X193095714Y-133802380D02*
X193095714Y-132802380D01*
X193333809Y-132802380D01*
X193476666Y-132850000D01*
X193571904Y-132945238D01*
X193619523Y-133040476D01*
X193667142Y-133230952D01*
X193667142Y-133373809D01*
X193619523Y-133564285D01*
X193571904Y-133659523D01*
X193476666Y-133754761D01*
X193333809Y-133802380D01*
X193095714Y-133802380D01*
X194524285Y-133135714D02*
X194524285Y-133802380D01*
X194286190Y-132754761D02*
X194048095Y-133469047D01*
X194667142Y-133469047D01*
X195095714Y-133802380D02*
X195286190Y-133802380D01*
X195381428Y-133754761D01*
X195429047Y-133707142D01*
X195524285Y-133564285D01*
X195571904Y-133373809D01*
X195571904Y-132992857D01*
X195524285Y-132897619D01*
X195476666Y-132850000D01*
X195381428Y-132802380D01*
X195190952Y-132802380D01*
X195095714Y-132850000D01*
X195048095Y-132897619D01*
X195000476Y-132992857D01*
X195000476Y-133230952D01*
X195048095Y-133326190D01*
X195095714Y-133373809D01*
X195190952Y-133421428D01*
X195381428Y-133421428D01*
X195476666Y-133373809D01*
X195524285Y-133326190D01*
X195571904Y-133230952D01*
X217225714Y-133802380D02*
X217225714Y-132802380D01*
X217463809Y-132802380D01*
X217606666Y-132850000D01*
X217701904Y-132945238D01*
X217749523Y-133040476D01*
X217797142Y-133230952D01*
X217797142Y-133373809D01*
X217749523Y-133564285D01*
X217701904Y-133659523D01*
X217606666Y-133754761D01*
X217463809Y-133802380D01*
X217225714Y-133802380D01*
X218701904Y-132802380D02*
X218225714Y-132802380D01*
X218178095Y-133278571D01*
X218225714Y-133230952D01*
X218320952Y-133183333D01*
X218559047Y-133183333D01*
X218654285Y-133230952D01*
X218701904Y-133278571D01*
X218749523Y-133373809D01*
X218749523Y-133611904D01*
X218701904Y-133707142D01*
X218654285Y-133754761D01*
X218559047Y-133802380D01*
X218320952Y-133802380D01*
X218225714Y-133754761D01*
X218178095Y-133707142D01*
X219368571Y-132802380D02*
X219463809Y-132802380D01*
X219559047Y-132850000D01*
X219606666Y-132897619D01*
X219654285Y-132992857D01*
X219701904Y-133183333D01*
X219701904Y-133421428D01*
X219654285Y-133611904D01*
X219606666Y-133707142D01*
X219559047Y-133754761D01*
X219463809Y-133802380D01*
X219368571Y-133802380D01*
X219273333Y-133754761D01*
X219225714Y-133707142D01*
X219178095Y-133611904D01*
X219130476Y-133421428D01*
X219130476Y-133183333D01*
X219178095Y-132992857D01*
X219225714Y-132897619D01*
X219273333Y-132850000D01*
X219368571Y-132802380D01*
X231195714Y-133802380D02*
X231195714Y-132802380D01*
X231433809Y-132802380D01*
X231576666Y-132850000D01*
X231671904Y-132945238D01*
X231719523Y-133040476D01*
X231767142Y-133230952D01*
X231767142Y-133373809D01*
X231719523Y-133564285D01*
X231671904Y-133659523D01*
X231576666Y-133754761D01*
X231433809Y-133802380D01*
X231195714Y-133802380D01*
X232671904Y-132802380D02*
X232195714Y-132802380D01*
X232148095Y-133278571D01*
X232195714Y-133230952D01*
X232290952Y-133183333D01*
X232529047Y-133183333D01*
X232624285Y-133230952D01*
X232671904Y-133278571D01*
X232719523Y-133373809D01*
X232719523Y-133611904D01*
X232671904Y-133707142D01*
X232624285Y-133754761D01*
X232529047Y-133802380D01*
X232290952Y-133802380D01*
X232195714Y-133754761D01*
X232148095Y-133707142D01*
X233671904Y-133802380D02*
X233100476Y-133802380D01*
X233386190Y-133802380D02*
X233386190Y-132802380D01*
X233290952Y-132945238D01*
X233195714Y-133040476D01*
X233100476Y-133088095D01*
X250245714Y-133802380D02*
X250245714Y-132802380D01*
X250483809Y-132802380D01*
X250626666Y-132850000D01*
X250721904Y-132945238D01*
X250769523Y-133040476D01*
X250817142Y-133230952D01*
X250817142Y-133373809D01*
X250769523Y-133564285D01*
X250721904Y-133659523D01*
X250626666Y-133754761D01*
X250483809Y-133802380D01*
X250245714Y-133802380D01*
X251721904Y-132802380D02*
X251245714Y-132802380D01*
X251198095Y-133278571D01*
X251245714Y-133230952D01*
X251340952Y-133183333D01*
X251579047Y-133183333D01*
X251674285Y-133230952D01*
X251721904Y-133278571D01*
X251769523Y-133373809D01*
X251769523Y-133611904D01*
X251721904Y-133707142D01*
X251674285Y-133754761D01*
X251579047Y-133802380D01*
X251340952Y-133802380D01*
X251245714Y-133754761D01*
X251198095Y-133707142D01*
X252150476Y-132897619D02*
X252198095Y-132850000D01*
X252293333Y-132802380D01*
X252531428Y-132802380D01*
X252626666Y-132850000D01*
X252674285Y-132897619D01*
X252721904Y-132992857D01*
X252721904Y-133088095D01*
X252674285Y-133230952D01*
X252102857Y-133802380D01*
X252721904Y-133802380D01*
X272232380Y-126944285D02*
X271232380Y-126944285D01*
X271232380Y-126706190D01*
X271280000Y-126563333D01*
X271375238Y-126468095D01*
X271470476Y-126420476D01*
X271660952Y-126372857D01*
X271803809Y-126372857D01*
X271994285Y-126420476D01*
X272089523Y-126468095D01*
X272184761Y-126563333D01*
X272232380Y-126706190D01*
X272232380Y-126944285D01*
X271232380Y-125468095D02*
X271232380Y-125944285D01*
X271708571Y-125991904D01*
X271660952Y-125944285D01*
X271613333Y-125849047D01*
X271613333Y-125610952D01*
X271660952Y-125515714D01*
X271708571Y-125468095D01*
X271803809Y-125420476D01*
X272041904Y-125420476D01*
X272137142Y-125468095D01*
X272184761Y-125515714D01*
X272232380Y-125610952D01*
X272232380Y-125849047D01*
X272184761Y-125944285D01*
X272137142Y-125991904D01*
X271232380Y-125087142D02*
X271232380Y-124468095D01*
X271613333Y-124801428D01*
X271613333Y-124658571D01*
X271660952Y-124563333D01*
X271708571Y-124515714D01*
X271803809Y-124468095D01*
X272041904Y-124468095D01*
X272137142Y-124515714D01*
X272184761Y-124563333D01*
X272232380Y-124658571D01*
X272232380Y-124944285D01*
X272184761Y-125039523D01*
X272137142Y-125087142D01*
X38155714Y-152852380D02*
X38155714Y-151852380D01*
X38393809Y-151852380D01*
X38536666Y-151900000D01*
X38631904Y-151995238D01*
X38679523Y-152090476D01*
X38727142Y-152280952D01*
X38727142Y-152423809D01*
X38679523Y-152614285D01*
X38631904Y-152709523D01*
X38536666Y-152804761D01*
X38393809Y-152852380D01*
X38155714Y-152852380D01*
X39631904Y-151852380D02*
X39155714Y-151852380D01*
X39108095Y-152328571D01*
X39155714Y-152280952D01*
X39250952Y-152233333D01*
X39489047Y-152233333D01*
X39584285Y-152280952D01*
X39631904Y-152328571D01*
X39679523Y-152423809D01*
X39679523Y-152661904D01*
X39631904Y-152757142D01*
X39584285Y-152804761D01*
X39489047Y-152852380D01*
X39250952Y-152852380D01*
X39155714Y-152804761D01*
X39108095Y-152757142D01*
X40536666Y-152185714D02*
X40536666Y-152852380D01*
X40298571Y-151804761D02*
X40060476Y-152519047D01*
X40679523Y-152519047D01*
X62285714Y-152852380D02*
X62285714Y-151852380D01*
X62523809Y-151852380D01*
X62666666Y-151900000D01*
X62761904Y-151995238D01*
X62809523Y-152090476D01*
X62857142Y-152280952D01*
X62857142Y-152423809D01*
X62809523Y-152614285D01*
X62761904Y-152709523D01*
X62666666Y-152804761D01*
X62523809Y-152852380D01*
X62285714Y-152852380D01*
X63761904Y-151852380D02*
X63285714Y-151852380D01*
X63238095Y-152328571D01*
X63285714Y-152280952D01*
X63380952Y-152233333D01*
X63619047Y-152233333D01*
X63714285Y-152280952D01*
X63761904Y-152328571D01*
X63809523Y-152423809D01*
X63809523Y-152661904D01*
X63761904Y-152757142D01*
X63714285Y-152804761D01*
X63619047Y-152852380D01*
X63380952Y-152852380D01*
X63285714Y-152804761D01*
X63238095Y-152757142D01*
X64714285Y-151852380D02*
X64238095Y-151852380D01*
X64190476Y-152328571D01*
X64238095Y-152280952D01*
X64333333Y-152233333D01*
X64571428Y-152233333D01*
X64666666Y-152280952D01*
X64714285Y-152328571D01*
X64761904Y-152423809D01*
X64761904Y-152661904D01*
X64714285Y-152757142D01*
X64666666Y-152804761D01*
X64571428Y-152852380D01*
X64333333Y-152852380D01*
X64238095Y-152804761D01*
X64190476Y-152757142D01*
X85145714Y-152852380D02*
X85145714Y-151852380D01*
X85383809Y-151852380D01*
X85526666Y-151900000D01*
X85621904Y-151995238D01*
X85669523Y-152090476D01*
X85717142Y-152280952D01*
X85717142Y-152423809D01*
X85669523Y-152614285D01*
X85621904Y-152709523D01*
X85526666Y-152804761D01*
X85383809Y-152852380D01*
X85145714Y-152852380D01*
X86621904Y-151852380D02*
X86145714Y-151852380D01*
X86098095Y-152328571D01*
X86145714Y-152280952D01*
X86240952Y-152233333D01*
X86479047Y-152233333D01*
X86574285Y-152280952D01*
X86621904Y-152328571D01*
X86669523Y-152423809D01*
X86669523Y-152661904D01*
X86621904Y-152757142D01*
X86574285Y-152804761D01*
X86479047Y-152852380D01*
X86240952Y-152852380D01*
X86145714Y-152804761D01*
X86098095Y-152757142D01*
X87526666Y-151852380D02*
X87336190Y-151852380D01*
X87240952Y-151900000D01*
X87193333Y-151947619D01*
X87098095Y-152090476D01*
X87050476Y-152280952D01*
X87050476Y-152661904D01*
X87098095Y-152757142D01*
X87145714Y-152804761D01*
X87240952Y-152852380D01*
X87431428Y-152852380D01*
X87526666Y-152804761D01*
X87574285Y-152757142D01*
X87621904Y-152661904D01*
X87621904Y-152423809D01*
X87574285Y-152328571D01*
X87526666Y-152280952D01*
X87431428Y-152233333D01*
X87240952Y-152233333D01*
X87145714Y-152280952D01*
X87098095Y-152328571D01*
X87050476Y-152423809D01*
X151582380Y-145994285D02*
X150582380Y-145994285D01*
X150582380Y-145756190D01*
X150630000Y-145613333D01*
X150725238Y-145518095D01*
X150820476Y-145470476D01*
X151010952Y-145422857D01*
X151153809Y-145422857D01*
X151344285Y-145470476D01*
X151439523Y-145518095D01*
X151534761Y-145613333D01*
X151582380Y-145756190D01*
X151582380Y-145994285D01*
X150582380Y-144518095D02*
X150582380Y-144994285D01*
X151058571Y-145041904D01*
X151010952Y-144994285D01*
X150963333Y-144899047D01*
X150963333Y-144660952D01*
X151010952Y-144565714D01*
X151058571Y-144518095D01*
X151153809Y-144470476D01*
X151391904Y-144470476D01*
X151487142Y-144518095D01*
X151534761Y-144565714D01*
X151582380Y-144660952D01*
X151582380Y-144899047D01*
X151534761Y-144994285D01*
X151487142Y-145041904D01*
X150582380Y-144137142D02*
X150582380Y-143470476D01*
X151582380Y-143899047D01*
X228655714Y-152852380D02*
X228655714Y-151852380D01*
X228893809Y-151852380D01*
X229036666Y-151900000D01*
X229131904Y-151995238D01*
X229179523Y-152090476D01*
X229227142Y-152280952D01*
X229227142Y-152423809D01*
X229179523Y-152614285D01*
X229131904Y-152709523D01*
X229036666Y-152804761D01*
X228893809Y-152852380D01*
X228655714Y-152852380D01*
X230131904Y-151852380D02*
X229655714Y-151852380D01*
X229608095Y-152328571D01*
X229655714Y-152280952D01*
X229750952Y-152233333D01*
X229989047Y-152233333D01*
X230084285Y-152280952D01*
X230131904Y-152328571D01*
X230179523Y-152423809D01*
X230179523Y-152661904D01*
X230131904Y-152757142D01*
X230084285Y-152804761D01*
X229989047Y-152852380D01*
X229750952Y-152852380D01*
X229655714Y-152804761D01*
X229608095Y-152757142D01*
X230750952Y-152280952D02*
X230655714Y-152233333D01*
X230608095Y-152185714D01*
X230560476Y-152090476D01*
X230560476Y-152042857D01*
X230608095Y-151947619D01*
X230655714Y-151900000D01*
X230750952Y-151852380D01*
X230941428Y-151852380D01*
X231036666Y-151900000D01*
X231084285Y-151947619D01*
X231131904Y-152042857D01*
X231131904Y-152090476D01*
X231084285Y-152185714D01*
X231036666Y-152233333D01*
X230941428Y-152280952D01*
X230750952Y-152280952D01*
X230655714Y-152328571D01*
X230608095Y-152376190D01*
X230560476Y-152471428D01*
X230560476Y-152661904D01*
X230608095Y-152757142D01*
X230655714Y-152804761D01*
X230750952Y-152852380D01*
X230941428Y-152852380D01*
X231036666Y-152804761D01*
X231084285Y-152757142D01*
X231131904Y-152661904D01*
X231131904Y-152471428D01*
X231084285Y-152376190D01*
X231036666Y-152328571D01*
X230941428Y-152280952D01*
X252785714Y-152852380D02*
X252785714Y-151852380D01*
X253023809Y-151852380D01*
X253166666Y-151900000D01*
X253261904Y-151995238D01*
X253309523Y-152090476D01*
X253357142Y-152280952D01*
X253357142Y-152423809D01*
X253309523Y-152614285D01*
X253261904Y-152709523D01*
X253166666Y-152804761D01*
X253023809Y-152852380D01*
X252785714Y-152852380D01*
X254261904Y-151852380D02*
X253785714Y-151852380D01*
X253738095Y-152328571D01*
X253785714Y-152280952D01*
X253880952Y-152233333D01*
X254119047Y-152233333D01*
X254214285Y-152280952D01*
X254261904Y-152328571D01*
X254309523Y-152423809D01*
X254309523Y-152661904D01*
X254261904Y-152757142D01*
X254214285Y-152804761D01*
X254119047Y-152852380D01*
X253880952Y-152852380D01*
X253785714Y-152804761D01*
X253738095Y-152757142D01*
X254785714Y-152852380D02*
X254976190Y-152852380D01*
X255071428Y-152804761D01*
X255119047Y-152757142D01*
X255214285Y-152614285D01*
X255261904Y-152423809D01*
X255261904Y-152042857D01*
X255214285Y-151947619D01*
X255166666Y-151900000D01*
X255071428Y-151852380D01*
X254880952Y-151852380D01*
X254785714Y-151900000D01*
X254738095Y-151947619D01*
X254690476Y-152042857D01*
X254690476Y-152280952D01*
X254738095Y-152376190D01*
X254785714Y-152423809D01*
X254880952Y-152471428D01*
X255071428Y-152471428D01*
X255166666Y-152423809D01*
X255214285Y-152376190D01*
X255261904Y-152280952D01*
X275645714Y-152852380D02*
X275645714Y-151852380D01*
X275883809Y-151852380D01*
X276026666Y-151900000D01*
X276121904Y-151995238D01*
X276169523Y-152090476D01*
X276217142Y-152280952D01*
X276217142Y-152423809D01*
X276169523Y-152614285D01*
X276121904Y-152709523D01*
X276026666Y-152804761D01*
X275883809Y-152852380D01*
X275645714Y-152852380D01*
X277074285Y-151852380D02*
X276883809Y-151852380D01*
X276788571Y-151900000D01*
X276740952Y-151947619D01*
X276645714Y-152090476D01*
X276598095Y-152280952D01*
X276598095Y-152661904D01*
X276645714Y-152757142D01*
X276693333Y-152804761D01*
X276788571Y-152852380D01*
X276979047Y-152852380D01*
X277074285Y-152804761D01*
X277121904Y-152757142D01*
X277169523Y-152661904D01*
X277169523Y-152423809D01*
X277121904Y-152328571D01*
X277074285Y-152280952D01*
X276979047Y-152233333D01*
X276788571Y-152233333D01*
X276693333Y-152280952D01*
X276645714Y-152328571D01*
X276598095Y-152423809D01*
X277788571Y-151852380D02*
X277883809Y-151852380D01*
X277979047Y-151900000D01*
X278026666Y-151947619D01*
X278074285Y-152042857D01*
X278121904Y-152233333D01*
X278121904Y-152471428D01*
X278074285Y-152661904D01*
X278026666Y-152757142D01*
X277979047Y-152804761D01*
X277883809Y-152852380D01*
X277788571Y-152852380D01*
X277693333Y-152804761D01*
X277645714Y-152757142D01*
X277598095Y-152661904D01*
X277550476Y-152471428D01*
X277550476Y-152233333D01*
X277598095Y-152042857D01*
X277645714Y-151947619D01*
X277693333Y-151900000D01*
X277788571Y-151852380D01*
X299775714Y-152852380D02*
X299775714Y-151852380D01*
X300013809Y-151852380D01*
X300156666Y-151900000D01*
X300251904Y-151995238D01*
X300299523Y-152090476D01*
X300347142Y-152280952D01*
X300347142Y-152423809D01*
X300299523Y-152614285D01*
X300251904Y-152709523D01*
X300156666Y-152804761D01*
X300013809Y-152852380D01*
X299775714Y-152852380D01*
X301204285Y-151852380D02*
X301013809Y-151852380D01*
X300918571Y-151900000D01*
X300870952Y-151947619D01*
X300775714Y-152090476D01*
X300728095Y-152280952D01*
X300728095Y-152661904D01*
X300775714Y-152757142D01*
X300823333Y-152804761D01*
X300918571Y-152852380D01*
X301109047Y-152852380D01*
X301204285Y-152804761D01*
X301251904Y-152757142D01*
X301299523Y-152661904D01*
X301299523Y-152423809D01*
X301251904Y-152328571D01*
X301204285Y-152280952D01*
X301109047Y-152233333D01*
X300918571Y-152233333D01*
X300823333Y-152280952D01*
X300775714Y-152328571D01*
X300728095Y-152423809D01*
X302251904Y-152852380D02*
X301680476Y-152852380D01*
X301966190Y-152852380D02*
X301966190Y-151852380D01*
X301870952Y-151995238D01*
X301775714Y-152090476D01*
X301680476Y-152138095D01*
X41846666Y-59840761D02*
X41989523Y-59888380D01*
X42227619Y-59888380D01*
X42322857Y-59840761D01*
X42370476Y-59793142D01*
X42418095Y-59697904D01*
X42418095Y-59602666D01*
X42370476Y-59507428D01*
X42322857Y-59459809D01*
X42227619Y-59412190D01*
X42037142Y-59364571D01*
X41941904Y-59316952D01*
X41894285Y-59269333D01*
X41846666Y-59174095D01*
X41846666Y-59078857D01*
X41894285Y-58983619D01*
X41941904Y-58936000D01*
X42037142Y-58888380D01*
X42275238Y-58888380D01*
X42418095Y-58936000D01*
X42751428Y-58888380D02*
X42989523Y-59888380D01*
X43180000Y-59174095D01*
X43370476Y-59888380D01*
X43608571Y-58888380D01*
X44513333Y-59888380D02*
X43941904Y-59888380D01*
X44227619Y-59888380D02*
X44227619Y-58888380D01*
X44132380Y-59031238D01*
X44037142Y-59126476D01*
X43941904Y-59174095D01*
X60896666Y-59840761D02*
X61039523Y-59888380D01*
X61277619Y-59888380D01*
X61372857Y-59840761D01*
X61420476Y-59793142D01*
X61468095Y-59697904D01*
X61468095Y-59602666D01*
X61420476Y-59507428D01*
X61372857Y-59459809D01*
X61277619Y-59412190D01*
X61087142Y-59364571D01*
X60991904Y-59316952D01*
X60944285Y-59269333D01*
X60896666Y-59174095D01*
X60896666Y-59078857D01*
X60944285Y-58983619D01*
X60991904Y-58936000D01*
X61087142Y-58888380D01*
X61325238Y-58888380D01*
X61468095Y-58936000D01*
X61801428Y-58888380D02*
X62039523Y-59888380D01*
X62230000Y-59174095D01*
X62420476Y-59888380D01*
X62658571Y-58888380D01*
X62991904Y-58983619D02*
X63039523Y-58936000D01*
X63134761Y-58888380D01*
X63372857Y-58888380D01*
X63468095Y-58936000D01*
X63515714Y-58983619D01*
X63563333Y-59078857D01*
X63563333Y-59174095D01*
X63515714Y-59316952D01*
X62944285Y-59888380D01*
X63563333Y-59888380D01*
X79946666Y-59840761D02*
X80089523Y-59888380D01*
X80327619Y-59888380D01*
X80422857Y-59840761D01*
X80470476Y-59793142D01*
X80518095Y-59697904D01*
X80518095Y-59602666D01*
X80470476Y-59507428D01*
X80422857Y-59459809D01*
X80327619Y-59412190D01*
X80137142Y-59364571D01*
X80041904Y-59316952D01*
X79994285Y-59269333D01*
X79946666Y-59174095D01*
X79946666Y-59078857D01*
X79994285Y-58983619D01*
X80041904Y-58936000D01*
X80137142Y-58888380D01*
X80375238Y-58888380D01*
X80518095Y-58936000D01*
X80851428Y-58888380D02*
X81089523Y-59888380D01*
X81280000Y-59174095D01*
X81470476Y-59888380D01*
X81708571Y-58888380D01*
X81994285Y-58888380D02*
X82613333Y-58888380D01*
X82280000Y-59269333D01*
X82422857Y-59269333D01*
X82518095Y-59316952D01*
X82565714Y-59364571D01*
X82613333Y-59459809D01*
X82613333Y-59697904D01*
X82565714Y-59793142D01*
X82518095Y-59840761D01*
X82422857Y-59888380D01*
X82137142Y-59888380D01*
X82041904Y-59840761D01*
X81994285Y-59793142D01*
X98996666Y-59840761D02*
X99139523Y-59888380D01*
X99377619Y-59888380D01*
X99472857Y-59840761D01*
X99520476Y-59793142D01*
X99568095Y-59697904D01*
X99568095Y-59602666D01*
X99520476Y-59507428D01*
X99472857Y-59459809D01*
X99377619Y-59412190D01*
X99187142Y-59364571D01*
X99091904Y-59316952D01*
X99044285Y-59269333D01*
X98996666Y-59174095D01*
X98996666Y-59078857D01*
X99044285Y-58983619D01*
X99091904Y-58936000D01*
X99187142Y-58888380D01*
X99425238Y-58888380D01*
X99568095Y-58936000D01*
X99901428Y-58888380D02*
X100139523Y-59888380D01*
X100330000Y-59174095D01*
X100520476Y-59888380D01*
X100758571Y-58888380D01*
X101568095Y-59221714D02*
X101568095Y-59888380D01*
X101330000Y-58840761D02*
X101091904Y-59555047D01*
X101710952Y-59555047D01*
X118046666Y-59840761D02*
X118189523Y-59888380D01*
X118427619Y-59888380D01*
X118522857Y-59840761D01*
X118570476Y-59793142D01*
X118618095Y-59697904D01*
X118618095Y-59602666D01*
X118570476Y-59507428D01*
X118522857Y-59459809D01*
X118427619Y-59412190D01*
X118237142Y-59364571D01*
X118141904Y-59316952D01*
X118094285Y-59269333D01*
X118046666Y-59174095D01*
X118046666Y-59078857D01*
X118094285Y-58983619D01*
X118141904Y-58936000D01*
X118237142Y-58888380D01*
X118475238Y-58888380D01*
X118618095Y-58936000D01*
X118951428Y-58888380D02*
X119189523Y-59888380D01*
X119380000Y-59174095D01*
X119570476Y-59888380D01*
X119808571Y-58888380D01*
X120665714Y-58888380D02*
X120189523Y-58888380D01*
X120141904Y-59364571D01*
X120189523Y-59316952D01*
X120284761Y-59269333D01*
X120522857Y-59269333D01*
X120618095Y-59316952D01*
X120665714Y-59364571D01*
X120713333Y-59459809D01*
X120713333Y-59697904D01*
X120665714Y-59793142D01*
X120618095Y-59840761D01*
X120522857Y-59888380D01*
X120284761Y-59888380D01*
X120189523Y-59840761D01*
X120141904Y-59793142D01*
X137096666Y-59840761D02*
X137239523Y-59888380D01*
X137477619Y-59888380D01*
X137572857Y-59840761D01*
X137620476Y-59793142D01*
X137668095Y-59697904D01*
X137668095Y-59602666D01*
X137620476Y-59507428D01*
X137572857Y-59459809D01*
X137477619Y-59412190D01*
X137287142Y-59364571D01*
X137191904Y-59316952D01*
X137144285Y-59269333D01*
X137096666Y-59174095D01*
X137096666Y-59078857D01*
X137144285Y-58983619D01*
X137191904Y-58936000D01*
X137287142Y-58888380D01*
X137525238Y-58888380D01*
X137668095Y-58936000D01*
X138001428Y-58888380D02*
X138239523Y-59888380D01*
X138430000Y-59174095D01*
X138620476Y-59888380D01*
X138858571Y-58888380D01*
X139668095Y-58888380D02*
X139477619Y-58888380D01*
X139382380Y-58936000D01*
X139334761Y-58983619D01*
X139239523Y-59126476D01*
X139191904Y-59316952D01*
X139191904Y-59697904D01*
X139239523Y-59793142D01*
X139287142Y-59840761D01*
X139382380Y-59888380D01*
X139572857Y-59888380D01*
X139668095Y-59840761D01*
X139715714Y-59793142D01*
X139763333Y-59697904D01*
X139763333Y-59459809D01*
X139715714Y-59364571D01*
X139668095Y-59316952D01*
X139572857Y-59269333D01*
X139382380Y-59269333D01*
X139287142Y-59316952D01*
X139239523Y-59364571D01*
X139191904Y-59459809D01*
X156146666Y-59840761D02*
X156289523Y-59888380D01*
X156527619Y-59888380D01*
X156622857Y-59840761D01*
X156670476Y-59793142D01*
X156718095Y-59697904D01*
X156718095Y-59602666D01*
X156670476Y-59507428D01*
X156622857Y-59459809D01*
X156527619Y-59412190D01*
X156337142Y-59364571D01*
X156241904Y-59316952D01*
X156194285Y-59269333D01*
X156146666Y-59174095D01*
X156146666Y-59078857D01*
X156194285Y-58983619D01*
X156241904Y-58936000D01*
X156337142Y-58888380D01*
X156575238Y-58888380D01*
X156718095Y-58936000D01*
X157051428Y-58888380D02*
X157289523Y-59888380D01*
X157480000Y-59174095D01*
X157670476Y-59888380D01*
X157908571Y-58888380D01*
X158194285Y-58888380D02*
X158860952Y-58888380D01*
X158432380Y-59888380D01*
X175196666Y-59840761D02*
X175339523Y-59888380D01*
X175577619Y-59888380D01*
X175672857Y-59840761D01*
X175720476Y-59793142D01*
X175768095Y-59697904D01*
X175768095Y-59602666D01*
X175720476Y-59507428D01*
X175672857Y-59459809D01*
X175577619Y-59412190D01*
X175387142Y-59364571D01*
X175291904Y-59316952D01*
X175244285Y-59269333D01*
X175196666Y-59174095D01*
X175196666Y-59078857D01*
X175244285Y-58983619D01*
X175291904Y-58936000D01*
X175387142Y-58888380D01*
X175625238Y-58888380D01*
X175768095Y-58936000D01*
X176101428Y-58888380D02*
X176339523Y-59888380D01*
X176530000Y-59174095D01*
X176720476Y-59888380D01*
X176958571Y-58888380D01*
X177482380Y-59316952D02*
X177387142Y-59269333D01*
X177339523Y-59221714D01*
X177291904Y-59126476D01*
X177291904Y-59078857D01*
X177339523Y-58983619D01*
X177387142Y-58936000D01*
X177482380Y-58888380D01*
X177672857Y-58888380D01*
X177768095Y-58936000D01*
X177815714Y-58983619D01*
X177863333Y-59078857D01*
X177863333Y-59126476D01*
X177815714Y-59221714D01*
X177768095Y-59269333D01*
X177672857Y-59316952D01*
X177482380Y-59316952D01*
X177387142Y-59364571D01*
X177339523Y-59412190D01*
X177291904Y-59507428D01*
X177291904Y-59697904D01*
X177339523Y-59793142D01*
X177387142Y-59840761D01*
X177482380Y-59888380D01*
X177672857Y-59888380D01*
X177768095Y-59840761D01*
X177815714Y-59793142D01*
X177863333Y-59697904D01*
X177863333Y-59507428D01*
X177815714Y-59412190D01*
X177768095Y-59364571D01*
X177672857Y-59316952D01*
X194246666Y-59840761D02*
X194389523Y-59888380D01*
X194627619Y-59888380D01*
X194722857Y-59840761D01*
X194770476Y-59793142D01*
X194818095Y-59697904D01*
X194818095Y-59602666D01*
X194770476Y-59507428D01*
X194722857Y-59459809D01*
X194627619Y-59412190D01*
X194437142Y-59364571D01*
X194341904Y-59316952D01*
X194294285Y-59269333D01*
X194246666Y-59174095D01*
X194246666Y-59078857D01*
X194294285Y-58983619D01*
X194341904Y-58936000D01*
X194437142Y-58888380D01*
X194675238Y-58888380D01*
X194818095Y-58936000D01*
X195151428Y-58888380D02*
X195389523Y-59888380D01*
X195580000Y-59174095D01*
X195770476Y-59888380D01*
X196008571Y-58888380D01*
X196437142Y-59888380D02*
X196627619Y-59888380D01*
X196722857Y-59840761D01*
X196770476Y-59793142D01*
X196865714Y-59650285D01*
X196913333Y-59459809D01*
X196913333Y-59078857D01*
X196865714Y-58983619D01*
X196818095Y-58936000D01*
X196722857Y-58888380D01*
X196532380Y-58888380D01*
X196437142Y-58936000D01*
X196389523Y-58983619D01*
X196341904Y-59078857D01*
X196341904Y-59316952D01*
X196389523Y-59412190D01*
X196437142Y-59459809D01*
X196532380Y-59507428D01*
X196722857Y-59507428D01*
X196818095Y-59459809D01*
X196865714Y-59412190D01*
X196913333Y-59316952D01*
X212820476Y-59840761D02*
X212963333Y-59888380D01*
X213201428Y-59888380D01*
X213296666Y-59840761D01*
X213344285Y-59793142D01*
X213391904Y-59697904D01*
X213391904Y-59602666D01*
X213344285Y-59507428D01*
X213296666Y-59459809D01*
X213201428Y-59412190D01*
X213010952Y-59364571D01*
X212915714Y-59316952D01*
X212868095Y-59269333D01*
X212820476Y-59174095D01*
X212820476Y-59078857D01*
X212868095Y-58983619D01*
X212915714Y-58936000D01*
X213010952Y-58888380D01*
X213249047Y-58888380D01*
X213391904Y-58936000D01*
X213725238Y-58888380D02*
X213963333Y-59888380D01*
X214153809Y-59174095D01*
X214344285Y-59888380D01*
X214582380Y-58888380D01*
X215487142Y-59888380D02*
X214915714Y-59888380D01*
X215201428Y-59888380D02*
X215201428Y-58888380D01*
X215106190Y-59031238D01*
X215010952Y-59126476D01*
X214915714Y-59174095D01*
X216106190Y-58888380D02*
X216201428Y-58888380D01*
X216296666Y-58936000D01*
X216344285Y-58983619D01*
X216391904Y-59078857D01*
X216439523Y-59269333D01*
X216439523Y-59507428D01*
X216391904Y-59697904D01*
X216344285Y-59793142D01*
X216296666Y-59840761D01*
X216201428Y-59888380D01*
X216106190Y-59888380D01*
X216010952Y-59840761D01*
X215963333Y-59793142D01*
X215915714Y-59697904D01*
X215868095Y-59507428D01*
X215868095Y-59269333D01*
X215915714Y-59078857D01*
X215963333Y-58983619D01*
X216010952Y-58936000D01*
X216106190Y-58888380D01*
X231870476Y-59840761D02*
X232013333Y-59888380D01*
X232251428Y-59888380D01*
X232346666Y-59840761D01*
X232394285Y-59793142D01*
X232441904Y-59697904D01*
X232441904Y-59602666D01*
X232394285Y-59507428D01*
X232346666Y-59459809D01*
X232251428Y-59412190D01*
X232060952Y-59364571D01*
X231965714Y-59316952D01*
X231918095Y-59269333D01*
X231870476Y-59174095D01*
X231870476Y-59078857D01*
X231918095Y-58983619D01*
X231965714Y-58936000D01*
X232060952Y-58888380D01*
X232299047Y-58888380D01*
X232441904Y-58936000D01*
X232775238Y-58888380D02*
X233013333Y-59888380D01*
X233203809Y-59174095D01*
X233394285Y-59888380D01*
X233632380Y-58888380D01*
X234537142Y-59888380D02*
X233965714Y-59888380D01*
X234251428Y-59888380D02*
X234251428Y-58888380D01*
X234156190Y-59031238D01*
X234060952Y-59126476D01*
X233965714Y-59174095D01*
X235489523Y-59888380D02*
X234918095Y-59888380D01*
X235203809Y-59888380D02*
X235203809Y-58888380D01*
X235108571Y-59031238D01*
X235013333Y-59126476D01*
X234918095Y-59174095D01*
X250920476Y-59840761D02*
X251063333Y-59888380D01*
X251301428Y-59888380D01*
X251396666Y-59840761D01*
X251444285Y-59793142D01*
X251491904Y-59697904D01*
X251491904Y-59602666D01*
X251444285Y-59507428D01*
X251396666Y-59459809D01*
X251301428Y-59412190D01*
X251110952Y-59364571D01*
X251015714Y-59316952D01*
X250968095Y-59269333D01*
X250920476Y-59174095D01*
X250920476Y-59078857D01*
X250968095Y-58983619D01*
X251015714Y-58936000D01*
X251110952Y-58888380D01*
X251349047Y-58888380D01*
X251491904Y-58936000D01*
X251825238Y-58888380D02*
X252063333Y-59888380D01*
X252253809Y-59174095D01*
X252444285Y-59888380D01*
X252682380Y-58888380D01*
X253587142Y-59888380D02*
X253015714Y-59888380D01*
X253301428Y-59888380D02*
X253301428Y-58888380D01*
X253206190Y-59031238D01*
X253110952Y-59126476D01*
X253015714Y-59174095D01*
X253968095Y-58983619D02*
X254015714Y-58936000D01*
X254110952Y-58888380D01*
X254349047Y-58888380D01*
X254444285Y-58936000D01*
X254491904Y-58983619D01*
X254539523Y-59078857D01*
X254539523Y-59174095D01*
X254491904Y-59316952D01*
X253920476Y-59888380D01*
X254539523Y-59888380D01*
X269970476Y-59840761D02*
X270113333Y-59888380D01*
X270351428Y-59888380D01*
X270446666Y-59840761D01*
X270494285Y-59793142D01*
X270541904Y-59697904D01*
X270541904Y-59602666D01*
X270494285Y-59507428D01*
X270446666Y-59459809D01*
X270351428Y-59412190D01*
X270160952Y-59364571D01*
X270065714Y-59316952D01*
X270018095Y-59269333D01*
X269970476Y-59174095D01*
X269970476Y-59078857D01*
X270018095Y-58983619D01*
X270065714Y-58936000D01*
X270160952Y-58888380D01*
X270399047Y-58888380D01*
X270541904Y-58936000D01*
X270875238Y-58888380D02*
X271113333Y-59888380D01*
X271303809Y-59174095D01*
X271494285Y-59888380D01*
X271732380Y-58888380D01*
X272637142Y-59888380D02*
X272065714Y-59888380D01*
X272351428Y-59888380D02*
X272351428Y-58888380D01*
X272256190Y-59031238D01*
X272160952Y-59126476D01*
X272065714Y-59174095D01*
X272970476Y-58888380D02*
X273589523Y-58888380D01*
X273256190Y-59269333D01*
X273399047Y-59269333D01*
X273494285Y-59316952D01*
X273541904Y-59364571D01*
X273589523Y-59459809D01*
X273589523Y-59697904D01*
X273541904Y-59793142D01*
X273494285Y-59840761D01*
X273399047Y-59888380D01*
X273113333Y-59888380D01*
X273018095Y-59840761D01*
X272970476Y-59793142D01*
X69945476Y-78890761D02*
X70088333Y-78938380D01*
X70326428Y-78938380D01*
X70421666Y-78890761D01*
X70469285Y-78843142D01*
X70516904Y-78747904D01*
X70516904Y-78652666D01*
X70469285Y-78557428D01*
X70421666Y-78509809D01*
X70326428Y-78462190D01*
X70135952Y-78414571D01*
X70040714Y-78366952D01*
X69993095Y-78319333D01*
X69945476Y-78224095D01*
X69945476Y-78128857D01*
X69993095Y-78033619D01*
X70040714Y-77986000D01*
X70135952Y-77938380D01*
X70374047Y-77938380D01*
X70516904Y-77986000D01*
X70850238Y-77938380D02*
X71088333Y-78938380D01*
X71278809Y-78224095D01*
X71469285Y-78938380D01*
X71707380Y-77938380D01*
X72612142Y-78938380D02*
X72040714Y-78938380D01*
X72326428Y-78938380D02*
X72326428Y-77938380D01*
X72231190Y-78081238D01*
X72135952Y-78176476D01*
X72040714Y-78224095D01*
X73469285Y-77938380D02*
X73278809Y-77938380D01*
X73183571Y-77986000D01*
X73135952Y-78033619D01*
X73040714Y-78176476D01*
X72993095Y-78366952D01*
X72993095Y-78747904D01*
X73040714Y-78843142D01*
X73088333Y-78890761D01*
X73183571Y-78938380D01*
X73374047Y-78938380D01*
X73469285Y-78890761D01*
X73516904Y-78843142D01*
X73564523Y-78747904D01*
X73564523Y-78509809D01*
X73516904Y-78414571D01*
X73469285Y-78366952D01*
X73374047Y-78319333D01*
X73183571Y-78319333D01*
X73088333Y-78366952D01*
X73040714Y-78414571D01*
X72993095Y-78509809D01*
X88995476Y-78890761D02*
X89138333Y-78938380D01*
X89376428Y-78938380D01*
X89471666Y-78890761D01*
X89519285Y-78843142D01*
X89566904Y-78747904D01*
X89566904Y-78652666D01*
X89519285Y-78557428D01*
X89471666Y-78509809D01*
X89376428Y-78462190D01*
X89185952Y-78414571D01*
X89090714Y-78366952D01*
X89043095Y-78319333D01*
X88995476Y-78224095D01*
X88995476Y-78128857D01*
X89043095Y-78033619D01*
X89090714Y-77986000D01*
X89185952Y-77938380D01*
X89424047Y-77938380D01*
X89566904Y-77986000D01*
X89900238Y-77938380D02*
X90138333Y-78938380D01*
X90328809Y-78224095D01*
X90519285Y-78938380D01*
X90757380Y-77938380D01*
X91662142Y-78938380D02*
X91090714Y-78938380D01*
X91376428Y-78938380D02*
X91376428Y-77938380D01*
X91281190Y-78081238D01*
X91185952Y-78176476D01*
X91090714Y-78224095D01*
X91995476Y-77938380D02*
X92662142Y-77938380D01*
X92233571Y-78938380D01*
X108045476Y-78890761D02*
X108188333Y-78938380D01*
X108426428Y-78938380D01*
X108521666Y-78890761D01*
X108569285Y-78843142D01*
X108616904Y-78747904D01*
X108616904Y-78652666D01*
X108569285Y-78557428D01*
X108521666Y-78509809D01*
X108426428Y-78462190D01*
X108235952Y-78414571D01*
X108140714Y-78366952D01*
X108093095Y-78319333D01*
X108045476Y-78224095D01*
X108045476Y-78128857D01*
X108093095Y-78033619D01*
X108140714Y-77986000D01*
X108235952Y-77938380D01*
X108474047Y-77938380D01*
X108616904Y-77986000D01*
X108950238Y-77938380D02*
X109188333Y-78938380D01*
X109378809Y-78224095D01*
X109569285Y-78938380D01*
X109807380Y-77938380D01*
X110712142Y-78938380D02*
X110140714Y-78938380D01*
X110426428Y-78938380D02*
X110426428Y-77938380D01*
X110331190Y-78081238D01*
X110235952Y-78176476D01*
X110140714Y-78224095D01*
X111283571Y-78366952D02*
X111188333Y-78319333D01*
X111140714Y-78271714D01*
X111093095Y-78176476D01*
X111093095Y-78128857D01*
X111140714Y-78033619D01*
X111188333Y-77986000D01*
X111283571Y-77938380D01*
X111474047Y-77938380D01*
X111569285Y-77986000D01*
X111616904Y-78033619D01*
X111664523Y-78128857D01*
X111664523Y-78176476D01*
X111616904Y-78271714D01*
X111569285Y-78319333D01*
X111474047Y-78366952D01*
X111283571Y-78366952D01*
X111188333Y-78414571D01*
X111140714Y-78462190D01*
X111093095Y-78557428D01*
X111093095Y-78747904D01*
X111140714Y-78843142D01*
X111188333Y-78890761D01*
X111283571Y-78938380D01*
X111474047Y-78938380D01*
X111569285Y-78890761D01*
X111616904Y-78843142D01*
X111664523Y-78747904D01*
X111664523Y-78557428D01*
X111616904Y-78462190D01*
X111569285Y-78414571D01*
X111474047Y-78366952D01*
X127095476Y-78890761D02*
X127238333Y-78938380D01*
X127476428Y-78938380D01*
X127571666Y-78890761D01*
X127619285Y-78843142D01*
X127666904Y-78747904D01*
X127666904Y-78652666D01*
X127619285Y-78557428D01*
X127571666Y-78509809D01*
X127476428Y-78462190D01*
X127285952Y-78414571D01*
X127190714Y-78366952D01*
X127143095Y-78319333D01*
X127095476Y-78224095D01*
X127095476Y-78128857D01*
X127143095Y-78033619D01*
X127190714Y-77986000D01*
X127285952Y-77938380D01*
X127524047Y-77938380D01*
X127666904Y-77986000D01*
X128000238Y-77938380D02*
X128238333Y-78938380D01*
X128428809Y-78224095D01*
X128619285Y-78938380D01*
X128857380Y-77938380D01*
X129762142Y-78938380D02*
X129190714Y-78938380D01*
X129476428Y-78938380D02*
X129476428Y-77938380D01*
X129381190Y-78081238D01*
X129285952Y-78176476D01*
X129190714Y-78224095D01*
X130238333Y-78938380D02*
X130428809Y-78938380D01*
X130524047Y-78890761D01*
X130571666Y-78843142D01*
X130666904Y-78700285D01*
X130714523Y-78509809D01*
X130714523Y-78128857D01*
X130666904Y-78033619D01*
X130619285Y-77986000D01*
X130524047Y-77938380D01*
X130333571Y-77938380D01*
X130238333Y-77986000D01*
X130190714Y-78033619D01*
X130143095Y-78128857D01*
X130143095Y-78366952D01*
X130190714Y-78462190D01*
X130238333Y-78509809D01*
X130333571Y-78557428D01*
X130524047Y-78557428D01*
X130619285Y-78509809D01*
X130666904Y-78462190D01*
X130714523Y-78366952D01*
X146145476Y-78890761D02*
X146288333Y-78938380D01*
X146526428Y-78938380D01*
X146621666Y-78890761D01*
X146669285Y-78843142D01*
X146716904Y-78747904D01*
X146716904Y-78652666D01*
X146669285Y-78557428D01*
X146621666Y-78509809D01*
X146526428Y-78462190D01*
X146335952Y-78414571D01*
X146240714Y-78366952D01*
X146193095Y-78319333D01*
X146145476Y-78224095D01*
X146145476Y-78128857D01*
X146193095Y-78033619D01*
X146240714Y-77986000D01*
X146335952Y-77938380D01*
X146574047Y-77938380D01*
X146716904Y-77986000D01*
X147050238Y-77938380D02*
X147288333Y-78938380D01*
X147478809Y-78224095D01*
X147669285Y-78938380D01*
X147907380Y-77938380D01*
X148240714Y-78033619D02*
X148288333Y-77986000D01*
X148383571Y-77938380D01*
X148621666Y-77938380D01*
X148716904Y-77986000D01*
X148764523Y-78033619D01*
X148812142Y-78128857D01*
X148812142Y-78224095D01*
X148764523Y-78366952D01*
X148193095Y-78938380D01*
X148812142Y-78938380D01*
X149431190Y-77938380D02*
X149526428Y-77938380D01*
X149621666Y-77986000D01*
X149669285Y-78033619D01*
X149716904Y-78128857D01*
X149764523Y-78319333D01*
X149764523Y-78557428D01*
X149716904Y-78747904D01*
X149669285Y-78843142D01*
X149621666Y-78890761D01*
X149526428Y-78938380D01*
X149431190Y-78938380D01*
X149335952Y-78890761D01*
X149288333Y-78843142D01*
X149240714Y-78747904D01*
X149193095Y-78557428D01*
X149193095Y-78319333D01*
X149240714Y-78128857D01*
X149288333Y-78033619D01*
X149335952Y-77986000D01*
X149431190Y-77938380D01*
X165195476Y-78890761D02*
X165338333Y-78938380D01*
X165576428Y-78938380D01*
X165671666Y-78890761D01*
X165719285Y-78843142D01*
X165766904Y-78747904D01*
X165766904Y-78652666D01*
X165719285Y-78557428D01*
X165671666Y-78509809D01*
X165576428Y-78462190D01*
X165385952Y-78414571D01*
X165290714Y-78366952D01*
X165243095Y-78319333D01*
X165195476Y-78224095D01*
X165195476Y-78128857D01*
X165243095Y-78033619D01*
X165290714Y-77986000D01*
X165385952Y-77938380D01*
X165624047Y-77938380D01*
X165766904Y-77986000D01*
X166100238Y-77938380D02*
X166338333Y-78938380D01*
X166528809Y-78224095D01*
X166719285Y-78938380D01*
X166957380Y-77938380D01*
X167290714Y-78033619D02*
X167338333Y-77986000D01*
X167433571Y-77938380D01*
X167671666Y-77938380D01*
X167766904Y-77986000D01*
X167814523Y-78033619D01*
X167862142Y-78128857D01*
X167862142Y-78224095D01*
X167814523Y-78366952D01*
X167243095Y-78938380D01*
X167862142Y-78938380D01*
X168814523Y-78938380D02*
X168243095Y-78938380D01*
X168528809Y-78938380D02*
X168528809Y-77938380D01*
X168433571Y-78081238D01*
X168338333Y-78176476D01*
X168243095Y-78224095D01*
X184245476Y-78890761D02*
X184388333Y-78938380D01*
X184626428Y-78938380D01*
X184721666Y-78890761D01*
X184769285Y-78843142D01*
X184816904Y-78747904D01*
X184816904Y-78652666D01*
X184769285Y-78557428D01*
X184721666Y-78509809D01*
X184626428Y-78462190D01*
X184435952Y-78414571D01*
X184340714Y-78366952D01*
X184293095Y-78319333D01*
X184245476Y-78224095D01*
X184245476Y-78128857D01*
X184293095Y-78033619D01*
X184340714Y-77986000D01*
X184435952Y-77938380D01*
X184674047Y-77938380D01*
X184816904Y-77986000D01*
X185150238Y-77938380D02*
X185388333Y-78938380D01*
X185578809Y-78224095D01*
X185769285Y-78938380D01*
X186007380Y-77938380D01*
X186340714Y-78033619D02*
X186388333Y-77986000D01*
X186483571Y-77938380D01*
X186721666Y-77938380D01*
X186816904Y-77986000D01*
X186864523Y-78033619D01*
X186912142Y-78128857D01*
X186912142Y-78224095D01*
X186864523Y-78366952D01*
X186293095Y-78938380D01*
X186912142Y-78938380D01*
X187293095Y-78033619D02*
X187340714Y-77986000D01*
X187435952Y-77938380D01*
X187674047Y-77938380D01*
X187769285Y-77986000D01*
X187816904Y-78033619D01*
X187864523Y-78128857D01*
X187864523Y-78224095D01*
X187816904Y-78366952D01*
X187245476Y-78938380D01*
X187864523Y-78938380D01*
X203295476Y-78890761D02*
X203438333Y-78938380D01*
X203676428Y-78938380D01*
X203771666Y-78890761D01*
X203819285Y-78843142D01*
X203866904Y-78747904D01*
X203866904Y-78652666D01*
X203819285Y-78557428D01*
X203771666Y-78509809D01*
X203676428Y-78462190D01*
X203485952Y-78414571D01*
X203390714Y-78366952D01*
X203343095Y-78319333D01*
X203295476Y-78224095D01*
X203295476Y-78128857D01*
X203343095Y-78033619D01*
X203390714Y-77986000D01*
X203485952Y-77938380D01*
X203724047Y-77938380D01*
X203866904Y-77986000D01*
X204200238Y-77938380D02*
X204438333Y-78938380D01*
X204628809Y-78224095D01*
X204819285Y-78938380D01*
X205057380Y-77938380D01*
X205390714Y-78033619D02*
X205438333Y-77986000D01*
X205533571Y-77938380D01*
X205771666Y-77938380D01*
X205866904Y-77986000D01*
X205914523Y-78033619D01*
X205962142Y-78128857D01*
X205962142Y-78224095D01*
X205914523Y-78366952D01*
X205343095Y-78938380D01*
X205962142Y-78938380D01*
X206295476Y-77938380D02*
X206914523Y-77938380D01*
X206581190Y-78319333D01*
X206724047Y-78319333D01*
X206819285Y-78366952D01*
X206866904Y-78414571D01*
X206914523Y-78509809D01*
X206914523Y-78747904D01*
X206866904Y-78843142D01*
X206819285Y-78890761D01*
X206724047Y-78938380D01*
X206438333Y-78938380D01*
X206343095Y-78890761D01*
X206295476Y-78843142D01*
X222345476Y-78890761D02*
X222488333Y-78938380D01*
X222726428Y-78938380D01*
X222821666Y-78890761D01*
X222869285Y-78843142D01*
X222916904Y-78747904D01*
X222916904Y-78652666D01*
X222869285Y-78557428D01*
X222821666Y-78509809D01*
X222726428Y-78462190D01*
X222535952Y-78414571D01*
X222440714Y-78366952D01*
X222393095Y-78319333D01*
X222345476Y-78224095D01*
X222345476Y-78128857D01*
X222393095Y-78033619D01*
X222440714Y-77986000D01*
X222535952Y-77938380D01*
X222774047Y-77938380D01*
X222916904Y-77986000D01*
X223250238Y-77938380D02*
X223488333Y-78938380D01*
X223678809Y-78224095D01*
X223869285Y-78938380D01*
X224107380Y-77938380D01*
X224440714Y-78033619D02*
X224488333Y-77986000D01*
X224583571Y-77938380D01*
X224821666Y-77938380D01*
X224916904Y-77986000D01*
X224964523Y-78033619D01*
X225012142Y-78128857D01*
X225012142Y-78224095D01*
X224964523Y-78366952D01*
X224393095Y-78938380D01*
X225012142Y-78938380D01*
X225869285Y-78271714D02*
X225869285Y-78938380D01*
X225631190Y-77890761D02*
X225393095Y-78605047D01*
X226012142Y-78605047D01*
X241395476Y-78890761D02*
X241538333Y-78938380D01*
X241776428Y-78938380D01*
X241871666Y-78890761D01*
X241919285Y-78843142D01*
X241966904Y-78747904D01*
X241966904Y-78652666D01*
X241919285Y-78557428D01*
X241871666Y-78509809D01*
X241776428Y-78462190D01*
X241585952Y-78414571D01*
X241490714Y-78366952D01*
X241443095Y-78319333D01*
X241395476Y-78224095D01*
X241395476Y-78128857D01*
X241443095Y-78033619D01*
X241490714Y-77986000D01*
X241585952Y-77938380D01*
X241824047Y-77938380D01*
X241966904Y-77986000D01*
X242300238Y-77938380D02*
X242538333Y-78938380D01*
X242728809Y-78224095D01*
X242919285Y-78938380D01*
X243157380Y-77938380D01*
X243490714Y-78033619D02*
X243538333Y-77986000D01*
X243633571Y-77938380D01*
X243871666Y-77938380D01*
X243966904Y-77986000D01*
X244014523Y-78033619D01*
X244062142Y-78128857D01*
X244062142Y-78224095D01*
X244014523Y-78366952D01*
X243443095Y-78938380D01*
X244062142Y-78938380D01*
X244966904Y-77938380D02*
X244490714Y-77938380D01*
X244443095Y-78414571D01*
X244490714Y-78366952D01*
X244585952Y-78319333D01*
X244824047Y-78319333D01*
X244919285Y-78366952D01*
X244966904Y-78414571D01*
X245014523Y-78509809D01*
X245014523Y-78747904D01*
X244966904Y-78843142D01*
X244919285Y-78890761D01*
X244824047Y-78938380D01*
X244585952Y-78938380D01*
X244490714Y-78890761D01*
X244443095Y-78843142D01*
X260445476Y-78890761D02*
X260588333Y-78938380D01*
X260826428Y-78938380D01*
X260921666Y-78890761D01*
X260969285Y-78843142D01*
X261016904Y-78747904D01*
X261016904Y-78652666D01*
X260969285Y-78557428D01*
X260921666Y-78509809D01*
X260826428Y-78462190D01*
X260635952Y-78414571D01*
X260540714Y-78366952D01*
X260493095Y-78319333D01*
X260445476Y-78224095D01*
X260445476Y-78128857D01*
X260493095Y-78033619D01*
X260540714Y-77986000D01*
X260635952Y-77938380D01*
X260874047Y-77938380D01*
X261016904Y-77986000D01*
X261350238Y-77938380D02*
X261588333Y-78938380D01*
X261778809Y-78224095D01*
X261969285Y-78938380D01*
X262207380Y-77938380D01*
X262540714Y-78033619D02*
X262588333Y-77986000D01*
X262683571Y-77938380D01*
X262921666Y-77938380D01*
X263016904Y-77986000D01*
X263064523Y-78033619D01*
X263112142Y-78128857D01*
X263112142Y-78224095D01*
X263064523Y-78366952D01*
X262493095Y-78938380D01*
X263112142Y-78938380D01*
X263969285Y-77938380D02*
X263778809Y-77938380D01*
X263683571Y-77986000D01*
X263635952Y-78033619D01*
X263540714Y-78176476D01*
X263493095Y-78366952D01*
X263493095Y-78747904D01*
X263540714Y-78843142D01*
X263588333Y-78890761D01*
X263683571Y-78938380D01*
X263874047Y-78938380D01*
X263969285Y-78890761D01*
X264016904Y-78843142D01*
X264064523Y-78747904D01*
X264064523Y-78509809D01*
X264016904Y-78414571D01*
X263969285Y-78366952D01*
X263874047Y-78319333D01*
X263683571Y-78319333D01*
X263588333Y-78366952D01*
X263540714Y-78414571D01*
X263493095Y-78509809D01*
X279495476Y-78890761D02*
X279638333Y-78938380D01*
X279876428Y-78938380D01*
X279971666Y-78890761D01*
X280019285Y-78843142D01*
X280066904Y-78747904D01*
X280066904Y-78652666D01*
X280019285Y-78557428D01*
X279971666Y-78509809D01*
X279876428Y-78462190D01*
X279685952Y-78414571D01*
X279590714Y-78366952D01*
X279543095Y-78319333D01*
X279495476Y-78224095D01*
X279495476Y-78128857D01*
X279543095Y-78033619D01*
X279590714Y-77986000D01*
X279685952Y-77938380D01*
X279924047Y-77938380D01*
X280066904Y-77986000D01*
X280400238Y-77938380D02*
X280638333Y-78938380D01*
X280828809Y-78224095D01*
X281019285Y-78938380D01*
X281257380Y-77938380D01*
X281590714Y-78033619D02*
X281638333Y-77986000D01*
X281733571Y-77938380D01*
X281971666Y-77938380D01*
X282066904Y-77986000D01*
X282114523Y-78033619D01*
X282162142Y-78128857D01*
X282162142Y-78224095D01*
X282114523Y-78366952D01*
X281543095Y-78938380D01*
X282162142Y-78938380D01*
X282495476Y-77938380D02*
X283162142Y-77938380D01*
X282733571Y-78938380D01*
X74707976Y-97940761D02*
X74850833Y-97988380D01*
X75088928Y-97988380D01*
X75184166Y-97940761D01*
X75231785Y-97893142D01*
X75279404Y-97797904D01*
X75279404Y-97702666D01*
X75231785Y-97607428D01*
X75184166Y-97559809D01*
X75088928Y-97512190D01*
X74898452Y-97464571D01*
X74803214Y-97416952D01*
X74755595Y-97369333D01*
X74707976Y-97274095D01*
X74707976Y-97178857D01*
X74755595Y-97083619D01*
X74803214Y-97036000D01*
X74898452Y-96988380D01*
X75136547Y-96988380D01*
X75279404Y-97036000D01*
X75612738Y-96988380D02*
X75850833Y-97988380D01*
X76041309Y-97274095D01*
X76231785Y-97988380D01*
X76469880Y-96988380D01*
X76755595Y-96988380D02*
X77374642Y-96988380D01*
X77041309Y-97369333D01*
X77184166Y-97369333D01*
X77279404Y-97416952D01*
X77327023Y-97464571D01*
X77374642Y-97559809D01*
X77374642Y-97797904D01*
X77327023Y-97893142D01*
X77279404Y-97940761D01*
X77184166Y-97988380D01*
X76898452Y-97988380D01*
X76803214Y-97940761D01*
X76755595Y-97893142D01*
X77993690Y-96988380D02*
X78088928Y-96988380D01*
X78184166Y-97036000D01*
X78231785Y-97083619D01*
X78279404Y-97178857D01*
X78327023Y-97369333D01*
X78327023Y-97607428D01*
X78279404Y-97797904D01*
X78231785Y-97893142D01*
X78184166Y-97940761D01*
X78088928Y-97988380D01*
X77993690Y-97988380D01*
X77898452Y-97940761D01*
X77850833Y-97893142D01*
X77803214Y-97797904D01*
X77755595Y-97607428D01*
X77755595Y-97369333D01*
X77803214Y-97178857D01*
X77850833Y-97083619D01*
X77898452Y-97036000D01*
X77993690Y-96988380D01*
X93757976Y-97940761D02*
X93900833Y-97988380D01*
X94138928Y-97988380D01*
X94234166Y-97940761D01*
X94281785Y-97893142D01*
X94329404Y-97797904D01*
X94329404Y-97702666D01*
X94281785Y-97607428D01*
X94234166Y-97559809D01*
X94138928Y-97512190D01*
X93948452Y-97464571D01*
X93853214Y-97416952D01*
X93805595Y-97369333D01*
X93757976Y-97274095D01*
X93757976Y-97178857D01*
X93805595Y-97083619D01*
X93853214Y-97036000D01*
X93948452Y-96988380D01*
X94186547Y-96988380D01*
X94329404Y-97036000D01*
X94662738Y-96988380D02*
X94900833Y-97988380D01*
X95091309Y-97274095D01*
X95281785Y-97988380D01*
X95519880Y-96988380D01*
X95805595Y-96988380D02*
X96424642Y-96988380D01*
X96091309Y-97369333D01*
X96234166Y-97369333D01*
X96329404Y-97416952D01*
X96377023Y-97464571D01*
X96424642Y-97559809D01*
X96424642Y-97797904D01*
X96377023Y-97893142D01*
X96329404Y-97940761D01*
X96234166Y-97988380D01*
X95948452Y-97988380D01*
X95853214Y-97940761D01*
X95805595Y-97893142D01*
X97377023Y-97988380D02*
X96805595Y-97988380D01*
X97091309Y-97988380D02*
X97091309Y-96988380D01*
X96996071Y-97131238D01*
X96900833Y-97226476D01*
X96805595Y-97274095D01*
X112808476Y-97940761D02*
X112951333Y-97988380D01*
X113189428Y-97988380D01*
X113284666Y-97940761D01*
X113332285Y-97893142D01*
X113379904Y-97797904D01*
X113379904Y-97702666D01*
X113332285Y-97607428D01*
X113284666Y-97559809D01*
X113189428Y-97512190D01*
X112998952Y-97464571D01*
X112903714Y-97416952D01*
X112856095Y-97369333D01*
X112808476Y-97274095D01*
X112808476Y-97178857D01*
X112856095Y-97083619D01*
X112903714Y-97036000D01*
X112998952Y-96988380D01*
X113237047Y-96988380D01*
X113379904Y-97036000D01*
X113713238Y-96988380D02*
X113951333Y-97988380D01*
X114141809Y-97274095D01*
X114332285Y-97988380D01*
X114570380Y-96988380D01*
X114856095Y-96988380D02*
X115475142Y-96988380D01*
X115141809Y-97369333D01*
X115284666Y-97369333D01*
X115379904Y-97416952D01*
X115427523Y-97464571D01*
X115475142Y-97559809D01*
X115475142Y-97797904D01*
X115427523Y-97893142D01*
X115379904Y-97940761D01*
X115284666Y-97988380D01*
X114998952Y-97988380D01*
X114903714Y-97940761D01*
X114856095Y-97893142D01*
X115856095Y-97083619D02*
X115903714Y-97036000D01*
X115998952Y-96988380D01*
X116237047Y-96988380D01*
X116332285Y-97036000D01*
X116379904Y-97083619D01*
X116427523Y-97178857D01*
X116427523Y-97274095D01*
X116379904Y-97416952D01*
X115808476Y-97988380D01*
X116427523Y-97988380D01*
X131858476Y-97940761D02*
X132001333Y-97988380D01*
X132239428Y-97988380D01*
X132334666Y-97940761D01*
X132382285Y-97893142D01*
X132429904Y-97797904D01*
X132429904Y-97702666D01*
X132382285Y-97607428D01*
X132334666Y-97559809D01*
X132239428Y-97512190D01*
X132048952Y-97464571D01*
X131953714Y-97416952D01*
X131906095Y-97369333D01*
X131858476Y-97274095D01*
X131858476Y-97178857D01*
X131906095Y-97083619D01*
X131953714Y-97036000D01*
X132048952Y-96988380D01*
X132287047Y-96988380D01*
X132429904Y-97036000D01*
X132763238Y-96988380D02*
X133001333Y-97988380D01*
X133191809Y-97274095D01*
X133382285Y-97988380D01*
X133620380Y-96988380D01*
X133906095Y-96988380D02*
X134525142Y-96988380D01*
X134191809Y-97369333D01*
X134334666Y-97369333D01*
X134429904Y-97416952D01*
X134477523Y-97464571D01*
X134525142Y-97559809D01*
X134525142Y-97797904D01*
X134477523Y-97893142D01*
X134429904Y-97940761D01*
X134334666Y-97988380D01*
X134048952Y-97988380D01*
X133953714Y-97940761D01*
X133906095Y-97893142D01*
X134858476Y-96988380D02*
X135477523Y-96988380D01*
X135144190Y-97369333D01*
X135287047Y-97369333D01*
X135382285Y-97416952D01*
X135429904Y-97464571D01*
X135477523Y-97559809D01*
X135477523Y-97797904D01*
X135429904Y-97893142D01*
X135382285Y-97940761D01*
X135287047Y-97988380D01*
X135001333Y-97988380D01*
X134906095Y-97940761D01*
X134858476Y-97893142D01*
X150908476Y-97940761D02*
X151051333Y-97988380D01*
X151289428Y-97988380D01*
X151384666Y-97940761D01*
X151432285Y-97893142D01*
X151479904Y-97797904D01*
X151479904Y-97702666D01*
X151432285Y-97607428D01*
X151384666Y-97559809D01*
X151289428Y-97512190D01*
X151098952Y-97464571D01*
X151003714Y-97416952D01*
X150956095Y-97369333D01*
X150908476Y-97274095D01*
X150908476Y-97178857D01*
X150956095Y-97083619D01*
X151003714Y-97036000D01*
X151098952Y-96988380D01*
X151337047Y-96988380D01*
X151479904Y-97036000D01*
X151813238Y-96988380D02*
X152051333Y-97988380D01*
X152241809Y-97274095D01*
X152432285Y-97988380D01*
X152670380Y-96988380D01*
X152956095Y-96988380D02*
X153575142Y-96988380D01*
X153241809Y-97369333D01*
X153384666Y-97369333D01*
X153479904Y-97416952D01*
X153527523Y-97464571D01*
X153575142Y-97559809D01*
X153575142Y-97797904D01*
X153527523Y-97893142D01*
X153479904Y-97940761D01*
X153384666Y-97988380D01*
X153098952Y-97988380D01*
X153003714Y-97940761D01*
X152956095Y-97893142D01*
X154432285Y-97321714D02*
X154432285Y-97988380D01*
X154194190Y-96940761D02*
X153956095Y-97655047D01*
X154575142Y-97655047D01*
X169958476Y-97940761D02*
X170101333Y-97988380D01*
X170339428Y-97988380D01*
X170434666Y-97940761D01*
X170482285Y-97893142D01*
X170529904Y-97797904D01*
X170529904Y-97702666D01*
X170482285Y-97607428D01*
X170434666Y-97559809D01*
X170339428Y-97512190D01*
X170148952Y-97464571D01*
X170053714Y-97416952D01*
X170006095Y-97369333D01*
X169958476Y-97274095D01*
X169958476Y-97178857D01*
X170006095Y-97083619D01*
X170053714Y-97036000D01*
X170148952Y-96988380D01*
X170387047Y-96988380D01*
X170529904Y-97036000D01*
X170863238Y-96988380D02*
X171101333Y-97988380D01*
X171291809Y-97274095D01*
X171482285Y-97988380D01*
X171720380Y-96988380D01*
X172006095Y-96988380D02*
X172625142Y-96988380D01*
X172291809Y-97369333D01*
X172434666Y-97369333D01*
X172529904Y-97416952D01*
X172577523Y-97464571D01*
X172625142Y-97559809D01*
X172625142Y-97797904D01*
X172577523Y-97893142D01*
X172529904Y-97940761D01*
X172434666Y-97988380D01*
X172148952Y-97988380D01*
X172053714Y-97940761D01*
X172006095Y-97893142D01*
X173529904Y-96988380D02*
X173053714Y-96988380D01*
X173006095Y-97464571D01*
X173053714Y-97416952D01*
X173148952Y-97369333D01*
X173387047Y-97369333D01*
X173482285Y-97416952D01*
X173529904Y-97464571D01*
X173577523Y-97559809D01*
X173577523Y-97797904D01*
X173529904Y-97893142D01*
X173482285Y-97940761D01*
X173387047Y-97988380D01*
X173148952Y-97988380D01*
X173053714Y-97940761D01*
X173006095Y-97893142D01*
X189008476Y-97940761D02*
X189151333Y-97988380D01*
X189389428Y-97988380D01*
X189484666Y-97940761D01*
X189532285Y-97893142D01*
X189579904Y-97797904D01*
X189579904Y-97702666D01*
X189532285Y-97607428D01*
X189484666Y-97559809D01*
X189389428Y-97512190D01*
X189198952Y-97464571D01*
X189103714Y-97416952D01*
X189056095Y-97369333D01*
X189008476Y-97274095D01*
X189008476Y-97178857D01*
X189056095Y-97083619D01*
X189103714Y-97036000D01*
X189198952Y-96988380D01*
X189437047Y-96988380D01*
X189579904Y-97036000D01*
X189913238Y-96988380D02*
X190151333Y-97988380D01*
X190341809Y-97274095D01*
X190532285Y-97988380D01*
X190770380Y-96988380D01*
X191056095Y-96988380D02*
X191675142Y-96988380D01*
X191341809Y-97369333D01*
X191484666Y-97369333D01*
X191579904Y-97416952D01*
X191627523Y-97464571D01*
X191675142Y-97559809D01*
X191675142Y-97797904D01*
X191627523Y-97893142D01*
X191579904Y-97940761D01*
X191484666Y-97988380D01*
X191198952Y-97988380D01*
X191103714Y-97940761D01*
X191056095Y-97893142D01*
X192532285Y-96988380D02*
X192341809Y-96988380D01*
X192246571Y-97036000D01*
X192198952Y-97083619D01*
X192103714Y-97226476D01*
X192056095Y-97416952D01*
X192056095Y-97797904D01*
X192103714Y-97893142D01*
X192151333Y-97940761D01*
X192246571Y-97988380D01*
X192437047Y-97988380D01*
X192532285Y-97940761D01*
X192579904Y-97893142D01*
X192627523Y-97797904D01*
X192627523Y-97559809D01*
X192579904Y-97464571D01*
X192532285Y-97416952D01*
X192437047Y-97369333D01*
X192246571Y-97369333D01*
X192151333Y-97416952D01*
X192103714Y-97464571D01*
X192056095Y-97559809D01*
X208058476Y-97940761D02*
X208201333Y-97988380D01*
X208439428Y-97988380D01*
X208534666Y-97940761D01*
X208582285Y-97893142D01*
X208629904Y-97797904D01*
X208629904Y-97702666D01*
X208582285Y-97607428D01*
X208534666Y-97559809D01*
X208439428Y-97512190D01*
X208248952Y-97464571D01*
X208153714Y-97416952D01*
X208106095Y-97369333D01*
X208058476Y-97274095D01*
X208058476Y-97178857D01*
X208106095Y-97083619D01*
X208153714Y-97036000D01*
X208248952Y-96988380D01*
X208487047Y-96988380D01*
X208629904Y-97036000D01*
X208963238Y-96988380D02*
X209201333Y-97988380D01*
X209391809Y-97274095D01*
X209582285Y-97988380D01*
X209820380Y-96988380D01*
X210106095Y-96988380D02*
X210725142Y-96988380D01*
X210391809Y-97369333D01*
X210534666Y-97369333D01*
X210629904Y-97416952D01*
X210677523Y-97464571D01*
X210725142Y-97559809D01*
X210725142Y-97797904D01*
X210677523Y-97893142D01*
X210629904Y-97940761D01*
X210534666Y-97988380D01*
X210248952Y-97988380D01*
X210153714Y-97940761D01*
X210106095Y-97893142D01*
X211058476Y-96988380D02*
X211725142Y-96988380D01*
X211296571Y-97988380D01*
X227108476Y-97940761D02*
X227251333Y-97988380D01*
X227489428Y-97988380D01*
X227584666Y-97940761D01*
X227632285Y-97893142D01*
X227679904Y-97797904D01*
X227679904Y-97702666D01*
X227632285Y-97607428D01*
X227584666Y-97559809D01*
X227489428Y-97512190D01*
X227298952Y-97464571D01*
X227203714Y-97416952D01*
X227156095Y-97369333D01*
X227108476Y-97274095D01*
X227108476Y-97178857D01*
X227156095Y-97083619D01*
X227203714Y-97036000D01*
X227298952Y-96988380D01*
X227537047Y-96988380D01*
X227679904Y-97036000D01*
X228013238Y-96988380D02*
X228251333Y-97988380D01*
X228441809Y-97274095D01*
X228632285Y-97988380D01*
X228870380Y-96988380D01*
X229156095Y-96988380D02*
X229775142Y-96988380D01*
X229441809Y-97369333D01*
X229584666Y-97369333D01*
X229679904Y-97416952D01*
X229727523Y-97464571D01*
X229775142Y-97559809D01*
X229775142Y-97797904D01*
X229727523Y-97893142D01*
X229679904Y-97940761D01*
X229584666Y-97988380D01*
X229298952Y-97988380D01*
X229203714Y-97940761D01*
X229156095Y-97893142D01*
X230346571Y-97416952D02*
X230251333Y-97369333D01*
X230203714Y-97321714D01*
X230156095Y-97226476D01*
X230156095Y-97178857D01*
X230203714Y-97083619D01*
X230251333Y-97036000D01*
X230346571Y-96988380D01*
X230537047Y-96988380D01*
X230632285Y-97036000D01*
X230679904Y-97083619D01*
X230727523Y-97178857D01*
X230727523Y-97226476D01*
X230679904Y-97321714D01*
X230632285Y-97369333D01*
X230537047Y-97416952D01*
X230346571Y-97416952D01*
X230251333Y-97464571D01*
X230203714Y-97512190D01*
X230156095Y-97607428D01*
X230156095Y-97797904D01*
X230203714Y-97893142D01*
X230251333Y-97940761D01*
X230346571Y-97988380D01*
X230537047Y-97988380D01*
X230632285Y-97940761D01*
X230679904Y-97893142D01*
X230727523Y-97797904D01*
X230727523Y-97607428D01*
X230679904Y-97512190D01*
X230632285Y-97464571D01*
X230537047Y-97416952D01*
X246158476Y-97940761D02*
X246301333Y-97988380D01*
X246539428Y-97988380D01*
X246634666Y-97940761D01*
X246682285Y-97893142D01*
X246729904Y-97797904D01*
X246729904Y-97702666D01*
X246682285Y-97607428D01*
X246634666Y-97559809D01*
X246539428Y-97512190D01*
X246348952Y-97464571D01*
X246253714Y-97416952D01*
X246206095Y-97369333D01*
X246158476Y-97274095D01*
X246158476Y-97178857D01*
X246206095Y-97083619D01*
X246253714Y-97036000D01*
X246348952Y-96988380D01*
X246587047Y-96988380D01*
X246729904Y-97036000D01*
X247063238Y-96988380D02*
X247301333Y-97988380D01*
X247491809Y-97274095D01*
X247682285Y-97988380D01*
X247920380Y-96988380D01*
X248206095Y-96988380D02*
X248825142Y-96988380D01*
X248491809Y-97369333D01*
X248634666Y-97369333D01*
X248729904Y-97416952D01*
X248777523Y-97464571D01*
X248825142Y-97559809D01*
X248825142Y-97797904D01*
X248777523Y-97893142D01*
X248729904Y-97940761D01*
X248634666Y-97988380D01*
X248348952Y-97988380D01*
X248253714Y-97940761D01*
X248206095Y-97893142D01*
X249301333Y-97988380D02*
X249491809Y-97988380D01*
X249587047Y-97940761D01*
X249634666Y-97893142D01*
X249729904Y-97750285D01*
X249777523Y-97559809D01*
X249777523Y-97178857D01*
X249729904Y-97083619D01*
X249682285Y-97036000D01*
X249587047Y-96988380D01*
X249396571Y-96988380D01*
X249301333Y-97036000D01*
X249253714Y-97083619D01*
X249206095Y-97178857D01*
X249206095Y-97416952D01*
X249253714Y-97512190D01*
X249301333Y-97559809D01*
X249396571Y-97607428D01*
X249587047Y-97607428D01*
X249682285Y-97559809D01*
X249729904Y-97512190D01*
X249777523Y-97416952D01*
X265208476Y-97940761D02*
X265351333Y-97988380D01*
X265589428Y-97988380D01*
X265684666Y-97940761D01*
X265732285Y-97893142D01*
X265779904Y-97797904D01*
X265779904Y-97702666D01*
X265732285Y-97607428D01*
X265684666Y-97559809D01*
X265589428Y-97512190D01*
X265398952Y-97464571D01*
X265303714Y-97416952D01*
X265256095Y-97369333D01*
X265208476Y-97274095D01*
X265208476Y-97178857D01*
X265256095Y-97083619D01*
X265303714Y-97036000D01*
X265398952Y-96988380D01*
X265637047Y-96988380D01*
X265779904Y-97036000D01*
X266113238Y-96988380D02*
X266351333Y-97988380D01*
X266541809Y-97274095D01*
X266732285Y-97988380D01*
X266970380Y-96988380D01*
X267779904Y-97321714D02*
X267779904Y-97988380D01*
X267541809Y-96940761D02*
X267303714Y-97655047D01*
X267922761Y-97655047D01*
X268494190Y-96988380D02*
X268589428Y-96988380D01*
X268684666Y-97036000D01*
X268732285Y-97083619D01*
X268779904Y-97178857D01*
X268827523Y-97369333D01*
X268827523Y-97607428D01*
X268779904Y-97797904D01*
X268732285Y-97893142D01*
X268684666Y-97940761D01*
X268589428Y-97988380D01*
X268494190Y-97988380D01*
X268398952Y-97940761D01*
X268351333Y-97893142D01*
X268303714Y-97797904D01*
X268256095Y-97607428D01*
X268256095Y-97369333D01*
X268303714Y-97178857D01*
X268351333Y-97083619D01*
X268398952Y-97036000D01*
X268494190Y-96988380D01*
X84232976Y-116990761D02*
X84375833Y-117038380D01*
X84613928Y-117038380D01*
X84709166Y-116990761D01*
X84756785Y-116943142D01*
X84804404Y-116847904D01*
X84804404Y-116752666D01*
X84756785Y-116657428D01*
X84709166Y-116609809D01*
X84613928Y-116562190D01*
X84423452Y-116514571D01*
X84328214Y-116466952D01*
X84280595Y-116419333D01*
X84232976Y-116324095D01*
X84232976Y-116228857D01*
X84280595Y-116133619D01*
X84328214Y-116086000D01*
X84423452Y-116038380D01*
X84661547Y-116038380D01*
X84804404Y-116086000D01*
X85137738Y-116038380D02*
X85375833Y-117038380D01*
X85566309Y-116324095D01*
X85756785Y-117038380D01*
X85994880Y-116038380D01*
X86804404Y-116371714D02*
X86804404Y-117038380D01*
X86566309Y-115990761D02*
X86328214Y-116705047D01*
X86947261Y-116705047D01*
X87232976Y-116038380D02*
X87852023Y-116038380D01*
X87518690Y-116419333D01*
X87661547Y-116419333D01*
X87756785Y-116466952D01*
X87804404Y-116514571D01*
X87852023Y-116609809D01*
X87852023Y-116847904D01*
X87804404Y-116943142D01*
X87756785Y-116990761D01*
X87661547Y-117038380D01*
X87375833Y-117038380D01*
X87280595Y-116990761D01*
X87232976Y-116943142D01*
X103282476Y-116990761D02*
X103425333Y-117038380D01*
X103663428Y-117038380D01*
X103758666Y-116990761D01*
X103806285Y-116943142D01*
X103853904Y-116847904D01*
X103853904Y-116752666D01*
X103806285Y-116657428D01*
X103758666Y-116609809D01*
X103663428Y-116562190D01*
X103472952Y-116514571D01*
X103377714Y-116466952D01*
X103330095Y-116419333D01*
X103282476Y-116324095D01*
X103282476Y-116228857D01*
X103330095Y-116133619D01*
X103377714Y-116086000D01*
X103472952Y-116038380D01*
X103711047Y-116038380D01*
X103853904Y-116086000D01*
X104187238Y-116038380D02*
X104425333Y-117038380D01*
X104615809Y-116324095D01*
X104806285Y-117038380D01*
X105044380Y-116038380D01*
X105853904Y-116371714D02*
X105853904Y-117038380D01*
X105615809Y-115990761D02*
X105377714Y-116705047D01*
X105996761Y-116705047D01*
X106806285Y-116371714D02*
X106806285Y-117038380D01*
X106568190Y-115990761D02*
X106330095Y-116705047D01*
X106949142Y-116705047D01*
X122332476Y-116990761D02*
X122475333Y-117038380D01*
X122713428Y-117038380D01*
X122808666Y-116990761D01*
X122856285Y-116943142D01*
X122903904Y-116847904D01*
X122903904Y-116752666D01*
X122856285Y-116657428D01*
X122808666Y-116609809D01*
X122713428Y-116562190D01*
X122522952Y-116514571D01*
X122427714Y-116466952D01*
X122380095Y-116419333D01*
X122332476Y-116324095D01*
X122332476Y-116228857D01*
X122380095Y-116133619D01*
X122427714Y-116086000D01*
X122522952Y-116038380D01*
X122761047Y-116038380D01*
X122903904Y-116086000D01*
X123237238Y-116038380D02*
X123475333Y-117038380D01*
X123665809Y-116324095D01*
X123856285Y-117038380D01*
X124094380Y-116038380D01*
X124903904Y-116371714D02*
X124903904Y-117038380D01*
X124665809Y-115990761D02*
X124427714Y-116705047D01*
X125046761Y-116705047D01*
X125903904Y-116038380D02*
X125427714Y-116038380D01*
X125380095Y-116514571D01*
X125427714Y-116466952D01*
X125522952Y-116419333D01*
X125761047Y-116419333D01*
X125856285Y-116466952D01*
X125903904Y-116514571D01*
X125951523Y-116609809D01*
X125951523Y-116847904D01*
X125903904Y-116943142D01*
X125856285Y-116990761D01*
X125761047Y-117038380D01*
X125522952Y-117038380D01*
X125427714Y-116990761D01*
X125380095Y-116943142D01*
X141382476Y-116990761D02*
X141525333Y-117038380D01*
X141763428Y-117038380D01*
X141858666Y-116990761D01*
X141906285Y-116943142D01*
X141953904Y-116847904D01*
X141953904Y-116752666D01*
X141906285Y-116657428D01*
X141858666Y-116609809D01*
X141763428Y-116562190D01*
X141572952Y-116514571D01*
X141477714Y-116466952D01*
X141430095Y-116419333D01*
X141382476Y-116324095D01*
X141382476Y-116228857D01*
X141430095Y-116133619D01*
X141477714Y-116086000D01*
X141572952Y-116038380D01*
X141811047Y-116038380D01*
X141953904Y-116086000D01*
X142287238Y-116038380D02*
X142525333Y-117038380D01*
X142715809Y-116324095D01*
X142906285Y-117038380D01*
X143144380Y-116038380D01*
X143953904Y-116371714D02*
X143953904Y-117038380D01*
X143715809Y-115990761D02*
X143477714Y-116705047D01*
X144096761Y-116705047D01*
X144906285Y-116038380D02*
X144715809Y-116038380D01*
X144620571Y-116086000D01*
X144572952Y-116133619D01*
X144477714Y-116276476D01*
X144430095Y-116466952D01*
X144430095Y-116847904D01*
X144477714Y-116943142D01*
X144525333Y-116990761D01*
X144620571Y-117038380D01*
X144811047Y-117038380D01*
X144906285Y-116990761D01*
X144953904Y-116943142D01*
X145001523Y-116847904D01*
X145001523Y-116609809D01*
X144953904Y-116514571D01*
X144906285Y-116466952D01*
X144811047Y-116419333D01*
X144620571Y-116419333D01*
X144525333Y-116466952D01*
X144477714Y-116514571D01*
X144430095Y-116609809D01*
X160432476Y-116990761D02*
X160575333Y-117038380D01*
X160813428Y-117038380D01*
X160908666Y-116990761D01*
X160956285Y-116943142D01*
X161003904Y-116847904D01*
X161003904Y-116752666D01*
X160956285Y-116657428D01*
X160908666Y-116609809D01*
X160813428Y-116562190D01*
X160622952Y-116514571D01*
X160527714Y-116466952D01*
X160480095Y-116419333D01*
X160432476Y-116324095D01*
X160432476Y-116228857D01*
X160480095Y-116133619D01*
X160527714Y-116086000D01*
X160622952Y-116038380D01*
X160861047Y-116038380D01*
X161003904Y-116086000D01*
X161337238Y-116038380D02*
X161575333Y-117038380D01*
X161765809Y-116324095D01*
X161956285Y-117038380D01*
X162194380Y-116038380D01*
X163003904Y-116371714D02*
X163003904Y-117038380D01*
X162765809Y-115990761D02*
X162527714Y-116705047D01*
X163146761Y-116705047D01*
X163432476Y-116038380D02*
X164099142Y-116038380D01*
X163670571Y-117038380D01*
X179482476Y-116990761D02*
X179625333Y-117038380D01*
X179863428Y-117038380D01*
X179958666Y-116990761D01*
X180006285Y-116943142D01*
X180053904Y-116847904D01*
X180053904Y-116752666D01*
X180006285Y-116657428D01*
X179958666Y-116609809D01*
X179863428Y-116562190D01*
X179672952Y-116514571D01*
X179577714Y-116466952D01*
X179530095Y-116419333D01*
X179482476Y-116324095D01*
X179482476Y-116228857D01*
X179530095Y-116133619D01*
X179577714Y-116086000D01*
X179672952Y-116038380D01*
X179911047Y-116038380D01*
X180053904Y-116086000D01*
X180387238Y-116038380D02*
X180625333Y-117038380D01*
X180815809Y-116324095D01*
X181006285Y-117038380D01*
X181244380Y-116038380D01*
X182053904Y-116371714D02*
X182053904Y-117038380D01*
X181815809Y-115990761D02*
X181577714Y-116705047D01*
X182196761Y-116705047D01*
X182720571Y-116466952D02*
X182625333Y-116419333D01*
X182577714Y-116371714D01*
X182530095Y-116276476D01*
X182530095Y-116228857D01*
X182577714Y-116133619D01*
X182625333Y-116086000D01*
X182720571Y-116038380D01*
X182911047Y-116038380D01*
X183006285Y-116086000D01*
X183053904Y-116133619D01*
X183101523Y-116228857D01*
X183101523Y-116276476D01*
X183053904Y-116371714D01*
X183006285Y-116419333D01*
X182911047Y-116466952D01*
X182720571Y-116466952D01*
X182625333Y-116514571D01*
X182577714Y-116562190D01*
X182530095Y-116657428D01*
X182530095Y-116847904D01*
X182577714Y-116943142D01*
X182625333Y-116990761D01*
X182720571Y-117038380D01*
X182911047Y-117038380D01*
X183006285Y-116990761D01*
X183053904Y-116943142D01*
X183101523Y-116847904D01*
X183101523Y-116657428D01*
X183053904Y-116562190D01*
X183006285Y-116514571D01*
X182911047Y-116466952D01*
X198532476Y-116990761D02*
X198675333Y-117038380D01*
X198913428Y-117038380D01*
X199008666Y-116990761D01*
X199056285Y-116943142D01*
X199103904Y-116847904D01*
X199103904Y-116752666D01*
X199056285Y-116657428D01*
X199008666Y-116609809D01*
X198913428Y-116562190D01*
X198722952Y-116514571D01*
X198627714Y-116466952D01*
X198580095Y-116419333D01*
X198532476Y-116324095D01*
X198532476Y-116228857D01*
X198580095Y-116133619D01*
X198627714Y-116086000D01*
X198722952Y-116038380D01*
X198961047Y-116038380D01*
X199103904Y-116086000D01*
X199437238Y-116038380D02*
X199675333Y-117038380D01*
X199865809Y-116324095D01*
X200056285Y-117038380D01*
X200294380Y-116038380D01*
X201103904Y-116371714D02*
X201103904Y-117038380D01*
X200865809Y-115990761D02*
X200627714Y-116705047D01*
X201246761Y-116705047D01*
X201675333Y-117038380D02*
X201865809Y-117038380D01*
X201961047Y-116990761D01*
X202008666Y-116943142D01*
X202103904Y-116800285D01*
X202151523Y-116609809D01*
X202151523Y-116228857D01*
X202103904Y-116133619D01*
X202056285Y-116086000D01*
X201961047Y-116038380D01*
X201770571Y-116038380D01*
X201675333Y-116086000D01*
X201627714Y-116133619D01*
X201580095Y-116228857D01*
X201580095Y-116466952D01*
X201627714Y-116562190D01*
X201675333Y-116609809D01*
X201770571Y-116657428D01*
X201961047Y-116657428D01*
X202056285Y-116609809D01*
X202103904Y-116562190D01*
X202151523Y-116466952D01*
X217582476Y-116990761D02*
X217725333Y-117038380D01*
X217963428Y-117038380D01*
X218058666Y-116990761D01*
X218106285Y-116943142D01*
X218153904Y-116847904D01*
X218153904Y-116752666D01*
X218106285Y-116657428D01*
X218058666Y-116609809D01*
X217963428Y-116562190D01*
X217772952Y-116514571D01*
X217677714Y-116466952D01*
X217630095Y-116419333D01*
X217582476Y-116324095D01*
X217582476Y-116228857D01*
X217630095Y-116133619D01*
X217677714Y-116086000D01*
X217772952Y-116038380D01*
X218011047Y-116038380D01*
X218153904Y-116086000D01*
X218487238Y-116038380D02*
X218725333Y-117038380D01*
X218915809Y-116324095D01*
X219106285Y-117038380D01*
X219344380Y-116038380D01*
X220201523Y-116038380D02*
X219725333Y-116038380D01*
X219677714Y-116514571D01*
X219725333Y-116466952D01*
X219820571Y-116419333D01*
X220058666Y-116419333D01*
X220153904Y-116466952D01*
X220201523Y-116514571D01*
X220249142Y-116609809D01*
X220249142Y-116847904D01*
X220201523Y-116943142D01*
X220153904Y-116990761D01*
X220058666Y-117038380D01*
X219820571Y-117038380D01*
X219725333Y-116990761D01*
X219677714Y-116943142D01*
X220868190Y-116038380D02*
X220963428Y-116038380D01*
X221058666Y-116086000D01*
X221106285Y-116133619D01*
X221153904Y-116228857D01*
X221201523Y-116419333D01*
X221201523Y-116657428D01*
X221153904Y-116847904D01*
X221106285Y-116943142D01*
X221058666Y-116990761D01*
X220963428Y-117038380D01*
X220868190Y-117038380D01*
X220772952Y-116990761D01*
X220725333Y-116943142D01*
X220677714Y-116847904D01*
X220630095Y-116657428D01*
X220630095Y-116419333D01*
X220677714Y-116228857D01*
X220725333Y-116133619D01*
X220772952Y-116086000D01*
X220868190Y-116038380D01*
X236632476Y-116990761D02*
X236775333Y-117038380D01*
X237013428Y-117038380D01*
X237108666Y-116990761D01*
X237156285Y-116943142D01*
X237203904Y-116847904D01*
X237203904Y-116752666D01*
X237156285Y-116657428D01*
X237108666Y-116609809D01*
X237013428Y-116562190D01*
X236822952Y-116514571D01*
X236727714Y-116466952D01*
X236680095Y-116419333D01*
X236632476Y-116324095D01*
X236632476Y-116228857D01*
X236680095Y-116133619D01*
X236727714Y-116086000D01*
X236822952Y-116038380D01*
X237061047Y-116038380D01*
X237203904Y-116086000D01*
X237537238Y-116038380D02*
X237775333Y-117038380D01*
X237965809Y-116324095D01*
X238156285Y-117038380D01*
X238394380Y-116038380D01*
X239251523Y-116038380D02*
X238775333Y-116038380D01*
X238727714Y-116514571D01*
X238775333Y-116466952D01*
X238870571Y-116419333D01*
X239108666Y-116419333D01*
X239203904Y-116466952D01*
X239251523Y-116514571D01*
X239299142Y-116609809D01*
X239299142Y-116847904D01*
X239251523Y-116943142D01*
X239203904Y-116990761D01*
X239108666Y-117038380D01*
X238870571Y-117038380D01*
X238775333Y-116990761D01*
X238727714Y-116943142D01*
X240251523Y-117038380D02*
X239680095Y-117038380D01*
X239965809Y-117038380D02*
X239965809Y-116038380D01*
X239870571Y-116181238D01*
X239775333Y-116276476D01*
X239680095Y-116324095D01*
X255682476Y-116990761D02*
X255825333Y-117038380D01*
X256063428Y-117038380D01*
X256158666Y-116990761D01*
X256206285Y-116943142D01*
X256253904Y-116847904D01*
X256253904Y-116752666D01*
X256206285Y-116657428D01*
X256158666Y-116609809D01*
X256063428Y-116562190D01*
X255872952Y-116514571D01*
X255777714Y-116466952D01*
X255730095Y-116419333D01*
X255682476Y-116324095D01*
X255682476Y-116228857D01*
X255730095Y-116133619D01*
X255777714Y-116086000D01*
X255872952Y-116038380D01*
X256111047Y-116038380D01*
X256253904Y-116086000D01*
X256587238Y-116038380D02*
X256825333Y-117038380D01*
X257015809Y-116324095D01*
X257206285Y-117038380D01*
X257444380Y-116038380D01*
X258301523Y-116038380D02*
X257825333Y-116038380D01*
X257777714Y-116514571D01*
X257825333Y-116466952D01*
X257920571Y-116419333D01*
X258158666Y-116419333D01*
X258253904Y-116466952D01*
X258301523Y-116514571D01*
X258349142Y-116609809D01*
X258349142Y-116847904D01*
X258301523Y-116943142D01*
X258253904Y-116990761D01*
X258158666Y-117038380D01*
X257920571Y-117038380D01*
X257825333Y-116990761D01*
X257777714Y-116943142D01*
X258730095Y-116133619D02*
X258777714Y-116086000D01*
X258872952Y-116038380D01*
X259111047Y-116038380D01*
X259206285Y-116086000D01*
X259253904Y-116133619D01*
X259301523Y-116228857D01*
X259301523Y-116324095D01*
X259253904Y-116466952D01*
X258682476Y-117038380D01*
X259301523Y-117038380D01*
X298545476Y-59840761D02*
X298688333Y-59888380D01*
X298926428Y-59888380D01*
X299021666Y-59840761D01*
X299069285Y-59793142D01*
X299116904Y-59697904D01*
X299116904Y-59602666D01*
X299069285Y-59507428D01*
X299021666Y-59459809D01*
X298926428Y-59412190D01*
X298735952Y-59364571D01*
X298640714Y-59316952D01*
X298593095Y-59269333D01*
X298545476Y-59174095D01*
X298545476Y-59078857D01*
X298593095Y-58983619D01*
X298640714Y-58936000D01*
X298735952Y-58888380D01*
X298974047Y-58888380D01*
X299116904Y-58936000D01*
X299450238Y-58888380D02*
X299688333Y-59888380D01*
X299878809Y-59174095D01*
X300069285Y-59888380D01*
X300307380Y-58888380D01*
X301212142Y-59888380D02*
X300640714Y-59888380D01*
X300926428Y-59888380D02*
X300926428Y-58888380D01*
X300831190Y-59031238D01*
X300735952Y-59126476D01*
X300640714Y-59174095D01*
X302069285Y-59221714D02*
X302069285Y-59888380D01*
X301831190Y-58840761D02*
X301593095Y-59555047D01*
X302212142Y-59555047D01*
X46132976Y-78890761D02*
X46275833Y-78938380D01*
X46513928Y-78938380D01*
X46609166Y-78890761D01*
X46656785Y-78843142D01*
X46704404Y-78747904D01*
X46704404Y-78652666D01*
X46656785Y-78557428D01*
X46609166Y-78509809D01*
X46513928Y-78462190D01*
X46323452Y-78414571D01*
X46228214Y-78366952D01*
X46180595Y-78319333D01*
X46132976Y-78224095D01*
X46132976Y-78128857D01*
X46180595Y-78033619D01*
X46228214Y-77986000D01*
X46323452Y-77938380D01*
X46561547Y-77938380D01*
X46704404Y-77986000D01*
X47037738Y-77938380D02*
X47275833Y-78938380D01*
X47466309Y-78224095D01*
X47656785Y-78938380D01*
X47894880Y-77938380D01*
X48799642Y-78938380D02*
X48228214Y-78938380D01*
X48513928Y-78938380D02*
X48513928Y-77938380D01*
X48418690Y-78081238D01*
X48323452Y-78176476D01*
X48228214Y-78224095D01*
X49704404Y-77938380D02*
X49228214Y-77938380D01*
X49180595Y-78414571D01*
X49228214Y-78366952D01*
X49323452Y-78319333D01*
X49561547Y-78319333D01*
X49656785Y-78366952D01*
X49704404Y-78414571D01*
X49752023Y-78509809D01*
X49752023Y-78747904D01*
X49704404Y-78843142D01*
X49656785Y-78890761D01*
X49561547Y-78938380D01*
X49323452Y-78938380D01*
X49228214Y-78890761D01*
X49180595Y-78843142D01*
X303308476Y-78890761D02*
X303451333Y-78938380D01*
X303689428Y-78938380D01*
X303784666Y-78890761D01*
X303832285Y-78843142D01*
X303879904Y-78747904D01*
X303879904Y-78652666D01*
X303832285Y-78557428D01*
X303784666Y-78509809D01*
X303689428Y-78462190D01*
X303498952Y-78414571D01*
X303403714Y-78366952D01*
X303356095Y-78319333D01*
X303308476Y-78224095D01*
X303308476Y-78128857D01*
X303356095Y-78033619D01*
X303403714Y-77986000D01*
X303498952Y-77938380D01*
X303737047Y-77938380D01*
X303879904Y-77986000D01*
X304213238Y-77938380D02*
X304451333Y-78938380D01*
X304641809Y-78224095D01*
X304832285Y-78938380D01*
X305070380Y-77938380D01*
X305403714Y-78033619D02*
X305451333Y-77986000D01*
X305546571Y-77938380D01*
X305784666Y-77938380D01*
X305879904Y-77986000D01*
X305927523Y-78033619D01*
X305975142Y-78128857D01*
X305975142Y-78224095D01*
X305927523Y-78366952D01*
X305356095Y-78938380D01*
X305975142Y-78938380D01*
X306546571Y-78366952D02*
X306451333Y-78319333D01*
X306403714Y-78271714D01*
X306356095Y-78176476D01*
X306356095Y-78128857D01*
X306403714Y-78033619D01*
X306451333Y-77986000D01*
X306546571Y-77938380D01*
X306737047Y-77938380D01*
X306832285Y-77986000D01*
X306879904Y-78033619D01*
X306927523Y-78128857D01*
X306927523Y-78176476D01*
X306879904Y-78271714D01*
X306832285Y-78319333D01*
X306737047Y-78366952D01*
X306546571Y-78366952D01*
X306451333Y-78414571D01*
X306403714Y-78462190D01*
X306356095Y-78557428D01*
X306356095Y-78747904D01*
X306403714Y-78843142D01*
X306451333Y-78890761D01*
X306546571Y-78938380D01*
X306737047Y-78938380D01*
X306832285Y-78890761D01*
X306879904Y-78843142D01*
X306927523Y-78747904D01*
X306927523Y-78557428D01*
X306879904Y-78462190D01*
X306832285Y-78414571D01*
X306737047Y-78366952D01*
X48514276Y-97940761D02*
X48657133Y-97988380D01*
X48895228Y-97988380D01*
X48990466Y-97940761D01*
X49038085Y-97893142D01*
X49085704Y-97797904D01*
X49085704Y-97702666D01*
X49038085Y-97607428D01*
X48990466Y-97559809D01*
X48895228Y-97512190D01*
X48704752Y-97464571D01*
X48609514Y-97416952D01*
X48561895Y-97369333D01*
X48514276Y-97274095D01*
X48514276Y-97178857D01*
X48561895Y-97083619D01*
X48609514Y-97036000D01*
X48704752Y-96988380D01*
X48942847Y-96988380D01*
X49085704Y-97036000D01*
X49419038Y-96988380D02*
X49657133Y-97988380D01*
X49847609Y-97274095D01*
X50038085Y-97988380D01*
X50276180Y-96988380D01*
X50609514Y-97083619D02*
X50657133Y-97036000D01*
X50752371Y-96988380D01*
X50990466Y-96988380D01*
X51085704Y-97036000D01*
X51133323Y-97083619D01*
X51180942Y-97178857D01*
X51180942Y-97274095D01*
X51133323Y-97416952D01*
X50561895Y-97988380D01*
X51180942Y-97988380D01*
X51657133Y-97988380D02*
X51847609Y-97988380D01*
X51942847Y-97940761D01*
X51990466Y-97893142D01*
X52085704Y-97750285D01*
X52133323Y-97559809D01*
X52133323Y-97178857D01*
X52085704Y-97083619D01*
X52038085Y-97036000D01*
X51942847Y-96988380D01*
X51752371Y-96988380D01*
X51657133Y-97036000D01*
X51609514Y-97083619D01*
X51561895Y-97178857D01*
X51561895Y-97416952D01*
X51609514Y-97512190D01*
X51657133Y-97559809D01*
X51752371Y-97607428D01*
X51942847Y-97607428D01*
X52038085Y-97559809D01*
X52085704Y-97512190D01*
X52133323Y-97416952D01*
X296164476Y-97940761D02*
X296307333Y-97988380D01*
X296545428Y-97988380D01*
X296640666Y-97940761D01*
X296688285Y-97893142D01*
X296735904Y-97797904D01*
X296735904Y-97702666D01*
X296688285Y-97607428D01*
X296640666Y-97559809D01*
X296545428Y-97512190D01*
X296354952Y-97464571D01*
X296259714Y-97416952D01*
X296212095Y-97369333D01*
X296164476Y-97274095D01*
X296164476Y-97178857D01*
X296212095Y-97083619D01*
X296259714Y-97036000D01*
X296354952Y-96988380D01*
X296593047Y-96988380D01*
X296735904Y-97036000D01*
X297069238Y-96988380D02*
X297307333Y-97988380D01*
X297497809Y-97274095D01*
X297688285Y-97988380D01*
X297926380Y-96988380D01*
X298735904Y-97321714D02*
X298735904Y-97988380D01*
X298497809Y-96940761D02*
X298259714Y-97655047D01*
X298878761Y-97655047D01*
X299783523Y-97988380D02*
X299212095Y-97988380D01*
X299497809Y-97988380D02*
X299497809Y-96988380D01*
X299402571Y-97131238D01*
X299307333Y-97226476D01*
X299212095Y-97274095D01*
X53276676Y-116990761D02*
X53419533Y-117038380D01*
X53657628Y-117038380D01*
X53752866Y-116990761D01*
X53800485Y-116943142D01*
X53848104Y-116847904D01*
X53848104Y-116752666D01*
X53800485Y-116657428D01*
X53752866Y-116609809D01*
X53657628Y-116562190D01*
X53467152Y-116514571D01*
X53371914Y-116466952D01*
X53324295Y-116419333D01*
X53276676Y-116324095D01*
X53276676Y-116228857D01*
X53324295Y-116133619D01*
X53371914Y-116086000D01*
X53467152Y-116038380D01*
X53705247Y-116038380D01*
X53848104Y-116086000D01*
X54181438Y-116038380D02*
X54419533Y-117038380D01*
X54610009Y-116324095D01*
X54800485Y-117038380D01*
X55038580Y-116038380D01*
X55848104Y-116371714D02*
X55848104Y-117038380D01*
X55610009Y-115990761D02*
X55371914Y-116705047D01*
X55990961Y-116705047D01*
X56324295Y-116133619D02*
X56371914Y-116086000D01*
X56467152Y-116038380D01*
X56705247Y-116038380D01*
X56800485Y-116086000D01*
X56848104Y-116133619D01*
X56895723Y-116228857D01*
X56895723Y-116324095D01*
X56848104Y-116466952D01*
X56276676Y-117038380D01*
X56895723Y-117038380D01*
X291401476Y-116990761D02*
X291544333Y-117038380D01*
X291782428Y-117038380D01*
X291877666Y-116990761D01*
X291925285Y-116943142D01*
X291972904Y-116847904D01*
X291972904Y-116752666D01*
X291925285Y-116657428D01*
X291877666Y-116609809D01*
X291782428Y-116562190D01*
X291591952Y-116514571D01*
X291496714Y-116466952D01*
X291449095Y-116419333D01*
X291401476Y-116324095D01*
X291401476Y-116228857D01*
X291449095Y-116133619D01*
X291496714Y-116086000D01*
X291591952Y-116038380D01*
X291830047Y-116038380D01*
X291972904Y-116086000D01*
X292306238Y-116038380D02*
X292544333Y-117038380D01*
X292734809Y-116324095D01*
X292925285Y-117038380D01*
X293163380Y-116038380D01*
X294020523Y-116038380D02*
X293544333Y-116038380D01*
X293496714Y-116514571D01*
X293544333Y-116466952D01*
X293639571Y-116419333D01*
X293877666Y-116419333D01*
X293972904Y-116466952D01*
X294020523Y-116514571D01*
X294068142Y-116609809D01*
X294068142Y-116847904D01*
X294020523Y-116943142D01*
X293972904Y-116990761D01*
X293877666Y-117038380D01*
X293639571Y-117038380D01*
X293544333Y-116990761D01*
X293496714Y-116943142D01*
X294401476Y-116038380D02*
X295020523Y-116038380D01*
X294687190Y-116419333D01*
X294830047Y-116419333D01*
X294925285Y-116466952D01*
X294972904Y-116514571D01*
X295020523Y-116609809D01*
X295020523Y-116847904D01*
X294972904Y-116943142D01*
X294925285Y-116990761D01*
X294830047Y-117038380D01*
X294544333Y-117038380D01*
X294449095Y-116990761D01*
X294401476Y-116943142D01*
X43751676Y-136040761D02*
X43894533Y-136088380D01*
X44132628Y-136088380D01*
X44227866Y-136040761D01*
X44275485Y-135993142D01*
X44323104Y-135897904D01*
X44323104Y-135802666D01*
X44275485Y-135707428D01*
X44227866Y-135659809D01*
X44132628Y-135612190D01*
X43942152Y-135564571D01*
X43846914Y-135516952D01*
X43799295Y-135469333D01*
X43751676Y-135374095D01*
X43751676Y-135278857D01*
X43799295Y-135183619D01*
X43846914Y-135136000D01*
X43942152Y-135088380D01*
X44180247Y-135088380D01*
X44323104Y-135136000D01*
X44656438Y-135088380D02*
X44894533Y-136088380D01*
X45085009Y-135374095D01*
X45275485Y-136088380D01*
X45513580Y-135088380D01*
X46370723Y-135088380D02*
X45894533Y-135088380D01*
X45846914Y-135564571D01*
X45894533Y-135516952D01*
X45989771Y-135469333D01*
X46227866Y-135469333D01*
X46323104Y-135516952D01*
X46370723Y-135564571D01*
X46418342Y-135659809D01*
X46418342Y-135897904D01*
X46370723Y-135993142D01*
X46323104Y-136040761D01*
X46227866Y-136088380D01*
X45989771Y-136088380D01*
X45894533Y-136040761D01*
X45846914Y-135993142D01*
X47275485Y-135421714D02*
X47275485Y-136088380D01*
X47037390Y-135040761D02*
X46799295Y-135755047D01*
X47418342Y-135755047D01*
X67564276Y-136040761D02*
X67707133Y-136088380D01*
X67945228Y-136088380D01*
X68040466Y-136040761D01*
X68088085Y-135993142D01*
X68135704Y-135897904D01*
X68135704Y-135802666D01*
X68088085Y-135707428D01*
X68040466Y-135659809D01*
X67945228Y-135612190D01*
X67754752Y-135564571D01*
X67659514Y-135516952D01*
X67611895Y-135469333D01*
X67564276Y-135374095D01*
X67564276Y-135278857D01*
X67611895Y-135183619D01*
X67659514Y-135136000D01*
X67754752Y-135088380D01*
X67992847Y-135088380D01*
X68135704Y-135136000D01*
X68469038Y-135088380D02*
X68707133Y-136088380D01*
X68897609Y-135374095D01*
X69088085Y-136088380D01*
X69326180Y-135088380D01*
X70183323Y-135088380D02*
X69707133Y-135088380D01*
X69659514Y-135564571D01*
X69707133Y-135516952D01*
X69802371Y-135469333D01*
X70040466Y-135469333D01*
X70135704Y-135516952D01*
X70183323Y-135564571D01*
X70230942Y-135659809D01*
X70230942Y-135897904D01*
X70183323Y-135993142D01*
X70135704Y-136040761D01*
X70040466Y-136088380D01*
X69802371Y-136088380D01*
X69707133Y-136040761D01*
X69659514Y-135993142D01*
X71135704Y-135088380D02*
X70659514Y-135088380D01*
X70611895Y-135564571D01*
X70659514Y-135516952D01*
X70754752Y-135469333D01*
X70992847Y-135469333D01*
X71088085Y-135516952D01*
X71135704Y-135564571D01*
X71183323Y-135659809D01*
X71183323Y-135897904D01*
X71135704Y-135993142D01*
X71088085Y-136040761D01*
X70992847Y-136088380D01*
X70754752Y-136088380D01*
X70659514Y-136040761D01*
X70611895Y-135993142D01*
X91376676Y-136040761D02*
X91519533Y-136088380D01*
X91757628Y-136088380D01*
X91852866Y-136040761D01*
X91900485Y-135993142D01*
X91948104Y-135897904D01*
X91948104Y-135802666D01*
X91900485Y-135707428D01*
X91852866Y-135659809D01*
X91757628Y-135612190D01*
X91567152Y-135564571D01*
X91471914Y-135516952D01*
X91424295Y-135469333D01*
X91376676Y-135374095D01*
X91376676Y-135278857D01*
X91424295Y-135183619D01*
X91471914Y-135136000D01*
X91567152Y-135088380D01*
X91805247Y-135088380D01*
X91948104Y-135136000D01*
X92281438Y-135088380D02*
X92519533Y-136088380D01*
X92710009Y-135374095D01*
X92900485Y-136088380D01*
X93138580Y-135088380D01*
X93995723Y-135088380D02*
X93519533Y-135088380D01*
X93471914Y-135564571D01*
X93519533Y-135516952D01*
X93614771Y-135469333D01*
X93852866Y-135469333D01*
X93948104Y-135516952D01*
X93995723Y-135564571D01*
X94043342Y-135659809D01*
X94043342Y-135897904D01*
X93995723Y-135993142D01*
X93948104Y-136040761D01*
X93852866Y-136088380D01*
X93614771Y-136088380D01*
X93519533Y-136040761D01*
X93471914Y-135993142D01*
X94900485Y-135088380D02*
X94710009Y-135088380D01*
X94614771Y-135136000D01*
X94567152Y-135183619D01*
X94471914Y-135326476D01*
X94424295Y-135516952D01*
X94424295Y-135897904D01*
X94471914Y-135993142D01*
X94519533Y-136040761D01*
X94614771Y-136088380D01*
X94805247Y-136088380D01*
X94900485Y-136040761D01*
X94948104Y-135993142D01*
X94995723Y-135897904D01*
X94995723Y-135659809D01*
X94948104Y-135564571D01*
X94900485Y-135516952D01*
X94805247Y-135469333D01*
X94614771Y-135469333D01*
X94519533Y-135516952D01*
X94471914Y-135564571D01*
X94424295Y-135659809D01*
X162814476Y-136040761D02*
X162957333Y-136088380D01*
X163195428Y-136088380D01*
X163290666Y-136040761D01*
X163338285Y-135993142D01*
X163385904Y-135897904D01*
X163385904Y-135802666D01*
X163338285Y-135707428D01*
X163290666Y-135659809D01*
X163195428Y-135612190D01*
X163004952Y-135564571D01*
X162909714Y-135516952D01*
X162862095Y-135469333D01*
X162814476Y-135374095D01*
X162814476Y-135278857D01*
X162862095Y-135183619D01*
X162909714Y-135136000D01*
X163004952Y-135088380D01*
X163243047Y-135088380D01*
X163385904Y-135136000D01*
X163719238Y-135088380D02*
X163957333Y-136088380D01*
X164147809Y-135374095D01*
X164338285Y-136088380D01*
X164576380Y-135088380D01*
X165433523Y-135088380D02*
X164957333Y-135088380D01*
X164909714Y-135564571D01*
X164957333Y-135516952D01*
X165052571Y-135469333D01*
X165290666Y-135469333D01*
X165385904Y-135516952D01*
X165433523Y-135564571D01*
X165481142Y-135659809D01*
X165481142Y-135897904D01*
X165433523Y-135993142D01*
X165385904Y-136040761D01*
X165290666Y-136088380D01*
X165052571Y-136088380D01*
X164957333Y-136040761D01*
X164909714Y-135993142D01*
X165814476Y-135088380D02*
X166481142Y-135088380D01*
X166052571Y-136088380D01*
X234251476Y-136040761D02*
X234394333Y-136088380D01*
X234632428Y-136088380D01*
X234727666Y-136040761D01*
X234775285Y-135993142D01*
X234822904Y-135897904D01*
X234822904Y-135802666D01*
X234775285Y-135707428D01*
X234727666Y-135659809D01*
X234632428Y-135612190D01*
X234441952Y-135564571D01*
X234346714Y-135516952D01*
X234299095Y-135469333D01*
X234251476Y-135374095D01*
X234251476Y-135278857D01*
X234299095Y-135183619D01*
X234346714Y-135136000D01*
X234441952Y-135088380D01*
X234680047Y-135088380D01*
X234822904Y-135136000D01*
X235156238Y-135088380D02*
X235394333Y-136088380D01*
X235584809Y-135374095D01*
X235775285Y-136088380D01*
X236013380Y-135088380D01*
X236870523Y-135088380D02*
X236394333Y-135088380D01*
X236346714Y-135564571D01*
X236394333Y-135516952D01*
X236489571Y-135469333D01*
X236727666Y-135469333D01*
X236822904Y-135516952D01*
X236870523Y-135564571D01*
X236918142Y-135659809D01*
X236918142Y-135897904D01*
X236870523Y-135993142D01*
X236822904Y-136040761D01*
X236727666Y-136088380D01*
X236489571Y-136088380D01*
X236394333Y-136040761D01*
X236346714Y-135993142D01*
X237489571Y-135516952D02*
X237394333Y-135469333D01*
X237346714Y-135421714D01*
X237299095Y-135326476D01*
X237299095Y-135278857D01*
X237346714Y-135183619D01*
X237394333Y-135136000D01*
X237489571Y-135088380D01*
X237680047Y-135088380D01*
X237775285Y-135136000D01*
X237822904Y-135183619D01*
X237870523Y-135278857D01*
X237870523Y-135326476D01*
X237822904Y-135421714D01*
X237775285Y-135469333D01*
X237680047Y-135516952D01*
X237489571Y-135516952D01*
X237394333Y-135564571D01*
X237346714Y-135612190D01*
X237299095Y-135707428D01*
X237299095Y-135897904D01*
X237346714Y-135993142D01*
X237394333Y-136040761D01*
X237489571Y-136088380D01*
X237680047Y-136088380D01*
X237775285Y-136040761D01*
X237822904Y-135993142D01*
X237870523Y-135897904D01*
X237870523Y-135707428D01*
X237822904Y-135612190D01*
X237775285Y-135564571D01*
X237680047Y-135516952D01*
X258064476Y-136040761D02*
X258207333Y-136088380D01*
X258445428Y-136088380D01*
X258540666Y-136040761D01*
X258588285Y-135993142D01*
X258635904Y-135897904D01*
X258635904Y-135802666D01*
X258588285Y-135707428D01*
X258540666Y-135659809D01*
X258445428Y-135612190D01*
X258254952Y-135564571D01*
X258159714Y-135516952D01*
X258112095Y-135469333D01*
X258064476Y-135374095D01*
X258064476Y-135278857D01*
X258112095Y-135183619D01*
X258159714Y-135136000D01*
X258254952Y-135088380D01*
X258493047Y-135088380D01*
X258635904Y-135136000D01*
X258969238Y-135088380D02*
X259207333Y-136088380D01*
X259397809Y-135374095D01*
X259588285Y-136088380D01*
X259826380Y-135088380D01*
X260683523Y-135088380D02*
X260207333Y-135088380D01*
X260159714Y-135564571D01*
X260207333Y-135516952D01*
X260302571Y-135469333D01*
X260540666Y-135469333D01*
X260635904Y-135516952D01*
X260683523Y-135564571D01*
X260731142Y-135659809D01*
X260731142Y-135897904D01*
X260683523Y-135993142D01*
X260635904Y-136040761D01*
X260540666Y-136088380D01*
X260302571Y-136088380D01*
X260207333Y-136040761D01*
X260159714Y-135993142D01*
X261207333Y-136088380D02*
X261397809Y-136088380D01*
X261493047Y-136040761D01*
X261540666Y-135993142D01*
X261635904Y-135850285D01*
X261683523Y-135659809D01*
X261683523Y-135278857D01*
X261635904Y-135183619D01*
X261588285Y-135136000D01*
X261493047Y-135088380D01*
X261302571Y-135088380D01*
X261207333Y-135136000D01*
X261159714Y-135183619D01*
X261112095Y-135278857D01*
X261112095Y-135516952D01*
X261159714Y-135612190D01*
X261207333Y-135659809D01*
X261302571Y-135707428D01*
X261493047Y-135707428D01*
X261588285Y-135659809D01*
X261635904Y-135612190D01*
X261683523Y-135516952D01*
X281876476Y-136040761D02*
X282019333Y-136088380D01*
X282257428Y-136088380D01*
X282352666Y-136040761D01*
X282400285Y-135993142D01*
X282447904Y-135897904D01*
X282447904Y-135802666D01*
X282400285Y-135707428D01*
X282352666Y-135659809D01*
X282257428Y-135612190D01*
X282066952Y-135564571D01*
X281971714Y-135516952D01*
X281924095Y-135469333D01*
X281876476Y-135374095D01*
X281876476Y-135278857D01*
X281924095Y-135183619D01*
X281971714Y-135136000D01*
X282066952Y-135088380D01*
X282305047Y-135088380D01*
X282447904Y-135136000D01*
X282781238Y-135088380D02*
X283019333Y-136088380D01*
X283209809Y-135374095D01*
X283400285Y-136088380D01*
X283638380Y-135088380D01*
X284447904Y-135088380D02*
X284257428Y-135088380D01*
X284162190Y-135136000D01*
X284114571Y-135183619D01*
X284019333Y-135326476D01*
X283971714Y-135516952D01*
X283971714Y-135897904D01*
X284019333Y-135993142D01*
X284066952Y-136040761D01*
X284162190Y-136088380D01*
X284352666Y-136088380D01*
X284447904Y-136040761D01*
X284495523Y-135993142D01*
X284543142Y-135897904D01*
X284543142Y-135659809D01*
X284495523Y-135564571D01*
X284447904Y-135516952D01*
X284352666Y-135469333D01*
X284162190Y-135469333D01*
X284066952Y-135516952D01*
X284019333Y-135564571D01*
X283971714Y-135659809D01*
X285162190Y-135088380D02*
X285257428Y-135088380D01*
X285352666Y-135136000D01*
X285400285Y-135183619D01*
X285447904Y-135278857D01*
X285495523Y-135469333D01*
X285495523Y-135707428D01*
X285447904Y-135897904D01*
X285400285Y-135993142D01*
X285352666Y-136040761D01*
X285257428Y-136088380D01*
X285162190Y-136088380D01*
X285066952Y-136040761D01*
X285019333Y-135993142D01*
X284971714Y-135897904D01*
X284924095Y-135707428D01*
X284924095Y-135469333D01*
X284971714Y-135278857D01*
X285019333Y-135183619D01*
X285066952Y-135136000D01*
X285162190Y-135088380D01*
X305689476Y-136040761D02*
X305832333Y-136088380D01*
X306070428Y-136088380D01*
X306165666Y-136040761D01*
X306213285Y-135993142D01*
X306260904Y-135897904D01*
X306260904Y-135802666D01*
X306213285Y-135707428D01*
X306165666Y-135659809D01*
X306070428Y-135612190D01*
X305879952Y-135564571D01*
X305784714Y-135516952D01*
X305737095Y-135469333D01*
X305689476Y-135374095D01*
X305689476Y-135278857D01*
X305737095Y-135183619D01*
X305784714Y-135136000D01*
X305879952Y-135088380D01*
X306118047Y-135088380D01*
X306260904Y-135136000D01*
X306594238Y-135088380D02*
X306832333Y-136088380D01*
X307022809Y-135374095D01*
X307213285Y-136088380D01*
X307451380Y-135088380D01*
X308260904Y-135088380D02*
X308070428Y-135088380D01*
X307975190Y-135136000D01*
X307927571Y-135183619D01*
X307832333Y-135326476D01*
X307784714Y-135516952D01*
X307784714Y-135897904D01*
X307832333Y-135993142D01*
X307879952Y-136040761D01*
X307975190Y-136088380D01*
X308165666Y-136088380D01*
X308260904Y-136040761D01*
X308308523Y-135993142D01*
X308356142Y-135897904D01*
X308356142Y-135659809D01*
X308308523Y-135564571D01*
X308260904Y-135516952D01*
X308165666Y-135469333D01*
X307975190Y-135469333D01*
X307879952Y-135516952D01*
X307832333Y-135564571D01*
X307784714Y-135659809D01*
X309308523Y-136088380D02*
X308737095Y-136088380D01*
X309022809Y-136088380D02*
X309022809Y-135088380D01*
X308927571Y-135231238D01*
X308832333Y-135326476D01*
X308737095Y-135374095D01*
X81002380Y-50558333D02*
X81716666Y-50558333D01*
X81859523Y-50605952D01*
X81954761Y-50701190D01*
X82002380Y-50844047D01*
X82002380Y-50939285D01*
X82002380Y-49558333D02*
X82002380Y-50129761D01*
X82002380Y-49844047D02*
X81002380Y-49844047D01*
X81145238Y-49939285D01*
X81240476Y-50034523D01*
X81288095Y-50129761D01*
M02*
