M48
;DRILL file {KiCad (5.0.1)-3} date 12/7/2018 7:46:03 PM
;FORMAT={-:-/ absolute / inch / decimal}
FMAT,2
INCH,TZ
T1C0.0130
T2C0.0315
T3C0.0394
T4C0.0591
%
G90
G05
M72
T1
X4.737Y-3.507
X8.4678Y-3.9451
X8.7258Y-3.0121
X9.5666Y-3.8134
X9.6912Y-3.8876
T2
X2.3Y-3.
X2.6Y-3.
X6.05Y-5.55
X6.05Y-5.85
X6.25Y-5.25
X6.55Y-5.25
X1.55Y-3.
X1.85Y-3.
X10.35Y-4.5
X10.65Y-4.5
X4.35Y-4.5
X4.65Y-4.5
X4.2Y-3.75
X4.5Y-3.75
X9.45Y-3.75
X9.75Y-3.75
X9.05Y-3.
X9.35Y-3.
X3.8Y-3.
X4.1Y-3.
X10.1Y-6.
X10.4Y-6.
X7.75Y-5.25
X8.05Y-5.25
X2.9Y-4.8
X2.9Y-5.1
X5.85Y-4.5
X6.15Y-4.5
X10.75Y-3.75
X11.05Y-3.75
X10.55Y-3.
X10.85Y-3.
X5.7Y-3.75
X6.Y-3.75
X5.3Y-3.
X5.6Y-3.
X11.95Y-6.
X12.25Y-6.
X9.25Y-5.25
X9.55Y-5.25
X1.65Y-6.
X1.95Y-6.
X3.95Y-5.25
X4.25Y-5.25
X8.1Y-4.5
X8.4Y-4.5
X2.Y-4.5
X2.3Y-4.5
X1.75Y-3.75
X2.05Y-3.75
X7.2Y-3.75
X7.5Y-3.75
X6.8Y-3.
X7.1Y-3.
X3.5Y-6.
X3.8Y-6.
X5.5Y-5.25
X5.8Y-5.25
X9.6Y-4.5
X9.9Y-4.5
X3.65Y-4.5
X3.95Y-4.5
X3.45Y-3.75
X3.75Y-3.75
X8.7Y-3.75
X9.Y-3.75
X8.3Y-3.
X8.6Y-3.
X3.05Y-3.
X3.35Y-3.
X9.15Y-6.
X9.45Y-6.
X7.Y-5.25
X7.3Y-5.25
X11.Y-4.05
X11.Y-4.35
X5.15Y-4.5
X5.45Y-4.5
X10.2Y-3.75
X10.5Y-3.75
X9.8Y-3.
X10.1Y-3.
X4.95Y-3.75
X5.25Y-3.75
X4.55Y-3.
X4.85Y-3.
X11.Y-6.
X11.3Y-6.
X8.7Y-5.25
X9.Y-5.25
X10.8Y-4.8
X10.8Y-5.1
X3.25Y-5.25
X3.55Y-5.25
X6.6Y-4.5
X6.9Y-4.5
X7.35Y-4.5
X7.65Y-4.5
X11.65Y-3.75
X11.95Y-3.75
X11.1Y-2.55
X11.1Y-2.85
X6.45Y-3.75
X6.75Y-3.75
X6.05Y-3.
X6.35Y-3.
X10.Y-5.25
X10.3Y-5.25
X2.6Y-6.
X2.9Y-6.
X4.8Y-5.25
X5.1Y-5.25
X8.85Y-4.5
X9.15Y-4.5
X2.9Y-4.5
X3.2Y-4.5
X2.7Y-3.75
X3.Y-3.75
X7.95Y-3.75
X8.25Y-3.75
X7.55Y-3.
X7.85Y-3.
T3
X3.3Y-2.15
X3.4Y-2.15
X3.5Y-2.15
X3.6Y-2.15
X3.7Y-2.15
X3.8Y-2.15
X3.9Y-2.15
X4.Y-2.15
X4.1Y-2.15
X4.2Y-2.15
X4.3Y-2.15
X4.4Y-2.15
X4.5Y-2.15
X4.6Y-2.15
X4.7Y-2.15
X4.8Y-2.15
T4
X4.55Y-2.55
X4.8Y-2.45
X9.2375Y-4.8
X9.4875Y-4.7
X3.9875Y-4.8
X4.2375Y-4.7
X6.425Y-3.3
X6.675Y-3.2
X5.1125Y-4.05
X5.3625Y-3.95
X6.05Y-2.55
X6.3Y-2.45
X10.175Y-3.3
X10.425Y-3.2
X5.4875Y-4.8
X5.7375Y-4.7
X2.675Y-3.3
X2.925Y-3.2
X6.6125Y-4.05
X6.8625Y-3.95
X7.55Y-2.55
X7.8Y-2.45
X11.9563Y-5.55
X12.2063Y-5.45
X3.5187Y-5.55
X3.7687Y-5.45
X2.3Y-2.55
X2.55Y-2.45
X6.9875Y-4.8
X7.2375Y-4.7
X4.175Y-3.3
X4.425Y-3.2
X8.1125Y-4.05
X8.3625Y-3.95
X9.05Y-2.55
X9.3Y-2.45
X2.8625Y-4.05
X3.1125Y-3.95
X11.0187Y-5.55
X11.2687Y-5.45
X7.925Y-3.3
X8.175Y-3.2
X3.8Y-2.55
X4.05Y-2.45
X8.4875Y-4.8
X8.7375Y-4.7
X3.2375Y-4.8
X3.4875Y-4.7
X5.675Y-3.3
X5.925Y-3.2
X9.6125Y-4.05
X9.8625Y-3.95
X11.3937Y-4.8
X11.6437Y-4.7
X1.8313Y-4.05
X2.0813Y-3.95
X10.55Y-2.55
X10.8Y-2.45
X4.3625Y-4.05
X4.6125Y-3.95
X11.5813Y-4.05
X11.8313Y-3.95
X5.3Y-2.55
X5.55Y-2.45
X9.425Y-3.3
X9.675Y-3.2
X10.0813Y-5.55
X10.3313Y-5.45
X9.9875Y-4.8
X10.2375Y-4.7
X4.7375Y-4.8
X4.9875Y-4.7
X7.175Y-3.3
X7.425Y-3.2
X5.8625Y-4.05
X6.1125Y-3.95
X6.8Y-2.55
X7.05Y-2.45
X10.925Y-3.3
X11.175Y-3.2
X9.1437Y-5.55
X9.3937Y-5.45
X1.55Y-2.55
X1.8Y-2.45
X1.7375Y-3.3
X1.9875Y-3.2
X6.2375Y-4.8
X6.4875Y-4.7
X10.3625Y-4.05
X10.6125Y-3.95
X3.425Y-3.3
X3.675Y-3.2
X7.3625Y-4.05
X7.6125Y-3.95
X8.3Y-2.55
X8.55Y-2.45
X6.3313Y-5.55
X6.5813Y-5.45
X3.05Y-2.55
X3.3Y-2.45
X11.675Y-2.55
X11.925Y-2.45
X7.7375Y-4.8
X7.9875Y-4.7
X4.925Y-3.3
X5.175Y-3.2
X8.8625Y-4.05
X9.1125Y-3.95
X1.6437Y-5.55
X1.8937Y-5.45
X11.8625Y-3.3
X12.1125Y-3.2
X9.8Y-2.55
X10.05Y-2.45
X3.6125Y-4.05
X3.8625Y-3.95
X2.0187Y-4.8
X2.2687Y-4.7
X2.5813Y-5.55
X2.8313Y-5.45
X8.675Y-3.3
X8.925Y-3.2
T0
M30
