M48
;DRILL file {KiCad (5.0.1)-3} date 12/7/2018 7:46:03 PM
;FORMAT={-:-/ absolute / inch / decimal}
FMAT,2
INCH,TZ
T1C0.0669
T2C0.1201
T3C0.1260
T4C0.1575
%
G90
G05
M72
T1
X6.Y-2.65
X6.4Y-2.65
X10.125Y-3.4
X10.525Y-3.4
X5.4375Y-4.9
X5.8375Y-4.9
X2.625Y-3.4
X3.025Y-3.4
X6.5625Y-4.15
X6.9625Y-4.15
X7.5Y-2.65
X7.9Y-2.65
X11.9063Y-5.65
X12.3063Y-5.65
X3.4687Y-5.65
X3.8687Y-5.65
X2.25Y-2.65
X2.65Y-2.65
X6.9375Y-4.9
X7.3375Y-4.9
X4.125Y-3.4
X4.525Y-3.4
X8.0625Y-4.15
X8.4625Y-4.15
X9.Y-2.65
X9.4Y-2.65
X2.8125Y-4.15
X3.2125Y-4.15
X10.9687Y-5.65
X11.3687Y-5.65
X7.875Y-3.4
X8.275Y-3.4
X3.75Y-2.65
X4.15Y-2.65
X8.4375Y-4.9
X8.8375Y-4.9
X3.1875Y-4.9
X3.5875Y-4.9
X5.625Y-3.4
X6.025Y-3.4
X9.5625Y-4.15
X9.9625Y-4.15
X11.3437Y-4.9
X11.7437Y-4.9
X1.7813Y-4.15
X2.1813Y-4.15
X10.5Y-2.65
X10.9Y-2.65
X4.3125Y-4.15
X4.7125Y-4.15
X11.5313Y-4.15
X11.9313Y-4.15
X5.25Y-2.65
X5.65Y-2.65
X9.375Y-3.4
X9.775Y-3.4
X10.0313Y-5.65
X10.4313Y-5.65
X9.9375Y-4.9
X10.3375Y-4.9
X4.6875Y-4.9
X5.0875Y-4.9
X7.125Y-3.4
X7.525Y-3.4
X5.8125Y-4.15
X6.2125Y-4.15
X6.75Y-2.65
X7.15Y-2.65
X10.875Y-3.4
X11.275Y-3.4
X9.0937Y-5.65
X9.4937Y-5.65
X1.5Y-2.65
X1.9Y-2.65
X1.6875Y-3.4
X2.0875Y-3.4
X6.1875Y-4.9
X6.5875Y-4.9
X10.3125Y-4.15
X10.7125Y-4.15
X3.375Y-3.4
X3.775Y-3.4
X7.3125Y-4.15
X7.7125Y-4.15
X8.25Y-2.65
X8.65Y-2.65
X6.2813Y-5.65
X6.6813Y-5.65
X3.Y-2.65
X3.4Y-2.65
X11.625Y-2.65
X12.025Y-2.65
X7.6875Y-4.9
X8.0875Y-4.9
X4.875Y-3.4
X5.275Y-3.4
X8.8125Y-4.15
X9.2125Y-4.15
X1.5937Y-5.65
X1.9937Y-5.65
X11.8125Y-3.4
X12.2125Y-3.4
X9.75Y-2.65
X10.15Y-2.65
X3.5625Y-4.15
X3.9625Y-4.15
X1.9687Y-4.9
X2.3687Y-4.9
X2.5313Y-5.65
X2.9313Y-5.65
X8.625Y-3.4
X9.025Y-3.4
X4.5Y-2.65
X4.9Y-2.65
X9.1875Y-4.9
X9.5875Y-4.9
X3.9375Y-4.9
X4.3375Y-4.9
X6.375Y-3.4
X6.775Y-3.4
X5.0625Y-4.15
X5.4625Y-4.15
T2
X11.0752Y-4.6244
X12.0122Y-4.6244
X11.2628Y-3.8744
X12.1998Y-3.8744
X4.5128Y-5.3744
X8.4498Y-5.3744
X11.3565Y-2.3744
X12.2935Y-2.3744
X1.7002Y-4.6244
X2.6373Y-4.6244
T3
X6.95Y-2.15
X12.7Y-6.15
X1.2Y-2.15
X6.95Y-6.15
X1.2Y-6.15
X12.7Y-2.15
T4
X11.2628Y-4.4744
X11.7313Y-4.15
X12.1998Y-4.4744
X5.45Y-2.65
X9.575Y-3.4
X10.2313Y-5.65
X10.1375Y-4.9
X4.8875Y-4.9
X7.325Y-3.4
X6.0125Y-4.15
X6.95Y-2.65
X11.075Y-3.4
X9.2937Y-5.65
X1.7Y-2.65
X1.8875Y-3.4
X6.3875Y-4.9
X10.5125Y-4.15
X3.575Y-3.4
X7.5125Y-4.15
X8.45Y-2.65
X4.5128Y-5.9744
X6.4813Y-5.65
X8.4498Y-5.9744
X3.2Y-2.65
X11.3565Y-2.9744
X11.825Y-2.65
X12.2935Y-2.9744
X7.8875Y-4.9
X5.075Y-3.4
X9.0125Y-4.15
X1.7937Y-5.65
X12.0125Y-3.4
X9.95Y-2.65
X3.7625Y-4.15
X1.7002Y-5.2244
X2.1687Y-4.9
X2.6373Y-5.2244
X2.7313Y-5.65
X8.825Y-3.4
X4.7Y-2.65
X9.3875Y-4.9
X4.1375Y-4.9
X6.575Y-3.4
X5.2625Y-4.15
X6.2Y-2.65
X10.325Y-3.4
X5.6375Y-4.9
X2.825Y-3.4
X6.7625Y-4.15
X7.7Y-2.65
X12.1063Y-5.65
X3.6687Y-5.65
X2.45Y-2.65
X7.1375Y-4.9
X4.325Y-3.4
X8.2625Y-4.15
X9.2Y-2.65
X3.0125Y-4.15
X11.1687Y-5.65
X8.075Y-3.4
X3.95Y-2.65
X8.6375Y-4.9
X3.3875Y-4.9
X5.825Y-3.4
X9.7625Y-4.15
X11.0752Y-5.2244
X11.5437Y-4.9
X12.0122Y-5.2244
X1.9813Y-4.15
X10.7Y-2.65
X4.5125Y-4.15
T0
M30
